<svg xmlns="http://www.w3.org/2000/svg"  viewBox="0 0 100 100" width="100px" height="100px" baseProfile="basic" fill="#f2f2f2"><circle cx="53" cy="53" r="44" opacity=".35"/><circle cx="51" cy="51" r="44" fill="#f2f2f2"/><path fill="#f2f2f2" d="M51,92c-22.607,0-41-18.393-41-41s18.393-41,41-41s41,18.393,41,41S73.607,92,51,92z"/><circle cx="51.026" cy="51.026" r="38.026" fill="#d9eeff"/><path fill="#707cc0" d="M73.308,80.516C69,85,63.235,89,51,89s-20-6-22-8.484C29,71.679,38.919,58,51.154,58 S73.308,71.679,73.308,80.516z"/><path fill="#40396e" d="M51,90c-21.505,0-39-17.495-39-39s17.495-39,39-39s39,17.495,39,39S72.505,90,51,90z M51,15 c-19.851,0-36,16.149-36,36s16.149,36,36,36s36-16.149,36-36S70.851,15,51,15z"/><path fill="#40396e" d="M73.308,80.516C69,85,63.235,89,51,89s-20-6-22-8.484C29,71.679,38.919,58,51.154,58 S73.308,71.679,73.308,80.516z" opacity=".35"/><path fill="#707cc0" d="M42.927,40.084C40.904,32.702,30,29,30,29s-3,12,1.067,20.64 C33.192,52.189,43.804,43.284,42.927,40.084z"/><path fill="#bd7bc8" d="M31.067,49.64c1.16,1.391,2.964,0.003,5.933-2.64c0-10-7-18-7-18S27,41,31.067,49.64z"/><path fill="#707cc0" d="M58.986,40.084C61.008,32.702,71.913,29,71.913,29s3,12-1.067,20.64 C68.721,52.189,58.109,43.284,58.986,40.084z"/><path fill="#bd7bc8" d="M70.845,49.64c-1.16,1.391-2.964,0.003-5.933-2.64c0-10,7-18,7-18S74.913,41,70.845,49.64z"/><path fill="#707cc0" d="M73,58c0,8.679-12.91,13.978-22.112,13.978C41.18,71.978,29,66.127,29,58c0-12.15,9.85-22,22-22 S73,45.85,73,58z"/><path fill="#ffc571" d="M46,55.919c0,0-4.193,1.949-6.954,0.614C36.284,55.197,36,51.081,36,51.081 s4.193-1.949,6.954-0.614C45.716,51.803,46,55.919,46,55.919z"/><ellipse cx="41.5" cy="53.5" fill="#40396e" rx="1.5" ry="3.5"/><path fill="#ffc571" d="M59.046,50.468C61.807,49.132,66,51.081,66,51.081s-0.284,4.115-3.046,5.451 C60.193,57.868,56,55.919,56,55.919S56.284,51.803,59.046,50.468z"/><ellipse cx="60.5" cy="53.5" fill="#40396e" rx="1.5" ry="3.5"/><path fill="#40396e" d="M51,62l-4-3l0.036-0.018c2.51-1.248,5.46-1.241,7.964,0.018l0,0L51,62z"/><path fill="#40396e" d="M55.059,64.615c-1.593,0-3.556-1.636-3.556-2.598l0.998-3.25l-3-0.01l0.987,3.26 c0,0.962-1.396,2.598-3.595,2.598c-2.848,0-3.893-2.598-3.893-2.598c0,2.616,2.128,4.744,4.744,4.744 c1.261,0,2.401-0.502,3.251-1.307c0.85,0.805,1.991,1.307,3.251,1.307c2.616,0,4.744-2.128,4.744-4.744 C58.991,62.017,58.348,64.615,55.059,64.615z" opacity=".35"/></svg>