<svg xmlns="http://www.w3.org/2000/svg"  viewBox="0 0 100 100" width="100px" height="100px"><path d="M 64.984375 11 A 1.0001 1.0001 0 0 0 64.292969 11.292969 L 26.292969 49.292969 A 1.0001 1.0001 0 0 0 26.292969 50.707031 L 64.292969 88.707031 A 1.0001 1.0001 0 0 0 65.707031 88.707031 L 73.707031 80.707031 A 1.0001 1.0001 0 0 0 73.707031 79.292969 L 44.414062 50 L 73.707031 20.707031 A 1.0001 1.0001 0 0 0 73.707031 19.292969 L 65.707031 11.292969 A 1.0001 1.0001 0 0 0 64.984375 11 z M 65 13.414062 L 71.585938 20 L 42.292969 49.292969 A 1.0001 1.0001 0 0 0 42.292969 50.707031 L 71.585938 80 L 65 86.585938 L 28.414062 50 L 65 13.414062 z M 61.990234 19.996094 A 0.50005 0.50005 0 0 0 61.646484 20.146484 L 45.146484 36.646484 A 0.50005 0.50005 0 1 0 45.853516 37.353516 L 62.353516 20.853516 A 0.50005 0.50005 0 0 0 61.990234 19.996094 z M 39.990234 41.996094 A 0.50005 0.50005 0 0 0 39.646484 42.146484 L 36.146484 45.646484 A 0.50005 0.50005 0 1 0 36.853516 46.353516 L 40.353516 42.853516 A 0.50005 0.50005 0 0 0 39.990234 41.996094 z M 33.990234 47.996094 A 0.50005 0.50005 0 0 0 33.646484 48.146484 L 32.146484 49.646484 A 0.50005 0.50005 0 1 0 32.853516 50.353516 L 34.353516 48.853516 A 0.50005 0.50005 0 0 0 33.990234 47.996094 z M 37.994141 54.994141 A 0.50005 0.50005 0 0 0 37.646484 55.853516 L 61.646484 79.853516 A 0.50005 0.50005 0 1 0 62.353516 79.146484 L 38.353516 55.146484 A 0.50005 0.50005 0 0 0 37.994141 54.994141 z"/></svg>