<?xml version="1.0"?><svg xmlns="http://www.w3.org/2000/svg"  viewBox="0 0 100 100" width="100px" height="100px">    <path d="M 30.574219 22.228516 C 25.611219 22.228516 21.574219 26.265516 21.574219 31.228516 L 21.574219 70.228516 C 21.574219 75.191516 25.611219 79.228516 30.574219 79.228516 L 69.574219 79.228516 C 74.537219 79.228516 78.574219 75.191516 78.574219 70.228516 L 78.574219 31.228516 C 78.574219 26.265516 74.537219 22.228516 69.574219 22.228516 L 30.574219 22.228516 z M 30.574219 24.228516 L 69.574219 24.228516 C 73.433219 24.228516 76.574219 27.369516 76.574219 31.228516 L 76.574219 70.228516 C 76.574219 74.087516 73.433219 77.228516 69.574219 77.228516 L 30.574219 77.228516 C 26.715219 77.228516 23.574219 74.087516 23.574219 70.228516 L 23.574219 31.228516 C 23.574219 27.369516 26.715219 24.228516 30.574219 24.228516 z M 29.074219 29.228516 C 28.798219 29.228516 28.574219 29.452516 28.574219 29.728516 L 28.574219 38.728516 C 28.574219 39.004516 28.798219 39.228516 29.074219 39.228516 C 29.350219 39.228516 29.574219 39.004516 29.574219 38.728516 L 29.574219 30.228516 L 70.574219 30.228516 L 70.574219 40.228516 L 36.074219 40.228516 C 35.798219 40.228516 35.574219 40.452516 35.574219 40.728516 C 35.574219 41.004516 35.798219 41.228516 36.074219 41.228516 L 71.074219 41.228516 C 71.350219 41.228516 71.574219 41.005516 71.574219 40.728516 L 71.574219 29.728516 C 71.574219 29.452516 71.350219 29.228516 71.074219 29.228516 L 29.074219 29.228516 z M 64.074219 31.853516 C 63.664219 31.853516 63.311578 32.000922 63.017578 32.294922 C 62.723578 32.588922 62.576172 32.941563 62.576172 33.351562 L 62.576172 37.105469 C 62.576172 37.516469 62.723578 37.868109 63.017578 38.162109 C 63.311578 38.456109 63.664219 38.603516 64.074219 38.603516 L 65.580078 38.603516 C 65.991078 38.603516 66.341719 38.454203 66.636719 38.158203 C 66.930719 37.861203 67.076172 37.511469 67.076172 37.105469 L 67.076172 33.351562 C 67.076172 32.942563 66.930719 32.591875 66.636719 32.296875 C 66.341719 32.000875 65.990078 31.853516 65.580078 31.853516 L 64.074219 31.853516 z M 64.826172 32.605469 C 65.215172 32.605469 65.461453 32.812609 65.564453 33.224609 L 64.074219 35.902344 L 64.074219 33.351562 C 64.074219 33.147563 64.149875 32.971219 64.296875 32.824219 C 64.443875 32.677219 64.620172 32.605469 64.826172 32.605469 z M 65.578125 34.556641 L 65.578125 37.105469 C 65.578125 37.307469 65.505375 37.480906 65.359375 37.628906 C 65.213375 37.776906 65.035172 37.851562 64.826172 37.851562 C 64.620172 37.851562 64.455031 37.799359 64.332031 37.693359 C 64.209031 37.587359 64.128797 37.429703 64.091797 37.220703 L 65.578125 34.556641 z M 32.074219 40.228516 C 31.798219 40.228516 31.574219 40.452516 31.574219 40.728516 C 31.574219 41.004516 31.798219 41.228516 32.074219 41.228516 L 34.074219 41.228516 C 34.350219 41.228516 34.574219 41.004516 34.574219 40.728516 C 34.574219 40.452516 34.350219 40.228516 34.074219 40.228516 L 32.074219 40.228516 z M 32.886719 45.228516 C 30.509719 45.228516 28.574219 47.162062 28.574219 49.539062 L 28.574219 67.916016 C 28.574219 70.293016 30.509719 72.228516 32.886719 72.228516 L 67.263672 72.228516 C 69.640672 72.228516 71.574219 70.294969 71.574219 67.917969 L 71.574219 49.539062 C 71.574219 47.162062 69.640672 45.228516 67.263672 45.228516 L 32.886719 45.228516 z M 32.886719 46.228516 L 49.574219 46.228516 L 49.574219 58.228516 L 29.574219 58.228516 L 29.574219 49.539062 C 29.574219 47.712062 31.060719 46.228516 32.886719 46.228516 z M 50.574219 46.228516 L 67.263672 46.228516 C 69.090672 46.228516 70.574219 47.713062 70.574219 49.539062 L 70.574219 58.228516 L 50.574219 58.228516 L 50.574219 46.228516 z M 61.074219 48.201172 C 60.798219 48.201172 60.574219 48.425172 60.574219 48.701172 L 60.574219 51.228516 L 58.074219 51.228516 C 57.798219 51.228516 57.574219 51.452516 57.574219 51.728516 C 57.574219 52.004516 57.798219 52.228516 58.074219 52.228516 L 60.574219 52.228516 L 60.574219 54.728516 C 60.574219 55.004516 60.798219 55.228516 61.074219 55.228516 C 61.350219 55.228516 61.574219 55.005516 61.574219 54.728516 L 61.574219 52.228516 L 64.074219 52.228516 C 64.350219 52.228516 64.574219 52.004516 64.574219 51.728516 C 64.574219 51.452516 64.350219 51.228516 64.074219 51.228516 L 61.574219 51.228516 L 61.574219 48.701172 C 61.574219 48.425172 61.350219 48.201172 61.074219 48.201172 z M 37.074219 51.228516 C 36.798219 51.228516 36.574219 51.452516 36.574219 51.728516 C 36.574219 52.004516 36.798219 52.228516 37.074219 52.228516 L 43.074219 52.228516 C 43.350219 52.228516 43.574219 52.004516 43.574219 51.728516 C 43.574219 51.452516 43.350219 51.228516 43.074219 51.228516 L 37.074219 51.228516 z M 29.574219 59.228516 L 49.574219 59.228516 L 49.574219 64.728516 C 49.574219 65.004516 49.798219 65.228516 50.074219 65.228516 C 50.350219 65.228516 50.574219 65.005516 50.574219 64.728516 L 50.574219 59.228516 L 70.574219 59.228516 L 70.574219 67.917969 C 70.574219 69.744969 69.089672 71.228516 67.263672 71.228516 L 50.574219 71.228516 L 50.574219 68.728516 C 50.574219 68.452516 50.350219 68.228516 50.074219 68.228516 C 49.798219 68.228516 49.574219 68.452516 49.574219 68.728516 L 49.574219 71.228516 L 32.886719 71.228516 C 31.059719 71.228516 29.574219 69.743969 29.574219 67.917969 L 29.574219 59.228516 z M 37.677734 62.224609 C 37.549734 62.224609 37.421719 62.273594 37.324219 62.371094 C 37.129219 62.566094 37.129219 62.883125 37.324219 63.078125 L 39.224609 64.978516 L 37.324219 66.878906 C 37.129219 67.073906 37.129219 67.390938 37.324219 67.585938 C 37.422219 67.682937 37.551687 67.732422 37.679688 67.732422 C 37.807687 67.732422 37.93425 67.682938 38.03125 67.585938 L 39.931641 65.685547 L 41.832031 67.585938 C 41.930031 67.682937 42.0595 67.732422 42.1875 67.732422 C 42.3155 67.732422 42.442062 67.682938 42.539062 67.585938 C 42.734062 67.390938 42.734063 67.073906 42.539062 66.878906 L 40.638672 64.978516 L 42.539062 63.078125 C 42.734063 62.883125 42.734063 62.566094 42.539062 62.371094 C 42.344062 62.176094 42.027031 62.176094 41.832031 62.371094 L 39.931641 64.271484 L 38.03125 62.371094 C 37.93375 62.273594 37.805734 62.224609 37.677734 62.224609 z M 58.074219 63.228516 C 57.798219 63.228516 57.574219 63.452516 57.574219 63.728516 C 57.574219 64.004516 57.798219 64.228516 58.074219 64.228516 L 63.074219 64.228516 C 63.350219 64.228516 63.574219 64.004516 63.574219 63.728516 C 63.574219 63.452516 63.350219 63.228516 63.074219 63.228516 L 58.074219 63.228516 z M 58.074219 66.228516 C 57.798219 66.228516 57.574219 66.452516 57.574219 66.728516 C 57.574219 67.004516 57.798219 67.228516 58.074219 67.228516 L 63.074219 67.228516 C 63.350219 67.228516 63.574219 67.004516 63.574219 66.728516 C 63.574219 66.452516 63.350219 66.228516 63.074219 66.228516 L 58.074219 66.228516 z"/></svg>