<svg xmlns="http://www.w3.org/2000/svg"  viewBox="0 0 100 100" width="100px" height="100px"><path d="M 50 14 C 30.129594 14 14 30.129594 14 50 C 14 69.870406 30.129594 86 50 86 C 69.870406 86 86 69.870406 86 50 C 86 30.129594 69.870406 14 50 14 z M 50 16 C 68.789526 16 84 31.210474 84 50 C 84 68.789526 68.789526 84 50 84 C 31.210474 84 16 68.789526 16 50 C 16 31.210474 31.210474 16 50 16 z M 50 19 C 32.884791 19 19 32.884791 19 50 C 19 67.115209 32.884791 81 50 81 C 67.115209 81 81 67.115209 81 50 C 81 40.904382 77.079076 32.716819 70.835938 27.046875 A 0.50005 0.50005 0 1 0 70.164062 27.787109 C 76.206924 33.275165 80 41.191618 80 50 C 80 66.574791 66.574791 80 50 80 C 33.425209 80 20 66.574791 20 50 C 20 33.425209 33.425209 20 50 20 C 53.630741 20 57.108062 20.645941 60.328125 21.826172 A 0.50018397 0.50018397 0 1 0 60.671875 20.886719 C 57.343938 19.66695 53.749259 19 50 19 z M 63.480469 22.140625 A 0.50005 0.50005 0 0 0 63.277344 23.091797 C 63.947092 23.423229 64.604492 23.779343 65.246094 24.158203 A 0.50005 0.50005 0 1 0 65.753906 23.296875 C 65.091508 22.905735 64.414908 22.53788 63.722656 22.195312 A 0.50005 0.50005 0 0 0 63.480469 22.140625 z M 67.507812 24.511719 A 0.50005 0.50005 0 0 0 67.457031 24.513672 A 0.50005 0.50005 0 0 0 67.212891 25.425781 C 67.545583 25.65906 67.873213 25.899999 68.195312 26.146484 A 0.50080937 0.50080937 0 1 0 68.804688 25.351562 C 68.470787 25.096048 68.130417 24.848143 67.787109 24.607422 A 0.50005 0.50005 0 0 0 67.507812 24.511719 z M 38 36 C 37.489264 36 36.974666 36.197209 36.585938 36.585938 C 35.808191 37.362356 35.808191 38.637643 36.585938 39.414062 L 47.171875 50 L 36.585938 60.585938 C 35.808839 61.36171 35.808227 62.635506 36.583984 63.412109 C 36.583984 63.412109 36.585938 63.412109 36.585938 63.412109 C 36.585938 63.412109 36.585938 63.414062 36.585938 63.414062 C 36.974476 63.802815 37.490114 64 38 64 C 38.510736 64 39.025334 63.802792 39.414062 63.414062 L 50 52.828125 L 60.583984 63.412109 C 60.972749 63.802201 61.489264 64 62 64 C 62.510736 64 63.025334 63.802792 63.414062 63.414062 C 64.19181 62.637644 64.19181 61.362356 63.414062 60.585938 L 52.828125 50 L 63.414062 39.414062 C 64.19135 38.638101 64.190433 37.364441 63.414062 36.587891 C 63.025937 36.197107 62.510736 36 62 36 C 61.489264 36 60.974666 36.197209 60.585938 36.585938 L 50 47.171875 L 39.414062 36.585938 C 39.025334 36.197209 38.510736 36 38 36 z M 38 37 C 38.257264 37 38.50976 37.0957 38.707031 37.292969 L 50 48.585938 L 61.292969 37.292969 C 61.49024 37.095698 61.742736 37 62 37 C 62.257264 37 62.509204 37.09575 62.705078 37.292969 L 62.707031 37.292969 C 63.101284 37.686549 63.101284 38.313451 62.707031 38.707031 L 51.414062 50 L 51.767578 50.353516 L 62.707031 61.292969 C 63.101284 61.686549 63.101284 62.313451 62.707031 62.707031 C 62.50976 62.904302 62.257264 63 62 63 C 61.742736 63 61.490204 62.90494 61.292969 62.707031 L 50 51.414062 L 38.707031 62.707031 C 38.50976 62.904302 38.257264 63 38 63 C 37.742736 63 37.490204 62.90494 37.292969 62.707031 C 36.898716 62.313451 36.898716 61.686549 37.292969 61.292969 L 48.585938 50 L 37.292969 38.707031 C 36.898716 38.313451 36.898716 37.686549 37.292969 37.292969 C 37.49024 37.095698 37.742736 37 38 37 z"/></svg>