<svg xmlns="http://www.w3.org/2000/svg"  viewBox="0 0 100 100" width="100px" height="100px"><path d="M 50 14 C 30.129594 14 14 30.129594 14 50 C 14 69.870406 30.129594 86 50 86 C 69.870406 86 86 69.870406 86 50 C 86 30.129594 69.870406 14 50 14 z M 50 16 C 68.789526 16 84 31.210474 84 50 C 84 68.789526 68.789526 84 50 84 C 31.210474 84 16 68.789526 16 50 C 16 31.210474 31.210474 16 50 16 z M 50 19 C 32.884791 19 19 32.884791 19 50 C 19 67.115209 32.884791 81 50 81 C 67.115209 81 81 67.115209 81 50 C 81 40.904382 77.079076 32.716819 70.835938 27.046875 A 0.50005 0.50005 0 1 0 70.164062 27.787109 C 76.206924 33.275165 80 41.191618 80 50 C 80 66.574791 66.574791 80 50 80 C 33.425209 80 20 66.574791 20 50 C 20 33.425209 33.425209 20 50 20 C 53.630741 20 57.108062 20.645941 60.328125 21.826172 A 0.50018397 0.50018397 0 1 0 60.671875 20.886719 C 57.343938 19.66695 53.749259 19 50 19 z M 63.480469 22.140625 A 0.50005 0.50005 0 0 0 63.277344 23.091797 C 63.947092 23.423229 64.604492 23.779343 65.246094 24.158203 A 0.50005 0.50005 0 1 0 65.753906 23.296875 C 65.091508 22.905735 64.414908 22.53788 63.722656 22.195312 A 0.50005 0.50005 0 0 0 63.480469 22.140625 z M 67.507812 24.511719 A 0.50005 0.50005 0 0 0 67.457031 24.513672 A 0.50005 0.50005 0 0 0 67.212891 25.425781 C 67.545583 25.65906 67.873213 25.899999 68.195312 26.146484 A 0.50080937 0.50080937 0 1 0 68.804688 25.351562 C 68.470787 25.096048 68.130417 24.848143 67.787109 24.607422 A 0.50005 0.50005 0 0 0 67.507812 24.511719 z M 66.570312 38.001953 C 65.929744 37.983903 65.282291 38.209934 64.783203 38.681641 A 0.50005 0.50005 0 0 0 64.771484 38.691406 L 47.474609 56.064453 L 37.201172 45.667969 A 0.50005 0.50005 0 0 0 37.181641 45.650391 C 36.163579 44.724428 34.574954 44.802248 33.650391 45.816406 A 0.50005 0.50005 0 0 0 33.650391 45.818359 C 32.725396 46.835481 32.800843 48.4255 33.818359 49.349609 L 45.800781 61.332031 A 0.50005 0.50005 0 0 0 45.816406 61.347656 C 46.292524 61.781352 46.899111 62 47.5 62 C 48.117482 62 48.738135 61.770137 49.216797 61.316406 A 0.50005 0.50005 0 0 0 49.224609 61.306641 L 68.214844 42.316406 C 69.215081 41.372152 69.260896 39.782446 68.316406 38.783203 C 67.843755 38.282566 67.210881 38.020004 66.570312 38.001953 z M 66.541016 38.996094 C 66.923447 39.006794 67.302495 39.164387 67.589844 39.46875 C 68.163354 40.075507 68.137062 41.016098 67.529297 41.589844 A 0.50005 0.50005 0 0 0 67.517578 41.599609 L 48.527344 60.589844 C 48.238005 60.864113 47.870518 61 47.5 61 C 47.140339 61 46.781439 60.871458 46.494141 60.611328 C 46.492941 60.610328 46.491334 60.610475 46.490234 60.609375 L 34.507812 48.625 A 0.50005 0.50005 0 0 0 34.490234 48.609375 C 33.873751 48.049484 33.829621 47.107113 34.390625 46.490234 C 34.95221 45.875738 35.890349 45.82902 36.507812 46.390625 L 47.117188 57.125 A 0.50005 0.50005 0 0 0 47.828125 57.125 L 65.472656 39.40625 C 65.77505 39.122165 66.160032 38.985435 66.541016 38.996094 z"/></svg>