<svg xmlns="http://www.w3.org/2000/svg"  viewBox="0 0 100 100" width="100px" height="100px"><path d="M 49.998047 19.251953 C 49.511047 19.251953 49.030781 19.2765 48.550781 19.3125 C 48.494781 19.3175 48.437859 19.321172 48.380859 19.326172 C 43.104859 19.771172 38.332625 22.367813 35.265625 26.507812 C 33.103625 25.672812 30.830047 25.25 28.498047 25.25 C 18.849047 25.25 10.998047 32.428 10.998047 41.25 C 10.998047 50.072 18.849047 57.25 28.498047 57.25 C 28.960047 57.25 29.438453 57.2295 29.939453 57.1875 L 27.345703 75.839844 C 27.224703 77.013844 27.540422 78.081609 28.232422 78.849609 C 28.902422 79.591609 29.885 80 31 80 L 69 80 C 70.115 80 71.097578 79.591609 71.767578 78.849609 C 72.459578 78.081609 72.775391 77.013688 72.650391 75.804688 L 70.058594 57.1875 C 70.559594 57.2305 71.038 57.25 71.5 57.25 C 81.149 57.25 89 50.072 89 41.25 C 89 32.428 81.149 25.25 71.5 25.25 C 69.168 25.25 66.894422 25.672812 64.732422 26.507812 C 61.666422 22.367812 56.893188 19.770172 51.617188 19.326172 C 51.561188 19.321172 51.504266 19.3165 51.447266 19.3125 C 50.967266 19.2765 50.485047 19.251953 49.998047 19.251953 z M 50 21.25 C 55.221 21.25 60.026203 23.602078 63.033203 27.580078 C 63.649203 28.875078 64 30.278 64 31.75 C 64 32.026 64.224 32.25 64.5 32.25 C 64.776 32.25 65 32.026 65 31.75 C 65 30.7 64.827203 29.685938 64.533203 28.710938 C 64.615203 28.697937 64.696391 28.686344 64.775391 28.652344 C 66.908391 27.720344 69.171953 27.25 71.501953 27.25 C 80.048953 27.25 87.001953 33.53 87.001953 41.25 C 87.001953 48.914 80.145594 55.153188 71.683594 55.242188 C 71.008594 55.233187 70.348937 55.198812 69.710938 55.132812 C 69.629937 55.123812 69.547844 55.114516 69.464844 55.103516 C 67.215844 54.843516 65.241672 54.236219 63.763672 53.324219 C 63.528672 53.181219 63.221172 53.251328 63.076172 53.486328 C 62.931172 53.721328 63.003281 54.030781 63.238281 54.175781 C 64.686281 55.068781 66.334688 55.588719 67.929688 55.886719 C 67.913687 55.984719 67.886391 56.081641 67.900391 56.181641 L 69.544922 68 L 66.5 68 C 66.224 68 66 68.224 66 68.5 C 66 68.544 66.014391 68.584 66.025391 68.625 C 66.014391 68.666 66 68.706 66 68.75 L 66 78 L 59 78 L 59 73.5 C 59 73.224 58.776 73 58.5 73 C 58.224 73 58 73.224 58 73.5 L 58 78 L 42 78 L 42 76.5 C 42 76.224 41.776 76 41.5 76 C 41.224 76 41 76.224 41 76.5 L 41 78 L 34 78 L 34 69 L 41 69 L 41 73.5 C 41 73.776 41.224 74 41.5 74 C 41.776 74 42 73.776 42 73.5 L 42 69 L 58 69 L 58 70.5 C 58 70.776 58.224 71 58.5 71 C 58.776 71 59 70.776 59 70.5 L 59 68.5 C 59 68.224 58.776 68 58.5 68 L 30.455078 68 L 32.099609 56.183594 C 32.123609 56.009594 32.092297 55.838688 32.029297 55.679688 C 33.296297 55.331688 34.552281 54.832453 35.738281 54.189453 C 35.981281 54.057453 36.071453 53.754719 35.939453 53.511719 C 35.807453 53.270719 35.504719 53.179547 35.261719 53.310547 C 33.043719 54.512547 30.576297 55.187281 28.279297 55.238281 C 19.835297 55.132281 13 48.903 13 41.25 C 13 33.53 19.953 27.25 28.5 27.25 C 30.829 27.25 33.091609 27.721344 35.224609 28.652344 C 35.303609 28.686344 35.38675 28.697937 35.46875 28.710938 C 35.17375 29.685938 35 30.7 35 31.75 C 35 32.026 35.224 32.25 35.5 32.25 C 35.776 32.25 36 32.026 36 31.75 C 36 30.278 36.350797 28.875078 36.966797 27.580078 C 39.973797 23.602078 44.779 21.25 50 21.25 z M 48.845703 24.212891 C 48.010203 24.191516 47.485359 24.246953 47.443359 24.251953 C 47.169359 24.281953 46.972906 24.529688 47.003906 24.804688 C 47.034906 25.079687 47.275688 25.276094 47.554688 25.246094 C 47.573687 25.244094 49.490766 25.046375 51.884766 25.609375 C 51.923766 25.619375 51.962 25.623047 52 25.623047 C 52.227 25.623047 52.432328 25.468281 52.486328 25.238281 C 52.549328 24.968281 52.382281 24.700719 52.113281 24.636719 C 50.827281 24.333219 49.681203 24.234266 48.845703 24.212891 z M 54.640625 25.517578 C 54.445812 25.512094 54.256172 25.621844 54.169922 25.808594 C 54.054922 26.060594 54.165016 26.356656 54.416016 26.472656 C 56.902016 27.614656 58.798734 29.464609 60.052734 31.974609 C 60.140734 32.149609 60.316 32.25 60.5 32.25 C 60.575 32.25 60.650656 32.233266 60.722656 32.197266 C 60.969656 32.073266 61.070266 31.772391 60.947266 31.525391 C 59.588266 28.807391 57.530031 26.8005 54.832031 25.5625 C 54.769281 25.534 54.705562 25.519406 54.640625 25.517578 z M 16.486328 44.25 C 16.421531 44.251734 16.355469 44.266672 16.292969 44.294922 C 16.041969 44.408922 15.929922 44.705031 16.044922 44.957031 C 18.768922 50.950031 23.758156 52.384766 27.910156 52.384766 C 28.381156 52.384766 28.841156 52.365984 29.285156 52.333984 C 29.561156 52.312984 29.768047 52.073828 29.748047 51.798828 C 29.728047 51.522828 29.487844 51.320938 29.214844 51.335938 C 25.166844 51.633938 19.750078 50.690969 16.955078 44.542969 C 16.868828 44.353969 16.680719 44.244797 16.486328 44.25 z M 83.513672 44.251953 C 83.318906 44.246891 83.130422 44.353969 83.044922 44.542969 C 80.355922 50.456969 75.226531 51.528141 71.394531 51.369141 C 71.125531 51.383141 70.887953 51.573609 70.876953 51.849609 C 70.865953 52.125609 71.080469 52.358141 71.355469 52.369141 C 71.590469 52.378141 71.829266 52.384766 72.072266 52.384766 C 76.113266 52.384766 81.202078 51.013031 83.955078 44.957031 C 84.069078 44.705031 83.958031 44.408922 83.707031 44.294922 C 83.644281 44.266922 83.578594 44.253641 83.513672 44.251953 z M 34.517578 50.25 C 34.452656 50.247813 34.386766 50.258453 34.322266 50.283203 C 34.311266 50.288203 33.142156 50.732687 31.410156 51.054688 C 31.139156 51.104687 30.959766 51.365719 31.009766 51.636719 C 31.053766 51.876719 31.263 52.044922 31.5 52.044922 C 31.53 52.044922 31.560797 52.041156 31.591797 52.035156 C 33.420797 51.697156 34.630641 51.235797 34.681641 51.216797 C 34.939641 51.116797 35.06775 50.827312 34.96875 50.570312 C 34.8945 50.377563 34.712344 50.256562 34.517578 50.25 z M 65.484375 50.25 C 65.28975 50.256609 65.107453 50.376813 65.033203 50.570312 C 64.934203 50.828312 65.062312 51.117797 65.320312 51.216797 C 65.375313 51.237797 66.695063 51.739078 68.664062 52.080078 C 68.693062 52.085078 68.723953 52.087891 68.751953 52.087891 C 68.990953 52.087891 69.200188 51.916828 69.242188 51.673828 C 69.289187 51.402828 69.107938 51.143703 68.835938 51.095703 C 66.969938 50.773703 65.692688 50.288203 65.679688 50.283203 C 65.615437 50.258453 65.54925 50.247797 65.484375 50.25 z M 61.5 68.25 C 61.224 68.25 61 68.474 61 68.75 C 61 69.026 61.224 69.25 61.5 69.25 L 63.5 69.25 C 63.776 69.25 64 69.026 64 68.75 C 64 68.474 63.776 68.25 63.5 68.25 L 61.5 68.25 z M 30.316406 69 L 33 69 L 33 78 L 31 78 C 30.45 78 30.005797 77.829766 29.716797 77.509766 C 29.408797 77.167766 29.272078 76.648078 29.330078 76.080078 L 30.316406 69 z M 67 69 L 69.683594 69 L 70.664062 76.044922 C 70.726063 76.646922 70.591203 77.167766 70.283203 77.509766 C 69.994203 77.829766 69.55 78 69 78 L 67 78 L 67 69 z"/></svg>