<svg xmlns="http://www.w3.org/2000/svg"  viewBox="0 0 100 100" width="100px" height="100px" fill="#f2f2f2"><g id="Слой_2"><path d="M22.5,95c-3.59,0-6.5-2.91-6.5-6.5v-73c0-3.59,2.91-6.5,6.5-6.5h59c3.59,0,6.5,2.91,6.5,6.5v73 c0,3.59-2.91,6.5-6.5,6.5H22.5z" opacity=".35"/><path fill="#f2f2f2" d="M20.5,93c-3.59,0-6.5-2.91-6.5-6.5v-73C14,9.91,16.91,7,20.5,7h59c3.59,0,6.5,2.91,6.5,6.5v73 c0,3.59-2.91,6.5-6.5,6.5H20.5z"/><path fill="#d9eeff" d="M75.5,86.5h-6v-73h6c2.209,0,4,1.791,4,4v65C79.5,84.709,77.709,86.5,75.5,86.5z"/><path fill="#40396e" d="M72.5,85h-3V15h3c1.381,0,2.5,1.119,2.5,2.5v65C75,83.881,73.881,85,72.5,85z" opacity=".35"/><path fill="#70bfff" d="M69.5,15v-1.5h-45c-2.209,0-4,1.791-4,4v65c0,2.209,1.791,4,4,4h45V85c1.381,0,2.5-1.119,2.5-2.5v-65 C72,16.119,70.881,15,69.5,15z"/><path fill="#2b59a1" d="M30,86.5h-5.5c-2.209,0-4-1.791-4-4v-65c0-2.209,1.791-4,4-4H30V86.5z"/><path fill="#40396e" d="M75.5,88h-51c-3.033,0-5.5-2.467-5.5-5.5v-65c0-3.033,2.467-5.5,5.5-5.5h51c3.033,0,5.5,2.467,5.5,5.5v65 C81,85.533,78.533,88,75.5,88z M24.5,15c-1.378,0-2.5,1.122-2.5,2.5v65c0,1.378,1.122,2.5,2.5,2.5h51c1.378,0,2.5-1.122,2.5-2.5 v-65c0-1.378-1.122-2.5-2.5-2.5H24.5z"/><path fill="#d9eeff" d="M60.5,38c-1.73,0-3.271,0.8-4.28,2.049C55.19,38.23,53.24,37,51,37s-4.19,1.23-5.22,3.049 C44.771,38.8,43.23,38,41.5,38c-3.038,0-5.5,2.462-5.5,5.5s2.462,5.5,5.5,5.5c0.169,0,0.335-0.01,0.5-0.025V62h18V48.975 C60.165,48.99,60.331,49,60.5,49c3.038,0,5.5-2.462,5.5-5.5S63.538,38,60.5,38z"/><rect width="18" height="6" x="42" y="56" fill="#a6d7ff"/><circle cx="51" cy="40" r="7" fill="#d9eeff"/></g></svg>