<svg xmlns="http://www.w3.org/2000/svg"  viewBox="0 0 100 100" width="100px" height="100px"><path d="M 63.857422 13.123047 A 1.0001 1.0001 0 0 0 63.164062 13.414062 L 31.292969 45.292969 A 1.0001 1.0001 0 0 0 31.072266 45.628906 L 17.072266 80.628906 A 1.0001 1.0001 0 0 0 17.292969 81.707031 L 18.292969 82.707031 A 1.0001 1.0001 0 0 0 19.371094 82.927734 L 54.371094 68.927734 A 1.0001 1.0001 0 0 0 54.707031 68.707031 L 86.585938 36.835938 A 1.0001 1.0001 0 0 0 86.585938 35.419922 L 64.580078 13.414062 A 1.0001 1.0001 0 0 0 63.857422 13.123047 z M 63.871094 15.537109 L 69.8125 21.480469 L 65.935547 25.357422 A 0.50005 0.50005 0 1 0 66.642578 26.064453 L 70.519531 22.1875 L 77.8125 29.480469 L 58.646484 48.646484 A 0.50005 0.50005 0 1 0 59.353516 49.353516 L 78.519531 30.1875 L 84.462891 36.128906 L 54.251953 66.333984 C 52.893422 63.967224 50.94731 61.915488 48.193359 60.513672 L 51.353516 57.353516 A 0.50005 0.50005 0 0 0 50.990234 56.496094 A 0.50005 0.50005 0 0 0 50.646484 56.646484 L 47.525391 59.767578 C 46.1283 56.561395 43.551177 53.901126 40.232422 52.474609 L 64.185547 28.521484 A 0.50005 0.50005 0 0 0 63.822266 27.664062 A 0.50005 0.50005 0 0 0 63.478516 27.814453 L 39.523438 51.769531 C 38.352705 49.10374 36.285809 46.934608 33.75 45.664062 L 63.871094 15.537109 z M 32.552734 47.310547 C 35.056945 48.459271 37.135104 50.645964 38.054688 53.324219 A 1.0001 1.0001 0 0 0 38.673828 53.945312 C 42.15873 55.146178 44.870779 57.982957 46.056641 61.333984 A 1.0001 1.0001 0 0 0 46.601562 61.917969 C 49.462928 63.159818 51.295847 65.096737 52.607422 67.480469 L 31.591797 75.884766 L 24.115234 68.408203 L 32.552734 47.310547 z M 55.990234 51.496094 A 0.50005 0.50005 0 0 0 55.646484 51.646484 L 53.146484 54.146484 A 0.50005 0.50005 0 1 0 53.853516 54.853516 L 56.353516 52.353516 A 0.50005 0.50005 0 0 0 55.990234 51.496094 z M 23.710938 69.417969 L 30.582031 76.289062 L 19.240234 80.826172 L 19.173828 80.759766 L 23.710938 69.417969 z"/></svg>