<svg xmlns="http://www.w3.org/2000/svg"  viewBox="0 0 100 100" width="100px" height="100px"><path d="M 70.183594 17.927734 C 63.082804 17.91282 55.778825 22.713972 50.078125 30.929688 L 50.072266 30.9375 L 50.068359 30.945312 C 50.095049 30.905272 49.904948 30.905272 49.931641 30.945312 L 49.923828 30.933594 L 49.916016 30.921875 C 44.197819 22.855147 37.064646 18 30 18 C 28.41174 18 26.79875 18.214476 25.185547 18.751953 C 17.110658 21.309925 12 29.679454 12 40 C 12 49.945614 18.569831 59.014563 26.466797 66.417969 C 34.363763 73.821374 43.668464 79.598809 49.511719 82.873047 L 50 83.146484 L 50.488281 82.873047 C 56.331536 79.598809 65.636237 73.821374 73.533203 66.417969 C 81.430169 59.014563 88 49.945614 88 40 C 88 29.770034 82.89283 21.308394 74.8125 18.650391 L 74.806641 18.648438 L 74.800781 18.646484 C 73.745484 18.312529 72.676303 18.097149 71.599609 17.996094 C 71.128556 17.951882 70.65698 17.928729 70.183594 17.927734 z M 70.142578 19.929688 C 70.561326 19.929772 70.977808 19.948022 71.392578 19.986328 C 72.337341 20.073578 73.271468 20.261793 74.1875 20.550781 C 81.30717 22.892778 86 30.429966 86 40 C 86 49.054386 79.86905 57.735437 72.166016 64.957031 C 64.640322 72.012369 55.776332 77.560932 50 80.824219 C 44.223668 77.560932 35.359678 72.012369 27.833984 64.957031 C 20.13095 57.735437 14 49.054386 14 40 C 14 30.326667 18.683978 22.901708 25.800781 20.654297 L 25.808594 20.650391 L 25.816406 20.648438 C 27.202589 20.186426 28.588889 20 30 20 C 36.129199 20 42.788912 24.335994 48.267578 32.054688 C 49.094271 33.294725 50.905729 33.294725 51.732422 32.054688 C 57.186018 24.202905 63.861361 19.928423 70.142578 19.929688 z"/></svg>