<svg xmlns="http://www.w3.org/2000/svg"  viewBox="0 0 100 100" width="100px" height="100px"><path d="M 58.5 13 C 57.677469 13 57 13.677469 57 14.5 L 57 16.5 C 57 17.264133 57.607105 17.850625 58.349609 17.9375 L 54.464844 31.138672 C 54.291282 31.728363 54.166206 32.329739 54.089844 32.9375 A 0.50005 0.50005 0 0 0 54.101562 33.134766 L 45.458984 36.458984 C 43.946061 31.560983 39.389258 28 34 28 C 27.378754 28 22 33.378754 22 40 C 22 41.035862 22.137313 42.03953 22.384766 43 L 16 43 C 13.250484 43 11 45.250484 11 48 L 11 49.5 C 11 51.93347 12.795969 53.880942 15.107422 54.318359 L 19.226562 82.757812 C 19.460856 84.596749 21.02924 86 22.876953 86 A 1.0001 1.0001 0 0 0 22.910156 85.998047 L 77.123047 85.998047 C 78.97076 85.998047 80.53684 84.594239 80.773438 82.755859 L 84.892578 54.318359 C 87.204034 53.880989 89 51.93347 89 49.5 L 89 48 C 89 45.250484 86.749516 43 84 43 L 76 43 L 76 34.375 C 76 33.279608 75.844771 32.189899 75.535156 31.138672 L 71.650391 17.9375 C 72.392895 17.850625 73 17.264133 73 16.5 L 73 14.5 C 73 13.677469 72.322531 13 71.5 13 L 58.5 13 z M 58.5 14 L 71.5 14 C 71.781469 14 72 14.218531 72 14.5 L 72 16.5 C 72 16.781469 71.781469 17 71.5 17 L 71 17 L 59 17 L 58.5 17 C 58.218531 17 58 16.781469 58 16.5 L 58 14.5 C 58 14.218531 58.218531 14 58.5 14 z M 59.375 18 L 70.625 18 L 73.275391 27 L 62.5 27 A 0.50005 0.50005 0 1 0 62.5 28 L 73.5 28 A 0.50005 0.50005 0 0 0 73.568359 27.996094 L 74.576172 31.421875 C 74.858557 32.380648 75 33.374392 75 34.375 L 75 43 L 67.501953 43 L 63.767578 33.351562 C 63.220274 31.935674 61.881257 31.050946 60.447266 31.003906 C 59.969268 30.988226 59.48073 31.066086 59.007812 31.248047 L 55.136719 32.736328 C 55.206598 32.2936 55.296677 31.853885 55.423828 31.421875 L 56.431641 27.996094 A 0.50005 0.50005 0 0 0 56.5 28 L 59.5 28 A 0.50005 0.50005 0 1 0 59.5 27 L 56.724609 27 L 59.375 18 z M 34 29 C 38.972023 29 43.15707 32.297488 44.523438 36.816406 L 37.359375 39.572266 C 35.902532 40.131906 35.014427 41.526647 35.011719 43 L 23.421875 43 C 23.151858 42.0454 23 41.041968 23 40 C 23 33.919246 27.919246 29 34 29 z M 60.419922 32 C 61.465524 32.032155 62.435241 32.67628 62.835938 33.712891 L 66.429688 43 L 36.005859 43 C 36.003271 41.925864 36.646692 40.916937 37.716797 40.505859 L 59.367188 32.181641 A 0.50005 0.50005 0 0 0 59.367188 32.179688 C 59.71427 32.046145 60.071388 31.989282 60.419922 32 z M 16 45 L 84 45 C 85.668484 45 87 46.331516 87 48 L 87 49.5 C 87 51.168484 85.668484 52.5 84 52.5 A 1.0001 1.0001 0 0 0 83.009766 53.357422 L 78.791016 82.484375 A 1.0001 1.0001 0 0 0 78.789062 82.5 C 78.67766 83.365621 77.959334 83.998047 77.123047 83.998047 L 22.876953 83.998047 A 1.0001 1.0001 0 0 0 22.873047 83.998047 C 22.038723 83.995747 21.320441 83.365343 21.210938 82.505859 A 1.0001 1.0001 0 0 0 21.208984 82.488281 L 16.990234 53.357422 A 1.0001 1.0001 0 0 0 16 52.5 C 14.331516 52.5 13 51.168484 13 49.5 L 13 48 C 13 46.331516 14.331516 45 16 45 z M 19.5 53 A 0.50005 0.50005 0 1 0 19.5 54 L 67.5 54 A 0.50005 0.50005 0 1 0 67.5 53 L 19.5 53 z M 70.5 53 A 0.50005 0.50005 0 1 0 70.5 54 L 72.5 54 A 0.50005 0.50005 0 1 0 72.5 53 L 70.5 53 z M 75.5 53 A 0.50005 0.50005 0 1 0 75.5 54 L 80.5 54 A 0.50005 0.50005 0 1 0 80.5 53 L 75.5 53 z M 30.5 58 C 29.117459 58 28 59.161758 28 60.5625 L 28 76.4375 C 28 77.838242 29.117459 79 30.5 79 C 31.882541 79 33 77.837058 33 76.435547 L 33 60.5625 C 33 59.161758 31.882541 58 30.5 58 z M 43.5 58 C 42.117459 58 41 59.161758 41 60.5625 L 41 76.4375 C 41 77.838242 42.117459 79 43.5 79 C 44.882541 79 46 77.837058 46 76.435547 L 46 60.5625 C 46 59.161758 44.882541 58 43.5 58 z M 56.5 58 C 55.117459 58 54 59.161758 54 60.5625 L 54 76.4375 C 54 77.838242 55.117459 79 56.5 79 C 57.882541 79 59 77.837058 59 76.435547 L 59 60.5625 C 59 59.161758 57.882541 58 56.5 58 z M 69.5 58 C 68.117459 58 67 59.161758 67 60.5625 L 67 76.4375 C 67 77.838242 68.117459 79 69.5 79 C 70.882541 79 72 77.837058 72 76.435547 L 72 60.5625 C 72 59.161758 70.882541 58 69.5 58 z M 30.5 59 C 31.323459 59 32 59.687242 32 60.5625 L 32 76.435547 C 32 77.312036 31.323459 78 30.5 78 C 29.676541 78 29 77.312758 29 76.4375 L 29 60.5625 C 29 59.687242 29.676541 59 30.5 59 z M 43.5 59 C 44.323459 59 45 59.687242 45 60.5625 L 45 76.435547 C 45 77.312036 44.323459 78 43.5 78 C 42.676541 78 42 77.312758 42 76.4375 L 42 60.5625 C 42 59.687242 42.676541 59 43.5 59 z M 56.5 59 C 57.323459 59 58 59.687242 58 60.5625 L 58 76.435547 C 58 77.312036 57.323459 78 56.5 78 C 55.676541 78 55 77.312758 55 76.4375 L 55 60.5625 C 55 59.687242 55.676541 59 56.5 59 z M 69.5 59 C 70.323459 59 71 59.687242 71 60.5625 L 71 76.435547 C 71 77.312036 70.323459 78 69.5 78 C 68.676541 78 68 77.312758 68 76.4375 L 68 60.5625 C 68 59.687242 68.676541 59 69.5 59 z"/></svg>