<svg xmlns="http://www.w3.org/2000/svg"  viewBox="0 0 100 100" width="100px" height="100px"><path d="M 28 16 C 24.145666 16 21 19.145666 21 23 L 21 77 C 21 80.854334 24.145666 84 28 84 L 67 84 C 70.854334 84 74 80.854334 74 77 L 74 60 A 1.0001 1.0001 0 1 0 72 60 L 72 77 C 72 79.773666 69.773666 82 67 82 L 28 82 C 25.226334 82 23 79.773666 23 77 L 23 23 C 23 20.226334 25.226334 18 28 18 L 67 18 C 69.773666 18 72 20.226334 72 23 L 72 40 A 1.0001 1.0001 0 1 0 74 40 L 74 23 C 74 19.145666 70.854334 16 67 16 L 28 16 z M 31.5 22 C 29.020742 22 27 24.020742 27 26.5 L 27 73.5 C 27 75.979258 29.020742 78 31.5 78 L 63.5 78 C 65.979258 78 68 75.979258 68 73.5 L 68 59.5 A 0.50005 0.50005 0 1 0 67 59.5 L 67 73.5 C 67 75.438742 65.438742 77 63.5 77 L 31.5 77 C 29.561258 77 28 75.438742 28 73.5 L 28 26.5 C 28 24.561258 29.561258 23 31.5 23 L 53.5 23 A 0.50005 0.50005 0 1 0 53.5 22 L 31.5 22 z M 67.492188 32.992188 A 0.50005 0.50005 0 0 0 67 33.5 L 67 34.5 A 0.50005 0.50005 0 1 0 68 34.5 L 68 33.5 A 0.50005 0.50005 0 0 0 67.492188 32.992188 z M 52.984375 34 A 1.0001 1.0001 0 0 0 52.292969 34.292969 L 37.292969 49.292969 A 1.0001 1.0001 0 0 0 37.292969 50.707031 L 52.292969 65.707031 A 1.0001 1.0001 0 0 0 53.707031 65.707031 L 58.707031 60.707031 A 1.0001 1.0001 0 0 0 58.707031 59.292969 L 54.414062 55 L 86 55 A 1.0001 1.0001 0 0 0 87 54 L 87 46 A 1.0001 1.0001 0 0 0 86 45 L 54.414062 45 L 58.707031 40.707031 A 1.0001 1.0001 0 0 0 58.707031 39.292969 L 53.707031 34.292969 A 1.0001 1.0001 0 0 0 52.984375 34 z M 67.492188 35.992188 A 0.50005 0.50005 0 0 0 67 36.5 L 67 40.5 A 0.50005 0.50005 0 1 0 68 40.5 L 68 36.5 A 0.50005 0.50005 0 0 0 67.492188 35.992188 z M 53 36.414062 L 56.585938 40 L 51.292969 45.292969 A 1.0001 1.0001 0 0 0 52 47 L 85 47 L 85 53 L 52 53 A 1.0001 1.0001 0 0 0 51.292969 54.707031 L 56.585938 60 L 53 63.585938 L 39.414062 50 L 53 36.414062 z"/></svg>