<svg xmlns="http://www.w3.org/2000/svg"  viewBox="0 0 100 100" width="100px" height="100px"><path d="M 28 16 C 24.145666 16 21 19.145666 21 23 L 21 77 C 21 80.854334 24.145666 84 28 84 L 67 84 C 70.854334 84 74 80.854334 74 77 L 74 71 A 1.0001 1.0001 0 1 0 72 71 L 72 77 C 72 79.773666 69.773666 82 67 82 L 28 82 C 25.226334 82 23 79.773666 23 77 L 23 23 C 23 20.226334 25.226334 18 28 18 L 67 18 C 69.773666 18 72 20.226334 72 23 L 72 29 A 1.0001 1.0001 0 1 0 74 29 L 74 23 C 74 19.145666 70.854334 16 67 16 L 28 16 z M 31.5 22 C 29.020742 22 27 24.020742 27 26.5 L 27 73.5 C 27 75.979258 29.020742 78 31.5 78 L 63.5 78 C 65.979258 78 68 75.979258 68 73.5 L 68 70.5 A 0.50005 0.50005 0 1 0 67 70.5 L 67 73.5 C 67 75.438742 65.438742 77 63.5 77 L 31.5 77 C 29.561258 77 28 75.438742 28 73.5 L 28 26.5 C 28 24.561258 29.561258 23 31.5 23 L 48.5 23 A 0.50005 0.50005 0 1 0 48.5 22 L 31.5 22 z M 50.5 22 A 0.50005 0.50005 0 1 0 50.5 23 L 54.5 23 A 0.50005 0.50005 0 1 0 54.5 22 L 50.5 22 z M 56.5 22 A 0.50005 0.50005 0 1 0 56.5 23 L 57.5 23 A 0.50005 0.50005 0 1 0 57.5 22 L 56.5 22 z M 72.984375 34 A 1.0001 1.0001 0 0 0 72.292969 34.292969 L 67.292969 39.292969 A 1.0001 1.0001 0 0 0 67.292969 40.707031 L 71.585938 45 L 40 45 A 1.0001 1.0001 0 0 0 39 46 L 39 54 A 1.0001 1.0001 0 0 0 40 55 L 71.585938 55 L 67.292969 59.292969 A 1.0001 1.0001 0 0 0 67.292969 60.707031 L 72.292969 65.707031 A 1.0001 1.0001 0 0 0 73.707031 65.707031 L 88.707031 50.707031 A 1.0001 1.0001 0 0 0 88.707031 49.292969 L 73.707031 34.292969 A 1.0001 1.0001 0 0 0 72.984375 34 z M 73 36.414062 L 86.585938 50 L 73 63.585938 L 69.414062 60 L 74.707031 54.707031 A 1.0001 1.0001 0 0 0 74 53 L 41 53 L 41 47 L 74 47 A 1.0001 1.0001 0 0 0 74.707031 45.292969 L 69.414062 40 L 73 36.414062 z"/></svg>