<svg xmlns="http://www.w3.org/2000/svg"  viewBox="0 0 100 100" width="100px" height="100px"><path d="M 17.990234 9 A 0.50005 0.50005 0 0 0 17.537109 9.3105469 L 15.720703 13.720703 L 11.310547 15.537109 A 0.50005 0.50005 0 0 0 11.310547 16.462891 L 15.722656 18.277344 L 17.537109 22.689453 A 0.50005 0.50005 0 0 0 18.462891 22.689453 L 20.279297 18.279297 L 24.689453 16.462891 A 0.50005 0.50005 0 0 0 24.689453 15.537109 L 20.279297 13.720703 L 18.462891 9.3105469 A 0.50005 0.50005 0 0 0 17.990234 9 z M 18 10.814453 L 19.433594 14.294922 A 0.50005 0.50005 0 0 0 19.705078 14.566406 L 23.185547 16 L 19.705078 17.433594 A 0.50005 0.50005 0 0 0 19.433594 17.705078 L 18 21.185547 L 16.566406 17.705078 A 0.50005 0.50005 0 0 0 16.294922 17.433594 L 12.814453 16 L 16.294922 14.566406 A 0.50005 0.50005 0 0 0 16.566406 14.294922 L 18 10.814453 z M 71.492188 11.029297 A 0.50005 0.50005 0 0 0 71.072266 11.269531 L 66.216797 19.267578 L 65.974609 19.025391 C 65.295464 18.346245 64.397789 18.005876 63.5 18.005859 C 62.602211 18.005842 61.704938 18.346538 61.025391 19.025391 C 60.033734 20.017048 59.972707 21.416033 60.429688 22.65625 L 55.478516 27.607422 C 51.635553 25.972452 47.438568 25 43 25 C 25.338572 25 11 39.338572 11 57 C 11 74.661428 25.338572 89 43 89 C 60.661428 89 75 74.661428 75 57 C 75 52.562859 74.027472 48.36551 72.392578 44.523438 L 77.34375 39.570312 C 78.584015 40.026888 79.983653 39.966679 80.974609 38.974609 C 82.33351 37.615709 82.332901 35.383682 80.974609 34.025391 L 80.732422 33.783203 L 88.730469 28.927734 A 0.50005 0.50005 0 0 0 88.824219 28.146484 L 71.853516 11.175781 A 0.50005 0.50005 0 0 0 71.492188 11.029297 z M 71.597656 12.333984 L 87.666016 28.402344 L 80.005859 33.056641 L 66.943359 19.994141 L 71.597656 12.333984 z M 63.5 19.994141 C 63.881961 19.994124 64.263693 20.142599 64.560547 20.439453 L 79.560547 35.439453 C 80.154255 36.033161 80.155646 36.965447 79.560547 37.560547 A 1.0001 1.0001 0 0 0 79.558594 37.560547 C 79.018792 38.100955 78.19896 38.136862 77.607422 37.693359 A 1.0001 1.0001 0 0 0 77.505859 37.626953 L 75.025391 35.146484 A 0.50005 0.50005 0 0 0 74.666016 34.994141 A 0.50005 0.50005 0 0 0 74.318359 35.853516 L 76.275391 37.810547 L 70.544922 43.539062 A 1.0001 1.0001 0 0 0 70.341797 44.658203 C 72.045316 48.424229 73 52.596679 73 57 C 73 59.472994 72.695827 61.873562 72.132812 64.171875 C 71.549633 62.925758 70.627713 61.299872 69.226562 59.673828 C 66.351158 56.336901 61.436925 53 53.5 53 C 48.416667 53 45.043994 54.283323 41.900391 55.535156 C 38.756787 56.786989 35.849842 58 31.486328 58 C 23.680481 58 20.166641 53.698477 18.464844 49.318359 C 17.366325 46.490974 17.079765 43.670094 17.011719 42.011719 C 22.19453 33.038284 31.882944 27 43 27 C 47.403321 27 51.575661 27.953697 55.341797 29.65625 A 1.0001 1.0001 0 0 0 56.460938 29.453125 L 62.189453 23.724609 L 72.146484 33.681641 A 0.50005 0.50005 0 1 0 72.853516 32.974609 L 62.376953 22.5 A 1.0001 1.0001 0 0 0 62.306641 22.392578 C 61.862942 21.800778 61.898171 20.980736 62.439453 20.439453 C 62.736905 20.142305 63.118039 19.994158 63.5 19.994141 z M 44.5 35 C 43.708334 35 43.051923 35.314878 42.626953 35.792969 C 42.201984 36.27106 42 36.888889 42 37.5 C 42 38.111111 42.201984 38.72894 42.626953 39.207031 C 43.051923 39.685122 43.708334 40 44.5 40 C 45.291666 40 45.948077 39.685122 46.373047 39.207031 C 46.798016 38.72894 47 38.111111 47 37.5 C 47 36.888889 46.798016 36.27106 46.373047 35.792969 C 45.948077 35.314878 45.291666 35 44.5 35 z M 44.5 36 C 45.041666 36 45.385256 36.185122 45.626953 36.457031 C 45.86865 36.72894 46 37.111111 46 37.5 C 46 37.888889 45.86865 38.27106 45.626953 38.542969 C 45.385256 38.814878 45.041666 39 44.5 39 C 43.958334 39 43.614744 38.814878 43.373047 38.542969 C 43.13135 38.27106 43 37.888889 43 37.5 C 43 37.111111 43.13135 36.72894 43.373047 36.457031 C 43.614744 36.185122 43.958334 36 44.5 36 z M 31.5 42 C 30.708334 42 30.051923 42.314878 29.626953 42.792969 C 29.201984 43.27106 29 43.888889 29 44.5 C 29 45.111111 29.201984 45.72894 29.626953 46.207031 C 30.051923 46.685122 30.708334 47 31.5 47 C 32.291666 47 32.948077 46.685122 33.373047 46.207031 C 33.798016 45.72894 34 45.111111 34 44.5 C 34 43.888889 33.798016 43.27106 33.373047 42.792969 C 32.948077 42.314878 32.291666 42 31.5 42 z M 31.5 43 C 32.041666 43 32.385256 43.185122 32.626953 43.457031 C 32.86865 43.72894 33 44.111111 33 44.5 C 33 44.888889 32.86865 45.27106 32.626953 45.542969 C 32.385256 45.814878 32.041666 46 31.5 46 C 30.958334 46 30.614744 45.814878 30.373047 45.542969 C 30.13135 45.27106 30 44.888889 30 44.5 C 30 44.111111 30.13135 43.72894 30.373047 43.457031 C 30.614744 43.185122 30.958334 43 31.5 43 z M 58 43 C 57.041667 43 56.260256 43.377378 55.751953 43.949219 C 55.24365 44.52106 55 45.263889 55 46 C 55 46.736111 55.24365 47.47894 55.751953 48.050781 C 56.260256 48.622622 57.041667 49 58 49 C 58.958333 49 59.739744 48.622622 60.248047 48.050781 C 60.75635 47.47894 61 46.736111 61 46 C 61 45.263889 60.75635 44.52106 60.248047 43.949219 C 59.739744 43.377378 58.958333 43 58 43 z M 16.130859 43.650391 C 16.305197 45.338702 16.685074 47.498711 17.533203 49.681641 C 19.328156 54.301523 23.305176 59 31.486328 59 C 36.036814 59 39.137088 57.713011 42.271484 56.464844 C 45.405881 55.216677 48.583333 54 53.5 54 C 61.159075 54 65.743154 57.163099 68.46875 60.326172 C 70.348536 62.507676 71.279651 64.607772 71.703125 65.744141 C 67.963698 78.05247 56.537739 87 43 87 C 26.419428 87 13 73.580572 13 57 C 13 52.201178 14.131366 47.670914 16.130859 43.650391 z M 58 44 C 58.708333 44 59.176923 44.247622 59.501953 44.613281 C 59.826983 44.97894 60 45.486111 60 46 C 60 46.513889 59.826983 47.02106 59.501953 47.386719 C 59.176923 47.752378 58.708333 48 58 48 C 57.291667 48 56.823077 47.752378 56.498047 47.386719 C 56.173017 47.02106 56 46.513889 56 46 C 56 45.486111 56.173017 44.97894 56.498047 44.613281 C 56.823077 44.247622 57.291667 44 58 44 z M 44.5 62 C 43.708334 62 43.051923 62.314878 42.626953 62.792969 C 42.201984 63.27106 42 63.888889 42 64.5 C 42 65.111111 42.201984 65.72894 42.626953 66.207031 C 43.051923 66.685122 43.708334 67 44.5 67 C 45.291666 67 45.948077 66.685122 46.373047 66.207031 C 46.798016 65.72894 47 65.111111 47 64.5 C 47 63.888889 46.798016 63.27106 46.373047 62.792969 C 45.948077 62.314878 45.291666 62 44.5 62 z M 44.5 63 C 45.041666 63 45.385256 63.185122 45.626953 63.457031 C 45.86865 63.72894 46 64.111111 46 64.5 C 46 64.888889 45.86865 65.27106 45.626953 65.542969 C 45.385256 65.814878 45.041666 66 44.5 66 C 43.958334 66 43.614744 65.814878 43.373047 65.542969 C 43.13135 65.27106 43 64.888889 43 64.5 C 43 64.111111 43.13135 63.72894 43.373047 63.457031 C 43.614744 63.185122 43.958334 63 44.5 63 z M 25 64 C 24.041667 64 23.260256 64.377378 22.751953 64.949219 C 22.24365 65.52106 22 66.263889 22 67 C 22 67.736111 22.24365 68.47894 22.751953 69.050781 C 23.260256 69.622622 24.041667 70 25 70 C 25.958333 70 26.739744 69.622622 27.248047 69.050781 C 27.75635 68.47894 28 67.736111 28 67 C 28 66.263889 27.75635 65.52106 27.248047 64.949219 C 26.739744 64.377378 25.958333 64 25 64 z M 25 65 C 25.708333 65 26.176923 65.247622 26.501953 65.613281 C 26.826983 65.97894 27 66.486111 27 67 C 27 67.513889 26.826983 68.02106 26.501953 68.386719 C 26.176923 68.752378 25.708333 69 25 69 C 24.291667 69 23.823077 68.752378 23.498047 68.386719 C 23.173017 68.02106 23 67.513889 23 67 C 23 66.486111 23.173017 65.97894 23.498047 65.613281 C 23.823077 65.247622 24.291667 65 25 65 z M 58.5 67 C 57.708334 67 57.051923 67.314878 56.626953 67.792969 C 56.201984 68.27106 56 68.888889 56 69.5 C 56 70.111111 56.201984 70.72894 56.626953 71.207031 C 57.051923 71.685122 57.708334 72 58.5 72 C 59.291666 72 59.948077 71.685122 60.373047 71.207031 C 60.798016 70.72894 61 70.111111 61 69.5 C 61 68.888889 60.798016 68.27106 60.373047 67.792969 C 59.948077 67.314878 59.291666 67 58.5 67 z M 58.5 68 C 59.041666 68 59.385256 68.185122 59.626953 68.457031 C 59.86865 68.72894 60 69.111111 60 69.5 C 60 69.888889 59.86865 70.27106 59.626953 70.542969 C 59.385256 70.814878 59.041666 71 58.5 71 C 57.958334 71 57.614744 70.814878 57.373047 70.542969 C 57.13135 70.27106 57 69.888889 57 69.5 C 57 69.111111 57.13135 68.72894 57.373047 68.457031 C 57.614744 68.185122 57.958334 68 58.5 68 z M 41 71 C 40.041667 71 39.260256 71.377378 38.751953 71.949219 C 38.24365 72.52106 38 73.263889 38 74 C 38 74.736111 38.24365 75.47894 38.751953 76.050781 C 39.260256 76.622622 40.041667 77 41 77 C 41.958333 77 42.739744 76.622622 43.248047 76.050781 C 43.75635 75.47894 44 74.736111 44 74 C 44 73.263889 43.75635 72.52106 43.248047 71.949219 C 42.739744 71.377378 41.958333 71 41 71 z M 41 72 C 41.708333 72 42.176923 72.247622 42.501953 72.613281 C 42.826983 72.97894 43 73.486111 43 74 C 43 74.513889 42.826983 75.02106 42.501953 75.386719 C 42.176923 75.752378 41.708333 76 41 76 C 40.291667 76 39.823077 75.752378 39.498047 75.386719 C 39.173017 75.02106 39 74.513889 39 74 C 39 73.486111 39.173017 72.97894 39.498047 72.613281 C 39.823077 72.247622 40.291667 72 41 72 z M 80.490234 74 A 0.50005 0.50005 0 0 0 80.037109 74.310547 L 77.783203 79.783203 L 72.310547 82.037109 A 0.50005 0.50005 0 0 0 72.310547 82.962891 L 77.785156 85.214844 L 80.037109 90.689453 A 0.50005 0.50005 0 0 0 80.962891 90.689453 L 83.216797 85.216797 L 88.689453 82.962891 A 0.50005 0.50005 0 0 0 88.689453 82.037109 L 83.216797 79.783203 L 80.962891 74.310547 A 0.50005 0.50005 0 0 0 80.490234 74 z M 24.488281 75.449219 A 0.50005 0.50005 0 0 0 24.150391 76.3125 C 29.01551 81.06251 35.664611 84 43 84 C 46.030798 84 48.941255 83.492233 51.660156 82.570312 A 0.50005 0.50005 0 1 0 51.339844 81.623047 C 48.720745 82.511127 45.919202 83 43 83 C 35.931389 83 29.53649 80.173646 24.849609 75.597656 A 0.50005 0.50005 0 0 0 24.488281 75.449219 z M 61.496094 75.449219 A 0.50005 0.50005 0 0 0 61.150391 75.595703 C 60.832059 75.907178 60.505081 76.211968 60.169922 76.507812 A 0.50005 0.50005 0 1 0 60.830078 77.257812 C 61.176919 76.951657 61.517941 76.635072 61.849609 76.310547 A 0.50005 0.50005 0 0 0 61.496094 75.449219 z M 80.5 75.814453 L 82.371094 80.357422 A 0.50005 0.50005 0 0 0 82.642578 80.628906 L 87.185547 82.5 L 82.642578 84.371094 A 0.50005 0.50005 0 0 0 82.371094 84.642578 L 80.5 89.185547 L 78.628906 84.642578 A 0.50005 0.50005 0 0 0 78.357422 84.371094 L 73.814453 82.5 L 78.357422 80.628906 A 0.50005 0.50005 0 0 0 78.628906 80.357422 L 80.5 75.814453 z M 58.521484 77.976562 A 0.50005 0.50005 0 0 0 58.207031 78.076172 C 57.269548 78.753516 56.287789 79.369606 55.263672 79.919922 A 0.50005 0.50005 0 1 0 55.736328 80.800781 C 56.800211 80.229097 57.820452 79.589375 58.792969 78.886719 A 0.50005 0.50005 0 0 0 58.521484 77.976562 z"/></svg>