<svg xmlns="http://www.w3.org/2000/svg"  viewBox="0 0 100 100" width="100px" height="100px" fill="#f2f2f2"><path d="M93.72,76.892l-3.21-1.171l-1.309-4.169c-0.686-2.186-2.433-3.777-4.57-4.328 C85.518,63.964,86,60.538,86,57c0-4.122-0.636-8.151-1.895-12.02l0.006-0.006c2.33-0.105,4.501-1.058,6.153-2.709 c1.762-1.762,2.732-4.104,2.732-6.596c0-0.958-0.144-1.895-0.421-2.785l1.417-0.901c1.669-1.064,2.751-2.803,2.968-4.771 c0.218-1.972-0.463-3.908-1.865-5.307L82.094,8.901C80.884,7.693,79.208,7,77.497,7c-0.233,0-0.468,0.013-0.709,0.039 c-1.969,0.217-3.709,1.3-4.771,2.971l-0.902,1.417c-0.888-0.275-1.821-0.418-2.777-0.418c-2.492,0-4.834,0.97-6.597,2.733 c-1.651,1.652-2.59,3.866-2.702,6.146l-0.01,0.009C55.156,18.637,51.124,18,47,18C25.495,18,8,35.495,8,57s17.495,39,39,39 c8.814,0,16.951-2.942,23.49-7.892c0.533,0.421,1.133,0.765,1.793,1.004l3.215,1.169l1.321,4.176 c0.858,2.716,3.35,4.541,6.197,4.541h0.009h0.005c2.856-0.006,5.346-1.843,6.191-4.566l1.296-4.159l3.201-1.167 c2.557-0.931,4.275-3.385,4.275-6.107S96.274,77.822,93.72,76.892z" opacity=".35"/><path d="M21.017,37c-2.849,0-5.34-1.825-6.198-4.541l-1.319-4.176l-2.859-4.564 c-2.554-0.928-4.631,0.016-4.635-2.704c-0.004-2.724,1.712-5.181,4.271-6.115l3.211-1.174l1.311-4.173C15.648,6.833,18.142,5,21,5 s1.598,3.856,2.449,6.584l5.06,2.138l3.299,3.525c2.555,0.93,4.185,1.031,4.185,3.753s-1.719,5.176-4.275,6.107l-3.201,1.167 l-1.296,4.159c-0.846,2.724-3.334,4.56-6.191,4.566h-0.005H21.017z" opacity=".35"/><path fill="#f2f2f2" d="M93.096,19.904L80.094,6.901C78.884,5.693,77.208,5,75.497,5c-0.233,0-0.468,0.013-0.709,0.039 c-1.969,0.217-3.709,1.3-4.771,2.971l-0.902,1.417c-0.888-0.275-1.821-0.418-2.777-0.418c-2.492,0-4.834,0.97-6.597,2.733 c-1.651,1.652-2.59,3.866-2.702,6.146l-0.01,0.009C53.156,16.637,49.124,16,45,16c-3.881,0-7.629,0.578-11.169,1.638 c-0.466-2.15-1.992-3.973-4.11-4.745l-3.211-1.171l-1.307-4.162C24.352,4.833,21.858,3,19,3s-5.352,1.833-6.201,4.553l-1.311,4.173 L8.277,12.9c-2.56,0.934-4.275,3.392-4.271,6.115c0.004,2.72,1.725,5.171,4.278,6.099l3.215,1.169l1.319,4.176 c0.174,0.55,0.43,1.051,0.727,1.52C8.807,38.436,6,46.395,6,55c0,21.505,17.495,39,39,39s39-17.495,39-39 c0-4.122-0.636-8.151-1.895-12.02l0.006-0.006c2.33-0.105,4.501-1.058,6.153-2.709c1.762-1.762,2.732-4.104,2.732-6.596 c0-0.958-0.144-1.895-0.421-2.785l1.417-0.901c1.669-1.064,2.751-2.803,2.968-4.771C95.179,23.239,94.498,21.303,93.096,19.904z"/><path fill="#f2f2f2" d="M81.016,96.999c-2.848,0-5.339-1.825-6.197-4.541l-1.321-4.176l-3.215-1.169 c-2.554-0.928-4.274-3.379-4.278-6.099c-0.004-2.724,1.712-5.181,4.271-6.115l3.212-1.174l1.311-4.174 c0.854-2.722,3.347-4.552,6.201-4.552c2.855,0,5.348,1.83,6.202,4.554l1.309,4.169l3.21,1.171c2.555,0.93,4.273,3.384,4.273,6.106 s-1.719,5.176-4.275,6.107l-3.201,1.167l-1.296,4.159c-0.846,2.724-3.335,4.56-6.191,4.566h-0.005H81.016z"/><polygon fill="#94cfff" points="21.27,21.27 19.017,28.5 16.73,21.27 10.506,19.006 16.73,16.73 19,9.5 21.27,16.73 27.494,19"/><polygon fill="#94cfff" points="83.268,83.268 81.015,90.499 78.729,83.268 72.504,81.004 78.729,78.729 80.999,71.499 83.268,78.729 89.493,80.999"/><path fill="#d9eeff" d="M81.167,29.167L88.5,24.5l-13-13l-4.667,7.333l-2.496-2.496c-1.105-1.105-2.895-1.105-4,0 c-1.009,1.009-1.085,2.585-0.25,3.694l-5.463,5.463C54.479,23.577,49.866,22.5,45,22.5c-17.949,0-32.5,14.551-32.5,32.5 c0,17.949,14.551,32.5,32.5,32.5S77.5,72.949,77.5,55c0-4.863-1.076-9.473-2.99-13.616l5.465-5.465 c1.108,0.835,2.684,0.759,3.694-0.25c1.105-1.105,1.105-2.895,0-4L81.167,29.167z"/><polygon fill="#ef8630" points="79.944,30.018 69.942,20.036 75.5,11.5 88.5,24.5"/><path fill="#94cfff" d="M12.5,55c0,17.949,14.551,32.5,32.5,32.5S77.5,72.949,77.5,55c0-1.898-2.5,9-14.5,9 c-15,0-22.991-11.65-29-14.654C24,44.346,12.5,47.943,12.5,55z"/><path fill="none" stroke="#40396e" stroke-linecap="round" stroke-linejoin="round" stroke-miterlimit="10" stroke-width="3" d="M81.167,29.167L88.5,24.5l-13-13l-4.667,7.333l-2.496-2.496c-1.105-1.105-2.895-1.105-4,0c-1.009,1.009-1.085,2.585-0.25,3.694 l-5.463,5.463C54.479,23.577,49.866,22.5,45,22.5c-17.949,0-32.5,14.551-32.5,32.5c0,17.949,14.551,32.5,32.5,32.5 S77.5,72.949,77.5,55c0-4.863-1.076-9.473-2.99-13.616l5.465-5.465c1.108,0.835,2.684,0.759,3.694-0.25 c1.105-1.105,1.105-2.895,0-4L81.167,29.167z"/><circle cx="23.5" cy="56.5" r="2.5" fill="#d9eeff"/><circle cx="44.5" cy="77.5" r="2.5" fill="#d9eeff"/><circle cx="36.5" cy="63.5" r="2.5" fill="#d9eeff"/><circle cx="49.5" cy="50" r="2.5" fill="#94cfff"/><circle cx="38.5" cy="35.5" r="2.5" fill="#94cfff"/><circle cx="59.202" cy="36.253" r="2.5" fill="#94cfff"/><circle cx="66.5" cy="53.5" r="2.5" fill="#94cfff"/><circle cx="60.5" cy="73.5" r="2.5" fill="#d9eeff"/><polygon fill="none" stroke="#40396e" stroke-linecap="round" stroke-linejoin="round" stroke-miterlimit="10" stroke-width="3" points="21.27,21.27 19.017,28.5 16.73,21.27 10.506,19.006 16.73,16.73 19,9.5 21.27,16.73 27.494,19"/><polygon fill="none" stroke="#40396e" stroke-linecap="round" stroke-linejoin="round" stroke-miterlimit="10" stroke-width="3" points="83.268,83.268 81.015,90.499 78.729,83.268 72.504,81.004 78.729,78.729 80.999,71.499 83.268,78.729 89.493,80.999"/></svg>