<?xml version="1.0"?><svg xmlns="http://www.w3.org/2000/svg"  viewBox="0 0 100 100" width="100px" height="100px">    <path d="M 23 18 C 22.547 18 22.150203 18.304187 22.033203 18.742188 C 21.983203 18.932188 17 37.906578 17 56.642578 C 17 72.969578 27.644 82 35 82 L 65 82 C 72.042 82 82.088547 73.720406 82.935547 58.691406 C 90.859547 56.629406 95 44.729547 95 33.685547 C 95 27.982547 91.505 24 86.5 24 C 83.578 24 80.860234 24.901406 79.490234 25.441406 C 78.649234 21.351406 77.984797 18.810187 77.966797 18.742188 C 77.849797 18.304188 77.453 18 77 18 L 23 18 z M 23.777344 20 L 76.220703 20 C 76.614703 21.59 77.566578 25.615 78.517578 31 L 76.5 31 C 76.224 31 76 31.224 76 31.5 C 76 31.776 76.224 32 76.5 32 L 78.691406 32 C 79.871406 38.899 81 47.798578 81 56.642578 C 81 71.113578 71.681 80 65 80 L 35 80 C 25.087 80 19 66.395578 19 56.642578 C 19 47.798578 20.128594 38.9 21.308594 32 L 67.5 32 C 67.776 32 68 31.776 68 31.5 C 68 31.224 67.776 31 67.5 31 L 21.482422 31 C 22.433422 25.615 23.384344 21.59 23.777344 20 z M 86.5 26 C 90.388 26 93 29.088547 93 33.685547 C 93 43.414547 89.503047 54.329125 82.998047 56.578125 C 82.991047 45.691125 81.308625 34.7385 79.890625 27.4375 C 80.932625 27.0025 83.642 26 86.5 26 z M 70.5 31 C 70.224 31 70 31.224 70 31.5 C 70 31.776 70.224 32 70.5 32 L 73.5 32 C 73.776 32 74 31.776 74 31.5 C 74 31.224 73.776 31 73.5 31 L 70.5 31 z M 62.609375 40.011719 C 62.535875 39.994594 62.460219 39.994172 62.386719 40.013672 C 55.977719 41.523672 50.865406 44.008344 47.191406 47.402344 C 38.636406 55.508344 38.939156 66.685938 39.035156 68.335938 C 38.950156 68.577938 39.055922 68.848078 39.294922 68.955078 C 39.359922 68.985078 39.431 69 39.5 69 C 39.506 69 39.510578 68.994141 39.517578 68.994141 C 39.526578 68.995141 39.536875 69 39.546875 69 C 39.563875 69 39.578703 68.999047 39.595703 68.998047 C 39.892703 68.969047 46.939406 68.224156 53.441406 62.660156 C 59.722406 57.150156 62.850953 49.904812 63.001953 40.507812 C 63.003953 40.353812 62.935453 40.207328 62.814453 40.111328 C 62.753953 40.063328 62.682875 40.028844 62.609375 40.011719 z M 60.849609 41.451172 C 59.633609 42.545172 58.43225 43.65925 57.28125 44.78125 C 57.08325 44.97425 57.079484 45.291281 57.271484 45.488281 C 57.370484 45.589281 57.499906 45.640625 57.628906 45.640625 C 57.754906 45.640625 57.881516 45.593047 57.978516 45.498047 C 59.257516 44.250047 60.592219 43.011734 61.949219 41.802734 C 61.545219 50.264734 58.544156 56.855297 52.785156 61.904297 C 47.842156 66.134297 42.447953 67.483234 40.376953 67.865234 C 41.675953 65.375234 46.169844 57.517906 55.714844 47.753906 C 55.907844 47.556906 55.904031 47.239875 55.707031 47.046875 C 55.509031 46.855875 55.192 46.857688 55 47.054688 C 46.398 55.853687 41.846484 63.142875 40.021484 66.421875 C 40.144484 62.667875 41.222047 54.434812 47.873047 48.132812 C 51.072047 45.178812 55.441609 42.941172 60.849609 41.451172 z"/></svg>