<svg xmlns="http://www.w3.org/2000/svg"  viewBox="0 0 100 100" width="100px" height="100px"><path d="M 43 15 C 40.250484 15 38 17.250484 38 20 L 31 20 C 29.156406 20 27.659479 21.293637 27.203125 23 L 19.5 23 C 17.578812 23 16 24.578812 16 26.5 C 16 28.249966 17.314567 29.701829 19 29.949219 L 19 36.644531 C 18.340804 36.252329 17.504818 36 16.5 36 L 14 36 A 1.0001 1.0001 0 1 0 14 38 L 16.5 38 C 17.964286 38 18.366762 38.469853 18.667969 39.072266 C 18.969175 39.674678 19 40.5 19 41 L 19 76 C 19 79.854334 22.145666 83 26 83 L 74 83 C 77.854334 83 81 79.854334 81 76 L 81 41 C 81 40.5 81.03082 39.674678 81.332031 39.072266 C 81.633238 38.469853 82.035714 38 83.5 38 L 86 38 A 1.0001 1.0001 0 1 0 86 36 L 83.5 36 C 82.495182 36 81.659196 36.252329 81 36.644531 L 81 29.949219 C 82.685433 29.701829 84 28.249966 84 26.5 C 84 24.578812 82.421188 23 80.5 23 L 72.796875 23 C 72.340521 21.293637 70.843594 20 69 20 L 62 20 C 62 17.250484 59.749516 15 57 15 L 43 15 z M 43 17 L 57 17 C 58.668484 17 60 18.331516 60 20 L 40 20 C 40 18.331516 41.331516 17 43 17 z M 31 22 L 38.832031 22 A 1.0001 1.0001 0 0 0 39.158203 22 L 60.832031 22 A 1.0001 1.0001 0 0 0 61.158203 22 L 69 22 C 70.116666 22 71 22.883334 71 24 A 1.0001 1.0001 0 0 0 72 25 L 80.5 25 C 81.340812 25 82 25.659188 82 26.5 C 82 27.340812 81.340812 28 80.5 28 L 80.167969 28 A 1.0001 1.0001 0 0 0 79.841797 28 L 20.154297 28 A 1.0001 1.0001 0 0 0 19.984375 27.986328 A 1.0001 1.0001 0 0 0 19.839844 28 L 19.5 28 C 18.659188 28 18 27.340812 18 26.5 C 18 25.659188 18.659188 25 19.5 25 L 28 25 L 35.5 25 A 0.50005 0.50005 0 1 0 35.5 24 L 29 24 C 29 22.883334 29.883334 22 31 22 z M 39.5 24 A 0.50005 0.50005 0 1 0 39.5 25 L 68.5 25 A 0.50005 0.50005 0 1 0 68.5 24 L 39.5 24 z M 21 30 L 79 30 L 79 41 L 79 45 C 77.332692 45 76 46.44272 76 48.167969 C 76 48.743284 76.223797 49.354836 76.505859 50.003906 C 76.698563 50.447347 76.923242 50.882393 77.146484 51.296875 C 76.339283 51.560507 75.611515 51.994113 74.994141 52.550781 C 74.74553 52.148429 74.478743 51.734417 74.189453 51.34375 C 73.767908 50.774482 73.348229 50.273888 72.849609 49.986328 C 72.34588 49.695128 71.777345 49.539063 71.203125 49.539062 C 70.121 49.539063 69.134827 50.085188 68.607422 51 C 67.774826 52.443731 68.356242 54.319406 69.849609 55.181641 C 70.533893 55.577556 71.609846 55.716108 73.132812 55.753906 C 73.04726 56.156052 73 56.573082 73 57 C 73 57.426918 73.04726 57.843948 73.132812 58.246094 C 71.609381 58.284014 70.533349 58.423258 69.849609 58.818359 C 68.356242 59.680594 67.774826 61.556269 68.607422 63 C 69.134827 63.914812 70.121 64.460938 71.203125 64.460938 C 71.778159 64.460938 72.346514 64.305286 72.849609 64.015625 C 73.348229 63.728065 73.768008 63.22556 74.189453 62.65625 C 74.478805 62.26538 74.745435 61.851149 74.994141 61.449219 C 75.611515 62.005887 76.339283 62.439493 77.146484 62.703125 C 76.923242 63.117607 76.698563 63.552653 76.505859 63.996094 C 76.223797 64.645164 76 65.256716 76 65.832031 C 76 67.55728 77.332692 69 79 69 L 79 76 C 79 78.773666 76.773666 81 74 81 L 26 81 C 23.226334 81 21 78.773666 21 76 L 21 69 C 22.667308 69 24 67.55728 24 65.832031 C 24 65.256716 23.776203 64.645164 23.494141 63.996094 C 23.301437 63.552653 23.076758 63.117607 22.853516 62.703125 C 23.660717 62.439493 24.388485 62.005887 25.005859 61.449219 C 25.254565 61.851149 25.521195 62.26538 25.810547 62.65625 C 26.231992 63.22556 26.651771 63.728065 27.150391 64.015625 C 27.653486 64.305286 28.221841 64.460937 28.796875 64.460938 C 29.879 64.460938 30.865173 63.914812 31.392578 63 C 32.225174 61.556269 31.643758 59.680594 30.150391 58.818359 C 29.466651 58.423258 28.390619 58.284015 26.867188 58.246094 C 26.95274 57.843948 27 57.426918 27 57 C 27 56.573082 26.95274 56.156052 26.867188 55.753906 C 28.390154 55.716109 29.466107 55.577556 30.150391 55.181641 C 31.643717 54.319406 32.225174 52.443731 31.392578 51 C 30.865173 50.085188 29.879 49.539062 28.796875 49.539062 C 28.222655 49.539062 27.65412 49.695128 27.150391 49.986328 C 26.651771 50.273888 26.232092 50.774482 25.810547 51.34375 C 25.521257 51.734417 25.25447 52.148429 25.005859 52.550781 C 24.388485 51.994113 23.660717 51.560507 22.853516 51.296875 C 23.076758 50.882393 23.301437 50.447347 23.494141 50.003906 C 23.776203 49.354836 24 48.743284 24 48.167969 C 24 46.44272 22.667308 45 21 45 L 21 41 L 21 30 z M 50 45 C 48.332692 45 47 46.44272 47 48.167969 C 47 48.743284 47.22394 49.355126 47.505859 50.003906 C 47.698384 50.44696 47.92194 50.882478 48.144531 51.296875 C 47.338349 51.560093 46.608567 51.99151 45.992188 52.546875 C 45.744032 52.146012 45.4778 51.733205 45.189453 51.34375 C 44.768152 50.77472 44.348167 50.273852 43.849609 49.986328 C 43.34588 49.695128 42.777345 49.539063 42.203125 49.539062 C 41.121 49.539063 40.134827 50.085188 39.607422 51 C 38.774826 52.443731 39.356242 54.319406 40.849609 55.181641 C 41.533349 55.576742 42.609381 55.715985 44.132812 55.753906 C 44.047351 56.156377 44 56.57248 44 57 C 44 57.42818 44.047094 57.845001 44.132812 58.248047 C 42.6098 58.285977 41.533756 58.42398 40.849609 58.820312 C 39.357298 59.682918 38.775091 61.556729 39.607422 63 C 40.134827 63.914812 41.121 64.460938 42.203125 64.460938 C 42.778159 64.460938 43.346514 64.305286 43.849609 64.015625 C 44.348229 63.728065 44.768008 63.22556 45.189453 62.65625 C 45.477899 62.266603 45.744075 61.853929 45.992188 61.453125 C 46.608567 62.00849 47.338349 62.439907 48.144531 62.703125 C 47.921936 63.1175 47.698375 63.552971 47.505859 63.996094 C 47.223952 64.644975 47 65.257033 47 65.832031 C 47 67.55728 48.332692 69 50 69 C 51.667308 69 53 67.55728 53 65.832031 C 53 65.257033 52.776048 64.644975 52.494141 63.996094 C 52.301625 63.552971 52.078064 63.1175 51.855469 62.703125 C 52.661651 62.439907 53.391433 62.00849 54.007812 61.453125 C 54.255927 61.853949 54.522111 62.266706 54.810547 62.65625 C 55.231977 63.225409 55.651771 63.726112 56.150391 64.013672 C 56.65412 64.304872 57.222655 64.460938 57.796875 64.460938 C 58.879 64.460938 59.865173 63.914812 60.392578 63 C 61.225174 61.556269 60.643758 59.680594 59.150391 58.818359 C 58.466841 58.423367 57.391135 58.284037 55.867188 58.246094 C 55.952649 57.843623 56 57.42752 56 57 C 56 56.57248 55.952649 56.156377 55.867188 55.753906 C 57.389562 55.715911 58.46499 55.576573 59.148438 55.181641 C 60.641804 54.319406 61.225174 52.443731 60.392578 51 C 59.865173 50.085188 58.877047 49.539062 57.794922 49.539062 C 57.219888 49.539062 56.653486 49.694714 56.150391 49.984375 A 0.50005 0.50005 0 0 0 56.148438 49.984375 C 55.650245 50.272371 55.231964 50.774349 54.810547 51.34375 C 54.522248 51.733287 54.255847 52.145673 54.007812 52.546875 C 53.391433 51.99151 52.661651 51.560093 51.855469 51.296875 C 52.078102 50.882508 52.301696 50.44707 52.494141 50.003906 C 52.775943 49.354965 53 48.742769 53 48.167969 C 53 46.44272 51.667308 45 50 45 z M 21 46 C 22.088692 46 23 46.951218 23 48.167969 C 23 48.435653 22.835359 49.009039 22.576172 49.605469 C 22.36267 50.09677 22.096949 50.604263 21.841797 51.066406 C 21.565905 51.027248 21.286394 51 21 51 L 21 46 z M 50 46 C 51.088692 46 52 46.951218 52 48.167969 C 52 48.435168 51.835119 49.00916 51.576172 49.605469 C 51.362786 50.096856 51.0966 50.604139 50.841797 51.066406 C 50.566072 51.027417 50.286294 51 50 51 C 49.713706 51 49.433928 51.027417 49.158203 51.066406 C 48.903445 50.603896 48.637403 50.096967 48.423828 49.605469 C 48.164748 49.009249 48 48.435653 48 48.167969 C 48 46.951218 48.911308 46 50 46 z M 79 46 L 79 51 C 78.713606 51 78.434095 51.027248 78.158203 51.066406 C 77.903051 50.604263 77.63733 50.09677 77.423828 49.605469 C 77.164641 49.009039 77 48.435653 77 48.167969 C 77 46.951218 77.911308 46 79 46 z M 28.796875 50.539062 C 29.55075 50.539063 30.180749 50.898812 30.527344 51.5 C 31.070748 52.442269 30.703023 53.706688 29.650391 54.314453 C 29.298874 54.517835 28.189651 54.720749 26.558594 54.757812 C 26.345738 54.233464 26.061539 53.74565 25.716797 53.306641 C 25.989834 52.854522 26.296202 52.370286 26.615234 51.939453 C 27.002689 51.416221 27.419011 50.985002 27.650391 50.851562 C 28.004661 50.646763 28.403095 50.539064 28.796875 50.539062 z M 42.203125 50.539062 C 42.596905 50.539062 42.995339 50.646763 43.349609 50.851562 C 43.581052 50.985039 43.997566 51.416483 44.384766 51.939453 C 44.703543 52.370009 45.010129 52.85302 45.283203 53.304688 C 44.937911 53.744351 44.652344 54.232183 44.439453 54.757812 C 42.809607 54.720614 41.700112 54.516993 41.349609 54.314453 C 40.296977 53.706688 39.929252 52.442269 40.472656 51.5 C 40.819251 50.898812 41.44925 50.539063 42.203125 50.539062 z M 57.794922 50.539062 C 58.548797 50.539062 59.178796 50.898812 59.525391 51.5 C 60.068795 52.442269 59.701069 53.706688 58.648438 54.314453 C 58.298081 54.516909 57.189227 54.720486 55.560547 54.757812 C 55.347656 54.232183 55.062089 53.744351 54.716797 53.304688 C 54.989016 52.853027 55.29468 52.369934 55.613281 51.939453 C 56.000614 51.416104 56.416629 50.985567 56.648438 50.851562 C 57.003341 50.647225 57.399956 50.539064 57.794922 50.539062 z M 71.203125 50.539062 C 71.596905 50.539062 71.995339 50.646763 72.349609 50.851562 C 72.580989 50.985003 72.997311 51.416221 73.384766 51.939453 C 73.703798 52.370286 74.010166 52.854522 74.283203 53.306641 C 73.938461 53.74565 73.654262 54.233464 73.441406 54.757812 C 71.810316 54.720749 70.701126 54.517835 70.349609 54.314453 C 69.296977 53.706688 68.929252 52.442269 69.472656 51.5 C 69.819251 50.898812 70.44925 50.539064 71.203125 50.539062 z M 21 52 C 21.313303 52 21.618691 52.032764 21.916016 52.087891 A 0.50005 0.50005 0 0 0 22.078125 52.123047 C 24.320302 52.617035 26 54.610113 26 57 C 26 59.395529 24.312638 61.392835 22.0625 61.880859 A 0.50005 0.50005 0 0 0 21.941406 61.908203 C 21.636236 61.966408 21.322137 62 21 62 L 21 52 z M 50 52 C 50.314059 52 50.620165 52.032862 50.917969 52.087891 A 0.50005 0.50005 0 0 0 51.080078 52.123047 C 53.324754 52.615816 55 54.604431 55 57 C 55 59.394912 53.325779 61.383497 51.082031 61.876953 A 0.50005 0.50005 0 0 0 50.919922 61.912109 C 50.621529 61.967365 50.314722 62 50 62 C 49.67646 62 49.360897 61.966525 49.054688 61.908203 A 0.50005 0.50005 0 0 0 48.931641 61.880859 C 47.225751 61.510853 45.865836 60.270555 45.298828 58.648438 A 0.50005 0.50005 0 0 0 45.259766 58.523438 C 45.105164 58.040703 45 57.534963 45 57 C 45 54.605088 46.674221 52.616503 48.917969 52.123047 A 0.50005 0.50005 0 0 0 49.080078 52.087891 C 49.378471 52.032635 49.685278 52 50 52 z M 79 52 L 79 62 C 78.677199 62 78.3624 61.966643 78.056641 61.908203 A 0.50005 0.50005 0 0 0 77.933594 61.880859 C 75.685303 61.391447 74 59.39422 74 57 C 74 54.610768 75.678669 52.617724 77.919922 52.123047 A 0.50005 0.50005 0 0 0 78.082031 52.087891 C 78.379946 52.032535 78.686034 52 79 52 z M 26.558594 59.242188 C 28.189539 59.27926 29.299742 59.482923 29.650391 59.685547 C 30.703023 60.293312 31.070748 61.557731 30.527344 62.5 C 30.180749 63.101188 29.55075 63.460936 28.796875 63.460938 C 28.401909 63.460938 28.005295 63.352775 27.650391 63.148438 C 27.419011 63.014997 27.002539 62.58569 26.615234 62.0625 C 26.295791 61.63098 25.988037 61.146059 25.714844 60.693359 C 26.05991 60.254112 26.345589 59.766901 26.558594 59.242188 z M 55.560547 59.242188 C 57.191344 59.279339 58.299647 59.482868 58.650391 59.685547 C 59.703023 60.293312 60.070748 61.557731 59.527344 62.5 C 59.180749 63.101188 58.55075 63.460937 57.796875 63.460938 C 57.403095 63.460938 57.004661 63.353237 56.650391 63.148438 C 56.419011 63.014997 56.002554 62.583638 55.615234 62.060547 C 55.296431 61.629989 54.989624 61.146675 54.716797 60.695312 C 55.062089 60.255649 55.347656 59.767817 55.560547 59.242188 z M 73.441406 59.242188 C 73.654411 59.766901 73.94009 60.254112 74.285156 60.693359 C 74.011963 61.146059 73.704209 61.63098 73.384766 62.0625 C 72.997461 62.58569 72.580989 63.014997 72.349609 63.148438 C 71.994705 63.352775 71.598091 63.460936 71.203125 63.460938 C 70.44925 63.460938 69.819251 63.101188 69.472656 62.5 C 68.929252 61.557731 69.296977 60.293312 70.349609 59.685547 C 70.700258 59.482923 71.810461 59.279257 73.441406 59.242188 z M 44.439453 59.244141 C 44.652469 59.769617 44.937848 60.257757 45.283203 60.697266 C 45.010509 61.148961 44.703343 61.63215 44.384766 62.0625 C 43.997461 62.58569 43.580989 63.014997 43.349609 63.148438 C 42.994705 63.352775 42.598091 63.460936 42.203125 63.460938 C 41.44925 63.460938 40.819251 63.101188 40.472656 62.5 C 39.929252 61.557731 40.296977 60.293312 41.349609 59.685547 A 0.50005 0.50005 0 0 0 41.351562 59.685547 C 41.70115 59.483027 42.809861 59.2818 44.439453 59.244141 z M 21.841797 62.933594 C 22.096949 63.395737 22.36267 63.90323 22.576172 64.394531 C 22.835359 64.990961 23 65.564347 23 65.832031 C 23 67.048782 22.088692 68 21 68 L 21 63 C 21.286394 63 21.565905 62.972752 21.841797 62.933594 z M 49.158203 62.933594 C 49.433928 62.972583 49.713706 63 50 63 C 50.286294 63 50.566072 62.972583 50.841797 62.933594 C 51.096455 63.395924 51.362667 63.903095 51.576172 64.394531 C 51.835265 64.9909 52 65.56503 52 65.832031 C 52 67.048782 51.088692 68 50 68 C 48.911308 68 48 67.048782 48 65.832031 C 48 65.56503 48.164735 64.9909 48.423828 64.394531 C 48.637333 63.903095 48.903545 63.395924 49.158203 62.933594 z M 78.158203 62.933594 C 78.434095 62.972752 78.713606 63 79 63 L 79 68 C 77.911308 68 77 67.048782 77 65.832031 C 77 65.564347 77.164641 64.990961 77.423828 64.394531 C 77.63733 63.90323 77.903051 63.395737 78.158203 62.933594 z"/></svg>