<?xml version="1.0"?><svg xmlns="http://www.w3.org/2000/svg"  viewBox="0 0 100 100" width="100px" height="100px">    <path d="M 57.921875 15.001953 C 57.053916 14.96143 56.250828 15.492781 55.955078 16.347656 C 54.951078 19.256656 53.170672 20.767797 50.513672 20.966797 C 47.270672 21.193797 45.177969 19.730031 43.917969 16.332031 C 43.558969 15.374031 42.543266 14.844703 41.572266 15.095703 C 37.800266 16.014703 34.263547 17.497859 31.060547 19.505859 C 30.203547 20.045859 29.886266 21.142688 30.322266 22.054688 C 31.750266 25.065687 31.454672 27.442109 29.388672 29.537109 C 27.310672 31.663109 24.920906 31.995656 21.878906 30.597656 C 20.950906 30.150656 19.852031 30.487188 19.332031 31.367188 C 17.342031 34.638188 15.902641 38.192109 15.056641 41.912109 C 14.814641 42.901109 15.356641 43.903234 16.306641 44.240234 C 19.353641 45.360234 20.804047 47.213359 20.873047 50.068359 C 20.942047 53.048359 19.515766 55.005703 16.384766 56.220703 C 15.450766 56.577703 14.925109 57.579781 15.162109 58.550781 C 16.048109 62.220781 17.533172 65.738766 19.576172 69.009766 C 20.110172 69.863766 21.161219 70.185297 22.074219 69.779297 C 25.026219 68.460297 27.35625 68.771625 29.40625 70.765625 C 31.50225 72.812625 31.870313 75.166016 30.570312 78.166016 C 30.170313 79.069016 30.504516 80.143969 31.353516 80.667969 C 34.647516 82.668969 38.183391 84.111641 41.775391 84.931641 C 41.988391 85.000641 42.169344 85 42.277344 85 C 43.052344 85 43.798844 84.521484 44.089844 83.896484 C 44.198844 83.713484 44.267156 83.563234 44.285156 83.490234 C 45.267156 80.920234 47.431594 79.30725 49.933594 79.28125 L 50.111328 79.273438 C 52.720328 79.306438 54.875625 80.821562 55.890625 83.351562 C 56.415625 84.609562 57.525516 85.156547 58.853516 84.810547 C 62.183516 83.971547 65.399984 82.639266 68.458984 80.822266 L 68.894531 80.527344 C 69.712531 80.007344 70.030625 78.971875 69.640625 78.046875 C 68.425625 75.304875 68.641312 73.11525 70.320312 71.15625 C 72.387312 68.73925 74.862234 68.256484 78.115234 69.646484 C 79.013234 70.027484 80.072891 69.685469 80.587891 68.855469 C 82.601891 65.604469 84.067266 62.080906 84.947266 58.378906 L 84.949219 58.369141 C 85.169219 57.406141 84.64175 56.413547 83.71875 56.060547 C 80.70075 54.903547 79.268031 53.048656 79.207031 50.222656 C 79.146031 47.247656 80.581797 45.293172 83.716797 44.076172 C 84.562797 43.753172 85.080469 42.901531 84.980469 42.019531 C 84.723469 39.432531 81.933672 32.71875 80.388672 30.96875 C 79.807672 30.30675 78.844781 30.105375 78.050781 30.484375 C 75.076781 31.875375 72.719859 31.561094 70.630859 29.496094 C 68.527859 27.415094 68.203234 25.016453 69.615234 21.939453 C 70.035234 21.015453 69.705516 19.926109 68.853516 19.412109 C 65.544516 17.375109 61.991875 15.907687 58.296875 15.054688 C 58.1715 15.024812 58.045869 15.007742 57.921875 15.001953 z M 57.837891 17.005859 C 61.328891 17.812859 64.681875 19.194328 67.796875 21.111328 C 66.037875 24.942328 66.516656 28.243875 69.222656 30.921875 C 71.911656 33.581875 75.168719 34.045922 78.886719 32.294922 C 80.166719 33.744922 82.774094 40.052891 82.996094 42.212891 C 79.076094 43.734891 77.127078 46.444578 77.205078 50.267578 C 77.283078 53.907578 79.233047 56.486641 82.998047 57.931641 C 82.169047 61.415641 80.784484 64.736641 78.896484 67.806641 C 74.838484 66.075641 71.444781 66.763469 68.800781 69.855469 C 66.622781 72.395469 66.288484 75.423 67.771484 78.875 L 67.390625 79.134766 C 64.544625 80.823766 61.506422 82.079047 58.357422 82.873047 C 57.993422 82.969047 57.874234 82.90975 57.740234 82.59375 C 56.403234 79.26275 53.517484 77.273438 50.021484 77.273438 L 49.761719 77.283203 L 49.751953 77.287109 C 46.478953 77.387109 43.677016 79.477297 42.416016 82.779297 L 42.265625 82.957031 L 42.248047 82.992188 C 38.799047 82.194187 35.483344 80.838703 32.402344 78.970703 C 34.033344 75.206703 33.496734 71.966937 30.802734 69.335938 C 29.192734 67.771937 27.372328 66.986328 25.361328 66.986328 C 24.074328 66.986328 22.709437 67.306219 21.273438 67.949219 C 19.344438 64.862219 17.944469 61.543891 17.105469 58.087891 C 21.023469 56.566891 22.965 53.852484 22.875 50.021484 C 22.786 46.341484 20.809906 43.766047 17.003906 42.373047 C 17.805906 38.849047 19.163297 35.496156 21.029297 32.410156 C 24.850297 34.171156 28.144406 33.675406 30.816406 30.941406 C 33.475406 28.245406 33.918953 24.967125 32.126953 21.203125 C 35.146953 19.309125 38.483922 17.909203 42.044922 17.033203 C 43.614922 21.268203 46.513156 23.262844 50.660156 22.964844 C 54.103156 22.707844 56.589891 20.646859 57.837891 17.005859 z M 50.001953 28.023438 C 37.883953 28.023438 28.023437 37.882953 28.023438 50.001953 C 28.023438 50.277953 28.247438 50.501953 28.523438 50.501953 C 28.799437 50.501953 29.023437 50.277953 29.023438 50.001953 C 29.023438 42.044953 33.476484 35.107734 40.021484 31.552734 L 40.742188 38.222656 C 37.252188 40.971656 35 45.223 35 50 C 35 52.737 35.748203 55.296813 37.033203 57.507812 L 31.433594 59.753906 C 30.968594 58.870906 30.555797 57.952188 30.216797 56.992188 C 30.124797 56.732188 29.841125 56.5955 29.578125 56.6875 C 29.318125 56.7795 29.181438 57.065172 29.273438 57.326172 C 32.370438 66.090172 40.7 71.978516 50 71.978516 C 50.813 71.978516 51.635406 71.93375 52.441406 71.84375 C 52.715406 71.81375 52.913813 71.566016 52.882812 71.291016 C 52.851813 71.016016 52.600078 70.815609 52.330078 70.849609 C 51.559078 70.935609 50.774047 70.978516 49.998047 70.978516 C 48.225047 70.978516 46.492172 70.744359 44.826172 70.318359 L 48.101562 64.867188 C 48.725562 64.946188 49.356 65 50 65 C 58.271 65 65 58.271 65 50 C 65 49.968 64.994141 49.93825 64.994141 49.90625 L 70.921875 51.1875 C 70.870875 52.0945 70.783188 52.998719 70.617188 53.886719 C 70.566187 54.157719 70.744625 54.41775 71.015625 54.46875 C 71.046625 54.47475 71.078375 54.478516 71.109375 54.478516 C 71.344375 54.478516 71.554609 54.310312 71.599609 54.070312 C 71.849609 52.734313 71.976563 51.365953 71.976562 50.001953 C 71.978563 43.346953 69.010891 37.122781 63.837891 32.925781 C 63.623891 32.752781 63.310766 32.784047 63.134766 32.998047 C 62.960766 33.213047 62.993031 33.526172 63.207031 33.701172 C 65.391031 35.472172 67.159031 37.623531 68.457031 40.019531 L 61.779297 40.742188 C 59.030297 37.252188 54.777 35 50 35 C 49.969 35 49.93725 35.005859 49.90625 35.005859 L 51.191406 29.060547 C 52.630406 29.141547 54.054453 29.363375 55.439453 29.734375 C 55.706453 29.801375 55.981734 29.647859 56.052734 29.380859 C 56.123734 29.113859 55.964266 28.841531 55.697266 28.769531 C 53.847266 28.274531 51.931953 28.023438 50.001953 28.023438 z M 50.001953 29.021484 C 50.058953 29.021484 50.116781 29.027344 50.175781 29.027344 L 48.873047 35.056641 C 47.789047 35.137641 46.736516 35.328906 45.728516 35.628906 L 45.728516 29.462891 C 47.108516 29.175891 48.537953 29.021484 50.001953 29.021484 z M 44.726562 29.720703 L 44.726562 35.974609 C 43.645562 36.382609 42.619828 36.89825 41.673828 37.53125 L 40.976562 31.091797 C 42.169562 30.519797 43.422562 30.060703 44.726562 29.720703 z M 58.759766 29.878906 C 58.565094 29.874453 58.378922 29.986031 58.294922 30.175781 C 58.181922 30.428781 58.294875 30.723938 58.546875 30.835938 C 59.075875 31.072937 59.599562 31.333375 60.101562 31.609375 C 60.178562 31.651375 60.259797 31.671875 60.341797 31.671875 C 60.517797 31.671875 60.688297 31.577109 60.779297 31.412109 C 60.912297 31.170109 60.823031 30.866422 60.582031 30.732422 C 60.056031 30.443422 59.508125 30.171828 58.953125 29.923828 C 58.890375 29.895328 58.824656 29.880391 58.759766 29.878906 z M 50 36 C 56.22 36 61.499359 40.079172 63.318359 45.701172 L 63.318359 45.728516 L 63.326172 45.728516 C 63.760172 47.076516 64 48.51 64 50 C 64 57.72 57.72 64 50 64 C 42.28 64 36 57.72 36 50 C 36 43.78 40.079172 38.500641 45.701172 36.681641 L 45.726562 36.681641 L 45.726562 36.673828 C 47.074563 36.239828 48.51 36 50 36 z M 68.945312 40.972656 C 69.518312 42.173656 69.967734 43.432516 70.302734 44.728516 L 64.025391 44.728516 C 63.617391 43.647516 63.10175 42.619828 62.46875 41.673828 L 68.945312 40.972656 z M 50 42 C 45.589 42 42 45.589 42 50 C 42 54.411 45.589 58 50 58 C 54.411 58 58 54.411 58 50 C 58 45.589 54.411 42 50 42 z M 50 44 C 53.309 44 56 46.691 56 50 C 56 53.309 53.309 56 50 56 C 46.691 56 44 53.309 44 50 C 44 46.691 46.691 44 50 44 z M 64.371094 45.726562 L 70.533203 45.726562 C 70.820203 47.117562 70.976562 48.546047 70.976562 49.998047 C 70.977563 50.057047 70.96975 50.117781 70.96875 50.175781 L 64.941406 48.871094 C 64.860406 47.787094 64.671094 46.734563 64.371094 45.726562 z M 70.226562 56.660156 C 70.032313 56.671828 69.853703 56.796438 69.783203 56.992188 C 69.406203 58.059188 68.936672 59.106563 68.388672 60.101562 C 68.255672 60.343562 68.343937 60.64725 68.585938 60.78125 C 68.661937 60.82325 68.744172 60.84375 68.826172 60.84375 C 69.002172 60.84375 69.174625 60.748984 69.265625 60.583984 C 69.838625 59.540984 70.328609 58.444172 70.724609 57.326172 C 70.817609 57.064172 70.681875 56.7785 70.421875 56.6875 C 70.356875 56.6645 70.291313 56.656266 70.226562 56.660156 z M 37.560547 58.373047 C 38.175547 59.283047 38.895453 60.113188 39.689453 60.867188 L 34.609375 64.236328 C 33.595375 63.142328 32.698687 61.936813 31.929688 60.632812 L 37.560547 58.373047 z M 40.453125 61.5625 C 41.340125 62.2965 42.322281 62.915641 43.363281 63.431641 L 38.435547 67.478516 C 37.321547 66.741516 36.273406 65.907703 35.316406 64.970703 L 40.453125 61.5625 z M 66.652344 63.001953 C 66.525219 63.015578 66.403406 63.078047 66.316406 63.185547 C 63.540406 66.617547 59.677453 69.131625 55.439453 70.265625 C 55.171453 70.336625 55.013938 70.610953 55.085938 70.876953 C 55.146937 71.100953 55.348359 71.248047 55.568359 71.248047 C 55.610359 71.248047 55.654266 71.241469 55.697266 71.230469 C 60.138266 70.042469 64.18575 67.409453 67.09375 63.814453 C 67.26775 63.599453 67.234531 63.285328 67.019531 63.111328 C 66.912031 63.024328 66.779469 62.988328 66.652344 63.001953 z M 44.375 63.896484 C 45.227 64.242484 46.113203 64.518125 47.033203 64.703125 L 43.828125 70.039062 C 42.245125 69.550062 40.734266 68.882875 39.322266 68.046875 L 44.375 63.896484 z"/></svg>