<svg xmlns="http://www.w3.org/2000/svg"  viewBox="0 0 100 100" width="100px" height="100px"><path d="M 59.984375 16 A 1.0001 1.0001 0 0 0 59.292969 16.292969 L 52.292969 23.292969 A 1.0001 1.0001 0 0 0 52.292969 24.707031 L 61.716797 34.130859 C 36.41494 34.829708 16 55.533036 16 81 L 16 83 A 1.0001 1.0001 0 0 0 17 84 L 27 84 A 1.0001 1.0001 0 0 0 28 83 L 28 81 C 28 62.229818 42.862813 46.999864 61.427734 46.158203 L 52.292969 55.292969 A 1.0001 1.0001 0 0 0 52.292969 56.707031 L 59.292969 63.707031 A 1.0001 1.0001 0 0 0 60.707031 63.707031 L 76.707031 47.707031 L 83.707031 40.707031 A 1.0001 1.0001 0 0 0 83.707031 39.292969 L 76.707031 32.292969 L 60.707031 16.292969 A 1.0001 1.0001 0 0 0 59.984375 16 z M 60 18.414062 L 75.292969 33.707031 L 81.585938 40 L 75.292969 46.292969 L 60 61.585938 L 54.414062 56 L 64.707031 45.707031 A 1.0001 1.0001 0 0 0 64 44 L 63 44 C 42.60666 44 26 60.60666 26 81 L 26 82 L 18 82 L 18 81 C 18 56.178396 38.178396 36 63 36 L 64 36 A 1.0001 1.0001 0 0 0 64.707031 34.292969 L 54.414062 24 L 60 18.414062 z M 60.994141 23.994141 A 0.50005 0.50005 0 0 0 60.646484 24.853516 L 65.646484 29.853516 A 0.50005 0.50005 0 1 0 66.353516 29.146484 L 61.353516 24.146484 A 0.50005 0.50005 0 0 0 60.994141 23.994141 z M 69.994141 32.994141 A 0.50005 0.50005 0 0 0 69.646484 33.853516 L 72.146484 36.353516 A 0.50005 0.50005 0 1 0 72.853516 35.646484 L 70.353516 33.146484 A 0.50005 0.50005 0 0 0 69.994141 32.994141 z M 74.994141 37.994141 A 0.50005 0.50005 0 0 0 74.646484 38.853516 L 76.146484 40.353516 A 0.50005 0.50005 0 1 0 76.853516 39.646484 L 75.353516 38.146484 A 0.50005 0.50005 0 0 0 74.994141 37.994141 z M 71.990234 43.996094 A 0.50005 0.50005 0 0 0 71.646484 44.146484 L 60.646484 55.146484 A 0.50005 0.50005 0 1 0 61.353516 55.853516 L 72.353516 44.853516 A 0.50005 0.50005 0 0 0 71.990234 43.996094 z"/></svg>