<?xml version="1.0"?><svg xmlns="http://www.w3.org/2000/svg"  viewBox="0 0 100 100" width="100px" height="100px">    <path d="M 33.574219 10.882812 C 26.406219 10.882812 20.574219 16.714813 20.574219 23.882812 L 20.574219 75.882812 C 20.574219 83.050813 26.406219 88.882812 33.574219 88.882812 L 66.574219 88.882812 C 73.742219 88.882812 79.574219 83.050813 79.574219 75.882812 L 79.574219 23.882812 C 79.574219 16.714812 73.742219 10.882812 66.574219 10.882812 L 33.574219 10.882812 z M 33.574219 12.882812 L 66.574219 12.882812 C 72.639219 12.882812 77.574219 17.817813 77.574219 23.882812 L 77.574219 75.882812 C 77.574219 81.947812 72.639219 86.882812 66.574219 86.882812 L 33.574219 86.882812 C 27.509219 86.882812 22.574219 81.947812 22.574219 75.882812 L 22.574219 23.882812 C 22.574219 17.817812 27.509219 12.882812 33.574219 12.882812 z M 35.53125 16.882812 C 28.55225 16.882812 25.574219 19.756141 25.574219 26.494141 L 25.574219 73.443359 C 25.574219 79.618359 29.747578 82.880859 37.642578 82.880859 L 61.505859 82.880859 C 69.401859 82.880859 73.574219 79.572406 73.574219 73.316406 L 73.574219 47.382812 C 73.575219 47.106813 73.350219 46.882812 73.074219 46.882812 C 72.798219 46.882812 72.574219 47.106812 72.574219 47.382812 L 72.574219 73.318359 C 72.574219 79.001359 68.851813 81.882813 61.507812 81.882812 L 37.642578 81.882812 C 30.297578 81.882812 26.574219 79.042359 26.574219 73.443359 L 26.574219 26.494141 C 26.574219 20.296141 29.08625 17.882812 35.53125 17.882812 L 62.074219 17.882812 C 62.350219 17.882812 62.574219 17.658812 62.574219 17.382812 C 62.574219 17.106813 62.350219 16.882812 62.074219 16.882812 L 35.53125 16.882812 z M 33.574219 21.882812 C 32.471219 21.882812 31.574219 22.779813 31.574219 23.882812 C 31.574219 24.985813 32.471219 25.882812 33.574219 25.882812 C 34.677219 25.882812 35.574219 24.985812 35.574219 23.882812 C 35.574219 22.779812 34.676219 21.882812 33.574219 21.882812 z M 33.574219 22.882812 C 34.126219 22.882812 34.574219 23.330812 34.574219 23.882812 C 34.574219 24.434812 34.126219 24.882812 33.574219 24.882812 C 33.022219 24.882812 32.574219 24.434813 32.574219 23.882812 C 32.574219 23.330813 33.022219 22.882812 33.574219 22.882812 z M 50.294922 23.882812 C 47.692922 23.882812 45.574219 25.999562 45.574219 28.601562 L 45.574219 60.533203 C 42.512219 62.457203 40.915469 65.904516 41.480469 69.478516 C 42.094469 73.363516 45.323031 76.433266 49.332031 76.947266 C 49.741031 76.999266 50.151594 77.025391 50.558594 77.025391 C 52.841594 77.025391 55.045047 76.213844 56.748047 74.714844 C 58.676047 73.017844 59.78125 70.590547 59.78125 68.060547 C 59.78125 65.013547 58.183219 62.181156 55.574219 60.535156 L 55.574219 28.601562 C 55.574219 25.999562 53.457469 23.882812 50.855469 23.882812 L 50.294922 23.882812 z M 50.294922 25.882812 L 50.855469 25.882812 C 52.354469 25.882812 53.574219 27.102562 53.574219 28.601562 L 53.574219 35.882812 L 52.074219 35.882812 C 51.798219 35.882812 51.574219 36.106812 51.574219 36.382812 C 51.574219 36.658813 51.798219 36.882812 52.074219 36.882812 L 53.574219 36.882812 L 53.574219 38.882812 L 52.074219 38.882812 C 51.798219 38.882812 51.574219 39.106812 51.574219 39.382812 C 51.574219 39.658813 51.798219 39.882812 52.074219 39.882812 L 53.574219 39.882812 L 53.574219 41.882812 L 52.074219 41.882812 C 51.798219 41.882812 51.574219 42.106812 51.574219 42.382812 C 51.574219 42.658813 51.798219 42.882812 52.074219 42.882812 L 53.574219 42.882812 L 53.574219 45.882812 L 52.074219 45.882812 C 51.798219 45.882812 51.574219 46.106812 51.574219 46.382812 C 51.574219 46.658813 51.798219 46.882813 52.074219 46.882812 L 53.574219 46.882812 L 53.574219 48.882812 L 52.074219 48.882812 C 51.798219 48.882812 51.574219 49.106812 51.574219 49.382812 C 51.574219 49.658813 51.798219 49.882813 52.074219 49.882812 L 53.574219 49.882812 L 53.574219 51.882812 L 52.074219 51.882812 C 51.798219 51.882812 51.574219 52.106812 51.574219 52.382812 C 51.574219 52.658813 51.798219 52.882813 52.074219 52.882812 L 53.574219 52.882812 L 53.574219 54.882812 L 52.074219 54.882812 C 51.798219 54.882812 51.574219 55.106812 51.574219 55.382812 C 51.574219 55.658813 51.798219 55.882813 52.074219 55.882812 L 53.574219 55.882812 L 53.574219 61.107422 C 53.574219 61.473422 53.775656 61.811328 54.097656 61.986328 C 56.370656 63.220328 57.78125 65.548547 57.78125 68.060547 C 57.78125 70.016547 56.923781 71.894891 55.425781 73.212891 C 53.851781 74.599891 51.723891 75.239891 49.587891 74.962891 C 46.453891 74.562891 43.932078 72.179016 43.455078 69.166016 C 42.993078 66.242016 44.404734 63.423375 47.052734 61.984375 C 47.374734 61.809375 47.574219 61.471469 47.574219 61.105469 L 47.574219 28.601562 C 47.574219 27.102563 48.795922 25.882812 50.294922 25.882812 z M 50.074219 31.882812 C 49.798219 31.882812 49.574219 32.106812 49.574219 32.382812 L 49.574219 65.066406 C 48.413219 65.480406 47.574219 66.580812 47.574219 67.882812 C 47.574219 69.536812 48.920219 70.882812 50.574219 70.882812 C 52.228219 70.882812 53.574219 69.536812 53.574219 67.882812 C 53.574219 66.228813 52.228219 64.882812 50.574219 64.882812 L 50.574219 32.382812 C 50.574219 32.106812 50.350219 31.882812 50.074219 31.882812 z M 73.074219 33.882812 C 72.798219 33.882812 72.574219 34.106812 72.574219 34.382812 L 72.574219 37.382812 C 72.574219 37.658813 72.798219 37.882812 73.074219 37.882812 C 73.350219 37.882812 73.574219 37.658813 73.574219 37.382812 L 73.574219 34.382812 C 73.574219 34.106813 73.350219 33.882812 73.074219 33.882812 z M 73.074219 38.882812 C 72.798219 38.882812 72.574219 39.106812 72.574219 39.382812 L 72.574219 44.382812 C 72.574219 44.658813 72.798219 44.882813 73.074219 44.882812 C 73.350219 44.882812 73.574219 44.658813 73.574219 44.382812 L 73.574219 39.382812 C 73.574219 39.106813 73.350219 38.882812 73.074219 38.882812 z M 50.574219 65.882812 C 51.677219 65.882812 52.574219 66.779813 52.574219 67.882812 C 52.574219 68.985812 51.676219 69.882812 50.574219 69.882812 C 49.471219 69.882812 48.574219 68.985812 48.574219 67.882812 C 48.574219 66.779813 49.471219 65.882812 50.574219 65.882812 z M 66.574219 73.882812 C 65.471219 73.882812 64.574219 74.779813 64.574219 75.882812 C 64.574219 76.985812 65.471219 77.882812 66.574219 77.882812 C 67.677219 77.882812 68.574219 76.985812 68.574219 75.882812 C 68.574219 74.779813 67.677219 73.882812 66.574219 73.882812 z M 66.574219 74.882812 C 67.126219 74.882812 67.574219 75.330812 67.574219 75.882812 C 67.574219 76.434813 67.126219 76.882812 66.574219 76.882812 C 66.022219 76.882812 65.574219 76.434813 65.574219 75.882812 C 65.574219 75.330812 66.022219 74.882812 66.574219 74.882812 z"/></svg>