<svg xmlns="http://www.w3.org/2000/svg"  viewBox="0 0 100 100" width="100px" height="100px"><path d="M95.3,57.5c-2.6-14.7-14.8-28-21.8-34.6c-1.9-1.8-4.4-2.8-7.1-2.8c-0.6,0-1.2,0.1-1.8,0.2	c-3.2,0.6-5.9,2.6-7.4,5.5c-1.2,2.3-2.5,5.3-3.8,8.6c-1.9-6.5-4.5-12.2-6.5-16.2c-1.5-2.9-4.2-5-7.4-5.5c-0.6-0.1-1.2-0.2-1.8-0.2	c-2.6,0-5.1,1-7.1,2.8c-7,6.6-19.2,19.9-21.8,34.6c-2.1,12,1,19.7,4,24.1c3.4,5,8.7,8.6,14.2,9.6c1.1,0.2,2.2,0.3,3.3,0.3	c6.6,0,14.6-3.2,20-11.5c4.8,14,15.3,19.1,23.6,19.1c1.1,0,2.2-0.1,3.3-0.3c5.5-1,10.8-4.5,14.2-9.6C94.3,77.3,97.4,69.5,95.3,57.5z" opacity=".35"/><path fill="#f2f2f2" d="M93.3,55.5c-2.6-14.7-14.8-28-21.8-34.6c-1.9-1.8-4.4-2.8-7.1-2.8c-0.6,0-1.2,0.1-1.8,0.2	c-3.2,0.6-5.9,2.6-7.4,5.5c-1.2,2.3-2.5,5.3-3.8,8.6c-1.9-6.5-4.5-12.2-6.5-16.2c-1.5-2.9-4.2-5-7.4-5.5c-0.6-0.1-1.2-0.2-1.8-0.2	c-2.6,0-5.1,1-7.1,2.8c-7,6.6-19.2,19.9-21.8,34.6c-2.1,12,1,19.7,4,24.1c3.4,5,8.7,8.6,14.2,9.6c1.1,0.2,2.2,0.3,3.3,0.3	c6.6,0,14.6-3.2,20-11.5c4.8,14,15.3,19.1,23.6,19.1c1.1,0,2.2-0.1,3.3-0.3c5.5-1,10.8-4.5,14.2-9.6C92.3,75.3,95.4,67.5,93.3,55.5z"/><path fill="#d47f56" d="M67,25.7c-1.9-1.8-4.9-1.2-6,1.1c-3.7,7.4-10.4,22.9-8.1,35.9C56,80.4,67.8,83.9,74,82.9	c6.2-1.1,16-8.4,12.9-26.2C84.6,43.7,73.1,31.4,67,25.7z"/><path fill="#d47f56" d="M39,19.1c-1.2-2.3-4.2-2.8-6-1.1c-6,5.7-17.6,18-19.9,31C10,66.7,19.8,74.1,26,75.2c6.2,1.1,18-2.4,21.1-20.2	C49.4,42,42.8,26.5,39,19.1z"/><path fill="none" stroke="#40396e" stroke-miterlimit="10" stroke-width="3" d="M67,25.7c-1.9-1.8-4.9-1.2-6,1.1c-3.7,7.4-10.4,22.9-8.1,35.9C56,80.4,67.8,83.9,74,82.9	c6.2-1.1,16-8.4,12.9-26.2C84.6,43.7,73.1,31.4,67,25.7z"/><g opacity=".35"><path fill="#40396e" d="M79,61.3C75.9,44,64.8,25.3,64.7,25.1c-0.2-0.3-0.6-0.4-1-0.4c0,0,0,0,0,0c0,0,0,0,0,0 c-0.4,0.1-0.7,0.3-0.8,0.7c0,0.2-4,21.6-1,39c1.5,8.8,3.8,14.6,6.1,18.2c0.9,0.2,1.8,0.4,2.7,0.4c-2.3-3-5.1-8.7-6.9-19 c-2-11.6-0.9-25.1,0.1-32.6L73,83c0.3,0,0.7-0.1,1-0.1s0.6-0.1,0.9-0.2l-9.1-51.5c3.5,6.7,9.2,18.9,11.2,30.5 c1.8,10.2,1.2,16.6,0,20.2c0.8-0.3,1.6-0.8,2.3-1.3C80.4,76.3,80.5,70.1,79,61.3z"/><path fill="#40396e" d="M35.3,17.4C35.2,17.6,24.1,36.3,21,53.7c-1.5,8.8-1.4,15-0.5,19.2c0.8,0.5,1.6,1,2.3,1.3 c-1.2-3.6-1.8-9.9,0-20.2c2-11.6,7.8-23.9,11.2-30.5L25.1,75c0.3,0.1,0.6,0.2,0.9,0.2c0.3,0.1,0.6,0.1,1,0.1l9.1-51.5 c1,7.5,2.2,21,0.1,32.5c-1.8,10.2-4.6,16-6.9,19c0.9-0.1,1.7-0.2,2.7-0.4c2.3-3.6,4.6-9.5,6.1-18.2c3.1-17.3-0.9-38.7-1-39 C36.9,16.9,35.7,16.7,35.3,17.4z"/></g><path fill="none" stroke="#40396e" stroke-miterlimit="10" stroke-width="3" d="M39,19.1c-1.2-2.3-4.2-2.8-6-1.1c-6,5.7-17.6,18-19.9,31C10,66.7,19.8,74.1,26,75.2c6.2,1.1,18-2.4,21.1-20.2	C49.4,42,42.8,26.5,39,19.1z"/></svg>