<svg xmlns="http://www.w3.org/2000/svg"  viewBox="0 0 100 100" width="100px" height="100px"><path d="M61.5,94.01c-3.216,0-6.53-0.956-9.5-2.692c-2.97,1.736-6.284,2.692-9.5,2.692c-6.498,0-10.213-2.208-12.991-4.369 C23.943,85.312,11,72.887,11,51.08c0-12.034,8.437-22.189,19.863-25.178c-1.475-5.228-0.639-9.953-0.495-10.674 c0.594-3.03,3.273-5.238,6.369-5.238h0.153l0.238,0.012c7.061,0.366,12.561,2.866,16.298,7.43c0.009,0.011,0.018,0.021,0.026,0.032 c0.967-0.817,2.011-1.548,3.124-2.186c0.979-0.561,2.096-0.859,3.228-0.859c2.324,0,4.486,1.252,5.642,3.269 c1.377,2.407,1.043,5.332-0.617,7.357c0.445-0.023,0.892-0.034,1.34-0.034C80.964,25.01,93,36.705,93,51.08 c0,21.808-12.943,34.232-18.509,38.561C71.713,91.802,67.998,94.01,61.5,94.01z" opacity=".35"/><path fill="#f2f2f2" d="M59.5,92.01c-3.216,0-6.53-0.956-9.5-2.692c-2.97,1.736-6.284,2.692-9.5,2.692 c-6.498,0-10.213-2.208-12.991-4.369C21.943,83.312,9,70.887,9,49.08c0-12.034,8.437-22.189,19.863-25.178 c-1.475-5.228-0.639-9.953-0.495-10.674c0.594-3.03,3.273-5.238,6.369-5.238h0.153l0.238,0.012 c7.061,0.366,12.561,2.866,16.298,7.43c0.009,0.011,0.018,0.021,0.026,0.032c0.967-0.817,2.011-1.548,3.124-2.186 c0.979-0.561,2.096-0.859,3.228-0.859c2.324,0,4.486,1.252,5.642,3.269c1.377,2.407,1.043,5.332-0.617,7.357 c0.445-0.023,0.892-0.034,1.34-0.034C78.964,23.01,91,34.705,91,49.08c0,21.808-12.943,34.232-18.509,38.561 C69.713,89.802,65.998,92.01,59.5,92.01z"/><path fill="#f4665c" d="M64.169,29.51c-5.65,0-10.506,2.35-14.169,5.941c-3.663-3.591-8.519-5.941-14.169-5.941 c-11.229,0-20.331,8.761-20.331,19.569c0,20.431,13.154,31.217,16,33.431c2.25,1.75,4.625,3,9,3c3.682,0,7.169-1.941,9.5-4.419 c2.331,2.478,5.818,4.419,9.5,4.419c4.375,0,6.75-1.25,9-3c2.846-2.214,16-13,16-33.431C84.5,38.271,75.398,29.51,64.169,29.51z"/><path fill="#ffe8d9" d="M59.5,80.51c-1.963,0-4.207-1.09-5.858-2.845L50,73.794l-3.642,3.872 c-1.651,1.755-3.896,2.845-5.858,2.845c-3.175,0-4.512-0.844-5.931-1.947C30.34,75.273,20.5,65.812,20.5,49.079 c0-8.033,6.878-14.569,15.331-14.569c5.014,0,8.569,2.454,10.669,4.512l3.5,3.431l3.5-3.431c2.1-2.058,5.655-4.512,10.669-4.512 c8.453,0,15.331,6.536,15.331,14.569c0,16.732-9.84,26.193-14.07,29.485C64.012,79.667,62.675,80.51,59.5,80.51z"/><path fill="#d47f56" d="M46,57.01c0,2.5-2.5,5-2.5,5s-2.5-2.5-2.5-5s2.5-5,2.5-5S46,54.51,46,57.01z"/><path fill="#d47f56" d="M59,57.01c0,2.5-2.5,5-2.5,5s-2.5-2.5-2.5-5s2.5-5,2.5-5S59,54.51,59,57.01z"/><path fill="#40396e" d="M59.5,87.01c-3.297,0-6.755-1.412-9.5-3.833c-2.745,2.421-6.203,3.833-9.5,3.833 c-4.695,0-7.362-1.326-9.921-3.316C25.594,79.816,14,68.68,14,49.08c0-11.618,9.793-21.069,21.831-21.069 c5.244,0,10.115,1.861,14.169,5.398c4.054-3.537,8.925-5.398,14.169-5.398C76.207,28.01,86,37.462,86,49.08 c0,19.601-11.594,30.736-16.579,34.615C66.862,85.685,64.195,87.01,59.5,87.01z M50,79.592c0.414,0,0.809,0.171,1.093,0.472 c2.324,2.471,5.468,3.946,8.407,3.946c3.854,0,5.948-1.027,8.079-2.684C72.216,77.719,83,67.356,83,49.08 c0-9.963-8.447-18.069-18.831-18.069c-6.195,0-10.554,2.998-13.119,5.513c-0.582,0.571-1.518,0.571-2.1,0 c-2.565-2.515-6.924-5.513-13.119-5.513C25.447,31.01,17,39.116,17,49.08c0,18.276,10.784,28.64,15.421,32.247 c2.131,1.657,4.226,2.684,8.079,2.684c2.939,0,6.083-1.475,8.407-3.946C49.191,79.763,49.586,79.592,50,79.592z"/><path fill="#40396e" d="M50.767,35.802c-0.702,0-1.33-0.497-1.47-1.212C49.1,33.584,49,32.548,49,31.51 c0-5.724,3.089-11.047,8.062-13.894c0.717-0.411,1.635-0.163,2.047,0.557c0.411,0.719,0.162,1.635-0.557,2.047 C54.511,22.533,52,26.859,52,31.51c0,0.845,0.081,1.687,0.24,2.503c0.159,0.813-0.371,1.601-1.184,1.76 C50.959,35.792,50.862,35.802,50.767,35.802z"/><path fill="#96c362" d="M49.474,31.402c0,0,2.366-16.027-14.73-16.912C34.744,14.49,31.457,31.199,49.474,31.402z"/><polygon fill="#739f4d" points="49.179,30.988 35.163,15 40.891,15.027 46.145,18.259 49.324,24.459 50.099,30.305"/><path fill="#40396e" d="M49.474,32.902c-0.006,0-0.011,0-0.017,0c-5.956-0.067-10.402-1.856-13.216-5.316 C31.782,22.1,33.209,14.52,33.272,14.2c0.144-0.732,0.836-1.245,1.549-1.208c5.645,0.292,9.93,2.179,12.737,5.607 c4.458,5.442,3.444,12.715,3.399,13.022C50.849,32.357,50.217,32.902,49.474,32.902z M36.062,16.1 c-0.155,2.136-0.076,6.428,2.521,9.608c2.011,2.463,5.201,3.853,9.495,4.14c0.043-2.086-0.252-6.203-2.854-9.367 C43.198,18.021,40.121,16.55,36.062,16.1z"/></svg>