<svg xmlns="http://www.w3.org/2000/svg"  viewBox="0 0 100 100" width="100px" height="100px"><path d="M20.3,96c-2.3,0-4.4-1.2-5.6-3.1c-1.9-3.1-0.9-7.1,2.2-8.9c1.3-0.8,2.6-1.6,4-2.5c-0.7-4.7-0.6-9.6,0.4-14.5	c0.2-1.2,0.5-2.5,0.9-3.7c-0.5-0.8-1-1.5-1.4-2.2c-0.4-0.7-0.7-1.3-1-1.9c-2.5-4.7-5.3-10-6.6-21.2c-0.2-1.2-0.4-4-0.3-13.5	c0-5.7,0-8.2,0.1-9.8c0-0.3,0-0.6,0.1-1c0.3-2,1.1-3.4,2.6-4.5C16.8,8.4,18.1,8,19.5,8c1,0,2.1,0.2,3,0.7L23.1,9	c7.3,3.4,13.1,6.4,18.1,9.7c4.4,2.8,8.2,6.4,11.7,10.9c1-0.5,2.1-0.9,3.2-1.3c2.7-1.1,9.8-2.7,21.9-5.4l0.1,0c1.9-0.4,4.2-0.9,4.6-1	c0.5-0.1,1.2-0.3,2-0.3c0.4,0,0.8,0,1.2,0.1c1.1,0.2,2.1,0.7,3,1.4c0.8,0.7,1.5,1.6,1.9,2.6c0.2,0.5,0.3,1,0.4,1.5	c0.1,0.5,0.1,0.8,0,1v0.4l0,0.1c-0.1,3.6-1,19-5.3,29.4c-4,10.7-11,18.4-15.9,23.4c-7.1,7.1-18.4,11.5-29.4,11.5	c-3.8,0-7.5-0.5-11.1-1.5c-1.9,1.2-3.8,2.4-5.7,3.5C22.6,95.7,21.5,96,20.3,96z" opacity=".35"/><path fill="#f2f2f2" d="M18.3,94c-2.3,0-4.4-1.2-5.6-3.1c-1.9-3.1-0.9-7.1,2.2-8.9c1.3-0.8,2.6-1.6,4-2.5c-0.7-4.7-0.6-9.6,0.4-14.5	c0.2-1.2,0.5-2.5,0.9-3.7c-0.5-0.8-1-1.5-1.4-2.2c-0.4-0.7-0.7-1.3-1-1.9c-2.5-4.7-5.3-10-6.6-21.2c-0.2-1.2-0.4-4-0.3-13.5	c0-5.7,0-8.2,0.1-9.8c0-0.3,0-0.6,0.1-1c0.3-2,1.1-3.4,2.6-4.5C14.8,6.4,16.1,6,17.5,6c1,0,2.1,0.2,3,0.7L21.1,7	c7.3,3.4,13.1,6.4,18.1,9.7c4.4,2.8,8.2,6.4,11.7,10.9c1-0.5,2.1-0.9,3.2-1.3c2.7-1.1,9.8-2.7,21.9-5.4l0.1,0c1.9-0.4,4.2-0.9,4.6-1	c0.5-0.1,1.2-0.3,2-0.3c0.4,0,0.8,0,1.2,0.1c1.1,0.2,2.1,0.7,3,1.4c0.8,0.7,1.5,1.6,1.9,2.6c0.2,0.5,0.3,1,0.4,1.5	c0.1,0.5,0.1,0.8,0,1v0.4l0,0.1c-0.1,3.6-1,19-5.3,29.4c-4,10.7-11,18.4-15.9,23.4c-7.1,7.1-18.4,11.5-29.4,11.5	c-3.8,0-7.5-0.5-11.1-1.5c-1.9,1.2-3.8,2.4-5.7,3.5C20.6,93.7,19.5,94,18.3,94z"/><path fill="#739f4d" d="M17.5,12.5c0-0.5-0.4,19,0.2,22.6c1.3,11.4,4.2,15.6,6.9,20.8c3.4,6.3,13.7,16.6,25.5,17.2 c7.1-9.9,6-23.5,1.8-31.7c-3.9-7.6-9-14.6-16.2-19.3c-5.5-3.6-11.4-6.6-17.3-9.3C18.1,12.8,17.8,12.6,17.5,12.5z"/><line x1="23" x2="38.8" y1="22.5" y2="49.1" fill="none" stroke="#40396e" stroke-linecap="round" stroke-linejoin="round" stroke-width="3"/><path fill="#96c362" d="M82.6,27.7c0.7,0-21.9,4.5-25.9,6.1C42.2,39.4,30.2,51,27.1,66.6c-1,5.2-0.9,10.7,0.6,15.7 c13.9,5.3,28.8,0,36.1-7.2c4.7-4.7,10.7-11.6,14.1-20.6C82.1,44.4,82.6,27.7,82.6,27.7z"/><path fill="none" stroke="#40396e" stroke-linecap="round" stroke-linejoin="round" stroke-width="3" d="M56.4,32.4c-2.6,1-5.2,2.2-7.6,3.6c-3.4-5.4-7.6-10.3-13.1-13.8c-5.5-3.6-11.4-6.6-17.3-9.3 c-0.3-0.1-0.6-0.3-0.9-0.4c0-0.5-0.4,19,0.2,22.6c1.3,11.4,4.2,15.6,6.9,20.8c0.7,1.3,1.7,2.7,2.9,4.2c-0.7,2-1.3,4-1.7,6.1 c-1,5.3-1,10.9,0.5,16.1c14.3,5.4,29.7,0,37.1-7.4c4.9-4.9,11-11.9,14.5-21.2c4.3-10.4,4.9-27.4,4.9-27.7 C81.9,26.4,60.4,30.8,56.4,32.4z"/><path fill="none" stroke="#40396e" stroke-linecap="round" stroke-linejoin="round" stroke-width="3" d="M82.6,26.1C82.6,26.1,82.6,26.1,82.6,26.1C82.6,26.1,82.6,26.1,82.6,26.1z"/><path fill="none" stroke="#40396e" stroke-linecap="round" stroke-linejoin="round" stroke-width="3" d="M71.2,39.8C58.5,58.4,40.1,74.3,18.3,87.5"/><path fill="none" stroke="#40396e" stroke-linecap="round" stroke-linejoin="round" stroke-width="3" d="M37,62.6c0.5,5.8,0.2,7.3-0.7,12.1"/><path fill="none" stroke="#40396e" stroke-linecap="round" stroke-linejoin="round" stroke-width="3" d="M49.8,64.4c2.3,0.8,5.6,1.3,8.4,0.5"/><path fill="none" stroke="#40396e" stroke-linecap="round" stroke-linejoin="round" stroke-width="3" d="M60.9,52c-1.8-3-1.8-5.7-1.5-8.2"/><path fill="none" stroke="#40396e" stroke-linecap="round" stroke-linejoin="round" stroke-width="3" d="M31,27.3c0.3,2.1-0.4,4-1.2,5.7"/><path fill="none" stroke="#40396e" stroke-linecap="round" stroke-linejoin="round" stroke-width="3" d="M25.4,39.4c2.4,1.1,5.1,1.2,8.1,0.7"/></svg>