<svg xmlns="http://www.w3.org/2000/svg"  viewBox="0 0 100 100" width="100px" height="100px"><g id="Слой_2"><path d="M100,57.999C99.999,50.831,94.168,45,87,45h-1.37c1.931-1.657,3.361-3.893,3.988-6.405 c0.884-3.543,0.207-7.279-1.858-10.249c-2.061-2.965-5.294-4.896-8.869-5.296C78.597,23.017,78.297,23,78,23h-2.178 C75.94,22.347,76,21.678,76,21c0-3.391-1.971-7.471-5.859-12.127C68.617,7.047,66.378,6,64,6s-4.617,1.047-6.141,2.873 c-0.117,0.14-0.237,0.286-0.359,0.436c-0.122-0.15-0.242-0.295-0.359-0.435C55.617,7.047,53.378,6,51,6s-4.617,1.047-6.141,2.873 c-0.117,0.14-0.237,0.286-0.359,0.436c-0.122-0.15-0.242-0.295-0.359-0.435C42.617,7.047,40.378,6,38,6 c-2.378,0-4.617,1.047-6.141,2.873C27.971,13.529,26,17.609,26,21c0,0.678,0.06,1.347,0.178,2H22c-0.297,0-0.597,0.017-0.892,0.05 c-3.574,0.4-6.807,2.331-8.868,5.296c-2.064,2.97-2.741,6.705-1.858,10.249c0.63,2.526,2.071,4.771,4.017,6.43 C8.007,45.421,2.663,50.428,2.06,56.749c-0.338,3.547,0.797,7.09,3.119,9.768C3.829,67.951,3,69.88,3,72c0,9.925,8.075,18,18,18h59 c9.925,0,18-8.075,18-18c0-1.865-0.642-3.583-1.716-4.945C98.682,64.6,100,61.39,100,57.999z" opacity=".35"/><path fill="#f2f2f2" d="M98,55.999C97.999,48.831,92.168,43,85,43h-1.37c1.931-1.657,3.361-3.893,3.988-6.405 c0.884-3.543,0.207-7.279-1.858-10.249c-2.061-2.965-5.294-4.896-8.869-5.296C76.597,21.017,76.297,21,76,21h-2.178 C73.94,20.347,74,19.678,74,19c0-3.391-1.971-7.471-5.859-12.127C66.617,5.047,64.378,4,62,4s-4.617,1.047-6.141,2.873 c-0.117,0.14-0.237,0.286-0.359,0.436c-0.122-0.15-0.242-0.295-0.359-0.435C53.617,5.047,51.378,4,49,4s-4.617,1.047-6.141,2.873 c-0.117,0.14-0.237,0.286-0.359,0.436c-0.122-0.15-0.242-0.295-0.359-0.435C40.617,5.047,38.378,4,36,4 c-2.378,0-4.617,1.047-6.141,2.873C25.971,11.529,24,15.609,24,19c0,0.678,0.06,1.347,0.178,2H20c-0.297,0-0.597,0.017-0.892,0.05 c-3.574,0.4-6.807,2.331-8.868,5.296c-2.064,2.97-2.741,6.705-1.858,10.249c0.63,2.526,2.071,4.771,4.017,6.43 C6.007,43.421,0.663,48.428,0.06,54.749c-0.338,3.547,0.797,7.09,3.119,9.768C1.829,65.951,1,67.88,1,70c0,9.925,8.075,18,18,18h59 c9.925,0,18-8.075,18-18c0-1.865-0.642-3.583-1.716-4.945C96.682,62.6,98,59.39,98,55.999z"/><path fill="#40396e" d="M88,67h-2v-3.064c1.735-0.222,3.353-1.02,4.635-2.302C92.16,60.11,93,58.108,93,55.999 C93,51.589,89.411,48,85,48h-9v-7.018c0.463-0.029,0.927-0.102,1.385-0.216c2.616-0.652,4.729-2.765,5.381-5.381 c0.535-2.145,0.13-4.399-1.112-6.185c-1.238-1.781-3.177-2.941-5.32-3.181C76.223,26.006,76.112,26,76,26h-8v-3.67 c0.695-1.025,1-2.214,1-3.33c0-2.869-2.943-6.822-4.697-8.923C63.733,9.395,62.889,9,62,9s-1.733,0.395-2.303,1.077 c-1.31,1.569-3.282,4.171-4.197,6.583c-0.915-2.412-2.887-5.014-4.197-6.583C50.733,9.395,49.889,9,49,9s-1.733,0.395-2.303,1.077 c-1.31,1.569-3.282,4.171-4.197,6.583c-0.915-2.412-2.887-5.014-4.197-6.583C37.733,9.395,36.889,9,36,9s-1.733,0.395-2.303,1.077 C31.943,12.178,29,16.131,29,19c0,1.116,0.305,2.305,1,3.33V26H20c-0.112,0-0.223,0.006-0.334,0.019 c-2.143,0.24-4.082,1.399-5.32,3.181c-1.241,1.786-1.647,4.04-1.112,6.185c0.653,2.617,2.765,4.729,5.381,5.381 c0.457,0.114,0.921,0.186,1.385,0.216V48h-6.785c-4.199,0-7.792,3.173-8.178,7.224c-0.214,2.249,0.53,4.493,2.043,6.157 c0.815,0.897,1.818,1.587,2.92,2.034V67H9c-1.657,0-3,1.343-3,3c0,7.168,5.832,13,13,13h59c7.168,0,13-5.832,13-13 C91,68.343,89.657,67,88,67z"/><path fill="#d84178" d="M74,51H22c-4.971,0-9,4.029-9,9v14c0,2.761,2.239,5,5,5h60c2.761,0,5-2.239,5-5V60C83,55.029,78.971,51,74,51 z"/><rect width="50" height="20" x="23" y="31" fill="#d84178"/><path fill="#9aa2e6" d="M78,80H19c-5.523,0-10-4.477-10-10v0h79v0C88,75.523,83.523,80,78,80z"/><rect width="6" height="7" x="33" y="22" fill="#de5147"/><path fill="#ffe385" d="M40,19c0,2.209-1.791,3-4,3s-4-0.791-4-3s4-7,4-7S40,16.791,40,19z"/><rect width="6" height="7" x="46" y="22" fill="#de5147"/><path fill="#ffe385" d="M53,19c0,2.209-1.791,3-4,3s-4-0.791-4-3s4-7,4-7S53,16.791,53,19z"/><rect width="6" height="7" x="59" y="22" fill="#de5147"/><path fill="#ffe385" d="M66,19c0,2.209-1.791,3-4,3c-2.209,0-4-0.791-4-3s4-7,4-7S66,16.791,66,19z"/><path d="M73,29H23v11.565c1.149-0.407,2.18-1.082,3-1.976C27.382,40.095,29.352,41,31.5,41 c2.148,0,4.119-0.905,5.5-2.411C38.381,40.095,40.352,41,42.5,41c2.148,0,4.119-0.905,5.5-2.411C49.381,40.095,51.352,41,53.5,41 c2.148,0,4.119-0.905,5.5-2.411C60.381,40.095,62.352,41,64.5,41c2.147,0,4.118-0.905,5.5-2.411c0.82,0.894,1.851,1.569,3,1.976V29 z" opacity=".35"/><path fill="#f4a3be" d="M76,29H20c-2.612,0.293-4.558,2.842-3.855,5.659c0.387,1.552,1.644,2.809,3.196,3.196 c2.498,0.623,4.747-0.837,5.427-2.998C24.926,34.356,25.367,34,25.892,34h0.215c0.526,0,0.966,0.358,1.125,0.86 C27.806,36.679,29.491,38,31.5,38s3.694-1.321,4.268-3.14c0.158-0.502,0.599-0.86,1.125-0.86h0.215c0.526,0,0.967,0.358,1.125,0.86 C38.806,36.679,40.491,38,42.5,38s3.694-1.321,4.268-3.14c0.158-0.502,0.599-0.86,1.125-0.86h0.215c0.526,0,0.967,0.358,1.125,0.86 C49.806,36.679,51.491,38,53.5,38s3.694-1.321,4.268-3.14c0.158-0.502,0.599-0.86,1.125-0.86h0.215c0.526,0,0.967,0.358,1.125,0.86 C60.806,36.679,62.491,38,64.5,38c2.009,0,3.694-1.321,4.268-3.14c0.158-0.502,0.599-0.86,1.125-0.86h0.215 c0.525,0,0.966,0.356,1.123,0.857c0.681,2.161,2.929,3.621,5.427,2.998c1.552-0.387,2.809-1.644,3.196-3.196 C80.558,31.842,78.612,29.293,76,29z"/><path d="M83,52H13.215c-0.072,0-0.143,0.008-0.215,0.01V64c2.363,0,4.524-1.036,6.003-2.712 c0.248,0.281,0.515,0.544,0.793,0.783c0.051,0.044,0.105,0.087,0.159,0.13c0.309,0.251,0.603,0.46,0.902,0.642l0.014,0.01 l0.091,0.054c0.348,0.203,0.711,0.376,1.124,0.538c0.088,0.035,0.152,0.06,0.219,0.084c0.381,0.136,0.775,0.244,1.172,0.321 c0.073,0.014,0.143,0.026,0.215,0.036c0.432,0.07,0.821,0.107,1.197,0.113L24.903,64L25,64c0.509,0,1.02-0.052,1.562-0.16 l0.142-0.028l0.071-0.021c1.671-0.372,3.14-1.264,4.23-2.5c0.247,0.28,0.513,0.543,0.791,0.781c0.051,0.044,0.105,0.087,0.159,0.13 c0.309,0.251,0.603,0.46,0.902,0.642l0.014,0.01l0.091,0.054c0.348,0.203,0.711,0.376,1.124,0.538 c0.088,0.035,0.152,0.06,0.219,0.084c0.381,0.136,0.775,0.244,1.172,0.321c0.073,0.014,0.143,0.026,0.215,0.036 c0.432,0.07,0.821,0.107,1.197,0.113L36.903,64L37,64c0.509,0,1.02-0.052,1.562-0.16l0.142-0.028l0.071-0.021 c1.671-0.372,3.14-1.264,4.23-2.5c0.247,0.28,0.513,0.543,0.791,0.781c0.051,0.044,0.105,0.087,0.159,0.13 c0.309,0.251,0.603,0.46,0.902,0.642l0.014,0.01l0.091,0.054c0.348,0.203,0.711,0.376,1.124,0.538 c0.088,0.035,0.152,0.06,0.219,0.084c0.381,0.136,0.775,0.244,1.172,0.321c0.073,0.014,0.143,0.026,0.215,0.036 c0.432,0.07,0.821,0.107,1.197,0.113L48.903,64L49,64c0.509,0,1.02-0.052,1.562-0.16l0.142-0.028l0.071-0.021 c1.671-0.372,3.14-1.264,4.23-2.5c0.247,0.28,0.513,0.543,0.791,0.781c0.051,0.044,0.105,0.087,0.159,0.13 c0.309,0.251,0.603,0.46,0.902,0.642l0.014,0.01l0.091,0.054c0.348,0.203,0.711,0.376,1.124,0.538 c0.088,0.035,0.152,0.06,0.219,0.084c0.381,0.136,0.775,0.244,1.172,0.321c0.073,0.014,0.143,0.026,0.215,0.036 c0.432,0.07,0.821,0.107,1.197,0.113L60.903,64L61,64c0.509,0,1.02-0.052,1.562-0.16l0.142-0.028l0.071-0.021 c1.671-0.372,3.14-1.264,4.23-2.5c0.247,0.28,0.513,0.543,0.791,0.781c0.051,0.044,0.105,0.087,0.159,0.13 c0.309,0.251,0.603,0.46,0.902,0.642l0.014,0.01l0.091,0.054c0.348,0.203,0.711,0.376,1.124,0.538 c0.088,0.035,0.152,0.06,0.219,0.084c0.381,0.136,0.775,0.244,1.172,0.321c0.073,0.014,0.143,0.026,0.215,0.036 c0.432,0.07,0.821,0.107,1.197,0.113L72.903,64L73,64c0.509,0,1.02-0.052,1.562-0.16l0.142-0.028l0.071-0.021 c1.669-0.372,3.136-1.261,4.226-2.496c1.047,1.184,2.439,2.038,3.999,2.442V52z" opacity=".35"/><path fill="#f4a3be" d="M25,51l-11.785,0c-2.611,0-4.943,1.909-5.191,4.509C7.739,58.491,10.077,61,13,61 c2.44,0,4.472-1.748,4.912-4.06c0.102-0.537,0.544-0.94,1.09-0.94h0c0.538,0,0.984,0.39,1.082,0.919C20.516,59.241,22.552,61,25,61 c2.703,0,5.001-2.297,5-5C30,53.238,27.761,51,25,51z"/><path fill="#f4a3be" d="M37,51l-11.785,0c-2.611,0-4.943,1.909-5.191,4.509C19.739,58.491,22.077,61,25,61 c2.44,0,4.472-1.748,4.912-4.06c0.102-0.537,0.544-0.94,1.09-0.94h0c0.538,0,0.984,0.39,1.082,0.919C32.516,59.241,34.552,61,37,61 c2.703,0,5.001-2.297,5-5C42,53.238,39.761,51,37,51z"/><path fill="#f4a3be" d="M49,51l-11.785,0c-2.611,0-4.943,1.909-5.191,4.509C31.739,58.491,34.077,61,37,61 c2.44,0,4.472-1.748,4.912-4.06c0.102-0.537,0.544-0.94,1.09-0.94h0c0.538,0,0.984,0.39,1.082,0.919C44.516,59.241,46.552,61,49,61 c2.703,0,5.001-2.297,5-5C54,53.238,51.761,51,49,51z"/><path fill="#f4a3be" d="M61,51l-11.785,0c-2.611,0-4.943,1.909-5.191,4.509C43.739,58.491,46.077,61,49,61 c2.44,0,4.472-1.748,4.912-4.06c0.102-0.537,0.544-0.94,1.09-0.94h0c0.538,0,0.984,0.39,1.082,0.919C56.516,59.241,58.552,61,61,61 c2.703,0,5.001-2.297,5-5C66,53.238,63.761,51,61,51z"/><path fill="#f4a3be" d="M73,51l-11.785,0c-2.611,0-4.943,1.909-5.191,4.509C55.739,58.491,58.077,61,61,61 c2.44,0,4.472-1.748,4.912-4.06c0.102-0.537,0.544-0.94,1.09-0.94h0c0.538,0,0.984,0.39,1.082,0.919C68.516,59.241,70.552,61,73,61 c2.703,0,5.001-2.297,5-5C78,53.238,75.761,51,73,51z"/><path fill="#f4a3be" d="M85,51l-11.785,0c-2.611,0-4.943,1.909-5.191,4.509C67.739,58.491,70.077,61,73,61 c2.44,0,4.472-1.748,4.912-4.06c0.102-0.537,0.544-0.94,1.09-0.94h0c0.538,0,0.984,0.39,1.082,0.919C80.516,59.241,82.552,61,85,61 c2.703,0,5.001-2.297,5-5C90,53.238,87.761,51,85,51z"/></g></svg>