<svg xmlns="http://www.w3.org/2000/svg"  viewBox="0 0 100 100" width="100px" height="100px"><path d="M79.7,69.4c7.1,0,12.9-5.9,12.9-13.1c0-7.2-5.8-13.1-12.9-13.1c-0.4,0-0.7,0-1.1,0c0.6-0.4,1.2-0.8,1.7-1.3	c5.1-1.4,8.4-5.7,8.4-11.2c0-5.7-3.6-10.3-8.8-11.6c-1.9-6-7.7-10.4-14.6-10.4c-2.5,0-4.8,0.6-7,1.6c-2.1-1.1-4.5-1.6-7-1.6	c-4.8,0-9.2,2.2-12,5.7C38.2,14.1,37,14,35.7,14c-0.6,0-1.2,0-1.8,0.1c-7.1,1-12.3,7.1-12.3,14.5c0,3.3,1.3,8,5,11.4	c-0.6,0.4-1.2,0.9-1.8,1.5c-0.2,0-0.5,0-0.7,0l-0.2,0c-3.3,0-6.4,1.2-8.7,3.4c-2.5,2.3-3.9,5.4-3.9,8.8c0,6.1,4.8,11.2,11,12	c1.1,4.5,3.5,7.2,5.7,8.9c-0.5,1.4-0.5,2.9,0,4.2l2.9,8.4c1.6,4.7,6.1,7.9,11.1,7.9h26.2c5,0,9.5-3.2,11.1-7.9l2.9-8.4	c0.7-2,0.4-4.2-0.9-5.9c-1-1.4-2.6-2.4-4.2-2.6v-0.6H79.7z" opacity=".35"/><path fill="#f2f2f2" d="M77.7,67.4c7.1,0,12.9-5.9,12.9-13.1c0-7.2-5.8-13.1-12.9-13.1c-0.4,0-0.7,0-1.1,0c0.6-0.4,1.2-0.8,1.7-1.3	c5.1-1.4,8.4-5.7,8.4-11.2c0-5.7-3.6-10.3-8.8-11.6c-1.9-6-7.7-10.4-14.6-10.4c-2.5,0-4.8,0.6-7,1.6c-2.1-1.1-4.5-1.6-7-1.6	c-4.8,0-9.2,2.2-12,5.7C36.2,12.1,35,12,33.7,12c-0.6,0-1.2,0-1.8,0.1c-7.1,1-12.3,7.1-12.3,14.5c0,3.3,1.3,8,5,11.4	c-0.6,0.4-1.2,0.9-1.8,1.5c-0.2,0-0.5,0-0.7,0l-0.2,0c-3.3,0-6.4,1.2-8.7,3.4c-2.5,2.3-3.9,5.4-3.9,8.8c0,6.1,4.8,11.2,11,12	c1.1,4.5,3.5,7.2,5.7,8.9c-0.5,1.4-0.5,2.9,0,4.2l2.9,8.4c1.6,4.7,6.1,7.9,11.1,7.9h26.2c5,0,9.5-3.2,11.1-7.9l2.9-8.4	c0.7-2,0.4-4.2-0.9-5.9c-1-1.4-2.6-2.4-4.2-2.6v-0.6H77.7z"/><path fill="#d47f56" d="M68,51.1c-2.9-4.1-7.9-7.4-13.5-9.1c3.7-3.7,4.2-8.5,4.2-8.8c0.1-0.8-0.2-1.5-0.7-2.1c-0.5-0.6-1.3-1-2.1-1	c-1.7-0.1-3.2,1-3.3,2.6c0,0.1-6.3,7.7-6.7,8.2c-2.7,0.1-5.4,0.7-8,1.8c-7.2,3.1-11.8,9.1-11.8,15.1c0,4.7,1.5,7.9,4.3,9.8	c4,2.6,10.2,1.6,14.6-0.2c1.8-0.9,4.3-0.4,5.3,0.9c1,1.4,0.1,3.6-2.4,5.9c-1.1,1-0.4,4,0,4.8c0.4,0.8,1.3,1.4,2.2,1.4	c0.4,0,3,0.7,3.3,0.6c6.3-2.7,7.8-7.5,8.2-11.8c0.3-2.9-1-5.5-3.6-7.1c-4.2-2.7-9.5-2.9-14.3-0.7c-4.5,1.8-8.1,2.1-10.2,0.8	c-1.7-1-2.5-2.5-2.5-4.3c0-4.2,4.1-7.6,9.6-10c9.3-4.1,19.6-0.3,23.9,6.5c0.3,0.5,0.8,0.7,1.4,0.8c0.8,0,1.7-0.3,2.2-0.9	C68.7,53.6,69.1,52.6,68,51.1z"/><path fill="#9aa2e6" d="M64.7,88H41.5c-3.1,0-5.7-2.2-6.2-5.2L34,76h38v4.7C72,84.7,68.7,88,64.7,88z"/><path fill="#96c362" d="M77.6,48.7c-1.9,0-3.5,0.9-4.6,2.2c-1.1-2.5-3.5-4.3-6.4-4.3c-3.8,0-7,3.2-7,7.2s3.1,7.2,7,7.2c0.3,0,11,0,11,0	c3.3,0,6-2.8,6-6.1S80.9,48.7,77.6,48.7z"/><path fill="#96c362" d="M74.9,21.9c-1.2,0-2.3,0.3-3.3,0.9c0.3-0.8,0.5-1.7,0.5-2.7c0-4.6-3.9-8.2-8.8-8.2c-2.9,0-5.4,1.3-7,3.3	c-1.6-2-4.1-3.3-7-3.3c-4.9,0-8.8,3.7-8.8,8.2c0,0.4,0,1.1,0.1,1.5c-2.1-3.8-5.3-4.9-7.9-4.5c-4.1,0.6-6.7,3.9-6.7,8	s3.9,12.8,17.5,7.4c3.4,5.2,14,5.2,17.3,0c3.6,5.2,12.3,3.4,14,0c3.3,0,5.3-2.2,5.3-5.2S78.3,21.9,74.9,21.9z"/><path fill="#96c362" d="M47.1,51.4c0-2.3-3.3-4.2-6.1-4.2c-0.3,0-0.7,0-1,0.1c-0.9-2.8-4-4.9-7.6-4.9c-3.5,0-6.4,1.9-7.5,4.5	c-0.9-0.5-2.1-0.9-3.3-0.9c-3.2,0-5.8,2.1-5.8,4.8s2.6,4.8,5.8,4.8l21.8-0.1C45.8,55.3,47.1,53.5,47.1,51.4z"/><path fill="none" stroke="#40396e" stroke-linecap="round" stroke-linejoin="round" stroke-miterlimit="10" stroke-width="3" d="M77.7,47.7c-2,0-3.8,1-4.9,2.4c-1.2-2.7-3.8-4.6-6.9-4.6c-1,0-2,0.2-2.9,0.6c-2.5-1.8-5.4-3.2-8.5-4.2	c1.8-1.8,2.8-3.8,3.4-5.4c1.3-0.6,2.4-1.5,3.1-2.6c3.6,5.2,12.3,3.4,14,0c3.3,0,5.3-2.2,5.3-5.2s-2-5.4-5.3-5.4	c-1.2,0-2.3,0.3-3.3,0.9c0.3-0.8,0.5-1.7,0.5-2.7c0-4.6-3.9-8.2-8.8-8.2c-2.9,0-5.4,1.3-7,3.3c-1.6-2-4.1-3.3-7-3.3	c-4.9,0-8.8,3.7-8.8,8.2c0,0.4,0,1.1,0.1,1.5c-2.1-3.8-5.3-4.9-7.9-4.5c-4.1,0.6-6.7,3.9-6.7,8s3.9,12.8,17.5,7.4	c1.1,1.7,3,2.8,5.2,3.4c-1.4,1.7-2.7,3.4-2.9,3.6c-2.7,0.1-5.4,0.7-8,1.8c0,0-0.1,0-0.1,0.1c-1.3-0.7-2.7-1.1-4.3-1.1	c-3.7,0-6.9,2.2-8,5.2c-1-0.6-2.2-1-3.5-1c-3.4,0-6.1,2.5-6.1,5.6c0,3.1,2.7,5.6,6.1,5.6l4.2,0c0,0.2,0,0.5,0,0.7	c0,4.7,1.5,7.9,4.3,9.8c4,2.6,10.2,1.6,14.6-0.2c1.8-0.9,4.4-0.5,5.3,0.9c1.2,2.1-2.6,6.1-2.7,6.2H32.2l2.9,8.4	c0.7,2.1,2.7,3.6,5,3.6h26.2c2.3,0,4.3-1.4,5-3.6l2.9-8.4h-15c1.4-1.7,2.3-3.6,2.4-5.5c0.3-2.9-1-5.5-3.6-7.1	c-4.2-2.7-9.5-2.9-14.3-0.7c-4.5,1.8-8.1,2.1-10.2,0.8c-1.7-1-1.3-4.8-1.3-5l11.2,0c2.6-0.3,4.6-2.4,4.6-4.8c0-2.7-2.4-4.9-5.4-4.9	c-0.4,0,7.9-2,16.2,3c-0.2,0.5-0.6,1.5-0.6,3c0,4.3,3.4,7.7,7.5,7.7c0.4,0,11.8,0,11.8,0c3.6,0,6.4-3,6.4-6.6	C84.1,50.7,81.3,47.7,77.7,47.7z"/><line x1="47.1" x2="31.2" y1="74.5" y2="74.5" fill="none" stroke="#40396e" stroke-linecap="round" stroke-linejoin="round" stroke-miterlimit="10" stroke-width="3"/><line x1="59.8" x2="47.1" y1="74.5" y2="74.5" fill="none" stroke="#40396e" stroke-linecap="round" stroke-linejoin="round" stroke-miterlimit="10" stroke-width="3" opacity=".35"/><line x1="75.3" x2="59.8" y1="74.5" y2="74.5" fill="none" stroke="#40396e" stroke-linecap="round" stroke-linejoin="round" stroke-miterlimit="10" stroke-width="3"/></svg>