<svg xmlns="http://www.w3.org/2000/svg"  viewBox="0 0 100 100" width="100px" height="100px"><g id="Слой_2"><path d="M88.614,15.848C84.504,11.967,79.32,10,73.206,10h-0.002c-11.985,0.001-27.006,7.954-42.297,22.395 C15.49,46.958,7,61.368,7,72.971c0,5.986,2.209,11.236,6.387,15.182C17.496,92.033,22.679,94,28.794,94 c11.982,0,27.003-7.953,42.297-22.393C86.509,57.044,95,42.633,95,31.03C95,25.045,92.792,19.795,88.614,15.848z" opacity=".35"/><path fill="#f2f2f2" d="M87.614,13.848C83.504,9.967,78.32,8,72.206,8h-0.002c-11.985,0.001-27.006,7.954-42.297,22.395 C14.49,44.958,6,59.368,6,70.971c0,5.986,2.209,11.236,6.387,15.182C16.496,90.033,21.679,92,27.794,92 c11.982,0,27.003-7.953,42.297-22.393C85.509,55.044,94,40.633,94,29.03C94,23.045,91.792,17.795,87.614,13.848z"/><path fill="#40396e" d="M84.181,17.483C81.03,14.508,77.002,13,72.206,13h-0.002C61.656,13,47.491,20.665,33.34,34.029 C19.142,47.441,11,60.905,11,70.971c0,4.641,1.622,8.526,4.821,11.548C18.97,85.492,22.998,87,27.794,87 c10.545,0,24.71-7.664,38.864-21.028C80.857,52.56,89,39.096,89,29.03C89,24.389,87.379,20.504,84.181,17.483z"/><path fill="#f9b84f" d="M82.121,19.664c9.704,9.167,0.218,27.37-17.521,44.127C46.86,80.54,27.584,89.501,17.881,80.338 c-9.706-9.167-0.22-27.37,17.519-44.127C53.138,19.46,72.415,10.498,82.121,19.664z"/><path fill="#ef8630" d="M41,60.5c0,8.008-4.5,14.5-4.5,14.5S32,68.508,32,60.5S36.5,46,36.5,46S41,52.492,41,60.5z"/><path fill="#ef8630" d="M56,50.5c0,8.008-4.5,14.5-4.5,14.5S47,58.508,47,50.5S51.5,36,51.5,36S56,42.492,56,50.5z"/><path fill="#ef8630" d="M71,38.5c0,8.008-4.5,14.5-4.5,14.5S62,46.508,62,38.5S66.5,24,66.5,24S71,30.492,71,38.5z"/><path fill="#ffe385" d="M62,38.5c0,4.574,1.467,8.648,2.726,11.306C65.859,47.177,67,43.532,67,39.5 c0-4.574-1.467-8.648-2.726-11.306C63.141,30.823,62,34.468,62,38.5z"/><path fill="#ffe385" d="M47,50.5c0,4.574,1.467,8.648,2.726,11.306C50.859,59.177,52,55.532,52,51.5 c0-4.574-1.467-8.648-2.726-11.306C48.141,42.823,47,46.468,47,50.5z"/><path fill="#ffe385" d="M32,60.5c0,4.574,1.467,8.648,2.726,11.306C35.859,69.177,37,65.532,37,61.5 c0-4.574-1.467-8.648-2.726-11.306C33.141,52.823,32,56.468,32,60.5z"/></g></svg>