<svg xmlns="http://www.w3.org/2000/svg"  viewBox="0 0 100 100" width="100px" height="100px"><path fill="#1d1d1b" d="M76.64,85.6c-6.4,3.46-15.17,5.39-24.63,5.39 c-9.48,0-18.26-1.93-24.74-5.43C9.04,76.04,3.95,53.5,8.46,37.14c2.83-10.06,9.83-18.06,19.21-21.99 c3.87-1.62,7.96-2.44,12.13-2.44c4.16,0,8.33,0.84,12.2,2.46c3.87-1.62,8.04-2.46,12.19-2.46c4.18,0,8.26,0.82,12.14,2.44 c9.34,3.91,16.32,11.86,19.17,21.84l0.04,0.15C100.05,53.5,94.95,76.04,76.64,85.6z" opacity=".35"/><path fill="#f2f2f2" d="M74.64,83.6c-6.4,3.46-15.17,5.39-24.63,5.39c-9.48,0-18.26-1.93-24.74-5.43 C7.04,74.04,1.95,51.5,6.46,35.14c2.83-10.06,9.83-18.06,19.21-21.99c3.87-1.62,7.96-2.44,12.13-2.44c4.16,0,8.33,0.84,12.2,2.46 c3.87-1.62,8.04-2.46,12.19-2.46c4.18,0,8.26,0.82,12.14,2.44c9.34,3.91,16.32,11.86,19.17,21.84l0.04,0.15 C98.05,51.5,92.95,74.04,74.64,83.6z"/><path fill="#f9b84f" d="M87.275,36.864C82.704,20.646,64.929,12.152,50,20.374c-14.938-8.225-32.706,0.278-37.275,16.49	c-4.127,14.975,1.186,33.43,15.639,40.976c11.52,6.228,31.741,6.233,43.272,0C86.091,70.292,91.399,51.841,87.275,36.864z M25.193,53.962c-2.925-9.423-0.127-23.234,11.545-22.949c1.062,0.026,2.128,0.177,2.577,0.327	c-0.678,2.318-1.397,6.412-0.96,10.162c0.456,3.912,1.582,6.932,3.033,9.541C36.223,54.666,29.943,54.717,25.193,53.962z M50,72	c-10.74,0-16.816-5.572-18.27-7.611c8.015,0.101,13.153-1.421,18.27-4.525c5.118,3.104,10.255,4.626,18.27,4.525	C66.816,66.428,60.74,72,50,72z M74.807,53.962c-4.751,0.755-11.031,0.704-16.194-2.92c1.451-2.609,2.577-5.629,3.033-9.541	c0.437-3.75-0.283-7.844-0.96-10.162c0.449-0.15,1.515-0.301,2.577-0.327C74.933,30.728,77.731,44.538,74.807,53.962z"/><path fill="#ef8630" d="M72.085,19.263C69.869,18.307,58.346,16.124,50,20.374l-1.424,0.958	c3.606,1.582,7.852,4.435,10.789,10.719l3.442-2.497c0.849,0.037,21.727-2.346,21.196,22.633	c-0.262,12.284-9.333,24.591-22.544,27.675c-20.8,4.856-31.167-14.965-31.167-14.965l2.461-1.988l-7.56-8.947	c0,0-3.139-5.727-1.073-12.186s11.147-11.815,11.147-11.815c-6.459,0.109-16.168,5.375-19.578,19.892	C13.086,60.936,19.467,72.316,27.125,77.1c3.349,2.093,13.88,5.39,24.491,5.39c12.061,0,28.312-7.011,33.701-19.582	C91.686,48.053,89.628,26.829,72.085,19.263z"/><path fill="#f9b84f" d="M61,33c1.5,5.5,0.846,9.562-1.589,15.089c-3.949,9.289-13.925,14.454-23.534,14.786	c-0.904,0.074-1.665,0.001-2.56,0.019c-6.027,0.015-7.72-0.661-10.566-1.791c-3.432-1.363-3.333-6.623,0.802-6.04	c12.171,1.715,27.502-1.091,27.37-16.018C51.43,33.161,56.554,34.025,61,33z"/><path fill="#ef8630" d="M39.722,29.961c-2.649,5.524-0.626,12.602,1.808,18.129c3.949,9.289,13.925,14.454,23.534,14.786	c0.904,0.074,1.665,0.001,2.56,0.019c6.027,0.015,7.72-0.661,10.566-1.791c3.432-1.363,3.333-6.623-0.802-6.04	c-12.171,1.715-27.502-1.091-27.37-16.018C49.511,33.161,44.168,30.986,39.722,29.961z"/><path fill="#40396e" d="M50.007,83.987c-8.199,0-16.4-1.608-22.355-4.828c-15.971-8.338-20.36-28.222-16.373-42.693	C13.69,27.91,19.638,21.097,27.6,17.765c7.249-3.035,15.368-2.695,22.4,0.911c7.031-3.606,15.147-3.945,22.396-0.912	c7.963,3.331,13.912,10.145,16.322,18.692c0.001,0.003,0.002,0.006,0.003,0.009c3.984,14.473-0.406,34.357-16.392,42.705	C66.39,82.381,58.198,83.987,50.007,83.987z M37.839,18.676c-3.056,0-6.119,0.616-9.081,1.856	c-7.112,2.977-12.43,9.078-14.59,16.739c-3.673,13.33,0.296,31.619,14.891,39.238c11.164,6.037,30.718,6.036,41.864,0.011	c14.609-7.629,18.579-25.916,14.907-39.256c-2.161-7.659-7.479-13.758-14.591-16.733c-6.748-2.823-14.033-2.412-20.516,1.156	c-0.451,0.248-0.996,0.249-1.447,0.001C45.639,19.685,41.746,18.676,37.839,18.676z M50,73.5c-10.77,0-17.459-5.391-19.492-8.24	c-0.328-0.46-0.369-1.065-0.107-1.566c0.259-0.495,0.771-0.805,1.329-0.805c0.006,0,0.013,0,0.019,0	c7.217,0.094,12.278-1.158,17.475-4.308c0.477-0.291,1.077-0.291,1.556,0c5.194,3.15,10.259,4.398,17.474,4.308	c0.549-0.004,1.086,0.304,1.348,0.805s0.221,1.106-0.107,1.566C67.459,68.109,60.77,73.5,50,73.5z M35.293,65.82	C38.071,67.982,43.002,70.5,50,70.5s11.929-2.518,14.707-4.68C59.019,65.513,54.534,64.211,50,61.605	C45.465,64.211,40.979,65.513,35.293,65.82z M29.896,55.846c-1.784,0-3.464-0.168-4.939-0.402c-0.563-0.09-1.028-0.491-1.197-1.037	c-1.83-5.896-1.782-14.35,2.449-19.948c2.524-3.342,6.157-5.042,10.565-4.945c1.166,0.029,2.377,0.191,3.014,0.403	c0.766,0.254,1.192,1.069,0.966,1.844c-0.668,2.285-1.307,6.161-0.91,9.567c0.388,3.326,1.294,6.182,2.854,8.985	c0.374,0.672,0.18,1.516-0.449,1.957C38.33,55.021,33.854,55.846,29.896,55.846z M26.366,52.615	c3.798,0.481,8.769,0.389,13.054-2.095c-1.359-2.762-2.179-5.607-2.557-8.846c-0.364-3.136,0.017-6.525,0.594-9.122	c-0.235-0.02-0.491-0.034-0.757-0.04c-3.45-0.101-6.153,1.179-8.099,3.754C25.691,40.117,24.814,46.723,26.366,52.615z M70.104,55.846c-3.958,0-8.434-0.825-12.353-3.576c-0.629-0.44-0.823-1.285-0.449-1.957c1.56-2.804,2.466-5.659,2.854-8.985	c0.397-3.407-0.242-7.283-0.909-9.567c-0.227-0.774,0.2-1.589,0.965-1.844c0.734-0.245,2.043-0.379,3.014-0.403	c4.369-0.101,8.041,1.604,10.566,4.945c4.23,5.599,4.278,14.053,2.448,19.948c-0.169,0.546-0.634,0.947-1.197,1.037	C73.566,55.678,71.887,55.846,70.104,55.846z M74.807,53.962h0.01H74.807z M60.579,50.52c4.284,2.481,9.257,2.579,13.054,2.096	c1.552-5.893,0.675-12.498-2.235-16.349c-1.946-2.575-4.68-3.851-8.099-3.754c-0.266,0.006-0.521,0.021-0.756,0.04	c0.576,2.596,0.958,5.985,0.593,9.122C62.758,44.913,61.938,47.759,60.579,50.52z"/><circle cx="18.5" cy="52.5" r="1.5" fill="#ffe385"/><circle cx="26.5" cy="26.5" r="1.5" fill="#ffe385"/><circle cx="31.5" cy="24.5" r="1.5" fill="#ffe385"/><circle cx="65.5" cy="23.5" r="1.5" fill="#ffe385"/><circle cx="70.5" cy="25.5" r="1.5" fill="#ffe385"/><circle cx="29.5" cy="71.5" r="1.5" fill="#ffe385"/><circle cx="23.5" cy="66.5" r="1.5" fill="#ffe385"/><circle cx="57.5" cy="76.5" r="1.5" fill="#ffe385"/><circle cx="68.5" cy="71.5" r="1.5" fill="#ffe385"/><circle cx="74.5" cy="66.5" r="1.5" fill="#ffe385"/><circle cx="80.5" cy="50.5" r="1.5" fill="#ffe385"/></svg>