<svg xmlns="http://www.w3.org/2000/svg"  viewBox="0 0 100 100" width="100px" height="100px"><g id="Слой_2"><path d="M89.308,32.34l-22.315-6.724c-0.016-0.331-0.052-0.662-0.109-0.988c-0.035-0.31-0.079-0.619-0.134-0.922 c-0.656-3.665-2.662-6.93-5.476-9.228c0.513-0.99,0.778-2.125,0.716-3.317C61.807,7.704,58.957,5,55.501,5c0,0,0,0,0,0 c-0.109,0-0.218,0.003-0.328,0.008c-4.155,0.219-7.644,1.932-10.104,4.956c-0.28,0.344-0.545,0.706-0.795,1.084 c-0.735,0.058-1.469,0.168-2.194,0.329c-3.375,0.749-6.363,2.607-8.537,5.248c-2.33,0.261-4.578,1.154-6.448,2.579L8.152,33.637 C6.178,35.14,5,37.519,5,40v25v11v2v1c0,7.168,5.832,13,13,13h64c7.168,0,13-5.832,13-13v-1v-2V65V40 C95,36.444,92.713,33.366,89.308,32.34z" opacity=".35"/><path fill="#f2f2f2" d="M87.308,30.34l-22.315-6.724c-0.016-0.331-0.052-0.662-0.109-0.988c-0.035-0.31-0.079-0.619-0.134-0.922 c-0.656-3.665-2.662-6.93-5.476-9.228c0.513-0.99,0.778-2.125,0.716-3.317C59.807,5.704,56.957,3,53.501,3c0,0,0,0,0,0 c-0.109,0-0.218,0.003-0.328,0.008c-4.155,0.219-7.644,1.932-10.104,4.956c-0.28,0.344-0.545,0.706-0.795,1.084 c-0.735,0.058-1.469,0.168-2.194,0.329c-3.375,0.749-6.363,2.607-8.537,5.248c-2.33,0.261-4.578,1.154-6.448,2.579L6.152,31.637 C4.178,33.14,3,35.519,3,38v25v11v2v1c0,7.168,5.832,13,13,13h64c7.168,0,13-5.832,13-13v-1v-2V63V38 C93,34.444,90.713,31.366,87.308,30.34z"/><path fill="#40396e" d="M57,23h0.005 M49.5,13C49.5,13,49.5,13,49.5,13c-1.024,0-2.029,0.147-3,0.438 C45.529,13.147,44.524,13,43.5,13c-0.778,0-1.565,0.087-2.338,0.259c-3.017,0.669-5.57,2.698-6.976,5.378 c-0.398-0.061-0.804-0.092-1.213-0.092c-1.742,0-3.464,0.581-4.849,1.637L9.182,34.614C8.437,35.181,8,36.064,8,37v25v11v2v1 c0,4.411,3.589,8,8,8h64c4.411,0,8-3.589,8-8v-1v-2V62V37c0-1.323-0.867-2.491-2.135-2.872l-26.257-7.911 c0.247-1.004,0.38-2.037,0.391-3.076c0.002-0.047,0.003-0.094,0.003-0.141c0-0.221-0.024-0.437-0.069-0.645 c-0.024-0.259-0.059-0.516-0.104-0.769c-0.73-4.083-3.942-7.43-7.991-8.328C51.065,13.087,50.278,13,49.5,13L49.5,13L49.5,13z"/><path fill="#40396e" d="M45.998,23.499c-0.728,0-1.366-0.529-1.48-1.271c-0.048-0.313-1.139-7.721,2.43-12.109 c1.565-1.925,3.743-2.974,6.474-3.117c0.815-0.019,1.533,0.593,1.577,1.419c0.043,0.827-0.592,1.533-1.419,1.577 c-1.871,0.099-3.277,0.756-4.299,2.009c-2.73,3.349-1.807,9.703-1.797,9.767c0.124,0.818-0.438,1.584-1.257,1.708 C46.149,23.493,46.073,23.499,45.998,23.499z"/><rect width="74" height="36" x="11" y="37" fill="#fedeb3"/><rect width="74" height="8" x="11" y="46" fill="#ff7575"/><rect width="74" height="13" x="11" y="62" fill="#ff7575"/><path fill="#ffb789" d="M80,81H16c-2.761,0-5-2.239-5-5v-1h74v1C85,78.761,82.761,81,80,81z"/><path fill="#ffe8d9" d="M11,37l18.942-14.432c1.291-0.983,2.979-1.279,4.527-0.794L85,37H11z"/><path fill="#d84178" d="M56.97,23c-0.011-0.296-0.041-0.591-0.094-0.886c-0.52-2.908-2.803-5.287-5.687-5.927 c-1.686-0.374-3.295-0.168-4.688,0.441c-1.393-0.609-3.003-0.815-4.688-0.441c-2.884,0.64-5.167,3.019-5.687,5.927 c-0.053,0.294-0.083,0.59-0.094,0.886H36c0,5.799,4.701,10.5,10.5,10.5S57,28.799,57,23H56.97z"/><path fill="#f4a3be" d="M43.122,21.456c-0.507,1.222-1.694,1.848-2.652,1.399c-0.958-0.449-1.323-1.803-0.816-3.025 s1.694-1.848,2.652-1.399S43.629,20.234,43.122,21.456z"/></g></svg>