<svg xmlns="http://www.w3.org/2000/svg"  viewBox="0 0 100 100" width="100px" height="100px"><path d="M21.239,96.184c-5.326,0-10.071-3.576-11.539-8.695c-1.298-4.536,0.206-9.221,3.48-12.197 c-0.706-0.731-1.324-1.557-1.836-2.466c-1.569-2.788-1.959-6.02-1.098-9.1c1.309-4.679,5.255-8.096,10.054-8.704 c0.505-0.062,1.003-0.093,1.496-0.093c0.227,0,0.454,0.007,0.68,0.02c-0.328-2.008-0.494-4.083-0.494-6.21 c0-15.716,8.979-21.974,14.285-23.193c0.487-0.11,0.972-0.165,1.456-0.165c0.538,0,1.071,0.068,1.588,0.199 c-0.037-0.578-0.06-1.14-0.06-1.683c0-8.281,5.741-13.967,11.076-15.746c0.661-0.221,1.354-0.333,2.055-0.333 c1.621,0,3.174,0.6,4.373,1.69c1.738,1.582,2.489,3.985,1.962,6.271c-0.281,1.215,1.824,3.515,4.053,5.949 c2.562,2.802,5.692,6.223,7.785,10.73c0.28-0.037,0.563-0.056,0.849-0.056c1.021,0,2.04,0.245,2.95,0.708 c2.309,1.172,7.693,5.459,7.693,19.841c0,0.592-0.021,1.187-0.064,1.782c0.06,0,0.119-0.001,0.18-0.001 c2.017,0,4.021,0.521,5.798,1.506c3.183,1.768,5.428,4.96,6.008,8.54l0.017,0.108c0.434,2.615-0.027,5.3-1.347,7.679 c-0.506,0.912-1.117,1.741-1.817,2.476c0.966,0.867,1.794,1.896,2.45,3.061c1.573,2.795,1.966,6.033,1.104,9.117 c-1.444,5.164-6.198,8.77-11.56,8.77l0,0c-1.088,0-2.173-0.149-3.226-0.442l-27.551-7.703l-27.498,7.875 C23.464,96.027,22.354,96.184,21.239,96.184L21.239,96.184z" opacity=".35"/><path fill="#f2f2f2" d="M19.239,94.184c-5.326,0-10.071-3.576-11.539-8.695c-1.298-4.536,0.206-9.221,3.48-12.197 c-0.706-0.731-1.324-1.557-1.836-2.466c-1.569-2.788-1.959-6.02-1.098-9.1c1.309-4.679,5.255-8.096,10.054-8.704 c0.505-0.062,1.003-0.093,1.496-0.093c0.227,0,0.454,0.007,0.68,0.02c-0.328-2.008-0.494-4.083-0.494-6.21 c0-15.716,8.979-21.974,14.285-23.193c0.487-0.11,0.972-0.165,1.456-0.165c0.538,0,1.071,0.068,1.588,0.199 c-0.037-0.578-0.06-1.14-0.06-1.683c0-8.281,5.741-13.967,11.076-15.746c0.661-0.221,1.354-0.333,2.055-0.333 c1.621,0,3.174,0.6,4.373,1.69c1.738,1.582,2.489,3.985,1.962,6.271c-0.281,1.215,1.824,3.515,4.053,5.949 c2.562,2.802,5.692,6.223,7.785,10.73c0.28-0.037,0.563-0.056,0.849-0.056c1.021,0,2.04,0.245,2.95,0.708 c2.309,1.172,7.693,5.459,7.693,19.841c0,0.592-0.021,1.187-0.064,1.782c0.06,0,0.119-0.001,0.18-0.001 c2.017,0,4.021,0.521,5.798,1.506c3.183,1.768,5.428,4.96,6.008,8.54l0.017,0.108c0.434,2.615-0.027,5.3-1.347,7.679 c-0.506,0.912-1.117,1.741-1.817,2.476c0.966,0.867,1.794,1.896,2.45,3.061c1.573,2.795,1.966,6.033,1.104,9.117 c-1.444,5.164-6.198,8.77-11.56,8.77l0,0c-1.088,0-2.173-0.149-3.226-0.442l-27.551-7.703l-27.498,7.875 C21.464,94.027,20.354,94.184,19.239,94.184L19.239,94.184z"/><path fill="#d47f56" d="M19.414,60.485l63.37,17.931l-2.246,7.939l-63.37-17.931c-2.192-0.62-3.466-2.9-2.846-5.092l0,0 C14.942,61.139,17.222,59.865,19.414,60.485z"/><path fill="#40396e" d="M19.414,60.485l63.37,17.931l-2.246,7.939l-63.37-17.931c-2.192-0.62-3.466-2.9-2.846-5.092l0,0 C14.942,61.139,17.222,59.865,19.414,60.485z" opacity=".35"/><circle cx="80.811" cy="81.98" r="4.001" fill="#ffb789"/><path fill="#ffc571" d="M50.843,12.315c-2.166,9.386,13.719,13.719,13.719,28.159c0,2.222,0.63,2.156-0.11,4.164 c0,0,4.766-2.525,5.164-8.496c0,0,3.61,6.498,3.61,15.885c0,11.191-9.747,18.773-22.383,18.773s-23.077-7.805-23.077-24.411 c0-14.441,8.712-16.864,8.712-16.864s-2.242,8.062,4.257,8.062s3.61-10.83,3.61-15.885C44.344,14.482,50.843,12.315,50.843,12.315z"/><path fill="#ff7575" d="M50.384,70.972c-9.359,0-18.633-5.838-18.633-23.884c0-3.04,0.429-5.353,1.041-7.106 c1.736,1.966,4.295,3.04,7.277,3.04c3.334,0,5.399-1.508,6.544-2.773c3.423-3.78,2.168-16.36,2.118-17.033 c1.124,1.494,2.396,2.884,3.617,4.219c3.661,4.001,6.013,7.886,7.119,13.618c0.682,3.533-0.066,9.027-0.066,9.027 s3.962,1.223,8.644-1.371c0.164,1.288,0.264,2.672,0.264,4.134C68.308,61.227,60.937,70.972,50.384,70.972z"/><path fill="#fff" d="M47.752,42.875c1.469,7.46,12.772,7.725,12.772,18.232c0,3.892-2.742,9.783-10.525,9.783 s-10.52-6.143-10.52-10.813s3.507-5.967,3.507-5.967s0.011,3.151,2.58,2.772c3.546-0.523,0.229-5.126,0.229-9.326 C45.796,44.808,47.752,42.875,47.752,42.875z"/><path fill="#d47f56" d="M82.592,68.329L19.969,86.264l-2.272-7.931L80.32,60.397c2.19-0.627,4.474,0.64,5.101,2.83v0 C86.049,65.418,84.782,67.702,82.592,68.329z"/><circle cx="19.24" cy="82.169" r="3.997" fill="#ffb789"/><path fill="#40396e" d="M19.24,89.184c-3.045,0-5.854-2.004-6.733-5.073c-1.062-3.71,1.093-7.594,4.803-8.657l6.983-2 L17.9,71.667c-1.794-0.502-3.285-1.672-4.199-3.295c-0.914-1.624-1.141-3.505-0.639-5.299c1.049-3.753,4.903-5.924,8.608-4.888 l6.167,1.724c-1.877-3.851-2.855-8.334-2.855-13.171c0-15.75,9.98-18.223,10.405-18.32c0.514-0.117,1.05,0.042,1.415,0.419 c0.365,0.378,0.506,0.92,0.37,1.428c-0.271,1.037-0.722,4.065,0.44,5.571c0.508,0.657,1.325,0.977,2.5,0.977 c1.044,0,1.503-0.374,1.757-0.656c1.528-1.69,1.042-6.51,0.688-10.03c-0.157-1.556-0.306-3.026-0.306-4.23 c0-6.684,5.009-10.119,7.657-11.002c0.512-0.171,1.082-0.053,1.483,0.313c0.401,0.365,0.575,0.918,0.453,1.447 c-0.872,3.775,1.823,6.721,5.236,10.45c3.921,4.286,8.802,9.62,8.802,17.95c0,0.604-0.039,1.217-0.119,1.844 c0.991-0.955,2.056-2.772,2.141-6.033c0.013-0.515,0.289-0.986,0.731-1.25c0.442-0.264,0.988-0.282,1.447-0.048 c0.509,0.258,4.964,2.885,4.964,15.386c0,2.915-0.632,5.798-1.848,8.495l5.032-1.441c3.696-1.057,7.564,1.088,8.625,4.784 c0.526,1.841,0.312,3.724-0.592,5.354c-0.904,1.629-2.388,2.809-4.179,3.321l-6.38,1.828l6.995,1.956c0,0,0,0,0.001,0 c3.717,1.039,5.896,4.909,4.856,8.626c-1.04,3.717-4.905,5.895-8.627,4.857l-28.91-8.083l-28.858,8.265 C20.522,89.096,19.876,89.184,19.24,89.184z M19.794,60.925c-1.738,0-3.338,1.15-3.829,2.904c-0.3,1.073-0.17,2.145,0.351,3.07 s1.371,1.592,2.394,1.878l11.497,3.214c0.646,0.181,1.094,0.769,1.096,1.44c0.002,0.671-0.441,1.262-1.087,1.447l-12.08,3.46 c-2.119,0.607-3.351,2.826-2.743,4.946s2.826,3.354,4.946,2.745l29.267-8.382c0.267-0.077,0.549-0.077,0.817-0.003l29.318,8.197 c2.119,0.592,4.336-0.65,4.931-2.775c0.594-2.124-0.651-4.335-2.776-4.929l-12.101-3.383c-0.646-0.181-1.094-0.769-1.096-1.44 c-0.002-0.671,0.441-1.262,1.087-1.447l11.476-3.287c1.021-0.292,1.866-0.965,2.381-1.893c0.515-0.928,0.638-2.001,0.345-3.021 c-0.617-2.156-2.821-3.379-4.928-2.776l-8.52,2.44c-0.604,0.173-1.256-0.05-1.627-0.561c-0.37-0.51-0.382-1.198-0.029-1.72 c2.07-3.069,3.165-6.561,3.165-10.097c0-5.305-0.832-8.485-1.664-10.338c-1.108,3.968-3.656,5.42-4.566,5.821 c-0.726,0.32-2.078,0.741-2.982-0.042c-0.482-0.418-0.676-1.061-0.503-1.678c0.376-1.344,0.552-2.507,0.552-3.662 c0-7.165-4.075-11.618-8.016-15.924c-2.969-3.245-5.805-6.344-6.159-10.2c-1.583,1.175-3.457,3.333-3.457,6.967 c0,1.053,0.141,2.45,0.29,3.929c0.457,4.531,0.975,9.666-1.446,12.343c-0.986,1.091-2.326,1.644-3.982,1.644 c-2.667,0-4.126-1.17-4.881-2.152c-1.195-1.554-1.434-3.6-1.372-5.262c-2.395,1.603-5.878,5.459-5.878,14.339 c0,5.759,1.432,10.723,4.254,14.755c0.363,0.519,0.361,1.21-0.005,1.728c-0.365,0.517-1.021,0.747-1.628,0.578l-9.741-2.724 C20.506,60.973,20.147,60.925,19.794,60.925z"/><polygon fill="#40396e" points="30.169,71.981 34.88,73.436 29.596,75.043 25.677,76.204"/><polygon fill="#40396e" points="69.785,71.865 64.929,73.364 74.82,76.163"/><path fill="#40396e" d="M20.849,61.069c0.005,0.001,0.009,0.002,0.014,0.003l13.778,3.853l-2.404-3.434 c-0.995-1.422-1.808-2.965-2.455-4.613c-1.064-0.002-2.127-0.002-3.191-0.004c0.358,1.049,0.774,2.062,1.248,3.034l-6.167-1.725 c-0.919-0.257-1.848-0.316-2.742-0.203C19.592,58.998,20.234,60.027,20.849,61.069z"/><path fill="#40396e" d="M82.08,61.234c0.812,0.451,1.412,1.166,1.759,2.053c1.132-0.108,2.226,0.512,2.814,1.392 c0.156-0.098,0.314-0.195,0.469-0.294c-0.03-0.531-0.113-1.065-0.265-1.597c-0.514-1.791-1.693-3.274-3.322-4.179 c-1.628-0.903-3.513-1.119-5.303-0.605l-5.031,1.441c0.57-1.266,1.007-2.575,1.315-3.907c-1.058,0.093-2.116,0.187-3.174,0.268 c-0.531,1.829-1.35,3.596-2.459,5.241l-2.305,3.415l12.48-3.573C80.079,60.597,81.152,60.719,82.08,61.234z"/></svg>