<svg xmlns="http://www.w3.org/2000/svg"  viewBox="0 0 100 100" width="100px" height="100px"><path d="M74.341,91c-1.784,0-3.491-0.452-4.992-1.265C68.271,90.53,66.939,91,65.5,91h-5.227	c-2.855,0-5.44-1.113-7.331-2.949C51.78,89.825,49.774,91,47.5,91h-5.343c-2.805,0-5.441-1.093-7.425-3.076l-4.784-4.783	C29.982,83.574,30,84.027,30,84.5c0,3.584-2.916,6.5-6.5,6.5h-4.566c-4.033,0-7.643-2.245-9.42-5.859	c-4.243-8.627-3.988-12.271-3.18-14.696c0.243-0.731,0.611-1.407,1.093-2.008c0.83-1.056,3.147-4.45,3.7-7.212	c0.374-1.87,0.332-2.097,0.25-2.546C11.227,57.861,11,56.624,11,54.5c0-3.181,1.021-5.682,2.178-7.495	c-3.657-11.759-6.434-26.017-1.217-32.401c1.93-2.355,4.712-3.65,7.838-3.65c0.503,0,1.021,0.034,1.539,0.101	c3.128,0.417,5.497,2.99,5.654,6.121c0.313,6.243,1.513,14.178,2.963,18.359c3.479-0.348,6.986-0.524,10.468-0.524	c8.131,0,14.616,0.96,18.491,1.534c1.178,0.175,2.597,0.385,3.299,0.441c0.507-0.291,1.674-1.283,2.879-3.091	c1.68-2.52,2.987-4.181,5.098-5.821c1.742-4.313,3.893-7.132,6.403-8.387C77.498,19.235,78.501,19,79.501,19	c0.792,0,1.568,0.143,2.309,0.424c1.7,0.648,1.52,2.893,2.19,4.576l2.262,0.904C87.823,25.468,87.488,28.487,89,30	c1.099,1.098,3.791,0.048,4.187,0.739c0.071,0.124,0.131,0.246,0.214,0.362l0,0c0.009,0,0.262,0.212,1.007,0.585	c2.569,1.286,3.976,4.052,3.504,6.883C97,44.025,92.988,50.999,87,51c-0.001,0-0.088,0-0.131-0.001	c-0.673,1.333-1.251,1.921-2.363,4.378c-0.081,2.683-0.676,7.777-3.735,11.901l0.807,7.798C84.035,76.891,86,79.965,86,84.5	c0,3.584-2.916,6.5-6.5,6.5H74.341z" opacity=".35"/><path fill="#f2f2f2" d="M72.341,89c-1.784,0-3.491-0.452-4.992-1.265C66.271,88.53,64.939,89,63.5,89h-5.227	c-2.855,0-5.44-1.113-7.331-2.949C49.78,87.825,47.774,89,45.5,89h-5.343c-2.805,0-5.441-1.093-7.425-3.076l-4.784-4.783	C27.982,81.574,28,82.027,28,82.5c0,3.584-2.916,6.5-6.5,6.5h-4.566c-4.033,0-7.643-2.245-9.42-5.859	c-4.243-8.627-3.988-12.271-3.18-14.696c0.243-0.731,0.611-1.407,1.093-2.008c0.83-1.056,3.147-4.45,3.7-7.212	c0.374-1.87,0.332-2.097,0.25-2.546C9.227,55.861,9,54.624,9,52.5c0-3.181,1.021-5.682,2.178-7.495	C7.521,33.246,4.744,18.988,9.961,12.604c1.93-2.355,4.712-3.65,7.838-3.65c0.503,0,1.021,0.034,1.539,0.101	c3.128,0.417,5.497,2.99,5.654,6.121c0.313,6.243,1.513,14.178,2.963,18.359c3.479-0.348,6.986-0.524,10.468-0.524	c8.131,0,14.616,0.96,18.491,1.534c1.178,0.175,2.597,0.385,3.299,0.441c0.507-0.291,1.674-1.283,2.879-3.091	c1.68-2.52,2.987-4.181,5.098-5.821c1.742-4.313,3.893-7.132,6.403-8.387C75.498,17.235,76.501,17,77.501,17	c0.792,0,1.568,0.143,2.309,0.424c1.7,0.648,3.057,1.985,3.728,3.669l0.725,1.812c1.562,0.563,3.322,1.487,4.834,3	c1.099,1.098,1.695,2.144,2.091,2.835c0.071,0.124,0.131,0.246,0.214,0.362l0,0c0.009,0,0.262,0.212,1.007,0.585	c2.569,1.286,3.976,4.052,3.504,6.883C95,42.025,90.988,48.999,85,49c-0.001,0-0.088,0-0.131-0.001	c-0.673,1.333-1.251,1.921-2.363,4.378c-0.081,2.683-0.676,7.777-3.735,11.901l0.807,7.798C82.035,74.891,84,77.965,84,82.5	c0,3.584-2.916,6.5-6.5,6.5H72.341z"/><path fill="#fff" d="M84.5,30.5c-1.5-1.5-4-2-5-2l-2-5c-2,1-3.914,6.711-3.914,6.711l0.019-0.008	C71.394,31.641,70.5,32.5,68.5,35.5c-1.754,2.631-4.838,6-8,6c-4,0-17-3-36-1c-5-5-6-25-6-25c-1.406,1.719-3.504,1.284-4.135,3.331	C10.961,29.888,18.5,46.5,18.5,46.5s-3,2-3,6s1,3,0,8s-5,10-5,10c-0.684,2.051,1.437,6.907,2.848,9.774	c0.672,1.367,2.063,2.226,3.586,2.226H21.5c0-5-3-5-3-5v-4c5.53-2.37,8.561-5.362,11.07-7.994c1.847,4.378,0.93,8.994,0.93,8.994	l6.828,6.828c0.75,0.75,1.768,1.172,2.828,1.172H45.5c0-6-4.84-4.916-4.84-4.916C40.5,77.5,38.5,73.5,38.5,73.5	c1.849-4.93,2.177-9.094,2.158-11.569C40.872,61.971,41,62,41,62c2.711,0.904,7.462,1.194,11.858,1.242	c0.416,4.373,1.089,11.526,1.43,15.597c0.173,2.072,1.906,3.661,3.985,3.661H63.5c0-5-4-5-4-5l1.695-14.408	C62.318,63.042,63,63,63,63l5.564,16.817c0.56,1.606,2.076,2.683,3.777,2.683H77.5c0-5-4-5-4-5L72,63c4.5-3.5,4-11,4-11s4-9,5-10	s4-1,4-1c3.5,0.5,4.5-5.5,4.5-5.5C85.5,33.5,86,32,84.5,30.5z"/><path fill="#ef8630" d="M23,41c0,0,2,13,11,13c5,0,6-5,11-5c4,0,4,2,10,2c7.28,0,8-10,8-10l-29-1L23,41z"/><path fill="#40396e" d="M28.668,64.318c0,0,2.051-3.545,11.955-3.318c2.307,0.053,6.91,0.758,12.303,0.758	c4.505,0,8.796-0.18,10.079-0.253l-2.086,3.926L60,76l3,3l0.899,4.112l-7.682-1.181l-2.161-6.707L54,64l-5-1l-9-1v7l-2,4l3,4l4,2	l1,3l-5.022,0.64L34,79l-3.323-5.984L28.668,64.318z" opacity=".35"/><path fill="#ef8630" d="M16.978,56c0,0,10.615,9.579,7.532,14.099l-4.532,1.952l-1.77,3.898l1.77,2.933L21.5,82.5	l-6.565-0.535l-4.275-8.502l0.621-4.744l4.601-8.596L16.978,56z"/><path fill="#ef8630" d="M83,29c0,0,1,6-3,6c-1,0-2,0-4,1c-1.789,0.894-2,3-4,3s-3.331-2.312-2.219-6.256	s3.873-2.729,3.873-2.729l1.588-3.288l1.846-3.16l1.669,0.303l0.531,2.326l0.683,1.77L83,29z"/><path fill="none" stroke="#40396e" stroke-linejoin="round" stroke-miterlimit="10" stroke-width="3" d="M84.5,30.5c-1.5-1.5-4-2-5-2	l-2-5c-2,1-3.914,6.711-3.914,6.711l0.019-0.008C71.394,31.641,70.5,32.5,68.5,35.5c-1.754,2.631-4.838,6-8,6c-4,0-16.91-3.725-36-1	c-5-5-6-25-6-25c-11.213-1.489,0,31,0,31s-3,2-3,6s1,3,0,8s-5,10-5,10c-0.684,2.051,1.437,6.907,2.848,9.774	c0.672,1.367,2.063,2.226,3.586,2.226H21.5c0-5-3-5-3-5v-4c5.53-2.37,8.561-5.362,11.07-7.994c1.847,4.378,0.93,8.994,0.93,8.994	l6.828,6.828c0.75,0.75,1.768,1.172,2.828,1.172H45.5c0-6-4.84-4.916-4.84-4.916C40.5,77.5,38.5,73.5,38.5,73.5	c1.849-4.93,2.046-8.534,2.027-11.009c0.214,0.04,7.935,0.703,12.331,0.751c0.416,4.373,1.089,11.526,1.43,15.597	c0.173,2.072,1.906,3.661,3.985,3.661H63.5c0-5-4-5-4-5l1.695-14.408C62.318,63.042,63,63,63,63l5.564,16.817	c0.56,1.606,2.076,2.683,3.777,2.683H77.5c0-5-4-5-4-5L72,63c4.5-3.5,4-11,4-11s3.589-7.529,4.589-8.529S85,42,85,42	c3.5,0.5,4.5-6.5,4.5-6.5C85.5,33.5,86,32,84.5,30.5z"/><circle cx="81.5" cy="34.5" r="1.5" fill="#40396e"/></svg>