<svg xmlns="http://www.w3.org/2000/svg"  viewBox="0 0 100 100" width="100px" height="100px"><g id="Слой_2"><path d="M49.406,10.442c-2.112,0-4.216,0.522-6.083,1.511L11.257,28.93C8.631,30.32,7,33.029,7,36v42 c0,7.168,5.832,13,13,13h61c7.168,0,13-5.832,13-13V59.975c0-4.279-3.348-7.789-7.623-7.991C85.044,51.921,84,50.83,84,49.5 s1.044-2.421,2.377-2.484C90.652,46.815,94,43.305,94,39.025V31c0-3.391-2.149-6.424-5.348-7.548L53.716,11.177 C52.328,10.69,50.878,10.442,49.406,10.442L49.406,10.442z" opacity=".35"/><path fill="#f2f2f2" d="M47.406,8.442c-2.112,0-4.216,0.522-6.083,1.511L9.257,26.93C6.631,28.32,5,31.029,5,34v42 c0,7.168,5.832,13,13,13h61c7.168,0,13-5.832,13-13V57.975c0-4.279-3.348-7.789-7.623-7.991C83.044,49.921,82,48.83,82,47.5 s1.044-2.421,2.377-2.484C88.652,44.815,92,41.305,92,37.025V29c0-3.391-2.149-6.424-5.348-7.548L51.716,9.177 C50.328,8.69,48.878,8.442,47.406,8.442L47.406,8.442z"/><path fill="#ffe385" d="M74,47.5c0-5.63,4.435-10.212,10-10.475V29l-71,5v42c0,2.761,2.239,5,5,5h61c2.761,0,5-2.239,5-5V57.975 C78.435,57.712,74,53.13,74,47.5z"/><path fill="#f9b84f" d="M13,34l32.067-16.977c1.232-0.652,2.681-0.761,3.997-0.298L84,29L13,34z"/><path fill="#40396e" d="M47.406,16.442c0.559,0,1.119,0.094,1.657,0.283L84,29v8.025C78.435,37.288,74,41.87,74,47.5 c0,5.63,4.435,10.212,10,10.475V76c0,2.761-2.239,5-5,5H18c-2.761,0-5-2.239-5-5V34l32.067-16.977 C45.795,16.638,46.599,16.442,47.406,16.442 M47.406,13.442c-1.3,0-2.594,0.321-3.743,0.93L11.596,31.349 C10.614,31.869,10,32.889,10,34v42c0,4.411,3.589,8,8,8h61c4.411,0,8-3.589,8-8V57.975c0-1.602-1.258-2.921-2.859-2.997 C80.137,54.789,77,51.504,77,47.5c0-4.004,3.137-7.289,7.141-7.478c1.6-0.076,2.859-1.395,2.859-2.997V29 c0-1.273-0.804-2.408-2.006-2.83L50.058,13.895C49.204,13.595,48.312,13.442,47.406,13.442L47.406,13.442z"/><circle cx="44" cy="53" r="12" fill="#f9b84f"/><circle cx="63.5" cy="40.5" r="5.5" fill="#f9b84f"/><circle cx="27" cy="70" r="7" fill="#f9b84f"/><circle cx="22" cy="44" r="4" fill="#f9b84f"/><circle cx="66.5" cy="64.5" r="6.5" fill="#f9b84f"/></g></svg>