<svg xmlns="http://www.w3.org/2000/svg"  viewBox="0 0 100 100" width="100px" height="100px" baseProfile="basic"><path d="M29.47,90.505c-3.577-0.008-6.486-2.924-6.486-6.5V53.991c-0.318-0.265-0.616-0.525-0.901-0.776	l-0.253-0.222c-4.831-4.217-7.388-9.831-7.388-16.229c0-0.038,0.001-0.098,0.003-0.166l-0.003-0.192	c0-11.039,8.273-20.087,19.254-21.072c0.779-0.085,1.558-0.128,2.316-0.128c0.445,0,0.887,0.014,1.33,0.043	c3.656-3.045,8.515-4.75,13.716-4.75c5.316,0,10.242,1.741,13.94,4.856c0.153-0.022,0.829-0.105,0.829-0.105	c0.443-0.046,0.876-0.075,1.312-0.094c0.249-0.012,0.417-0.019,0.586-0.022c0.057-0.005,0.197-0.011,0.338-0.011	c0.199,0,0.395,0.01,0.59,0.023c0.37,0.01,0.784,0.029,1.197,0.063c0.282,0.023,0.555,0.052,0.828,0.085	c0.395,0.048,0.79,0.11,1.183,0.181c0.312,0.056,0.567,0.103,0.818,0.158c0.399,0.088,0.785,0.191,1.171,0.3l0.126,0.035	c0.215,0.058,0.429,0.118,0.639,0.186c0.438,0.14,0.876,0.306,1.311,0.478c0.134,0.049,0.407,0.152,0.407,0.152l0.167,0.069	c7.912,3.242,13.06,10.925,13.06,19.551c0,5.607-1.416,10.212-4.209,13.687c-1.435,1.785-3.019,3.063-4.376,3.958l0.012,30.048	c0,1.717-0.697,3.396-1.911,4.605c-1.224,1.222-2.855,1.897-4.589,1.897L29.47,90.505z" opacity=".35"/><path fill="#f1f1f1" d="M27.47,88.505c-3.577-0.008-6.486-2.924-6.486-6.5V51.991c-0.318-0.265-0.616-0.525-0.901-0.776	l-0.253-0.222c-4.831-4.217-7.388-9.831-7.388-16.229c0-0.038,0.001-0.098,0.003-0.166l-0.003-0.192	c0-11.039,8.273-20.087,19.254-21.072c0.779-0.085,1.558-0.128,2.316-0.128c0.445,0,0.887,0.014,1.33,0.043	c3.656-3.045,8.515-4.75,13.716-4.75c5.316,0,10.242,1.741,13.94,4.856c0.153-0.022,0.829-0.105,0.829-0.105	c0.443-0.046,0.876-0.075,1.312-0.094c0.249-0.012,0.417-0.019,0.586-0.022c0.057-0.005,0.197-0.011,0.338-0.011	c0.199,0,0.395,0.01,0.59,0.023c0.37,0.01,0.784,0.029,1.197,0.063c0.282,0.023,0.555,0.052,0.828,0.085	c0.395,0.048,0.79,0.11,1.183,0.181c0.312,0.056,0.567,0.103,0.818,0.158c0.399,0.088,0.785,0.191,1.171,0.3l0.126,0.035	c0.215,0.058,0.429,0.118,0.639,0.186c0.438,0.14,0.876,0.306,1.311,0.478c0.134,0.049,0.407,0.152,0.407,0.152l0.167,0.069	c7.912,3.242,13.06,10.925,13.06,19.551c0,5.607-1.416,10.212-4.209,13.687c-1.435,1.785-3.019,3.063-4.376,3.958l0.012,30.048	c0,1.717-0.697,3.396-1.911,4.605c-1.224,1.222-2.855,1.897-4.589,1.897L27.47,88.505z"/><path fill="#a6d7ff" d="M81.059,34.407c0-8.11-6.557-14.667-14.667-14.667c-1.898,0-3.624,0.345-5.349,1.035	C58.455,16.98,54.063,15,49.059,15c-4.659,0-8.894,1.807-11.482,5.258c-1.38-0.345-2.588-0.518-3.969-0.518	c-8.11,0-14.667,6.557-14.667,14.667c0,6.557,3.019,11.847,9.059,13.572l0.02,33.146H72l-0.02-33.184	C78.019,46.215,81.059,40.964,81.059,34.407z"/><path fill="#81c2f6" d="M36.516,70.5L36.516,70.5c-0.9,0-1.5-0.75-1.5-1.5V55.5c0-0.75,0.6-1.5,1.5-1.5l0,0	c0.75,0,1.5,0.6,1.5,1.5V69C38.016,69.75,37.416,70.5,36.516,70.5z"/><path fill="#81c2f6" d="M49.5,70.5L49.5,70.5c-0.9,0-1.5-0.75-1.5-1.5V55.5c0-0.75,0.6-1.5,1.5-1.5l0,0	c0.75,0,1.5,0.6,1.5,1.5V69C51,69.75,50.4,70.5,49.5,70.5z"/><path fill="#81c2f6" d="M63.5,70.5L63.5,70.5c-0.9,0-1.5-0.75-1.5-1.5V55.5c0-0.75,0.6-1.5,1.5-1.5l0,0	c0.75,0,1.5,0.6,1.5,1.5V69C65,69.75,64.4,70.5,63.5,70.5z"/><path fill="#81c2f6" d="M28.01,66h43.98v15.125H28.01V66z"/><circle cx="66.063" cy="34.563" r="14.938" fill="#a6d7ff"/><circle cx="34" cy="34.765" r="15.059" fill="#a6d7ff"/><path fill="none" stroke="#3f396e" stroke-linejoin="round" stroke-miterlimit="10" stroke-width="3" d="M81.059,34.407	c0-6.138-3.759-11.38-9.102-13.57c-1.809-0.778-3.8-1.212-5.894-1.212c-1.825,0-3.566,0.344-5.183,0.943	C58.273,16.915,53.966,15,49.059,15c-4.617,0-8.813,1.78-11.407,5.17c-1.171-0.292-2.39-0.465-3.652-0.465	c-0.569,0-1.128,0.038-1.68,0.099c-7.504,0.652-13.379,6.927-13.379,14.602c0,0.077,0.006,0.151,0.007,0.227	c0,0.044-0.007,0.087-0.007,0.131c0,4.57,1.776,8.375,5.17,11.338c1.156,1.01,1.946,1.753,3.373,2.374v33.528l45,0.097	c0,0-0.012-33.766-0.012-33.825c0.016-0.358,3.246-1.065,5.811-4.255C80.435,41.344,81.059,37.778,81.059,34.407z"/><path fill="none" stroke="#40396e" stroke-miterlimit="10" stroke-width="3" d="M51.878,29.866	c1.969-5.949,7.575-10.241,14.184-10.241c8.25,0,14.938,6.688,14.938,14.938"/></svg>