<svg xmlns="http://www.w3.org/2000/svg"  viewBox="0 0 100 100" width="100px" height="100px"><g id="Слой_2"><path d="M89.997,57.753L83,52.155V18c0-7.168-5.832-13-13-13H34c-7.168,0-13,5.832-13,13v38v19v7 c0,7.168,5.832,13,13,13h36c7.168,0,13-5.832,13-13v-7v-1.478l5.104-2.149c2.586-1.089,4.433-3.492,4.819-6.272 C93.31,62.322,92.189,59.506,89.997,57.753z" opacity=".35"/><path fill="#f2f2f2" d="M87.997,55.753L81,50.155V16c0-7.168-5.832-13-13-13H32c-7.168,0-13,5.832-13,13v38v24v2 c0,7.168,5.832,13,13,13h36c7.168,0,13-5.832,13-13v-2v-6.478l5.104-2.149c2.586-1.089,4.433-3.492,4.819-6.272 C91.31,60.322,90.189,57.506,87.997,55.753z"/><path fill="#40396e" d="M68,7H32c-4.411,0-8,3.589-8,8v38v24v2c0,4.411,3.589,8,8,8h36c4.411,0,8-3.589,8-8v-2v-9.798l8.164-3.438 c0.975-0.411,1.662-1.304,1.807-2.352c0.146-1.048-0.271-2.095-1.097-2.756L76,51.558V15C76,10.589,72.411,7,68,7L68,7z"/><path fill="#d47f56" d="M73,77H27V15c0-2.761,2.239-5,5-5h36c2.761,0,5,2.239,5,5V77z"/><path fill="#40396e" d="M68,10H32c-2.761,0-5,2.239-5,5v62h46V15C73,12.239,70.761,10,68,10z M41,46c0,1.105-0.895,2-2,2h-6 c-1.105,0-2-0.895-2-2V35c0-1.105,0.895-2,2-2h6c1.105,0,2,0.895,2,2V46z M41,27c0,1.105-0.895,2-2,2h-6c-1.105,0-2-0.895-2-2V16 c0-1.105,0.895-2,2-2h6c1.105,0,2,0.895,2,2V27z M55,46c0,1.105-0.895,2-2,2h-6c-1.105,0-2-0.895-2-2V35c0-1.105,0.895-2,2-2h6 c1.105,0,2,0.895,2,2V46z M55,27c0,1.105-0.895,2-2,2h-6c-1.105,0-2-0.895-2-2V16c0-1.105,0.895-2,2-2h6c1.105,0,2,0.895,2,2V27z M69,46c0,1.105-0.895,2-2,2h-6c-1.105,0-2-0.895-2-2V35c0-1.105,0.895-2,2-2h6c1.105,0,2,0.895,2,2V46z M69,27 c0,1.105-0.895,2-2,2h-6c-1.105,0-2-0.895-2-2V16c0-1.105,0.895-2,2-2h6c1.105,0,2,0.895,2,2V27z" opacity=".35"/><path fill="#de5147" d="M68,84H32c-2.761,0-5-2.239-5-5V53h46v26C73,81.761,70.761,84,68,84z"/><polygon fill="#40396e" points="27,53 64,74 73,69 73,65 64,69" opacity=".35"/><polygon fill="#fedeb3" points="27,53 64,69 83,61 73,53"/></g></svg>