<svg xmlns="http://www.w3.org/2000/svg"  viewBox="0 0 100 100" width="100px" height="100px"><path d="M30.139,98c-2.586,0-5.041-1.251-6.567-3.348c-1.562-2.145-1.986-4.835-1.165-7.383 c0.855-2.676,3.136-4.756,5.947-5.418l7.634-1.639l0.01-20.432L11.524,30.685c-1.623-1.927-1.983-4.65-0.915-6.936 C11.667,21.476,13.979,20,16.498,20h32.459c2.822-9.271,11.53-16.012,21.539-16.012c12.405,0,22.498,10.093,22.498,22.499 S82.901,48.986,70.496,48.986c-1.696,0-3.369-0.189-5.002-0.564l-9.516,11.465l0.002,20.339l7.648,1.619 c2.823,0.665,5.114,2.743,5.979,5.422c0.819,2.56,0.392,5.249-1.169,7.39C66.912,96.75,64.458,98,61.875,98H30.139z" opacity=".35"/><path fill="#f2f2f2" d="M28.139,96c-2.586,0-5.041-1.251-6.567-3.348c-1.562-2.145-1.986-4.835-1.165-7.383 c0.855-2.676,3.136-4.756,5.947-5.418l7.634-1.639l0.01-20.432L9.524,28.685c-1.623-1.927-1.983-4.65-0.915-6.936 C9.667,19.476,11.979,18,14.498,18h32.459c2.822-9.271,11.53-16.012,21.539-16.012c12.405,0,22.498,10.093,22.498,22.499 S80.901,46.986,68.496,46.986c-1.696,0-3.369-0.189-5.002-0.564l-9.516,11.465l0.002,20.339l7.648,1.619 c2.823,0.665,5.114,2.743,5.979,5.422c0.819,2.56,0.392,5.249-1.169,7.39C64.912,94.75,62.458,96,59.875,96H28.139z"/><circle cx="68.496" cy="24.487" r="15.987" fill="#ef8630"/><circle cx="68.496" cy="24.487" r="15.987" fill="#ef8630"/><circle cx="68.496" cy="24.487" r="10.913" fill="#ffc571"/><path fill="#ef8630" d="M60.171,86.179L47.48,83.494l-0.001-27.953l14.868-17.95c-4.918-2.313-8.332-7.297-8.337-13.09 H14.498l26,30.912l-0.013,28.054l-12.642,2.713c-0.563,0.133-1.07,0.522-1.25,1.083c-0.374,1.163,0.463,2.238,1.546,2.238h31.736 c1.083,0,1.92-1.075,1.546-2.238C61.241,86.701,60.734,86.312,60.171,86.179z"/><path fill="#fff6d9" d="M77.105,17.797L70,21.899v-8.21c-0.493-0.068-0.993-0.116-1.504-0.116 c-0.509,0-1.005,0.047-1.496,0.114v8.216l-7.114-4.107c-0.613,0.788-1.122,1.658-1.503,2.596l7.112,4.106l-7.105,4.102 c0.382,0.938,0.894,1.807,1.508,2.593l7.101-4.1v8.191c0.49,0.067,0.987,0.114,1.496,0.114c0.512,0,1.011-0.047,1.504-0.116v-8.185 l7.092,4.095c0.614-0.786,1.126-1.655,1.508-2.593L71.496,24.5l7.112-4.106C78.228,19.455,77.718,18.585,77.105,17.797z"/><path fill="#70bfff" d="M60.171,86.381L47.48,83.696l-0.001-27.953l12.024-14.421l-1.238-0.887l1.778-2.202 c0.005,0.003,0.009,0.007,0.014,0.01l9.698-12.041H49.573l-0.141-1.5H14.498l26,30.912l-0.013,28.054l-12.642,2.713 c-0.563,0.133-1.07,0.522-1.25,1.083c-0.374,1.163,0.463,2.238,1.546,2.238h31.736c1.083,0,1.92-1.075,1.546-2.238 C61.241,86.903,60.734,86.514,60.171,86.381z"/><polygon fill="#ff7575" points="27.987,40.202 40.987,55.202 46.987,55.202 60.396,40.202"/><path fill="#fff" d="M40.348,47.192c-0.43,0-0.855-0.184-1.152-0.539L28.34,33.648c-0.531-0.636-0.446-1.582,0.19-2.112 c0.636-0.531,1.582-0.445,2.112,0.19l10.855,13.006c0.531,0.636,0.446,1.582-0.19,2.112 C41.027,47.078,40.687,47.192,40.348,47.192z"/><path fill="none" stroke="#40396e" stroke-linecap="round" stroke-linejoin="round" stroke-miterlimit="10" stroke-width="3" d="M68.496,8.489c-8.836,0-15.999,7.163-15.999,15.999c0,0.004,0.001,0.008,0.001,0.013h-38l26,30.912l-0.013,28.054l-12.642,2.713 c-0.563,0.133-1.07,0.522-1.25,1.083c-0.374,1.163,0.463,2.238,1.546,2.238h31.736c1.083,0,1.92-1.075,1.546-2.238 c-0.18-0.561-0.686-0.95-1.25-1.083L47.48,83.494l-0.001-27.953l13.895-16.743c2.147,1.071,4.56,1.688,7.122,1.688 c8.836,0,15.999-7.163,15.999-15.999C84.494,15.652,77.332,8.489,68.496,8.489z"/></svg>