<svg xmlns="http://www.w3.org/2000/svg"  viewBox="0 0 100 100" width="100px" height="100px"><g id="Слой_2"><path d="M91.708,39.75c-4.396-7.614-13.063-11.981-23.778-11.981c-1.754,0-3.543,0.117-5.351,0.348 C47,25,48.491,10,38.5,10c-8.274,0-15.803,4.568-21.201,12.862C12.592,30.095,10,39.555,10,49.5 c0,19.384,9.811,35.596,23.422,38.886c3.954,1.862,8.662,2.844,13.663,2.844c8.034,0,16.794-2.503,24.666-7.048 c8.612-4.972,15.509-11.947,19.419-19.64C95.653,55.719,95.845,46.915,91.708,39.75z" opacity=".35"/><path fill="#f2f2f2" d="M89.708,37.75c-4.396-7.614-13.063-11.981-23.778-11.981c-1.754,0-3.543,0.117-5.351,0.348 C55.446,14.839,46.491,8,36.5,8c-8.274,0-15.803,4.568-21.201,12.862C10.592,28.095,8,37.555,8,47.5 c0,19.384,9.811,35.596,23.422,38.886c3.954,1.862,8.662,2.844,13.663,2.844c8.034,0,16.794-2.503,24.666-7.048 c8.612-4.972,15.509-11.947,19.419-19.64C93.653,53.719,93.845,44.915,89.708,37.75z"/><ellipse cx="36.5" cy="46.5" fill="#d47f56" rx="20.5" ry="31.5"/><ellipse cx="36.5" cy="46.5" fill="#40396e" opacity=".35" rx="20.5" ry="31.5"/><path fill="#40396e" d="M38.499,53c-0.353,0-0.706-0.124-0.991-0.375c-5.627-4.965-8.333-10.201-8.043-15.562 c0.447-8.246,7.855-13.566,8.17-13.789c0.677-0.478,1.613-0.316,2.091,0.36s0.316,1.611-0.358,2.089l0,0 c-0.065,0.047-6.551,4.734-6.907,11.521c-0.23,4.392,2.136,8.81,7.032,13.13c0.621,0.549,0.681,1.496,0.133,2.117 C39.328,52.828,38.915,53,38.499,53z" opacity=".35"/><path fill="#d47f56" d="M65.75,74.254c-15.066,8.698-31.869,7.801-37.53-2.004s0.6-22.558,15.667-31.256S77.119,30.945,82.78,40.75 S80.816,65.555,65.75,74.254z"/><path fill="#40396e" d="M45.817,81.188c-4.229,0-8.455-0.689-12.224-1.995C24.09,75.899,14.5,64.514,14.5,46.5 c0-18.196,9.869-33,22-33c8.637,0,16.355,7.416,19.948,19.022c3.236-0.832,6.419-1.253,9.481-1.253 c8.331,0,14.946,3.183,18.148,8.73c6.065,10.505-1.819,26.454-17.578,35.553C60.114,79.239,52.963,81.188,45.817,81.188z M36.5,16.5c-10.477,0-19,13.458-19,30c0,16.449,8.852,27.009,17.076,29.858c3.456,1.196,7.343,1.829,11.241,1.829 c6.619,0,13.253-1.81,19.183-5.232C79.326,64.684,86.719,50.572,81.48,41.5l0,0c-2.652-4.595-8.32-7.23-15.551-7.23 c-3.233,0-6.626,0.515-10.086,1.531c-0.388,0.112-0.802,0.067-1.155-0.13c-0.352-0.197-0.609-0.527-0.715-0.916 C50.956,23.666,44.098,16.5,36.5,16.5z"/><path fill="#40396e" d="M36.997,73.497c-0.724,0-1.359-0.521-1.478-1.258c-0.04-0.248-0.93-6.113,3.252-10.804 c3.55-3.981,9.535-5.813,17.797-5.434c5.47,0.242,9.471-1.021,11.883-3.771c3.646-4.158,2.583-10.404,2.572-10.467 c-0.146-0.816,0.397-1.595,1.213-1.74c0.818-0.141,1.595,0.397,1.74,1.213c0.056,0.314,1.317,7.742-3.27,12.973 c-3.043,3.47-7.829,5.088-14.275,4.789c-7.286-0.33-12.47,1.151-15.395,4.404c-3.24,3.605-2.562,8.317-2.556,8.364 c0.125,0.816-0.433,1.584-1.249,1.712C37.153,73.491,37.074,73.497,36.997,73.497z" opacity=".35"/></g></svg>