<svg xmlns="http://www.w3.org/2000/svg"  viewBox="0 0 100 100" width="100px" height="100px"><g id="Слой_2"><path d="M94.058,42.428c-0.448-2.146-1.751-3.971-3.568-5.116c1.574-2.208,2.51-4.9,2.51-7.811 c0-3.186-1.116-6.208-3.095-8.596C89.968,20.44,90,19.971,90,19.5C90,13.71,85.29,9,79.5,9c-3.086,0-5.857,1.347-7.78,3.474 C69.631,10.334,66.72,9,63.5,9c-2.021,0-3.919,0.528-5.571,1.447c-1.447-2.061-3.815-3.361-6.351-3.422l-0.246-0.008 C51.065,7.008,50.783,7,50.5,7C25.963,7,6,26.963,6,51.5S25.963,96,50.5,96S95,76.037,95,51.5 C95,48.471,94.683,45.419,94.058,42.428z" opacity=".35"/><path fill="#f2f2f2" d="M92.058,40.428c-0.448-2.146-1.751-3.971-3.568-5.116c1.574-2.208,2.51-4.9,2.51-7.811 c0-3.186-1.116-6.208-3.095-8.596C87.968,18.44,88,17.971,88,17.5C88,11.71,83.29,7,77.5,7c-3.086,0-5.857,1.347-7.78,3.474 C67.631,8.334,64.72,7,61.5,7c-2.021,0-3.919,0.528-5.571,1.447c-1.447-2.061-3.815-3.361-6.351-3.422l-0.246-0.008 C49.065,5.008,48.783,5,48.5,5C23.963,5,4,24.963,4,49.5S23.963,94,48.5,94S93,74.037,93,49.5 C93,46.471,92.683,43.419,92.058,40.428z"/><path fill="#40396e" d="M87.164,42.45c-0.205-0.983-0.889-1.798-1.821-2.171c-0.36-0.144-0.739-0.215-1.115-0.215 c-0.599,0-1.193,0.179-1.701,0.529C81.189,41.513,79.624,42,78,42c-2.621,0-5.081-1.292-6.579-3.457 c-0.573-0.828-1.505-1.292-2.467-1.293c-0.364,0-0.732,0.066-1.087,0.204C66.937,37.817,65.973,38,65,38c-4.411,0-8-3.589-8-8 l0.003-0.023c0.006-0.087,0.011-0.173,0.014-0.26c0.04-1.137-0.567-2.198-1.566-2.741C52.706,25.485,51,22.62,51,19.5 c0-1.414,0.354-2.814,1.023-4.047c0.498-0.918,0.483-2.03-0.04-2.934c-0.524-0.904-1.48-1.471-2.524-1.496l-0.28-0.009 C48.953,11.007,48.727,11,48.5,11C26.72,11,9,28.72,9,50.5S26.72,90,48.5,90S88,72.28,88,50.5 C88,47.814,87.719,45.106,87.164,42.45z"/><circle cx="61.5" cy="19.5" r="6.5" fill="#40396e"/><path fill="#40396e" d="M77.5,37c4.687,0,8.5-3.813,8.5-8.5c0-2.965-1.528-5.577-3.836-7.098C82.69,20.558,83,19.566,83,18.5 c0-3.033-2.467-5.5-5.5-5.5S72,15.467,72,18.5c0,1.066,0.31,2.058,0.836,2.902C70.528,22.923,69,25.535,69,28.5 C69,33.187,72.813,37,77.5,37z"/><path fill="#f9b84f" d="M68.954,40.251C67.727,40.729,66.397,41,65,41c-6.075,0-11-4.925-11-11c0-0.131,0.015-0.258,0.02-0.387 C50.434,27.665,48,23.867,48,19.5c0-1.983,0.502-3.849,1.386-5.478C49.091,14.015,48.797,14,48.5,14C28.342,14,12,30.342,12,50.5 S28.342,87,48.5,87S85,70.658,85,50.5c0-2.55-0.271-5.036-0.773-7.436C82.456,44.283,80.313,45,78,45 C74.248,45,70.939,43.118,68.954,40.251z"/><circle cx="61.5" cy="19.5" r="3.5" fill="#f9b84f"/><circle cx="77.5" cy="28.5" r="5.5" fill="#f9b84f"/><circle cx="77.5" cy="18.5" r="2.5" fill="#f9b84f"/><circle cx="28.5" cy="59.5" r="5.5" fill="#d47f56"/><circle cx="49.5" cy="48.5" r="5.5" fill="#d47f56"/><circle cx="35.5" cy="31.5" r="4.5" fill="#d47f56"/><circle cx="57" cy="66" r="5" fill="#d47f56"/><circle cx="42.5" cy="75.5" r="3.5" fill="#d47f56"/><circle cx="27" cy="45" r="3" fill="#d47f56"/><circle cx="75" cy="57" r="3" fill="#d47f56"/></g></svg>