<svg xmlns="http://www.w3.org/2000/svg"  viewBox="0 0 100 100" width="100px" height="100px"><path d="M68.5,96c-3.068,0-5.646-2.137-6.325-5h-20.35c-0.679,2.863-3.257,5-6.325,5h-9 c-6.5,0-6.915-6.013-7.5-9c-5.203-1.099-8-1.974-8-7.5v-55c0-5.633,4.07-10.333,9.425-11.312C21.359,10.742,23.729,9,26.5,9h18 c2.699,0,2.519,1.653,3.5,4h5.5c0.981-2.347,3.301-4,6-4h18c2.771,0,2.565,1.554,3.5,4c5.354,0.979,12,5.867,12,11.5v55 c0,5.526-3.918,10.154-9.121,11.252C83.294,93.739,80.656,96,77.5,96H68.5z" opacity=".35"/><path fill="#f2f2f2" d="M66.5,94c-3.068,0-5.646-2.137-6.325-5h-20.35c-0.679,2.863-3.257,5-6.325,5h-9 c-3.156,0-5.794-2.261-6.379-5.248C12.918,87.654,9,83.026,9,77.5v-55c0-5.633,4.07-10.333,9.425-11.312 C19.359,8.742,21.729,7,24.5,7h18c2.699,0,5.019,1.653,6,4h3c0.981-2.347,3.301-4,6-4h18c2.771,0,5.141,1.742,6.075,4.188 C86.93,12.167,91,16.867,91,22.5v55c0,5.526-3.918,10.154-9.121,11.252C81.294,91.739,78.656,94,75.5,94H66.5z"/><path fill="#d9eeff" d="M79.5,17.5h-4v-4h-18v4h-15v-4h-18v4h-4c-2.761,0-5,2.239-5,5v55c0,2.761,2.239,5,5,5h4v5h9v-5h33v5 h9v-5h4c2.761,0,5-2.239,5-5v-55C84.5,19.739,82.261,17.5,79.5,17.5z"/><polygon fill="#40396e" points="43,19 24,19 25,14 42,14"/><polygon fill="#40396e" points="76,19 57,19 58,14 75,14"/><rect width="10" height="7" x="24" y="81" fill="#3f3a6b"/><rect width="10" height="7" x="66" y="81" fill="#3f3a6b"/><rect width="54" height="31" x="23" y="44" fill="#707cc0"/><rect width="70" height="3" x="15" y="35" fill="#40396e" opacity=".35"/><path fill="none" stroke="#40396e" stroke-linecap="round" stroke-linejoin="round" stroke-miterlimit="10" stroke-width="3" d="M79.5,17.5h-4v-4h-18v4h-15v-4h-18v4h-4c-2.761,0-5,2.239-5,5v55c0,2.761,2.239,5,5,5h4v5h9v-5h33v5h9v-5h4c2.761,0,5-2.239,5-5 v-55C84.5,19.739,82.261,17.5,79.5,17.5z"/><circle cx="25.5" cy="27.5" r="2.5" fill="#40396e"/><circle cx="33.5" cy="27.5" r="2.5" fill="#40396e"/><circle cx="41.5" cy="27.5" r="2.5" fill="#40396e"/><circle cx="49.5" cy="27.5" r="2.5" fill="#40396e"/><circle cx="74.5" cy="27.5" r="2.5" fill="#f4665c"/></svg>