<svg xmlns="http://www.w3.org/2000/svg"  viewBox="0 0 100 100" width="100px" height="100px"><path d="M52.899,94.983c-3.136,0-6.091-1.395-8.075-3.771c-4.963,0.751-9.295,0.927-12.256,0.927 c-0.459,0-0.879-0.005-1.256-0.012c-2.683-0.046-5.191-1.108-7.067-2.903c-6.566-0.014-11.474-1.474-14.587-4.338 C7.266,82.687,6,79.786,6,76.5c0-2.825,1.147-9.035,10.71-11.506c0.439-2.34,1.674-4.51,3.583-6.105 c1.07-0.895,2.5-2.094,4.122-3.464c0.472-1.786,1.406-3.44,2.713-4.745l2.542-2.543c-0.486-3.208,0.547-6.546,2.979-8.978 l6.51-6.51c1.989-1.991,4.626-3.088,7.424-3.088c0.521,0,1.038,0.039,1.548,0.115l2.62-2.619c1.297-1.299,2.942-2.23,4.718-2.705 c1.353-1.599,2.537-3.01,3.423-4.067c1.562-1.867,3.699-3.112,6.047-3.564c2.402-9.567,8.619-10.715,11.452-10.715 c3.284,0,6.184,1.265,8.385,3.656c3.491,3.793,4.355,9.764,4.339,14.816c1.897,2.18,2.851,5.101,2.516,8.065 c-0.284,2.521-0.757,6.162-1.49,10.317c3.676,2.911,5.002,7.938,3.135,12.318c-1.046,2.456-2.728,5.973-5.194,9.974 c1.39,1.791,2.157,3.972,2.188,6.284c0.037,2.858-1.056,5.545-3.076,7.563l-8.192,8.191c-1.952,1.955-4.638,3.077-7.366,3.077 l-0.258-0.004c-1.909-0.024-3.754-0.574-5.358-1.581c-3.422,2.457-6.33,4.117-8.352,5.152c-1.467,0.75-3.113,1.146-4.763,1.146 H52.899z" opacity=".35"/><path fill="#f2f2f2" d="M50.899,92.983c-3.136,0-6.091-1.395-8.075-3.771c-4.963,0.751-9.295,0.927-12.256,0.927 c-0.459,0-0.879-0.005-1.256-0.012c-2.683-0.046-5.191-1.108-7.067-2.903c-6.566-0.014-11.474-1.474-14.587-4.338 C5.266,80.687,4,77.786,4,74.5c0-2.825,1.147-9.035,10.71-11.506c0.439-2.34,1.674-4.51,3.583-6.105 c1.07-0.895,2.5-2.094,4.122-3.464c0.472-1.786,1.406-3.44,2.713-4.745l2.542-2.543c-0.486-3.208,0.547-6.546,2.979-8.978 l6.51-6.51c1.989-1.991,4.626-3.088,7.424-3.088c0.521,0,1.038,0.039,1.548,0.115l2.62-2.619c1.297-1.299,2.942-2.23,4.718-2.705 c1.353-1.599,2.537-3.01,3.423-4.067c1.562-1.867,3.699-3.112,6.047-3.564c2.402-9.567,8.619-10.715,11.452-10.715 c3.284,0,6.184,1.265,8.385,3.656c3.491,3.793,4.355,9.764,4.339,14.816c1.897,2.18,2.851,5.101,2.516,8.065 c-0.284,2.521-0.757,6.162-1.49,10.317c3.676,2.911,5.002,7.938,3.135,12.318c-1.046,2.456-2.728,5.973-5.194,9.974 c1.39,1.791,2.157,3.972,2.188,6.284c0.037,2.858-1.056,5.545-3.076,7.563l-8.192,8.191c-1.952,1.955-4.638,3.077-7.366,3.077 l-0.258-0.004c-1.909-0.024-3.754-0.574-5.358-1.581c-3.422,2.457-6.33,4.117-8.352,5.152c-1.467,0.75-3.113,1.146-4.763,1.146 H50.899z"/><path fill="#d47f56" d="M10.5,74.5c0,8,17.5,6.5,17.5,6.5l-3-13C25,68,10.5,68.5,10.5,74.5z"/><path fill="#d47f56" d="M74.39,10.506C82.39,10.506,80,29,80,29l-12-4C68,25,68.39,10.506,74.39,10.506z"/><path fill="#ef8630" d="M30.58,82.139c-0.402,0-0.777-0.004-1.126-0.01c-1.084-0.019-2.025-0.73-2.342-1.771l-4.472-14.689 c-0.293-0.962,0.015-1.999,0.783-2.641C28.33,58.924,38.649,47.351,43,43c4.232-4.231,15.883-14.632,20.025-19.578 c0.474-0.566,1.17-0.891,1.909-0.891c0.247,0,0.493,0.036,0.731,0.109l14.257,4.338c1.153,0.352,1.892,1.473,1.758,2.668 C80.889,36.666,79.505,62.495,71,71C58.904,83.096,38.145,82.139,30.58,82.139z"/><path fill="#f9b84f" d="M50.889,84.989c-0.818,0-1.587-0.402-2.056-1.077l-18.335-26.38 c-0.691-0.994-0.571-2.338,0.285-3.194L41,40l13.407-9.286c0.473-0.473,1.101-0.732,1.77-0.732c0.485,0,0.957,0.141,1.364,0.406 l25.432,16.602c1.018,0.664,1.414,1.948,0.942,3.055C82.135,54.222,79.428,63.138,72,71c-7.851,8.311-16.407,11.887-19.98,13.716 C51.665,84.897,51.284,84.989,50.889,84.989z"/><path fill="#ffd291" d="M69.575,80.269c-0.693,0-1.337-0.276-1.813-0.778L36.26,46.305c-0.94-0.991-0.92-2.523,0.046-3.489 l6.51-6.51c0.473-0.472,1.101-0.732,1.769-0.732c0.644,0,1.254,0.244,1.721,0.687L79.49,67.762c0.492,0.468,0.77,1.101,0.778,1.78 s-0.252,1.319-0.732,1.801l-8.193,8.193C70.87,80.009,70.242,80.269,69.575,80.269z"/><path fill="none" stroke="#40396e" stroke-linecap="round" stroke-linejoin="round" stroke-miterlimit="10" stroke-width="3" d="M83.793,45.733l-2.846-1.858c1.175-5.686,1.864-10.864,2.224-14.06c0.211-1.873-0.918-3.619-2.691-4.222 c0.28-3.383,0.755-15.087-6.089-15.087c-5.218,0-5.815,9.066-5.882,11.432l-2.406-0.732c-1.535-0.467-3.197,0.023-4.227,1.254 c-1.244,1.485-3.072,3.66-5.127,6.078c-1.218-0.176-2.486,0.2-3.402,1.116l-5.758,5.758l-0.252-0.239 c-1.573-1.493-4.049-1.461-5.582,0.073l-6.51,6.51c-1.533,1.533-1.566,4.01-0.073,5.582l0.239,0.252l-5.689,5.689 c-0.922,0.922-1.296,2.198-1.114,3.419c-2.447,2.078-4.647,3.925-6.147,5.179c-1.232,1.03-1.723,2.693-1.256,4.229l0.733,2.409 C19.575,68.602,10.5,69.281,10.5,74.5c0,6.863,11.766,6.367,15.113,6.087l0.063,0.207c0.505,1.66,2.017,2.806,3.753,2.835 c3.42,0.058,9.489-0.114,16.309-1.542l1.864,2.681c1.143,1.645,3.319,2.195,5.102,1.282c2.685-1.375,6.857-3.849,11.72-7.899 l2.25,2.371c1.549,1.632,4.139,1.665,5.729,0.075l8.194-8.194c1.591-1.591,1.557-4.181-0.075-5.729l-2.814-2.671 c3.88-5.405,6.292-10.335,7.586-13.371C86.052,48.854,85.412,46.79,83.793,45.733z"/></svg>