<svg xmlns="http://www.w3.org/2000/svg"  viewBox="0 0 100 100" width="100px" height="100px"><g id="Слой_2"><path d="M69.865,21.46c-0.031-0.253-0.069-0.505-0.114-0.754c-0.572-3.197-2.171-6.089-4.437-8.301 C65.753,11.531,66,10.544,66,9.5C66,5.916,63.084,3,59.5,3c-4.437,0-8.206,1.605-10.901,4.641c-0.104,0.118-0.207,0.238-0.308,0.36 c-1.073,0.015-2.153,0.141-3.213,0.376c-5.994,1.33-10.748,6.284-11.829,12.328c-0.015,0.085-0.03,0.17-0.043,0.255 C18.6,27.816,19.26,86.365,19.26,86.365C20.416,93.107,26.219,98,33.059,98h35.882c6.84,0,12.643-4.893,13.799-11.634l2.664-15.541 C89.919,68.756,93,64.192,93,59C93,42.92,84.025,28.532,69.865,21.46z" opacity=".35"/><path fill="#f2f2f2" d="M67.865,19.46c-0.031-0.253-0.069-0.505-0.114-0.754c-0.572-3.197-2.171-6.089-4.437-8.301 C63.753,9.531,64,8.544,64,7.5C64,3.916,61.084,1,57.5,1c-4.437,0-8.206,1.605-10.901,4.641c-0.104,0.118-0.207,0.238-0.308,0.36 c-1.073,0.015-2.153,0.141-3.213,0.376c-5.994,1.33-10.748,6.284-11.829,12.328c-0.015,0.085-0.03,0.17-0.043,0.255 C16.6,25.816,7,40.701,7,57c0,5.192,3.081,9.756,7.596,11.825l2.664,15.541C18.416,91.107,24.219,96,31.059,96h35.882 c6.84,0,12.643-4.893,13.799-11.634l2.664-15.541C87.919,66.756,91,62.192,91,57C91,40.92,82.025,26.532,67.865,19.46z"/><path fill="#40396e" d="M60,21h0.005 M52.5,11C52.5,11,52.5,11,52.5,11c-1.024,0-2.029,0.147-3,0.438 C48.529,11.147,47.524,11,46.5,11c-0.778,0-1.565,0.087-2.338,0.259c-4.049,0.898-7.26,4.245-7.991,8.327 c-0.047,0.263-0.083,0.531-0.107,0.802C36.022,20.585,36,20.79,36,21c0,0.446,0.022,0.892,0.067,1.335 C21.766,27.68,12,41.554,12,57c0,4.074,3.06,7.446,7.003,7.938l3.186,18.583C22.931,87.854,26.662,91,31.059,91h35.882 c4.397,0,8.128-3.146,8.871-7.479l3.186-18.583C82.94,64.446,86,61.074,86,57c0-15.23-9.178-28.682-23.11-34.301 c0.067-0.517,0.103-1.037,0.109-1.559c0.002-0.047,0.003-0.094,0.003-0.141c0-0.221-0.024-0.437-0.069-0.645 c-0.024-0.259-0.059-0.516-0.104-0.769c-0.73-4.083-3.942-7.43-7.991-8.328C54.065,11.087,53.278,11,52.5,11L52.5,11L52.5,11z"/><path fill="#40396e" d="M48.998,21.499c-0.749,0-1.396-0.559-1.487-1.32c-0.035-0.289-0.807-7.12,2.829-11.219 C52.082,6.996,54.491,6,57.5,6C58.329,6,59,6.672,59,7.5S58.329,9,57.5,9c-2.14,0-3.746,0.636-4.91,1.944 c-2.742,3.08-2.107,8.821-2.1,8.879c0.096,0.822-0.492,1.568-1.313,1.665C49.116,21.495,49.057,21.499,48.998,21.499z"/><path fill="#de5147" d="M66.941,88H31.059c-2.923,0-5.42-2.106-5.914-4.986L20,53h58l-5.145,30.014 C72.361,85.894,69.864,88,66.941,88z"/><path fill="#ffc571" d="M78,62H20c-2.761,0-5-2.239-5-5v0c0-18.778,15.222-34,34-34h0c18.778,0,34,15.222,34,34v0 C83,59.761,80.761,62,78,62z"/><circle cx="43" cy="50" r="3" fill="#d47f56"/><circle cx="32" cy="42" r="3" fill="#d47f56"/><circle cx="71" cy="52" r="4" fill="#d47f56"/><circle cx="26" cy="52" r="4" fill="#d47f56"/><circle cx="65" cy="42" r="3" fill="#d47f56"/><rect width="6" height="26" x="52" y="62" fill="#f4665c"/><rect width="6" height="26" x="40" y="62" fill="#f4665c"/><path fill="#f4665c" d="M28,62v25.158C28.901,87.693,29.948,88,31.059,88H34V62H28z"/><path fill="#f4665c" d="M70,62v25.158C69.099,87.693,68.052,88,66.941,88H64V62H70z"/><path fill="#d84178" d="M59.97,21c-0.011-0.296-0.041-0.591-0.094-0.886c-0.52-2.908-2.803-5.287-5.687-5.927 c-1.686-0.374-3.295-0.168-4.688,0.441c-1.393-0.609-3.003-0.815-4.688-0.441c-2.884,0.64-5.167,3.019-5.687,5.927 c-0.053,0.294-0.083,0.59-0.094,0.886H39c0,5.799,4.701,10.5,10.5,10.5S60,26.799,60,21H59.97z"/><path fill="#f4a3be" d="M47.122,19.456c-0.507,1.222-1.694,1.848-2.652,1.399c-0.958-0.449-1.323-1.803-0.816-3.025 s1.694-1.848,2.652-1.399S47.629,18.234,47.122,19.456z"/></g></svg>