<svg xmlns="http://www.w3.org/2000/svg"  viewBox="0 0 100 100" width="100px" height="100px"><path fill-opacity=".3" d="M83.946,42.197l-1.591-13.542C81.169,18.59,72.634,11,62.5,11c-2.311,0-4.338,1.216-5.491,3.037	C55.86,12.197,53.821,11,51.5,11h-22c-3.381,0-6.162,2.539-6.469,5.894l-0.066,0.694c-1.128,11.799-1.804,19.227-1.954,21.485	c-0.468,7.146,2.59,11.958,7.989,15.218V85c0,6.065,4.935,11,11,11s11-4.935,11-11V55.778c1.948-1.061,3.628-2.452,5-4.087V85	c0,6.065,4.935,11,11,11s11-4.935,11-11V59.479C82.513,54.946,84.713,48.654,83.946,42.197z"/><path fill="#f2f2f2" d="M81.946,40.197l-1.591-13.542C79.169,16.59,70.634,9,60.5,9c-2.311,0-4.338,1.216-5.491,3.037	C53.86,10.197,51.821,9,49.5,9h-22c-3.381,0-6.162,2.539-6.469,5.894l-0.066,0.694c-1.128,11.799-1.804,19.227-1.954,21.485	c-0.468,7.146,2.59,13.286,7.989,16.546V83c0,6.065,4.935,11,11,11s11-4.935,11-11V53.778c1.948-1.061,3.628-2.452,5-4.087V83	c0,6.065,4.935,11,11,11s11-4.935,11-11V57.479C80.513,52.946,82.713,46.654,81.946,40.197z"/><path fill="#707cc0" d="M33.5,47h9v36c0,2.485-2.015,4.5-4.5,4.5h0c-2.485,0-4.5-2.015-4.5-4.5V47z"/><path fill="#707cc0" d="M65,87.5L65,87.5c2.485,0,4.5-2.015,4.5-4.5V53h-9v30C60.5,85.485,62.515,87.5,65,87.5z"/><rect width="9" height="6.5" x="33.5" y="47" fill="#40396e" opacity=".35"/><rect width="9" height="7" x="60.5" y="53" fill="#40396e" opacity=".35"/><path fill="#d9eeff" d="M51.5,37.5c-0.251-3.775-2-22-2-22h-22c0,0-1.749,18.225-2,22c-0.46,6.935,3.602,9.354,8,10.269	c2.838,0.657,5.846,0.624,9,0C47.101,46.87,51.962,44.457,51.5,37.5z"/><path fill="#d9eeff" d="M69,53c4.245-3.184,7.115-6.774,6.495-12.043l-1.593-13.539C73.103,20.622,67.343,15.5,60.5,15.5h0	V55C60.5,55,65,56,69,53z"/><path fill="#40396e" d="M42.499,38c-0.812,0-1.479-0.647-1.499-1.464l-0.5-20.5c-0.02-0.828,0.635-1.516,1.464-1.536	c0.012,0,0.024,0,0.037,0c0.812,0,1.479,0.647,1.499,1.464l0.5,20.5c0.02,0.828-0.635,1.516-1.464,1.536	C42.524,38,42.512,38,42.499,38z"/><path fill="#40396e" d="M34.501,38c-0.013,0-0.025,0-0.037,0c-0.829-0.021-1.483-0.708-1.464-1.536l0.5-20.5	c0.021-0.816,0.688-1.464,1.499-1.464c0.013,0,0.025,0,0.037,0c0.829,0.021,1.483,0.708,1.464,1.536l-0.5,20.5	C35.979,37.353,35.313,38,34.501,38z"/><path fill="#40396e" d="M38,89c-3.309,0-6-2.691-6-6V50.439c-4.488-1.466-8.472-5.871-7.997-13.039	c0.25-3.754,1.933-21.299,2.004-22.044C26.081,14.587,26.728,14,27.5,14h22c0.772,0,1.419,0.587,1.493,1.356	c0.071,0.745,1.754,18.29,2.004,22.044l0,0C53.47,44.526,48.863,49.015,44,50.472V83C44,86.309,41.309,89,38,89z M28.863,17	c-0.409,4.296-1.66,17.489-1.866,20.6c-0.426,6.41,3.401,9.512,6.809,10.221C34.501,47.965,35,48.578,35,49.289V83	c0,1.654,1.346,3,3,3s3-1.346,3-3V49.299c0-0.718,0.508-1.335,1.213-1.473c4.161-0.813,8.185-4.29,7.79-10.227l0,0	c-0.206-3.11-1.457-16.304-1.866-20.6H28.863z"/><path fill="#40396e" d="M65,89c-3.309,0-6-2.691-6-6V15.5c0-0.828,0.672-1.5,1.5-1.5c7.602,0,14.004,5.693,14.892,13.242	l1.593,13.54c0.653,5.551-1.629,11.021-5.984,14.466V83C71,86.309,68.309,89,65,89z M62,17.094V83c0,1.654,1.346,3,3,3s3-1.346,3-3	V54.5c0-0.484,0.234-0.939,0.628-1.221c3.873-2.767,5.934-7.421,5.378-12.146l-1.593-13.54C71.761,22.058,67.404,17.771,62,17.094z"/></svg>