<svg xmlns="http://www.w3.org/2000/svg"  viewBox="0 0 100 100" width="100px" height="100px"><g id="Слой_2"><circle cx="51" cy="51" r="44" opacity=".35"/><circle cx="49" cy="49" r="44" fill="#f2f2f2"/><circle cx="48.75" cy="48.75" r="38.75" fill="#ffe385"/><circle cx="71" cy="38" r="13" fill="#d47f56"/><path fill="#d47f56" d="M66,34v32c0,1.657-1.343,3-3,3h0c-1.657,0-3-1.343-3-3V54l5-10L66,34z"/><path fill="#d47f56" d="M64,14l-18-2l-15,4L18,29l-7,15l3,20c0,1.71,1.431,3.086,3.161,2.996C18.784,66.911,20,65.455,20,63.83v0 c0-5.014,4.458-8.965,9.405-8.151C32.134,56.129,35.312,57.156,39,59l26-22l14-10L64,14z"/><path fill="#d47f56" d="M81,57L81,57c-2.209,0-4-1.791-4-4V40h8v13C85,55.209,83.209,57,81,57z"/><path fill="#40396e" d="M48.75,13C68.463,13,84.5,29.037,84.5,48.75S68.463,84.5,48.75,84.5S13,68.463,13,48.75S29.037,13,48.75,13 M48.75,10C27.349,10,10,27.349,10,48.75S27.349,87.5,48.75,87.5S87.5,70.151,87.5,48.75S70.151,10,48.75,10L48.75,10z"/><path fill="#ffe8d9" d="M22.061,40.939c-0.586-0.586-1.535-0.586-2.121,0l-3.5,3.5c-0.586,0.586-0.586,1.535,0,2.121 C16.732,46.854,17.116,47,17.5,47s0.768-0.146,1.061-0.439l3.5-3.5C22.646,42.475,22.646,41.525,22.061,40.939z"/><circle cx="49" cy="49" r="15" fill="#f2f2f2"/><path fill="#40396e" d="M49,37c6.617,0,12,5.383,12,12s-5.383,12-12,12s-12-5.383-12-12S42.383,37,49,37 M49,34 c-8.284,0-15,6.716-15,15s6.716,15,15,15s15-6.716,15-15S57.284,34,49,34L49,34z"/><path fill="#ffe8d9" d="M35.439,23.439l-4.5,4.5c-0.586,0.586-0.586,1.535,0,2.121C31.232,30.354,31.616,30.5,32,30.5 s0.768-0.146,1.061-0.439l4.5-4.5c0.586-0.586,0.586-1.535,0-2.121S36.025,22.854,35.439,23.439z"/><path fill="#ffe8d9" d="M62.939,21.939l-3.5,3.5c-0.586,0.586-0.586,1.535,0,2.121C59.732,27.854,60.116,28,60.5,28 s0.768-0.146,1.061-0.439l3.5-3.5c0.586-0.586,0.586-1.535,0-2.121S63.525,21.354,62.939,21.939z"/><path fill="#ffe8d9" d="M80.812,40.771c-0.403-0.726-1.32-0.985-2.04-0.583l-4.5,2.5c-0.725,0.402-0.985,1.315-0.583,2.04 c0.274,0.493,0.786,0.771,1.312,0.771c0.247,0,0.497-0.061,0.728-0.188l4.5-2.5C80.953,42.409,81.214,41.496,80.812,40.771z"/><path fill="#ffe8d9" d="M31.77,62.876l-3.5,3.5c-0.586,0.586-0.586,1.535,0,2.121c0.293,0.293,0.677,0.439,1.061,0.439 s0.768-0.146,1.061-0.439l3.5-3.5c0.586-0.586,0.586-1.535,0-2.121S32.355,62.29,31.77,62.876z"/><path fill="#ffe8d9" d="M56.522,70.574c-0.453-0.695-1.383-0.89-2.076-0.438s-0.89,1.382-0.438,2.076l3.064,4.702 c0.288,0.441,0.769,0.681,1.258,0.681c0.281,0,0.565-0.078,0.818-0.243c0.693-0.452,0.89-1.382,0.438-2.076L56.522,70.574z"/><g><path fill="#f4a3be" d="M29.423,35.525c-0.262-0.785-1.111-1.211-1.897-0.948c-0.786,0.262-1.21,1.111-0.948,1.897l1.5,4.5 C28.286,41.603,28.872,42,29.5,42c0.157,0,0.317-0.024,0.475-0.077c0.786-0.262,1.21-1.111,0.948-1.897L29.423,35.525z"/><path fill="#f4a3be" d="M71.061,34.939l-4-4c-0.586-0.586-1.535-0.586-2.121,0s-0.586,1.535,0,2.121l4,4 C69.232,37.354,69.616,37.5,70,37.5s0.768-0.146,1.061-0.439C71.646,36.475,71.646,35.525,71.061,34.939z"/><path fill="#f4a3be" d="M52,21.5h-6c-0.828,0-1.5,0.672-1.5,1.5s0.672,1.5,1.5,1.5h6c0.828,0,1.5-0.672,1.5-1.5S52.828,21.5,52,21.5z"/><path fill="#f4a3be" d="M44.025,71.077l-6,2c-0.786,0.262-1.21,1.111-0.948,1.897C37.286,75.603,37.872,76,38.5,76 c0.157,0,0.317-0.024,0.475-0.077l6-2c0.786-0.262,1.21-1.111,0.948-1.897C45.661,71.24,44.812,70.814,44.025,71.077z"/></g></g></svg>