<svg xmlns="http://www.w3.org/2000/svg"  viewBox="0 0 100 100" width="100px" height="100px"><path d="M52.1,100.4c-9.2,0-18-3.6-24.9-10.2C22.2,89.5,13,86.4,9.4,72.3c-0.7-2.5,0.3-5.2,2.3-6.8	c0.7-0.5,1.5-0.9,2.4-1.1c-0.3-2.1-0.4-4.3-0.4-6.4c0-0.4,0-0.9,0-1.3C6,44.3,11.7,32.4,15.8,27.8c1.2-1.4,3-2.2,4.8-2.2	c0.7,0,1.5,0.1,2.2,0.4c1,0.4,1.8,0.9,2.5,1.6c1.8-1.9,3.7-3.6,5.7-5.1c2.7-2,4.7-4.5,5.6-7.2c0.6-1.7,0.9-3.5,0.9-5.2	c0-2.6,1.5-4.9,3.9-6c0.8-0.4,1.7-0.5,2.6-0.5c1.6,0,3.2,0.6,4.4,1.7C49.7,6.5,50.9,8,52,9.6c1.1-1.5,2.3-3,3.6-4.2	c1.2-1.2,2.8-1.8,4.5-1.8c0.9,0,1.7,0.2,2.6,0.5c2.4,1,3.9,3.4,3.9,6c0,1.5,0.2,3.1,0.7,4.6c0.9,3,2.9,5.6,5.8,7.7	c2,1.5,4,3.2,5.7,5c0.7-0.7,1.5-1.2,2.4-1.5c0.7-0.3,1.5-0.4,2.2-0.4c1.8,0,3.6,0.8,4.8,2.2c4.1,4.6,9.7,16.3,2.3,28.6	c0,0.5,0,1.1,0,1.6c0,2.2-0.2,4.3-0.5,6.5c0.8,0.2,1.6,0.6,2.3,1.1c2.1,1.6,3,4.3,2.3,6.8C91,86.2,81.9,89.4,77,90.1	C70.1,96.7,61.3,100.4,52.1,100.4z" opacity=".35"/><path fill="#f2f2f2" d="M50.1,98.4c-9.2,0-18-3.6-24.9-10.2C20.2,87.5,11,84.4,7.4,70.3c-0.7-2.5,0.3-5.2,2.3-6.8	c0.7-0.5,1.5-0.9,2.4-1.1c-0.3-2.1-0.4-4.3-0.4-6.4c0-0.4,0-0.9,0-1.3C4,42.3,9.7,30.4,13.8,25.8c1.2-1.4,3-2.2,4.8-2.2	c0.7,0,1.5,0.1,2.2,0.4c1,0.4,1.8,0.9,2.5,1.6c1.8-1.9,3.7-3.6,5.7-5.1c2.7-2,4.7-4.5,5.6-7.2c0.6-1.7,0.9-3.5,0.9-5.2	c0-2.6,1.5-4.9,3.9-6c0.8-0.4,1.7-0.5,2.6-0.5c1.6,0,3.2,0.6,4.4,1.7C47.7,4.5,48.9,6,50,7.6c1.1-1.5,2.3-3,3.6-4.2	c1.2-1.2,2.8-1.8,4.5-1.8c0.9,0,1.7,0.2,2.6,0.5c2.4,1,3.9,3.4,3.9,6c0,1.5,0.2,3.1,0.7,4.6c0.9,3,2.9,5.6,5.8,7.7	c2,1.5,4,3.2,5.7,5c0.7-0.7,1.5-1.2,2.4-1.5c0.7-0.3,1.5-0.4,2.2-0.4c1.8,0,3.6,0.8,4.8,2.2c4.1,4.6,9.7,16.3,2.3,28.6	c0,0.5,0,1.1,0,1.6c0,2.2-0.2,4.3-0.5,6.5c0.8,0.2,1.6,0.6,2.3,1.1c2.1,1.6,3,4.3,2.3,6.8C89,84.2,79.9,87.4,75,88.1	C68.1,94.7,59.3,98.4,50.1,98.4z"/><path fill="#96c362" d="M68,29.1c0,0-10.8-6.4-12-1c-1,3.8-10.8,4.6-12,0c-1.4-5.4-12,0-12,0s10-10.8,10-19.9c2.8,2.6,6.2,9.4,8,12l0,0	c0,0,4-8.2,8-12C58.1,17.5,68,29.1,68,29.1z"/><path fill="#96c362" d="M18.7,30.1c0,0-9,10.1-0.8,22c5.7,8.6,6.3-16.5,6.3-16.5S19.2,43.3,18.7,30.1z"/><path fill="#96c362" d="M75.9,35.7c0,0,0.6,25,6.3,16.5c8.2-12-0.8-22-0.8-22C80.8,43.3,75.9,35.7,75.9,35.7z"/><path fill="#96c362" d="M28.8,81.7c0,0-6.1-20.6-8.3-15.4s-6.8,2.4-6.8,2.4C17.6,83.8,28.8,81.7,28.8,81.7z"/><path fill="#96c362" d="M86.3,68.7c0,0-4.7,2.8-6.8-2.4c-2.1-5.2-8.3,15.4-8.3,15.4S82.4,83.8,86.3,68.7z"/><path fill="#d84178" d="M50.1,21.5C33.2,21.5,19.5,37,19.5,56s13.8,34.5,30.6,34.5S80.7,74.9,80.7,56S66.9,21.5,50.1,21.5L50.1,21.5z"/><path fill="#f2f2f2" d="M56.5,26.9c-3-1.4-5.7-3.2-6.4-6.8c0.2,0.9-0.6,2.1-1,2.8c-2.4,3.3-6.3,4.1-9.7,5.8c-3,1.6-5.7,3.8-7.9,6.4	C26.6,41,24.2,48.5,24.2,56c0,16.5,11.6,29.9,25.9,29.9S76,72.5,76,56c0-7.6-2.6-15.3-7.6-21.1c-1.5-1.7-3.2-3.3-5.2-4.6	C61.1,28.9,58.8,28,56.5,26.9z"/><path fill="#40396e" d="M50.1,32.1c0,1.2-0.8,2-2,2s-2-0.8-2-2s0.8-2,2-2S50.1,30.9,50.1,32.1z M62,36c-1.2,0-2,0.8-2,2s0.8,2,2,2	s2-0.8,2-2S63.2,36,62,36z M56.1,38c-1.2,0-2,0.8-2,2c0,1.2,0.8,2,2,2s2-0.8,2-2C58.1,38.8,57.3,38,56.1,38z M60.1,46	c0,1.2,0.8,2,2,2s2-0.8,2-2s-0.8-2-2-2S60.1,44.8,60.1,46z M36.1,40c-1.2,0-2,0.8-2,2s0.8,2,2,2s2-0.8,2-2S37.3,40,36.1,40z M30.2,54c-1.2,0-2,0.8-2,2s0.8,2,2,2s2-0.8,2-2S31.4,54,30.2,54z M44.1,48c-1.2,0-2,0.8-2,2s0.8,2,2,2s2-0.8,2-2S45.3,48,44.1,48z M52.1,50c-1.2,0-2,0.8-2,2c0,1.2,0.8,2,2,2s2-0.8,2-2C54.1,50.8,53.3,50,52.1,50z M70,50c-1.2,0-2,0.8-2,2c0,1.2,0.8,2,2,2	s2-0.8,2-2C72,50.8,71.2,50,70,50z M64,54c-1.2,0-2,0.8-2,2s0.8,2,2,2c1.2,0,2-0.8,2-2S65.2,54,64,54z M66,65.9c0,1.2,0.8,2,2,2	s2-0.8,2-2s-0.8-2-2-2S66,64.7,66,65.9z M60.1,71.9c0,1.2,0.8,2,2,2s2-0.8,2-2c0-1.2-0.8-2-2-2S60.1,70.7,60.1,71.9z M48.1,75.9	c-1.2,0-2,0.8-2,2s0.8,2,2,2s2-0.8,2-2S49.3,75.9,48.1,75.9z M40.1,71.9c-1.2,0-2,0.8-2,2s0.8,2,2,2s2-0.8,2-2S41.3,71.9,40.1,71.9z M36.1,60c-1.2,0-2,0.8-2,2s0.8,2,2,2s2-0.8,2-2S37.3,60,36.1,60z M48.1,60c-1.2,0-2,0.8-2,2s0.8,2,2,2s2-0.8,2-2S49.3,60,48.1,60z"/><path fill="none" stroke="#40396e" stroke-linecap="round" stroke-linejoin="round" stroke-miterlimit="10" stroke-width="3" d="M86.2,68.8c-2.7,1.4-5.9-1.1-5.2-4c0.6-2.8,1-5.7,1-8.7c0-1.1-0.1-2.3-0.1-3.4c0.1-0.1,0.2-0.3,0.3-0.5	c8.2-12-0.8-22-0.8-22c-0.3,8.8-2.6,8.3-4.1,7.1c-2.5-4.6-6-8.5-10-11.4c-3.8-2.8-6.8-6.6-8.2-11.1c-0.6-1.9-1-4.1-1-6.5	c-4,3.8-8,12-8,12c-1.8-2.6-5.2-9.4-8-12c0,2.7-0.5,5.2-1.2,7.3c-1.4,4.2-4.3,7.7-7.9,10.3c-3.9,2.8-7.3,6.6-9.8,11	c-1.5,1.5-4.1,2.8-4.5-6.7c0,0-9,10.1-0.8,22c0.2,0.3,0.3,0.5,0.5,0.7c-0.1,1-0.1,2.1-0.1,3.2c0,3,0.3,5.9,1,8.7	c0.6,2.9-2.1,5.4-4.8,4.3c-0.4-0.2-0.7-0.3-0.7-0.3C17,81.4,25.4,81.9,28,81.8c5.7,6.2,13.5,10.1,22.1,10.1	c8.5,0,16.3-3.8,22.1-10.1c2.8,0.1,10.9-0.7,14.2-13.1C86.3,68.7,86.3,68.7,86.2,68.8z"/></svg>