<svg xmlns="http://www.w3.org/2000/svg"  viewBox="0 0 100 100" width="100px" height="100px"><path d="M83.11,46.855c2.07,3.76,4.89,8.88,4.89,17.14c0,12.09-8.18,22.98-9.82,25.04	c-2,2.51-5,3.96-8.22,3.96c-2.36,0-4.68-0.81-6.53-2.28c-2.16-1.71-3.45-4.12-3.83-6.65c-1.5,2.47-2.82,4.23-3.38,4.94	c-2.02,2.54-5.02,3.99-8.24,3.99c-2.36,0-4.68-0.81-6.53-2.28c-2.09-1.65-3.43-4-3.84-6.64c-1.49,2.46-2.81,4.22-3.37,4.93	c-2.02,2.54-5.02,3.99-8.24,3.99c-2.36,0-4.68-0.81-6.53-2.28c-4.51-3.59-5.28-10.18-1.74-14.7c2.18-2.86,5.31-8.32,5.31-12.02	c0-2.85-0.71-4.14-2.27-6.95c-2.03-3.69-4.77-8.67-4.77-16.55c0-12.84,8.81-24.27,9.82-25.54c2-2.51,5-3.96,8.22-3.96	c2.34,0,4.66,0.8,6.51,2.26c2.17,1.73,3.47,4.15,3.85,6.69c1.5-2.49,2.83-4.26,3.39-4.97c2.01-2.53,5.01-3.98,8.23-3.98	c2.38,0,4.7,0.81,6.54,2.29c2.16,1.71,3.45,4.11,3.83,6.65c1.49-2.48,2.81-4.25,3.37-4.95c2.02-2.54,5.02-3.99,8.24-3.99	c2.36,0,4.68,0.81,6.53,2.28c4.51,3.59,5.28,10.17,1.74,14.68c-1.55,2.05-5.31,8.01-5.31,12.54	C80.96,42.965,81.63,44.185,83.11,46.855z" opacity=".35"/><path fill="#f2f2f2" d="M81.11,44.855c2.07,3.76,4.89,8.88,4.89,17.14c0,12.09-8.18,22.98-9.82,25.04	c-2,2.51-5,3.96-8.22,3.96c-2.36,0-4.68-0.81-6.53-2.28c-2.16-1.71-3.45-4.12-3.83-6.65c-1.5,2.47-2.82,4.23-3.38,4.94	c-2.02,2.54-5.02,3.99-8.24,3.99c-2.36,0-4.68-0.81-6.53-2.28c-2.09-1.65-3.43-4-3.84-6.64c-1.49,2.46-2.81,4.22-3.37,4.93	c-2.02,2.54-5.02,3.99-8.24,3.99c-2.36,0-4.68-0.81-6.53-2.28c-4.51-3.59-5.28-10.18-1.74-14.7c2.18-2.86,5.31-8.32,5.31-12.02	c0-2.85-0.71-4.14-2.27-6.95c-2.03-3.69-4.77-8.67-4.77-16.55c0-12.84,8.81-24.27,9.82-25.54c2-2.51,5-3.96,8.22-3.96	c2.34,0,4.66,0.8,6.51,2.26c2.17,1.73,3.47,4.15,3.85,6.69c1.5-2.49,2.83-4.26,3.39-4.97c2.01-2.53,5.01-3.98,8.23-3.98	c2.38,0,4.7,0.81,6.54,2.29c2.16,1.71,3.45,4.11,3.83,6.65c1.49-2.48,2.81-4.25,3.37-4.95c2.02-2.54,5.02-3.99,8.24-3.99	c2.36,0,4.68,0.81,6.53,2.28c4.51,3.59,5.28,10.17,1.74,14.68c-1.55,2.05-5.31,8.01-5.31,12.54	C78.96,40.965,79.63,42.185,81.11,44.855z"/><path fill="#ffc571" d="M45.98,84.495c-0.899,0-1.782-0.309-2.486-0.868c-0.835-0.662-1.364-1.612-1.486-2.674	c-0.122-1.062,0.176-2.107,0.84-2.944c0.062-0.079,6.67-8.589,6.67-16.014c0-4.528-1.361-6.989-3.083-10.105	c-1.767-3.195-3.966-7.172-3.954-13.402c0.021-10.744,8.058-21.041,8.399-21.474c0.766-0.966,1.91-1.519,3.141-1.519	c0.896,0,1.777,0.308,2.48,0.865c1.727,1.364,2.021,3.884,0.656,5.614c-0.066,0.084-6.661,8.586-6.676,16.528	c-0.008,4.157,1.299,6.522,2.955,9.516c1.819,3.291,4.083,7.386,4.083,13.977c0,10.276-8.061,20.554-8.404,20.986	C48.352,83.943,47.209,84.495,45.98,84.495z"/><path fill="#40396e" d="M54.021,16.995c0.543,0,1.09,0.176,1.548,0.54c1.082,0.855,1.266,2.427,0.411,3.51	c-0.07,0.088-6.982,8.958-6.999,17.455c-0.009,4.546,1.451,7.187,3.142,10.245c1.826,3.303,3.895,7.046,3.895,13.25	c0,9.759-7.749,19.638-8.079,20.054c-0.494,0.622-1.223,0.946-1.96,0.946c-0.544,0-1.093-0.177-1.552-0.542	c-1.082-0.857-1.263-2.431-0.405-3.512c0.068-0.087,6.996-8.944,6.996-16.946c0-4.914-1.516-7.656-3.271-10.831	c-1.771-3.202-3.777-6.833-3.766-12.674c0.02-10.249,7.748-20.131,8.077-20.547C52.552,17.32,53.283,16.995,54.021,16.995 M54.021,13.995C54.021,13.995,54.021,13.995,54.021,13.995c-1.691,0-3.264,0.76-4.314,2.084	c-0.894,1.132-8.705,11.338-8.726,22.405c-0.013,6.619,2.29,10.785,4.141,14.131c1.682,3.041,2.896,5.239,2.896,9.379	c0,6.889-6.292,15.013-6.356,15.095c-0.903,1.138-1.313,2.575-1.145,4.035c0.168,1.46,0.895,2.767,2.046,3.679	c0.965,0.767,2.179,1.191,3.416,1.191c1.689,0,3.26-0.759,4.31-2.081c0.894-1.126,8.729-11.308,8.729-21.919	c0-6.978-2.367-11.26-4.269-14.701c-1.611-2.915-2.775-5.02-2.768-8.789c0.014-7.394,6.295-15.527,6.359-15.608	c1.873-2.373,1.467-5.837-0.91-7.716C56.467,14.417,55.255,13.995,54.021,13.995L54.021,13.995z"/><path fill="#ffc571" d="M23.999,84.495c-0.898,0-1.78-0.308-2.484-0.865c-1.728-1.372-2.019-3.893-0.648-5.62	c0.063-0.08,6.67-8.59,6.67-16.015c0-4.532-1.359-6.995-3.081-10.114c-1.763-3.193-3.956-7.166-3.956-13.386	c0-10.771,8.06-21.054,8.403-21.486c0.764-0.962,1.907-1.514,3.135-1.514c0.897,0,1.779,0.308,2.483,0.865	c1.729,1.372,2.02,3.893,0.649,5.619c-0.063,0.08-6.671,8.592-6.671,16.516c0,4.159,1.306,6.524,2.958,9.519	c1.817,3.291,4.078,7.387,4.078,13.981c0,10.277-8.06,20.554-8.403,20.986C26.37,83.943,25.228,84.495,23.999,84.495z"/><path fill="#40396e" d="M32.038,16.995c0.544,0,1.092,0.177,1.552,0.541c1.082,0.858,1.263,2.431,0.405,3.512	C33.874,21.203,27,30.035,27,38.495c0,4.545,1.458,7.186,3.146,10.243c1.824,3.304,3.891,7.049,3.891,13.257	c0,9.759-7.748,19.638-8.078,20.054c-0.494,0.622-1.223,0.946-1.96,0.946c-0.544,0-1.093-0.177-1.552-0.541	c-1.082-0.858-1.263-2.431-0.405-3.513c0.068-0.087,6.995-8.944,6.995-16.946c0-4.92-1.515-7.663-3.269-10.841	C24.002,47.955,22,44.328,22,38.495c0-10.253,7.748-20.138,8.078-20.554C30.572,17.319,31.302,16.995,32.038,16.995 M32.038,13.995	C32.038,13.995,32.038,13.995,32.038,13.995c-1.69,0-3.26,0.759-4.31,2.081C26.835,17.202,19,27.397,19,38.495	c0,6.607,2.296,10.767,4.142,14.109c1.681,3.046,2.895,5.245,2.895,9.391c0,6.89-6.292,15.013-6.355,15.095	c-1.874,2.364-1.475,5.83,0.9,7.714c0.969,0.768,2.182,1.191,3.417,1.191c1.689,0,3.26-0.759,4.31-2.081	c0.894-1.126,8.728-11.307,8.728-21.919c0-6.981-2.365-11.265-4.265-14.707C31.163,44.373,30,42.267,30,38.495	c0-7.379,6.292-15.514,6.356-15.596c1.874-2.363,1.474-5.828-0.901-7.713C34.485,14.417,33.272,13.995,32.038,13.995L32.038,13.995z"/><path fill="#ffc571" d="M67.962,84.495c-0.898,0-1.78-0.308-2.484-0.865c-1.728-1.372-2.019-3.893-0.648-5.62	c0.063-0.08,6.67-8.59,6.67-16.015c0-4.532-1.359-6.995-3.081-10.114c-1.763-3.193-3.956-7.166-3.956-13.386	c0-10.771,8.06-21.054,8.403-21.486c0.764-0.962,1.907-1.514,3.136-1.514c0.897,0,1.779,0.308,2.483,0.865	c1.728,1.372,2.019,3.893,0.649,5.619c-0.062,0.079-6.671,8.598-6.671,16.516c0,4.159,1.306,6.524,2.958,9.519	C77.239,51.304,79.5,55.4,79.5,61.995c0,10.277-8.06,20.554-8.403,20.986C70.333,83.943,69.191,84.495,67.962,84.495z"/><path fill="#40396e" d="M76.002,16.995c0.544,0,1.092,0.177,1.552,0.541c1.082,0.858,1.263,2.431,0.405,3.512	c-0.121,0.154-6.996,8.986-6.996,17.447c0,4.545,1.458,7.186,3.146,10.243C75.933,52.041,78,55.787,78,61.995	c0,9.759-7.748,19.638-8.078,20.054c-0.494,0.622-1.223,0.946-1.96,0.946c-0.544,0-1.093-0.177-1.552-0.541	c-1.082-0.858-1.263-2.431-0.405-3.513C66.073,78.854,73,69.997,73,61.995c0-4.92-1.515-7.663-3.269-10.841	c-1.766-3.199-3.768-6.826-3.768-12.659c0-10.253,7.748-20.138,8.078-20.554C74.535,17.319,75.265,16.995,76.002,16.995 M76.002,13.995C76.002,13.995,76.002,13.995,76.002,13.995c-1.69,0-3.261,0.759-4.31,2.081c-0.894,1.126-8.728,11.321-8.728,22.419	c0,6.607,2.296,10.767,4.142,14.109C68.786,55.649,70,57.849,70,61.995c0,6.89-6.292,15.013-6.355,15.095	c-1.874,2.364-1.475,5.83,0.9,7.714c0.969,0.768,2.182,1.191,3.417,1.191c1.689,0,3.26-0.759,4.31-2.081	C73.165,82.787,81,72.606,81,61.995c0-6.981-2.365-11.265-4.265-14.707c-1.609-2.915-2.772-5.021-2.772-8.793	c0-7.377,6.293-15.515,6.357-15.597c1.873-2.362,1.474-5.827-0.901-7.712C78.449,14.417,77.236,13.995,76.002,13.995L76.002,13.995z"/></svg>