<svg xmlns="http://www.w3.org/2000/svg"  viewBox="0 0 100 100" width="100px" height="100px"><g id="Слой_2"><path d="M84.886,44.074C80.523,39.99,74.21,37.111,68,35C63.468,22.215,54.132,8,39.5,8C20.347,8,7,32.243,7,54 c0,10.352,3.039,19.24,8.788,25.703c5.006,5.627,11.97,9.172,19.723,10.07C40.599,92.911,46.633,94.5,53.47,94.5 C72.64,94.5,94,81.666,94,63.25C94,56.286,90.848,49.656,84.886,44.074z" opacity=".35"/><path fill="#f2f2f2" d="M83.886,42.074c-4.363-4.084-10.067-7.41-16.277-9.521C63.077,19.768,53.132,6,38.5,6C19.347,6,6,30.243,6,52 c0,10.352,3.039,19.24,8.788,25.703c5.006,5.627,11.97,9.172,19.723,10.07C39.599,90.911,45.633,92.5,52.47,92.5 C71.64,92.5,93,79.666,93,61.25C93,54.286,89.848,47.656,83.886,42.074z"/><path fill="#70bfff" d="M64,52c0,18.225-11.969,28-25.5,28S14,70.225,14,52s10.969-38,24.5-38S64,33.775,64,52z"/><path fill="#40396e" d="M31.028,41.346C26.174,46.399,23.5,53.468,23.5,61.25c0,6.254,1.73,12.045,4.928,16.702 C31.501,79.304,34.909,80,38.5,80C52.031,80,67,70.225,67,52c0-6.234-5.285-12.649-7.515-18.392C57.143,33.212,54.789,33,52.47,33 C43.688,33,36.274,35.886,31.028,41.346z" opacity=".35"/><path fill="#d9eeff" d="M52.47,84.5c-15.602,0-23.97-10.409-23.97-23.25S36.868,38,52.47,38S85,48.409,85,61.25 S68.072,84.5,52.47,84.5z"/><path fill="#40396e" d="M52.47,87.5c-6.324,0-11.793-1.542-16.264-4.585C20.878,81.777,11,69.69,11,52 c0-9.529,2.777-19.518,7.619-27.404C24.002,15.828,31.062,11,38.5,11c12.911,0,21.546,13.584,25.165,25.564 C75.542,39.877,88,48.872,88,61.25c0,7.055-4.165,13.774-11.727,18.921C69.428,84.829,60.752,87.5,52.47,87.5z M38.5,14 c-6.355,0-12.508,4.32-17.324,12.166C16.615,33.594,14,43.01,14,52c0,16.138,8.954,27.108,22.811,27.949 c0.279,0.017,0.547,0.111,0.775,0.272c4.018,2.839,9.025,4.278,14.884,4.278c7.695,0,15.756-2.482,22.116-6.81 C81.301,73.12,85,67.281,85,61.25c0-10.575-11.525-19.073-22.911-22.002c-0.516-0.133-0.923-0.53-1.069-1.042 C57.589,26.157,49.295,14,38.5,14z"/><circle cx="46" cy="45" r="3" fill="#f2f2f2"/><circle cx="38" cy="52" r="3" fill="#f2f2f2"/><circle cx="48" cy="55" r="4" fill="#f2f2f2"/></g></svg>