<svg xmlns="http://www.w3.org/2000/svg"  viewBox="0 0 100 100" width="100px" height="100px"><path d="M52,90.079c-2.595,0-4.937-1.539-5.966-3.92c-1.541-3.561-7.597-7.956-13.453-12.207C21.63,66.005,8,56.114,8,40.689 c0-14.76,12.093-26.768,26.957-26.768c6.297,0,12.278,2.151,17.043,6.028c4.765-3.876,10.746-6.028,17.043-6.028 C83.907,13.921,96,25.929,96,40.689c0,15.548-13.655,25.417-24.628,33.346C65.534,78.253,59.5,82.614,57.966,86.16 C56.937,88.541,54.595,90.079,52,90.079z" opacity=".35"/><path fill="#f2f2f2" d="M50,88.079c-2.595,0-4.937-1.539-5.966-3.92c-1.541-3.561-7.597-7.956-13.453-12.207 C19.63,64.005,6,54.114,6,38.689c0-14.76,12.093-26.768,26.957-26.768c6.297,0,12.278,2.151,17.043,6.028 c4.765-3.876,10.746-6.028,17.043-6.028C81.907,11.921,94,23.929,94,38.689c0,15.548-13.655,25.417-24.628,33.346 C63.534,76.253,57.5,80.614,55.966,84.16C54.937,86.541,52.595,88.079,50,88.079z"/><path fill="#f4665c" d="M67.043,18.421c-7.121,0-13.382,3.608-17.043,9.073c-3.661-5.465-9.922-9.073-17.043-9.073 c-11.297,0-20.457,9.075-20.457,20.268c0,20.167,31.875,29.886,37.5,42.89c5.625-13.005,37.5-22.555,37.5-42.89 C87.5,27.496,78.34,18.421,67.043,18.421"/><path fill="#40396e" d="M50,83.079c-0.599,0-1.14-0.355-1.377-0.904c-2.084-4.818-8.409-9.409-15.105-14.269 C22.963,60.247,11,51.565,11,38.689c0-12.003,9.85-21.768,21.957-21.768c6.662,0,12.891,2.978,17.043,8.057 c4.152-5.079,10.381-8.057,17.043-8.057C79.15,16.921,89,26.686,89,38.689c0,12.994-11.985,21.654-22.559,29.295 c-6.679,4.826-12.985,9.384-15.064,14.19C51.14,82.724,50.599,83.079,50,83.079z M32.957,19.921C22.504,19.921,14,28.34,14,38.689 c0,11.346,11.305,19.551,21.279,26.789c5.971,4.333,11.661,8.463,14.722,13.018c3.055-4.54,8.729-8.64,14.683-12.942 C74.676,58.333,86,50.149,86,38.689c0-10.349-8.504-18.768-18.957-18.768c-6.364,0-12.27,3.143-15.797,8.408 c-0.557,0.831-1.936,0.831-2.492,0C45.227,23.064,39.321,19.921,32.957,19.921z"/></svg>