<svg xmlns="http://www.w3.org/2000/svg"  viewBox="0 0 100 100" width="100px" height="100px"><path fill="#1d1d1b" d="M25.013,71.637l0.016,6.08l-4.096,1.182C17.439,79.907,15,83.151,15,86.788	C15,91.316,18.684,95,23.212,95h23.576C51.316,95,55,91.31,55,86.773c0-3.651-2.351-6.813-5.853-7.865L45,77.664V71.63	c8.778-2.986,14.725-9.9,16.98-19.512c1.479,0.882,2.496,1.373,4.056,2.313V84c0,6.065,4.935,11,11,11s11-4.935,11-11V55.753	c5.254-2.92,9.518-8.669,8.986-16.685c-0.237-3.559-1.715-19.042-2.017-22.192C94.683,13.526,91.9,11,88.535,11h-22	c-3.365,0-6.147,2.526-6.478,5.959c-0.088,0.916-0.281,2.942-0.516,5.424c-1.265-4.223-2.416-7.074-2.521-7.333	C56.021,12.59,53.657,11,51,11H19c-2.657,0-5.021,1.59-6.019,4.045C12.737,15.644,7,29.858,7,43	C7,57.58,13.504,67.798,25.013,71.637z" opacity=".35"/><path fill="#f2f2f2" d="M23.013,69.637l0.016,6.08l-4.096,1.182C15.439,77.907,13,81.151,13,84.788	C13,89.316,16.684,93,21.212,93h23.576C49.316,93,53,89.31,53,84.773c0-3.651-2.351-6.813-5.853-7.865L43,75.664V69.63	c8.778-2.986,14.725-9.9,16.98-19.512c1.14,1.376,2.496,2.563,4.056,3.503V82c0,6.065,4.935,11,11,11s11-4.935,11-11V53.753	c5.254-2.92,9.518-8.669,8.986-16.685c-0.237-3.559-1.715-19.042-2.017-22.192C92.683,11.526,89.9,9,86.535,9h-22	c-3.365,0-6.147,2.526-6.478,5.959c-0.088,0.916-0.281,2.942-0.516,5.424c-1.265-4.223-2.416-7.074-2.521-7.333	C54.021,10.59,51.657,9,49,9H17c-2.657,0-5.021,1.59-6.019,4.045C10.737,13.644,5,27.858,5,41C5,55.58,11.504,65.798,23.013,69.637z"/><path fill="#d9eeff" d="M88.536,37.5c-0.251-3.775-2-22-2-22h-22c0,0-1.749,18.225-2,22c-0.46,6.935,3.566,10.585,7.964,11.5	l0.036,33c0,2.485,2.015,4.5,4.5,4.5s4.5-2.015,4.5-4.5L79.5,49C84.101,48.101,88.997,44.457,88.536,37.5z"/><path fill="#40396e" d="M79.535,38c-0.812,0-1.479-0.647-1.499-1.464l-0.5-20.5c-0.02-0.828,0.635-1.516,1.464-1.536	c0.012,0,0.024,0,0.037,0c0.812,0,1.479,0.647,1.499,1.464l0.5,20.5c0.02,0.828-0.635,1.516-1.464,1.536	C79.56,38,79.547,38,79.535,38z"/><path fill="#40396e" d="M71.537,38c-0.013,0-0.025,0-0.037,0c-0.829-0.021-1.483-0.708-1.464-1.536l0.5-20.5	c0.021-0.816,0.687-1.464,1.499-1.464c0.013,0,0.025,0,0.037,0c0.829,0.021,1.483,0.708,1.464,1.536l-0.5,20.5	C73.015,37.353,72.348,38,71.537,38z"/><path fill="#40396e" d="M75.036,88c-3.309,0-6-2.691-6-6V50.439c-4.488-1.466-8.472-5.871-7.997-13.039	c0.25-3.754,1.933-21.299,2.004-22.044C63.117,14.587,63.763,14,64.536,14h22c0.772,0,1.419,0.587,1.493,1.356	c0.071,0.745,1.754,18.29,2.004,22.044l0,0c0.473,7.126-4.134,11.614-8.997,13.071V82C81.036,85.309,78.344,88,75.036,88z M65.899,17c-0.409,4.296-1.66,17.489-1.866,20.6c-0.426,6.41,3.401,9.512,6.809,10.221c0.695,0.145,1.194,0.758,1.194,1.469V82	c0,1.654,1.346,3,3,3s3-1.346,3-3V49.299c0-0.718,0.508-1.335,1.213-1.473c4.161-0.813,8.185-4.29,7.79-10.227l0,0	c-0.206-3.11-1.457-16.304-1.866-20.6H65.899z"/><path fill="#70bfff" d="M54.5,41c0-12-5.5-25.5-5.5-25.5H17c0,0-5.5,13.5-5.5,25.5c0,13.868,6.704,21.883,18,23.5	l0.041,16.102l-8.803,2.54c-0.733,0.211-1.237,0.882-1.237,1.645v0c0,0.946,0.767,1.712,1.712,1.712h23.576	c0.946,0,1.712-0.767,1.712-1.712v-0.014c0-0.756-0.496-1.423-1.22-1.64L36.5,80.5V64.505C47.784,62.936,54.5,54.86,54.5,41z"/><path fill="#40396e" d="M44.788,88H21.212C19.44,88,18,86.56,18,84.788c0-1.422,0.954-2.691,2.32-3.086l7.718-2.228	l-0.035-13.702C16.379,63.577,10,54.83,10,41c0-12.154,5.382-25.504,5.611-26.066C15.841,14.369,16.39,14,17,14h32	c0.61,0,1.159,0.369,1.389,0.934C50.618,15.496,56,28.846,56,41c0,13.67-6.539,22.628-18,24.779v13.604l7.711,2.313	C47.081,82.109,48,83.346,48,84.773C48,86.56,46.56,88,44.788,88z M18.029,17C16.823,20.225,13,31.217,13,41	c0,12.837,5.779,20.45,16.713,22.016c0.737,0.105,1.285,0.735,1.287,1.48l0.041,16.103c0.002,0.67-0.44,1.26-1.084,1.445	l-8.804,2.54C21.063,84.609,21,84.694,21,84.788C21,84.905,21.095,85,21.212,85h23.576C44.905,85,45,84.905,45,84.788	c0-0.107-0.063-0.191-0.152-0.218l-8.778-2.634C35.435,81.746,35,81.162,35,80.5V64.505c0-0.749,0.552-1.383,1.293-1.485	C47.066,61.521,53,53.701,53,41c0-9.783-3.823-20.775-5.029-24H18.029z"/><path fill="#fff" d="M20.501,52c-0.582,0-1.136-0.34-1.38-0.909C17.773,47.945,17,44.268,17,41	c0-2.979,0.652-6.76,2.053-11.895c0.218-0.799,1.046-1.271,1.842-1.053c0.8,0.218,1.271,1.043,1.053,1.842	C20.637,34.699,20,38.331,20,41c0,1.36,0.183,4.952,1.879,8.909c0.326,0.762-0.026,1.644-0.788,1.97	C20.898,51.961,20.698,52,20.501,52z"/></svg>