<svg xmlns="http://www.w3.org/2000/svg"  viewBox="0 0 100 100" width="100px" height="100px"><g id="Слой_2"><path d="M95.657,81.343l-26.85-26.85C70.906,50.002,72,45.091,72,40.068c0-11.052-5.185-26.838-5.776-28.602 c-1.094-3.264-4.143-5.457-7.585-5.457H17.09c-3.498,0-6.562,2.24-7.623,5.573C8.907,13.341,4,29.08,4,40.068 C4,54.756,13.416,64.362,26.898,69v5.248l-3.591,1.032l-0.155,0.046C18.871,76.657,16,80.516,16,84.932 C16,90.483,20.584,95,26.219,95H40h9.781H69h21c3.247,0,6.148-1.939,7.391-4.939C98.634,87.062,97.953,83.639,95.657,81.343z" opacity=".35"/><path fill="#f2f2f2" d="M93.657,79.343l-26.85-26.85C68.906,48.002,70,43.091,70,38.068c0-11.052-5.185-26.838-5.776-28.602 c-1.094-3.264-4.143-5.457-7.585-5.457H15.09c-3.498,0-6.562,2.24-7.623,5.573C6.907,11.341,2,27.08,2,38.068 c0,14.688,9.416,27.675,22.898,32.313v1.867l-3.591,1.032l-0.155,0.046C16.871,74.657,14,78.516,14,82.932 C14,88.483,18.584,93,24.219,93H38h9.781H67h21c3.247,0,6.148-1.939,7.391-4.939C96.634,85.062,95.953,81.639,93.657,79.343z"/><path fill="#40396e" d="M56.639,9.009H15.09c-1.306,0-2.462,0.845-2.859,2.09C12.018,11.77,7,27.654,7,38.068 c0,13.928,9.671,25.741,22.898,28.515v9.431l-7.21,2.073c-0.02,0.006-0.041,0.012-0.061,0.018C20.458,78.778,19,80.718,19,82.932 C19,85.726,21.341,88,24.219,88H38h9.781H67h21c1.213,0,2.307-0.731,2.772-1.852c0.464-1.121,0.208-2.411-0.65-3.269L62.879,55.636 c-0.746-0.746-1.601-1.345-2.528-1.783C63.375,49.181,65,43.729,65,38.068c0-10.437-5.292-26.341-5.517-27.013 C59.073,9.833,57.928,9.009,56.639,9.009L56.639,9.009z"/><path fill="#70bfff" d="M62,38.068C62,28,56.639,12.009,56.639,12.009H15.09c0,0-5.09,15.991-5.09,26.059 c0,13.429,9.896,24.487,22.898,25.963v14.242l-9.381,2.697C22.611,81.251,22,82.041,22,82.932C22,84.074,22.993,85,24.219,85 h23.562C49.007,85,50,84.074,50,82.932c0-0.89-0.611-1.681-1.517-1.962L39,78.122V64.01C51.955,62.459,62,51.44,62,38.068z"/><path fill="#ff7575" d="M10,38.068c0,14.434,11.43,26.136,25.864,26.136C50.299,64.203,62,52.502,62,38.068 c0-1.866-0.185-3.935-0.485-6.068H10.46C10.175,34.133,10,36.202,10,38.068z"/><path fill="#f9b84f" d="M38,85L38,85c-3.238-8.419-3.536-17.685-0.846-26.294L38,56l29,29H38z"/><path fill="#ffe385" d="M56.515,56H38l29,29h21L60.757,57.757C59.632,56.632,58.106,56,56.515,56z"/><ellipse cx="50.5" cy="62.5" fill="#f9b84f" rx="2.5" ry="3.5" transform="rotate(-34.915 50.504 62.5)"/><ellipse cx="68.5" cy="72.5" fill="#f9b84f" rx="2.5" ry="3.5" transform="rotate(-34.915 68.504 72.499)"/><path fill="#f9b84f" d="M77.531,82.386c-1.624-2.327-4.289-3.273-5.951-2.112c-1.296,0.905-1.586,2.822-0.887,4.726h7.943 C78.481,84.131,78.118,83.226,77.531,82.386z"/><ellipse cx="58.524" cy="65.243" fill="#f9b84f" rx="1.188" ry="1.663" transform="rotate(-34.915 58.528 65.242)"/><path fill="none" stroke="#fff" stroke-linecap="round" stroke-miterlimit="10" stroke-width="3" d="M17,46c0,0-4-8,0.5-23.5"/></g></svg>