<svg xmlns="http://www.w3.org/2000/svg"  viewBox="0 0 100 100" width="100px" height="100px"><g id="Слой_2"><path d="M90.225,32.558l0.625-3.75c0.351-2.108-0.139-4.226-1.381-5.965s-3.087-2.89-5.195-3.241l-5.618-0.936 c-1.297-1.309-2.992-2.122-4.849-2.315l-1.074-0.111C72.438,15.109,67.773,15.922,67,15c-1.372-1.638,0.82-4.518-1.309-4.705 L61,11c-1.391-2.368-3.061-5-6-5h-6c-2.939,0-5.512,1.593-6.903,3.96l-3.788,0.334c-2.129,0.188-4.057,1.193-5.429,2.831 c-0.773,0.922-1.317,1.983-1.612,3.114l-1.074,0.111c-1.729,0.179-3.317,0.897-4.575,2.051c-0.195,0.032-0.388,0.071-0.58,0.117 l-5.832,1.408c-4.288,1.035-6.934,5.366-5.899,9.654l0.638,2.643c-0.908,1.689-1.181,3.651-0.743,5.561l1.145,5l9.716,42.444 l0.038,0.159c1.34,5.361,6.122,9.109,11.627,9.109c1.379,0,2.737-0.239,4.038-0.71C43.038,92.601,46.463,92,49.944,92h4.111 c3.482,0,6.906,0.601,10.18,1.787c1.3,0.471,2.659,0.71,4.037,0.71c5.505,0,10.286-3.747,11.628-9.112l0.036-0.152l9.717-42.447 l1.096-4.787c0.168-0.651,0.253-1.323,0.253-1.998C91.003,34.794,90.731,33.62,90.225,32.558z" opacity=".35"/><path fill="#f2f2f2" d="M88.225,30.558l0.625-3.75c0.351-2.108-0.139-4.226-1.381-5.965s-3.087-2.89-5.195-3.241l-5.618-0.936 c-1.297-1.309-2.992-2.122-4.849-2.315l-1.074-0.111c-0.295-1.131-0.839-2.192-1.612-3.114c-1.372-1.638-3.3-2.643-5.429-2.831 L59.903,7.96C58.513,5.593,55.939,4,53,4h-6c-2.939,0-5.512,1.593-6.903,3.96l-3.788,0.334c-2.129,0.188-4.057,1.193-5.429,2.831 c-0.773,0.922-1.317,1.983-1.612,3.114l-1.074,0.111c-1.729,0.179-3.317,0.897-4.575,2.051c-0.195,0.032-0.388,0.071-0.58,0.117 l-5.832,1.408c-4.288,1.035-6.934,5.366-5.899,9.654l0.638,2.643c-0.908,1.689-1.181,3.651-0.743,5.561l1.145,5l9.716,42.444 l0.038,0.159c1.34,5.361,6.122,9.109,11.627,9.109c1.379,0,2.737-0.239,4.038-0.71C41.038,90.601,44.463,90,47.944,90h4.111 c3.482,0,6.906,0.601,10.18,1.787c1.3,0.471,2.659,0.71,4.037,0.71c5.505,0,10.286-3.747,11.628-9.112l0.036-0.152l9.717-42.447 l1.096-4.787c0.168-0.651,0.253-1.323,0.253-1.998C89.003,32.794,88.731,31.62,88.225,30.558z"/><polygon fill="#f9b84f" points="82.957,34.455 81.553,32 82.191,25 76.83,23 73,25 71.723,22 64,20.037 64,18 62.919,17.051 62.988,16.264 61.914,16.169 60,14.489 54.106,15.255 54.106,11 47,11 44,14.234 36,15 35,20.037 29,20.037 28,25 25.5,22.915 17.979,24.064 19,30 17.979,35 21.347,35.079 26.084,54.704 31.916,53.296 29.436,43.022 31.168,43.108 32.016,51.309 37.984,50.691 37.231,43.412 39.417,43.521 40.012,50.264 45.988,49.736 45.467,43.823 47,43.9 47,55 53,55 53,44.2 54.494,44.275 54.012,49.736 59.988,50.264 60.49,44.575 62.638,44.682 62.016,50.691 67.984,51.309 68.638,44.982 69,45 72.956,36.297 73.076,36.3 70.041,54.507 75.959,55.493 79.134,36.443 81.553,36.5"/><path fill="#ffe385" d="M69.191,27.946l-4.116,10.975l1.867-9.334l-5.884-1.176L58.43,41.554l-2.382-0.298l1.919-12.812l-5.934-0.889 l-2.883,19.245L46.987,23.72l-5.974,0.561l1.41,15.044l-2.513-10.052l-5.821,1.455l2.919,11.677l-6.251-14.587l-5.515,2.363l12,28 l3.351-1.436l1.495,5.982l5.821-1.455l-0.185-0.742l5.316,0.796l0.803-5.363l1.74-0.183l-0.526,2.632l2.519,0.503l-0.387,1.031 l5.618,2.107l12-32L69.191,27.946z M47.331,58.952l-0.561-2.244l0.911-0.096L47.331,58.952z"/><path fill="#f4665c" d="M69.773,34c-1.39,8.477-9.7,15-19.773,15s-18.383-6.523-19.773-15H19l10.861,47.444 c0.569,2.274,2.975,3.62,5.179,2.821C39.167,82.77,43.533,82,47.944,82h4.111c4.412,0,8.778,0.77,12.904,2.265 c2.204,0.798,4.61-0.547,5.179-2.821L81,34H69.773z"/><path fill="#dd4f2c" d="M24,39h2.453C29.928,47.79,39.335,54,50,54s20.072-6.21,23.547-15H74h0.726H79h0.855L81,34H69.773 c-1.39,8.477-9.7,15-19.773,15s-18.383-6.523-19.773-15H19l1.145,5H23"/><path fill="#40396e" d="M66.272,87.497c-0.795,0-1.58-0.139-2.333-0.411C60.116,85.702,56.118,85,52.056,85h-4.111 c-4.062,0-8.061,0.702-11.883,2.086c-0.754,0.272-1.539,0.411-2.334,0.411c-3.207,0-5.996-2.202-6.784-5.354L16.076,34.67 c-0.205-0.896,0.006-1.822,0.58-2.541c0.209-0.264,0.458-0.485,0.733-0.662l-1.221-5.06c-0.188-0.778-0.062-1.584,0.356-2.268 c0.417-0.684,1.077-1.164,1.855-1.352l5.832-1.408c0.621-0.152,1.307-0.094,1.902,0.165c0.107-0.407,0.3-0.791,0.573-1.127 c0.506-0.623,1.224-1.011,2.02-1.094l5.513-0.57l-0.196-2.227c-0.07-0.798,0.174-1.576,0.688-2.19 c0.515-0.614,1.238-0.992,2.037-1.062l5.976-0.527c0.429-0.041,0.871,0.02,1.275,0.164V12c0-1.654,1.346-3,3-3h6 c1.654,0,3,1.346,3,3v0.908c0.393-0.139,0.825-0.201,1.273-0.16l5.979,0.527c0.8,0.071,1.523,0.448,2.037,1.063 c0.514,0.612,0.758,1.391,0.688,2.189l-0.196,2.226l5.512,0.57c0.798,0.083,1.515,0.471,2.02,1.093 c0.312,0.386,0.521,0.831,0.615,1.304c0.502-0.202,1.058-0.264,1.607-0.173l5.918,0.986c0.79,0.131,1.482,0.562,1.948,1.216 c0.466,0.652,0.649,1.446,0.518,2.237l-0.957,5.741c0.642,0.557,1.042,1.378,1.042,2.271c0,0.285-0.041,0.568-0.12,0.841 L73.057,82.143C72.266,85.307,69.479,87.497,66.272,87.497z M47.944,82h4.111c4.412,0,8.754,0.762,12.904,2.266 c0.425,0.153,0.866,0.231,1.312,0.231c1.827,0,3.417-1.256,3.867-3.054L80.98,34.086c-0.791-0.161-1.286-1.006-1.153-1.803 l1.132-6.79l-5.918-0.986l-0.211,1.269c-0.074,0.443-0.343,0.831-0.734,1.055c-0.392,0.225-0.861,0.258-1.282,0.1l-1.146-0.438 c-0.634-0.243-1.026-0.881-0.956-1.556l0.272-2.627c0,0-7.08-0.224-7.595-0.513c-0.515-0.288-0.813-0.853-0.762-1.44l0.361-4.092 l-5.977-0.527l-0.218,2.475c-0.036,0.402-0.231,0.773-0.544,1.028c-0.313,0.256-0.717,0.373-1.116,0.331l-0.799-0.089 C53.575,19.396,53,18.755,53,17.99V12h-6v8.361c0,0.777-0.593,1.426-1.367,1.494l-0.593,0.053 c-0.398,0.035-0.791-0.089-1.096-0.344c-0.305-0.256-0.496-0.622-0.531-1.019l-0.424-4.81l-5.977,0.527l0.361,4.092 c0.052,0.588-0.246,1.152-0.762,1.44c-0.515,0.288-7.595,0.513-7.595,0.513l0.289,2.788c0.077,0.742-0.404,1.429-1.128,1.609 l-1.059,0.265c-0.389,0.098-0.798,0.035-1.141-0.172s-0.587-0.542-0.681-0.931l-0.379-1.571l-5.832,1.407l1.555,6.444 c0.108,0.446,0.005,0.918-0.279,1.279C20.075,33.789,19.641,34,19.181,34H19l10.861,47.444c0.446,1.785,2.039,3.053,3.866,3.053 c0.446,0,0.888-0.078,1.313-0.231C39.19,82.762,43.532,82,47.944,82z"/></g></svg>