<svg xmlns="http://www.w3.org/2000/svg"  viewBox="0 0 100 100" width="100px" height="100px"><path d="M31.5,96C25.159,96,20,90.841,20,84.5V42.409l-7.968-12.394c-1.287-2-1.378-4.542-0.236-6.632 C12.934,21.297,15.121,20,17.5,20h3.748C23.847,13.5,30.204,9,37.5,9h0.519c0.256-3.352,3.065-6,6.481-6h15 c3.416,0,3.244,2.648,3.5,6h4.5C77.149,9,85,16.851,85,26.5V27h1.5C92.29,27,97,31.71,97,37.5v22C97,65.29,92.29,70,86.5,70H85 v14.5C85,90.841,79.841,96,73.5,96H31.5z" opacity=".35"/><path fill="#f2f2f2" d="M29.5,94C23.159,94,18,88.841,18,82.5V40.409l-7.968-12.394c-1.287-2-1.378-4.542-0.236-6.632 C10.934,19.297,13.121,18,15.5,18h3.748C21.847,11.5,28.204,7,35.5,7h0.519c0.256-3.352,3.065-6,6.481-6h15 c3.416,0,6.225,2.648,6.481,6H65.5C75.149,7,83,14.851,83,24.5V25h1.5C90.29,25,95,29.71,95,35.5v22C95,63.29,90.29,68,84.5,68H83 v14.5C83,88.841,77.841,94,71.5,94H29.5z"/><path fill="#d9eeff" d="M65.5,13.5h-30c-6.075,0-11,4.925-11,11h-9l9,14v44c0,2.761,2.239,5,5,5h42c2.761,0,5-2.239,5-5v-58 C76.5,18.425,71.575,13.5,65.5,13.5z"/><polygon fill="#70bfff" points="24,26 76,26 75,19 70,14 30,13.5 26,19"/><path fill="none" stroke="#40396e" stroke-linecap="round" stroke-linejoin="round" stroke-miterlimit="10" stroke-width="3" d="M65.5,13.5h-30c-6.075,0-11,4.925-11,11h-9l9,14v44c0,2.761,2.239,5,5,5h42c2.761,0,5-2.239,5-5v-58 C76.5,18.425,71.575,13.5,65.5,13.5z"/><rect width="4" height="43" x="48" y="25" fill="#70bfff"/><path fill="#70bfff" d="M30,68v-0.036C30,65.775,31.775,64,33.964,64h33.072c2.191,0,3.972,1.782,3.964,3.973 c0,0.001,0,0.001,0,0C71,67.959,70.973,68,70.942,68L30,68z"/><rect width="41" height="14" x="30" y="68" fill="#d47f56"/><rect width="4" height="5" x="48" y="7" fill="#40396e"/><path fill="#40396e" d="M57.5,9h-15C41.672,9,41,8.328,41,7.5v0C41,6.672,41.672,6,42.5,6h15C58.328,6,59,6.672,59,7.5v0 C59,8.328,58.328,9,57.5,9z"/><path fill="none" stroke="#40396e" stroke-linecap="round" stroke-linejoin="round" stroke-miterlimit="10" stroke-width="3" d="M84.5,61.5h-8v-30h8c2.209,0,4,1.791,4,4v22C88.5,59.709,86.709,61.5,84.5,61.5z"/></svg>