<svg xmlns="http://www.w3.org/2000/svg"  viewBox="0 0 100 100" width="100px" height="100px"><path fill-opacity=".3" d="M30.5,99c-3.503,0-6.367-2.785-6.495-6.257C21.539,90.792,20,87.775,20,84.5v-67	C20,11.159,25.159,6,31.5,6h41C78.841,6,84,11.159,84,17.5v67c0,3.275-1.539,6.292-4.005,8.243C79.867,96.215,77.003,99,73.5,99	H30.5z"/><path fill="#f2f2f2" d="M28.5,97c-3.503,0-6.367-2.785-6.495-6.257C19.539,88.792,18,85.775,18,82.5v-67	C18,9.159,23.159,4,29.5,4h41C76.841,4,82,9.159,82,15.5v67c0,3.275-1.539,6.292-4.005,8.243C77.867,94.215,75.003,97,71.5,97H28.5z"/><path fill="#d9eeff" d="M71.5,86.5L71.5,86.5l0,4h-43l0-4h0c-2.209,0-4-1.791-4-4v-67c0-2.761,2.239-5,5-5h41	c2.761,0,5,2.239,5,5v67C75.5,84.709,73.709,86.5,71.5,86.5z"/><rect width="43" height="5.5" x="28.5" y="85" fill="#40396e" opacity=".35"/><rect width="50" height="3" x="25" y="37" fill="#40396e" opacity=".35"/><path fill="#40396e" d="M35,30.5L35,30.5c-1.105,0-2-0.895-2-2v-8c0-1.105,0.895-2,2-2h0c1.105,0,2,0.895,2,2v8	C37,29.605,36.105,30.5,35,30.5z"/><path fill="#40396e" d="M35,65L35,65c-1.105,0-2-0.895-2-2V48c0-1.105,0.895-2,2-2h0c1.105,0,2,0.895,2,2v15	C37,64.105,36.105,65,35,65z"/><path fill="#40396e" d="M71.5,92h-43c-0.828,0-1.5-0.672-1.5-1.5v-2.708c-2.306-0.654-4-2.779-4-5.292v-67	c0-3.584,2.916-6.5,6.5-6.5h41c3.584,0,6.5,2.916,6.5,6.5v67c0,2.513-1.694,4.638-4,5.292V90.5C73,91.328,72.328,92,71.5,92z M30,89	h40v-2.5c0-0.828,0.672-1.5,1.5-1.5c1.379,0,2.5-1.121,2.5-2.5v-67c0-1.93-1.57-3.5-3.5-3.5h-41c-1.93,0-3.5,1.57-3.5,3.5v67	c0,1.379,1.121,2.5,2.5,2.5c0.828,0,1.5,0.672,1.5,1.5V89z"/></svg>