<svg xmlns="http://www.w3.org/2000/svg"  viewBox="0 0 100 100" width="100px" height="100px"><path d="M96.522,41.832c-0.602-3.991-2.915-7.493-6.348-9.608L59.091,13.066c-4.216-2.601-9.869-2.608-14.093-0.001L13.911,32.223 c-3.433,2.116-5.746,5.618-6.348,9.609C6.987,45.664,16,52,16,56.083V82.51c0,5.742,4.672,10.414,10.414,10.414h51.172 C83.328,92.924,88,88.252,88,82.51V56.114c2.111-0.766,3.986-2.044,5.472-3.739C95.987,49.507,97.099,45.664,96.522,41.832z" opacity=".35"/><path fill="#f2f2f2" d="M94.522,39.832c-0.602-3.991-2.915-7.493-6.348-9.608L57.091,11.066 c-4.216-2.601-9.869-2.608-14.093-0.001L11.911,30.223c-3.433,2.116-5.746,5.618-6.348,9.609 c-0.576,3.832,0.535,7.675,3.051,10.543c1.465,1.67,3.31,2.938,5.386,3.707V80.51c0,5.742,4.672,10.414,10.414,10.414h51.172 C81.328,90.924,86,86.252,86,80.51V54.114c2.111-0.766,3.986-2.044,5.472-3.739C93.987,47.507,95.099,43.664,94.522,39.832z"/><path fill="#f9b84f" d="M86.584,46.091c2.771-3.16,1.759-8.129-1.819-10.334L53.678,16.598 c-1.133-0.699-2.391-1.023-3.635-1.022l0,0l0,0c-1.244-0.001-2.502,0.324-3.635,1.022L15.321,35.757 c-3.578,2.205-4.59,7.173-1.819,10.334c1.328,1.514,3.24,2.334,5.191,2.334c0.323,0,1.807-0.001,1.807-0.001V80.51 c0,2.162,1.752,3.914,3.914,3.914h51.172c2.162,0,3.914-1.752,3.914-3.914V48.423c0,0,1.569,0.001,1.893,0.001 C83.343,48.424,85.256,47.605,86.584,46.091z"/><path fill="#f2f2f2" d="M63,85.924H37V69.261c0-6.825,5.161-12.658,11.75-13.278c3.702-0.353,7.252,0.832,9.993,3.328 C61.448,61.773,63,65.277,63,68.924V85.924z M40,82.924h20v-14c0-2.805-1.194-5.5-3.276-7.395c-2.108-1.919-4.841-2.827-7.692-2.56 C43.967,59.447,40,63.967,40,69.261V82.924z"/><path fill="#40396e" d="M75.586,85.924H24.414c-2.985,0-5.414-2.429-5.414-5.414V49.924h-0.307 c-2.431,0-4.733-1.037-6.319-2.845c-1.543-1.76-2.223-4.13-1.865-6.503c0.381-2.532,1.848-4.754,4.025-6.096l31.087-19.159 c1.321-0.815,2.849-1.246,4.416-1.246c0.006,0,0.01,0,0.014,0c1.566,0,3.093,0.431,4.414,1.246L85.552,34.48 c2.178,1.342,3.645,3.564,4.025,6.096c0.357,2.373-0.322,4.743-1.865,6.503l0,0c-1.586,1.808-3.889,2.845-6.318,2.845H81V80.51 C81,83.496,78.571,85.924,75.586,85.924z M20.5,46.923c0.397,0,0.779,0.158,1.061,0.439S22,48.025,22,48.423V80.51 c0,1.331,1.083,2.414,2.414,2.414h51.172c1.331,0,2.414-1.083,2.414-2.414V48.423c0-0.398,0.158-0.78,0.439-1.061 s0.663-0.439,1.061-0.439h0.001l1.893,0.001c1.566,0,3.047-0.665,4.062-1.823c0.974-1.11,1.384-2.559,1.155-4.079 c-0.25-1.657-1.21-3.111-2.634-3.989L52.891,17.875c-0.848-0.523-1.831-0.799-2.842-0.799c-0.003,0-0.006,0-0.009,0 c-1.015,0-1.997,0.276-2.845,0.799L16.108,37.034c-1.424,0.878-2.384,2.332-2.634,3.989c-0.229,1.52,0.182,2.969,1.155,4.079 c1.016,1.158,2.497,1.823,4.063,1.823L20.5,46.923L20.5,46.923z M86.584,46.09h0.01H86.584z"/><path fill="#f2f2f2" d="M50,49.924c-4.963,0-9-4.038-9-9s4.037-9,9-9s9,4.038,9,9S54.963,49.924,50,49.924z M50,34.924 c-3.309,0-6,2.691-6,6s2.691,6,6,6s6-2.691,6-6S53.309,34.924,50,34.924z"/><circle cx="50" cy="22" r="2" fill="#f4665c"/><circle cx="58" cy="26" r="2" fill="#739f4d"/><circle cx="66" cy="31" r="2" fill="#f4665c"/><circle cx="74" cy="36" r="2" fill="#739f4d"/><circle cx="82" cy="41" r="2" fill="#f4665c"/><circle cx="42" cy="26" r="2" fill="#739f4d"/><circle cx="34" cy="31" r="2" fill="#f4665c"/><circle cx="26" cy="36" r="2" fill="#739f4d"/><circle cx="18" cy="41" r="2" fill="#f4665c"/><circle cx="27" cy="48" r="2" fill="#739f4d"/><circle cx="27" cy="58" r="2" fill="#f4665c"/><circle cx="27" cy="68" r="2" fill="#739f4d"/><circle cx="27" cy="78" r="2" fill="#f4665c"/><circle cx="73" cy="48" r="2" fill="#739f4d"/><circle cx="73" cy="58" r="2" fill="#f4665c"/><circle cx="73" cy="68" r="2" fill="#739f4d"/><circle cx="55" cy="74" r="2" fill="#f2f2f2"/><circle cx="73" cy="78" r="2" fill="#f4665c"/></svg>