<svg xmlns="http://www.w3.org/2000/svg"  viewBox="0 0 100 100" width="50px" height="50px"><path d="M34.304,96.168c-2.484,0-4.906-0.683-7.003-1.974c-3.211-1.914-5.45-5.046-6.246-8.782 c-0.791-3.709,0.012-7.621,2.202-10.732l4.563-6.564c2.169-3.13,3.63-6.642,4.307-10.314l-8.43-2.243 c-3.673-0.989-6.676-3.374-8.472-6.718c-1.806-3.361-2.134-7.216-0.922-10.851c1.841-5.525,7.07-9.237,13.011-9.237 c1.25,0,2.5,0.167,3.715,0.497l0.096,0.026c-0.006-0.2-0.009-0.4-0.009-0.601c0-5.772,2.31-11.143,6.504-15.12 c3.892-3.689,8.984-5.722,14.339-5.722c0.379,0,0.759,0.01,1.14,0.03c11.009,0.638,19.874,10.109,19.784,21.116 c-0.002,0.119-0.005,0.238-0.009,0.357l0.105-0.028c1.188-0.327,2.438-0.497,3.691-0.497c5.841,0,11.032,3.632,12.96,9.05 l0.041,0.102l0.048,0.156c1.18,3.603,0.816,7.554-1.001,10.85c-1.846,3.349-4.922,5.7-8.66,6.619l-8.297,2.209 c0.687,3.692,2.156,7.193,4.333,10.284l4.519,6.402c2.204,3.132,2.993,6.903,2.226,10.624c-0.769,3.729-2.996,6.891-6.271,8.902 c-2.109,1.298-4.543,1.984-7.035,1.984c-4.527,0-8.799-2.241-11.427-5.995l-6.105-8.721l-6.233,8.908 C43.083,93.947,38.808,96.168,34.304,96.168z" opacity=".35"/><path fill="#f2f2f2" d="M32.304,94.168c-2.484,0-4.906-0.683-7.003-1.974c-3.211-1.914-5.45-5.046-6.246-8.782 c-0.791-3.709,0.012-7.621,2.202-10.732l4.563-6.564c2.169-3.13,3.63-6.642,4.307-10.314l-8.43-2.243 c-3.673-0.989-6.676-3.374-8.472-6.718c-1.806-3.361-2.134-7.216-0.922-10.851c1.841-5.525,7.07-9.237,13.011-9.237 c1.25,0,2.5,0.167,3.715,0.497l0.096,0.026c-0.006-0.2-0.009-0.4-0.009-0.601c0-5.772,2.31-11.143,6.504-15.12 c3.892-3.689,8.984-5.722,14.339-5.722c0.379,0,0.759,0.01,1.14,0.03c11.009,0.638,19.874,10.109,19.784,21.116 c-0.002,0.119-0.005,0.238-0.009,0.357l0.105-0.028c1.188-0.327,2.438-0.497,3.691-0.497c5.841,0,11.032,3.632,12.96,9.05 l0.041,0.102l0.048,0.156c1.18,3.603,0.816,7.554-1.001,10.85c-1.846,3.349-4.922,5.7-8.66,6.619l-8.297,2.209 c0.687,3.692,2.156,7.193,4.333,10.284l4.519,6.402c2.204,3.132,2.993,6.903,2.226,10.624c-0.769,3.729-2.996,6.891-6.271,8.902 c-2.109,1.298-4.543,1.984-7.035,1.984c-4.527,0-8.799-2.241-11.427-5.995l-6.105-8.721l-6.233,8.908 C41.083,91.947,36.808,94.168,32.304,94.168z"/><path fill="#d47f56" d="M81.531,38.106c-1.256-3.643-5.213-5.527-8.856-4.522l-12.562,3.392 c2.575-2.575,4.208-6.093,4.271-10.05c0.063-7.663-6.03-14.132-13.63-14.572c-8.291-0.44-15.137,6.155-15.137,14.321 c0,4.02,1.633,7.6,4.271,10.238l-12.562-3.392c-3.706-1.005-7.663,0.942-8.856,4.522c-1.319,3.957,0.942,8.165,4.899,9.233 l13.693,3.643v0.126c0,6.721-2.073,13.253-5.904,18.78l-4.585,6.595c-2.387,3.392-1.445,8.103,2.136,10.238 c3.266,2.01,7.537,0.879,9.736-2.198L50,67.941l11.431,16.331c2.198,3.141,6.469,4.208,9.736,2.198 c3.58-2.198,4.522-6.846,2.136-10.238l-4.522-6.407c-3.894-5.527-5.967-12.122-5.967-18.906l0,0l13.693-3.643 C80.589,46.272,82.85,42.063,81.531,38.106z"/><circle cx="49.967" cy="59.131" r="1.857" fill="#f2f2f2"/><circle cx="49.967" cy="48.151" r="1.857" fill="#f2f2f2"/><circle cx="45.016" cy="25.488" r="1.857" fill="#f2f2f2"/><circle cx="55.537" cy="25.488" r="1.857" fill="#f2f2f2"/><path fill="#f2f2f2" d="M49.967,36.319c-2.042,0-4.023-0.805-5.447-2.29c-0.743-0.743-0.743-1.919,0-2.6 c0.743-0.743,1.919-0.743,2.599,0c0.743,0.743,1.795,1.176,2.847,1.176s2.104-0.433,2.847-1.176s1.919-0.743,2.599,0 c0.743,0.743,0.743,1.919,0,2.6C53.99,35.515,52.009,36.319,49.967,36.319z"/><path fill="#f2f2f2" d="M40.14,79.182c-0.788-0.605-1.421-0.726-1.84-0.805c-0.275-0.052-0.349-0.065-0.568-0.235 c-0.22-0.169-0.252-0.237-0.373-0.489c-0.184-0.385-0.461-0.967-1.25-1.574c-0.788-0.606-1.421-0.727-1.84-0.806 c-0.274-0.052-0.348-0.065-0.568-0.235c-0.219-0.169-0.251-0.236-0.371-0.488c-0.184-0.385-0.461-0.967-1.249-1.573 c-0.787-0.605-1.42-0.725-1.839-0.804c-0.269-0.051-0.345-0.066-0.557-0.228l-1.708,2.457c0.725,0.52,1.315,0.644,1.71,0.719 c0.273,0.052,0.346,0.065,0.563,0.232c0.219,0.168,0.251,0.236,0.371,0.487c0.184,0.386,0.461,0.968,1.249,1.574 c0.788,0.607,1.422,0.727,1.841,0.807c0.274,0.052,0.349,0.065,0.567,0.234c0.22,0.169,0.252,0.237,0.373,0.489 c0.184,0.385,0.461,0.967,1.249,1.574c0.789,0.607,1.422,0.727,1.842,0.807c0.275,0.052,0.349,0.065,0.567,0.233 c0.221,0.171,0.254,0.239,0.375,0.492c0.131,0.275,0.319,0.653,0.699,1.066l1.859-2.657C41.05,80.101,40.748,79.651,40.14,79.182z"/><path fill="#f2f2f2" d="M69.918,71.437c-0.777,0.603-1.054,1.181-1.236,1.564c-0.119,0.251-0.151,0.318-0.369,0.486 c-0.219,0.168-0.292,0.182-0.566,0.233c-0.419,0.079-1.053,0.199-1.841,0.806c-0.788,0.607-1.065,1.188-1.249,1.573 c-0.12,0.252-0.152,0.32-0.373,0.489c-0.22,0.17-0.293,0.184-0.568,0.235c-0.419,0.08-1.053,0.2-1.841,0.807 c-0.788,0.607-1.065,1.188-1.249,1.574c-0.121,0.252-0.153,0.319-0.374,0.489s-0.295,0.185-0.571,0.237 c-0.267,0.05-0.63,0.132-1.056,0.332l1.803,2.576c0.412-0.085,0.97-0.241,1.654-0.768c0.789-0.607,1.066-1.189,1.25-1.574 c0.121-0.252,0.153-0.32,0.373-0.489c0.22-0.17,0.293-0.184,0.568-0.235c0.419-0.08,1.053-0.2,1.84-0.807 c0.789-0.606,1.066-1.188,1.25-1.573c0.121-0.252,0.153-0.32,0.373-0.489c0.219-0.169,0.292-0.183,0.566-0.234 c0.419-0.079,1.052-0.198,1.84-0.805c0.787-0.606,1.064-1.188,1.248-1.574c0.095-0.2,0.139-0.285,0.262-0.396L69.918,71.437z"/><path fill="#f2f2f2" d="M28.999,34.016c-0.364,0.279-0.914,0.702-1.302,1.677c-0.389,0.973-0.281,1.657-0.209,2.11 c0.045,0.287,0.051,0.324-0.032,0.533c-0.083,0.208-0.113,0.23-0.343,0.407c-0.364,0.279-0.914,0.701-1.302,1.675 c-0.389,0.973-0.281,1.658-0.209,2.111c0.045,0.287,0.051,0.323-0.032,0.532c-0.083,0.206-0.112,0.229-0.341,0.405 c-0.364,0.278-0.914,0.7-1.303,1.673c-0.388,0.973-0.279,1.657-0.208,2.11c0.008,0.051,0.013,0.087,0.018,0.124l2.95,0.785 c0.114-0.596,0.047-1.051-0.005-1.381c-0.045-0.284-0.051-0.32,0.031-0.525c0.083-0.207,0.112-0.229,0.342-0.405 c0.364-0.279,0.914-0.701,1.302-1.675c0.389-0.973,0.281-1.658,0.209-2.111c-0.045-0.287-0.051-0.323,0.032-0.531 s0.112-0.23,0.343-0.407c0.364-0.279,0.914-0.702,1.302-1.676c0.389-0.973,0.281-1.657,0.209-2.11 c-0.045-0.287-0.051-0.324,0.032-0.533c0.084-0.209,0.113-0.232,0.345-0.41c0.351-0.269,0.872-0.684,1.258-1.587l-3.046-0.822 C29.025,33.995,29.016,34.003,28.999,34.016z"/><path fill="#f2f2f2" d="M76.853,47.172c-0.37-0.731-0.823-1.105-1.14-1.348c-0.229-0.175-0.258-0.197-0.34-0.403 c-0.083-0.206-0.077-0.243-0.032-0.528c0.072-0.453,0.18-1.138-0.208-2.11c-0.389-0.974-0.938-1.396-1.302-1.676 c-0.23-0.177-0.26-0.199-0.343-0.408c-0.083-0.207-0.077-0.244-0.032-0.53c0.071-0.453,0.179-1.138-0.209-2.112 c-0.389-0.973-0.938-1.396-1.302-1.675c-0.23-0.177-0.26-0.199-0.343-0.408c-0.084-0.209-0.078-0.246-0.033-0.535 c0.056-0.358,0.124-0.868-0.037-1.544l-2.895,0.782c0.003,0.072-0.009,0.153-0.032,0.298c-0.071,0.453-0.178,1.138,0.21,2.111 s0.938,1.396,1.302,1.676c0.23,0.177,0.26,0.199,0.343,0.407c0.083,0.208,0.077,0.245,0.032,0.532 c-0.072,0.453-0.18,1.138,0.209,2.11c0.389,0.974,0.938,1.396,1.302,1.676c0.23,0.177,0.26,0.199,0.343,0.407 c0.083,0.207,0.077,0.243,0.031,0.529c-0.072,0.453-0.18,1.138,0.208,2.111c0.318,0.797,0.74,1.216,1.085,1.498l2.835-0.754 C76.625,47.247,76.737,47.206,76.853,47.172z"/><path fill="#40396e" d="M32.304,89.168c-1.515,0-3.029-0.398-4.383-1.231c-2.055-1.226-3.474-3.206-3.976-5.565 c-0.501-2.354,0.009-4.837,1.4-6.813l4.58-6.589c3.49-5.034,5.423-10.857,5.619-16.9l-12.562-3.343 c-2.316-0.624-4.215-2.134-5.352-4.251c-1.148-2.138-1.355-4.59-0.584-6.905c1.438-4.314,6.124-6.73,10.672-5.495l8.364,2.258 c-1.284-2.328-1.966-4.944-1.966-7.657c0-4.387,1.756-8.468,4.945-11.492c3.188-3.023,7.378-4.561,11.772-4.326 c8.371,0.484,15.119,7.698,15.05,16.082c-0.042,2.646-0.725,5.192-1.971,7.457l8.371-2.26c4.49-1.237,9.179,1.169,10.666,5.481 c0.002,0.005,0.003,0.01,0.005,0.015c0.767,2.301,0.543,4.824-0.614,6.923c-1.164,2.111-3.109,3.596-5.476,4.178l-12.53,3.335 c0.217,6.1,2.167,11.918,5.672,16.894l4.522,6.406c1.398,1.986,1.899,4.376,1.414,6.73c-0.487,2.363-1.904,4.37-3.99,5.651 c-3.887,2.391-9.048,1.242-11.75-2.617L50.001,70.558L39.672,85.32C37.894,87.811,35.099,89.168,32.304,89.168z M25.369,34.761 c-2.438,0-4.718,1.481-5.476,3.758c-0.507,1.522-0.372,3.134,0.381,4.537c0.742,1.382,1.98,2.366,3.486,2.772l13.688,3.643 c0.657,0.175,1.114,0.77,1.114,1.449v0.125c0,7.021-2.134,13.811-6.171,19.635l-4.586,6.598c-0.917,1.303-1.252,2.93-0.924,4.469 c0.327,1.533,1.249,2.821,2.597,3.625c2.529,1.557,5.925,0.769,7.747-1.783l11.549-16.507c0.562-0.8,1.896-0.804,2.458,0 l11.432,16.33c1.792,2.56,5.183,3.343,7.72,1.782c1.374-0.844,2.305-2.158,2.623-3.701c0.317-1.535-0.013-3.097-0.928-4.396 l-4.521-6.405c-4.083-5.796-6.241-12.633-6.241-19.771c0-0.68,0.457-1.274,1.114-1.449l13.692-3.644 c1.571-0.388,2.837-1.351,3.593-2.721c0.764-1.386,0.905-2.989,0.397-4.519c-0.975-2.815-4.068-4.378-7.037-3.558l-12.57,3.394 c-0.657,0.176-1.349-0.109-1.689-0.697s-0.243-1.331,0.238-1.812c2.417-2.418,3.778-5.618,3.832-9.013 c0.056-6.798-5.424-12.657-12.216-13.051c-3.562-0.177-6.957,1.056-9.542,3.508c-2.585,2.452-4.009,5.76-4.009,9.315 c0,3.447,1.361,6.707,3.832,9.178c0.48,0.48,0.578,1.224,0.238,1.812c-0.341,0.588-1.035,0.874-1.689,0.697L26.935,34.97 C26.415,34.828,25.888,34.761,25.369,34.761z"/></svg>