<svg xmlns="http://www.w3.org/2000/svg"  viewBox="0 0 100 100" width="100px" height="100px"><path d="M22.5,93C16.159,93,11,87.841,11,81.5v-6.52c-1.928-2.383-3-5.365-3-8.48s1.072-6.098,3-8.48v-2.09 c-2.498-2.246-4-5.49-4-8.93c0-3.537,1.587-6.865,4.21-9.116C12.991,22.611,25.824,11,41.5,11h21 c15.676,0,28.509,11.611,30.29,26.884C95.413,40.135,97,43.463,97,47c0,3.439-1.502,6.684-4,8.93v2.09c1.928,2.383,3,5.365,3,8.48 s-1.072,6.098-3,8.48v6.52C93,87.841,87.841,93,81.5,93H22.5z" opacity=".35"/><path fill="#f2f2f2" d="M20.5,91C14.159,91,9,85.841,9,79.5v-6.52c-1.928-2.383-3-5.365-3-8.48s1.072-6.098,3-8.48v-2.09 c-2.498-2.246-4-5.49-4-8.93c0-3.537,1.587-6.865,4.21-9.116C10.991,20.611,23.824,9,39.5,9h21 c15.676,0,28.509,11.611,30.29,26.884C93.413,38.135,95,41.463,95,45c0,3.439-1.502,6.684-4,8.93v2.09c1.928,2.383,3,5.365,3,8.48 s-1.072,6.098-3,8.48v6.52C91,85.841,85.841,91,79.5,91H20.5z"/><path fill="#ffc571" d="M88.5,45c0-2.517-1.693-4.634-4-5.288V39.5c0-13.255-10.745-24-24-24h-21c-13.255,0-24,10.745-24,24 v0.212c-2.307,0.654-4,2.771-4,5.288c0,2.517,1.693,4.634,4,4.288V78.5c0,3.761,2.239,6,5,6h59c2.761,0,5-2.239,5-6V49.288 C86.807,49.634,88.5,47.517,88.5,45z"/><rect width="69" height="17" x="15" y="44" fill="#dd4f2c"/><path d="M28,52.002c-2.137,0.001-4.113-0.92-5.5-2.413c-1.387,1.493-3.363,2.413-5.501,2.413 c-0.56,0-0.444-0.377-0.999-0.5c-2.412-0.538-2.132-1.996-3.005-4.312c-0.446-1.182-0.592-2.412-0.442-3.611 c0.105-0.838,75.26-2.435,75.447-0.078c0.165,2.082-0.584,3.469-2,5c-1.417,1.534-0.916,3.5-3,3.5 c-0.272,0-0.547-0.015-0.826-0.045c-1.771-0.192-3.421-1.106-4.639-2.461c-1.223,1.379-2.917,2.287-4.795,2.47 c-0.25,0.024-0.496,0.036-0.74,0.036c-2.145,0-4.133-0.931-5.522-2.438c-1.216,1.341-2.885,2.222-4.737,2.402 c-0.25,0.024-0.497,0.036-0.741,0.036c-2.146,0-4.133-0.931-5.522-2.439c-1.217,1.342-2.885,2.223-4.737,2.403 c-0.25,0.024-0.497,0.036-0.741,0.036c-2.145,0-4.132-0.931-5.522-2.438c-1.216,1.341-2.885,2.222-4.737,2.402 c-0.25,0.024-0.497,0.036-0.741,0.036c-2.145,0-4.133-0.931-5.522-2.438c-1.216,1.341-2.885,2.222-4.737,2.402 C28.491,51.99,28.244,52.002,28,52.002z" opacity=".35"/><path fill="#d47f56" d="M80.5,70h-61c-3.038,0-5.5-2.462-5.5-5.5v0c0-3.038,2.462-5.5,5.5-5.5h61c3.038,0,5.5,2.462,5.5,5.5 v0C86,67.538,83.538,70,80.5,70z"/><path fill="#96c362" d="M28,49c-1.877,0.001-3.522-1.332-3.913-3.167c-0.167-0.785-0.82-1.333-1.588-1.333 c-0.769,0-1.42,0.545-1.584,1.326C20.527,47.665,18.88,49,16.999,49c-0.304,0-0.613-0.034-0.919-0.103 c-1.272-0.283-2.349-1.22-2.81-2.444c-0.408-1.08-0.352-2.231,0.157-3.241c0.506-1.003,1.41-1.753,2.482-2.056l0.253-0.072 l0.197-0.584h67.165l0.024,0.503l0.346,0.098c1.719,0.485,2.961,1.922,3.092,3.574c0.089,1.13-0.283,2.208-1.049,3.037 C85.181,48.53,84.111,49,83,49c-0.147,0-0.296-0.008-0.447-0.024c-1.548-0.168-2.988-1.507-3.424-3.183 c-0.195-0.752-0.859-1.278-1.615-1.281c-0.78,0-1.449,0.538-1.635,1.309c-0.417,1.729-1.815,2.998-3.478,3.16 C72.266,48.994,72.133,49,72,49c-1.87,0-3.514-1.325-3.91-3.151c-0.172-0.794-0.833-1.349-1.609-1.349 c-0.766,0-1.418,0.527-1.594,1.282c-0.406,1.749-1.808,3.034-3.487,3.198C61.266,48.994,61.133,49,61,49 c-1.87,0-3.514-1.325-3.91-3.151c-0.171-0.795-0.833-1.35-1.609-1.35c-0.765,0-1.419,0.528-1.594,1.284 c-0.406,1.748-1.808,3.033-3.487,3.197C50.266,48.994,50.133,49,50,49c-1.87,0-3.514-1.325-3.91-3.151 c-0.171-0.792-0.831-1.345-1.605-1.345c-0.774,0.001-1.424,0.527-1.598,1.277c-0.405,1.75-1.807,3.035-3.487,3.199 C39.266,48.994,39.133,49,39,49c-1.87,0-3.514-1.325-3.91-3.151c-0.172-0.794-0.833-1.349-1.609-1.349 c-0.766,0-1.418,0.527-1.594,1.282c-0.406,1.749-1.808,3.034-3.487,3.198C28.266,48.994,28.132,49,28,49z"/><path fill="none" stroke="#40396e" stroke-linecap="round" stroke-linejoin="round" stroke-miterlimit="10" stroke-width="3" d="M84.5,58.76v-8.472c2.307-0.654,4-2.771,4-5.288c0-2.517-1.693-4.634-4-5.288V39.5c0-13.255-10.745-24-24-24h-21 c-13.255,0-24,10.745-24,24v0.212c-2.307,0.654-4,2.771-4,5.288c0,2.517,1.693,4.634,4,5.288v8.472c-1.812,1.265-3,3.362-3,5.74 c0,2.378,1.188,4.475,3,5.74v9.26c0,2.761,2.239,5,5,5h59c2.761,0,5-2.239,5-5v-9.26c1.812-1.265,3-3.362,3-5.74 C87.5,62.122,86.312,60.025,84.5,58.76z"/><polygon points="22,59 78,59 49.444,78" opacity=".35"/><polygon fill="#ffe385" points="22,59 49.483,72 78,59"/><ellipse cx="37.5" cy="25.5" fill="#ffe8d9" rx="2.5" ry="1.5"/><ellipse cx="43.5" cy="32.5" fill="#ffe8d9" rx="2.5" ry="1.5"/><ellipse cx="31.5" cy="32.5" fill="#ffe8d9" rx="2.5" ry="1.5"/></svg>