<svg xmlns="http://www.w3.org/2000/svg"  viewBox="0 0 100 100" width="100px" height="100px"><path d="M79,32H25V15c0-2.761,2.239-5,5-5h44c2.761,0,5,2.239,5,5V32z" opacity=".35"/><path fill="#f2f2f2" d="M77,31H23V14c0-2.761,2.239-5,5-5h44c2.761,0,5,2.239,5,5V31z"/><path d="M16.511,93c-1.736,0-3.369-0.676-4.596-1.904c-1.228-1.228-1.904-2.86-1.904-4.596l0.006-52 c0-3.021,2.052-5.62,4.99-6.322c0.5-0.119,1.005-0.178,1.509-0.178c2.393,0,2.341,1.913,3.483,4c0.174,0.248,2.791,0,3.614,0 c0.83,0,1.231-0.385,1.403-0.634c1.143-2.074,3.313-3.36,5.692-3.36c2.423,0.019,2.16,0.93,3.291,2.995 c0.174,0.248,2.985,1,3.809,1c0.83,0,1.231-0.385,1.403-0.634c1.143-2.074,3.313-3.36,5.692-3.36 C47.326,28.024,47.869,28.936,49,31c0.174,0.248,2.179,1,3.003,1c0.83,0,1.231-0.385,1.403-0.634 c1.143-2.074,3.313-3.36,5.692-3.36C61.515,28.024,61.868,28.939,63,31c0.172,0.249,2.369,1,3.197,1 c0.83,0,1.231-0.385,1.403-0.634c1.143-2.074,3.313-3.36,5.692-3.36C75.715,28.024,76.869,28.936,78,31 c0.174,0.248,1.568,1,2.392,1c0.831,0,1.232-0.386,1.403-0.635c1.145-2.075,3.315-3.36,5.693-3.36 c0.526,0,1.053,0.064,1.564,0.191c2.904,0.718,4.937,3.311,4.937,6.303v52c0,3.584-2.916,6.5-6.5,6.5H16.511z" opacity=".35"/><path fill="#f2f2f2" d="M14.511,91c-1.736,0-3.369-0.676-4.596-1.904c-1.228-1.228-1.904-2.86-1.904-4.596l0.006-52 c0-3.021,2.052-5.62,4.99-6.322c0.5-0.119,1.005-0.178,1.509-0.178c2.393,0,4.557,1.287,5.699,3.374 C20.39,29.622,20.791,30,21.614,30c0.83,0,1.231-0.385,1.403-0.634c1.143-2.074,3.313-3.36,5.692-3.36 c2.423,0.019,4.57,1.304,5.701,3.368C34.584,29.622,34.985,30,35.809,30c0.83,0,1.231-0.385,1.403-0.634 c1.143-2.074,3.313-3.36,5.692-3.36c2.423,0.019,4.57,1.304,5.701,3.368C48.779,29.622,49.179,30,50.003,30 c0.83,0,1.231-0.385,1.403-0.634c1.143-2.074,3.313-3.36,5.692-3.36c2.417,0.019,4.566,1.302,5.698,3.363 C62.968,29.617,63.369,30,64.197,30c0.83,0,1.231-0.385,1.403-0.634c1.143-2.074,3.313-3.36,5.692-3.36 c2.423,0.019,4.57,1.304,5.701,3.368C77.167,29.622,77.568,30,78.392,30c0.831,0,1.232-0.386,1.403-0.635 c1.145-2.075,3.315-3.36,5.693-3.36c0.526,0,1.053,0.064,1.564,0.191c2.904,0.718,4.937,3.311,4.937,6.303v52 c0,3.584-2.916,6.5-6.5,6.5H14.511z"/><path fill="#70bfff" d="M57.1,32.5c0,0-2.028,4-7.097,4s-7.097-4-7.097-4s-2.028,4-7.097,4s-7.097-4-7.097-4 s-2.028,4-7.097,4s-7.097-4-7.097-4l-0.006,52h70.978v-52c0,0-2.028,4-7.097,4c-5.069,0-7.097-4-7.097-4s-2.028,4-7.097,4 S57.1,32.5,57.1,32.5z"/><path fill="none" stroke="#40396e" stroke-linecap="round" stroke-linejoin="round" stroke-miterlimit="10" stroke-width="3" d="M57.1,32.5c0,0-2.028,4-7.097,4s-7.097-4-7.097-4s-2.028,4-7.097,4s-7.097-4-7.097-4s-2.028,4-7.097,4s-7.097-4-7.097-4l-0.006,52 h70.978v-52c0,0-2.028,4-7.097,4c-5.069,0-7.097-4-7.097-4s-2.028,4-7.097,4S57.1,32.5,57.1,32.5z"/><path fill="none" stroke="#40396e" stroke-linecap="round" stroke-linejoin="round" stroke-miterlimit="10" stroke-width="3" d="M49.5,15.506c-0.006,0,2,1.998,2,3.996c0,2.001-2,2.001-2,4.002s1.994,4.002,2,4.002"/><path fill="none" stroke="#40396e" stroke-linecap="round" stroke-linejoin="round" stroke-miterlimit="10" stroke-width="3" d="M59.5,15.506c-0.006,0,2,1.998,2,3.996c0,2.001-2,2.001-2,4.002s1.994,4.002,2,4.002"/><path fill="none" stroke="#40396e" stroke-linecap="round" stroke-linejoin="round" stroke-miterlimit="10" stroke-width="3" d="M69.5,15.506c-0.006,0,2,1.998,2,3.996c0,2.001-2,2.001-2,4.002s1.994,4.002,2,4.002"/><path fill="none" stroke="#40396e" stroke-linecap="round" stroke-linejoin="round" stroke-miterlimit="10" stroke-width="3" d="M39.5,15.506c-0.006,0,2,1.998,2,3.996c0,2.001-2,2.001-2,4.002s1.994,4.002,2,4.002"/><path fill="none" stroke="#40396e" stroke-linecap="round" stroke-linejoin="round" stroke-miterlimit="10" stroke-width="3" d="M29.5,15.506c-0.006,0,2,1.998,2,3.996c0,2.001-2,2.001-2,4.002s1.994,4.002,2,4.002"/><circle cx="30.5" cy="52.5" r="2.5" fill="#d9eeff"/><circle cx="54.5" cy="47.5" r="2.5" fill="#d9eeff"/><circle cx="70.5" cy="56.5" r="2.5" fill="#d9eeff"/><circle cx="29.5" cy="72.5" r="2.5" fill="#d9eeff"/><circle cx="45" cy="61" r="4" fill="#d9eeff"/><circle cx="65" cy="71" r="4" fill="#d9eeff"/><g><path fill="#40396e" d="M51.5,29.006c-1.477,0-3.5-3.51-3.5-5.502c0-1.622,0.866-2.488,1.439-3.062 C49.908,19.973,50,19.851,50,19.501c0-0.894-0.79-2.123-1.572-2.945c-0.413-0.435-0.543-1.09-0.307-1.642l2.756,1.185 L49.5,15.506l1.096-1.024c0.727,0.764,2.404,2.77,2.404,5.02c0,1.622-0.866,2.488-1.439,3.062 C51.092,23.032,51,23.154,51,23.503c0,1.035,1.03,2.406,1.538,2.919C52.823,26.696,53,27.08,53,27.506 C53,28.334,52.329,29.006,51.5,29.006z"/><path fill="#40396e" d="M61.5,29.006c-1.477,0-3.5-3.51-3.5-5.502c0-1.622,0.866-2.488,1.439-3.062 C59.908,19.973,60,19.851,60,19.501c0-0.894-0.79-2.123-1.572-2.945c-0.413-0.435-0.543-1.09-0.307-1.642l2.756,1.185 L59.5,15.506l1.096-1.024c0.727,0.764,2.404,2.77,2.404,5.02c0,1.622-0.866,2.488-1.439,3.062 C61.092,23.032,61,23.154,61,23.503c0,1.035,1.03,2.406,1.538,2.919C62.823,26.696,63,27.08,63,27.506 C63,28.334,62.329,29.006,61.5,29.006z"/><path fill="#40396e" d="M71.5,29.006c-1.477,0-3.5-3.51-3.5-5.502c0-1.622,0.866-2.488,1.439-3.062 C69.908,19.973,70,19.851,70,19.501c0-0.894-0.79-2.123-1.572-2.945c-0.413-0.435-0.543-1.09-0.307-1.642l2.756,1.185 L69.5,15.506l1.096-1.024c0.727,0.764,2.404,2.77,2.404,5.02c0,1.622-0.866,2.488-1.439,3.062 C71.092,23.032,71,23.154,71,23.503c0,1.035,1.03,2.406,1.538,2.919C72.823,26.696,73,27.08,73,27.506 C73,28.334,72.329,29.006,71.5,29.006z"/><g><path fill="#40396e" d="M41.5,29.006c-1.477,0-3.5-3.51-3.5-5.502c0-1.622,0.866-2.488,1.439-3.062 C39.908,19.973,40,19.851,40,19.501c0-0.894-0.79-2.123-1.572-2.945c-0.413-0.435-0.543-1.09-0.307-1.642l2.756,1.185 L39.5,15.506l1.096-1.024c0.727,0.764,2.404,2.77,2.404,5.02c0,1.622-0.866,2.488-1.439,3.062 C41.092,23.032,41,23.154,41,23.503c0,1.035,1.03,2.406,1.538,2.919C42.823,26.696,43,27.08,43,27.506 C43,28.334,42.329,29.006,41.5,29.006z"/></g><g><path fill="#40396e" d="M31.5,29.006c-1.477,0-3.5-3.51-3.5-5.502c0-1.622,0.866-2.488,1.439-3.062 C29.908,19.973,30,19.851,30,19.501c0-0.894-0.79-2.123-1.572-2.945c-0.413-0.435-0.543-1.09-0.307-1.642l2.756,1.185 L29.5,15.506l1.096-1.024c0.727,0.764,2.404,2.77,2.404,5.02c0,1.622-0.866,2.488-1.439,3.062 C31.092,23.032,31,23.154,31,23.503c0,1.035,1.03,2.406,1.538,2.919C32.823,26.696,33,27.08,33,27.506 C33,28.334,32.329,29.006,31.5,29.006z"/></g></g></svg>