<svg xmlns="http://www.w3.org/2000/svg"  viewBox="0 0 100 100" width="100px" height="100px"><g id="Слой_2"><path d="M91.995,28.328c-0.047-6.547-3.558-12.624-9.364-15.918c-2.774-1.574-5.922-2.406-9.102-2.406 c-0.893,0-1.783,0.064-2.662,0.191C68.14,8.755,65.107,8,62.011,8c-6.554,0-12.559,3.302-16.062,8.834 C34.154,35.457,29.603,37.305,24.332,39.445c-2.437,0.99-5.198,2.111-8.43,3.874C7.999,47.631,4.286,56.792,6.738,65.257 c-0.95,3.161-1.03,6.489-0.219,9.735C8.583,83.252,15.95,89.02,24.434,89.02c1.266,0,2.536-0.132,3.784-0.393 c3.163,2.168,6.968,3.376,10.788,3.376c2.667,0,5.262-0.552,7.711-1.641c22.694-10.086,34.904-20.744,46.66-40.729 C97.369,42.847,96.736,34.4,91.995,28.328z" opacity=".35"/><path fill="#f2f2f2" d="M89.995,26.328c-0.047-6.547-3.558-12.624-9.364-15.918c-2.774-1.574-5.922-2.406-9.102-2.406 c-0.893,0-1.783,0.064-2.662,0.191C66.14,6.755,63.107,6,60.011,6c-6.554,0-12.559,3.302-16.062,8.834 C32.154,33.457,27.603,35.305,22.332,37.445c-2.437,0.99-5.198,2.111-8.43,3.874C5.999,45.631,2.286,54.792,4.738,63.257 c-0.95,3.161-1.03,6.489-0.219,9.735C6.583,81.252,13.95,87.02,22.434,87.02c1.266,0,2.536-0.132,3.784-0.393 c3.163,2.168,6.968,3.376,10.788,3.376c2.667,0,5.262-0.552,7.711-1.641c22.694-10.086,34.904-20.744,46.66-40.729 C95.369,40.847,94.736,32.4,89.995,26.328z"/><path fill="#f9b84f" d="M23.01,69.002c-3.896,0-7.67-2.074-9.667-5.734c-2.909-5.334-0.943-12.016,4.39-14.925 c2.834-1.546,5.371-2.576,7.609-3.485c6.546-2.658,12.199-4.954,25.365-25.743c3.25-5.131,10.821-6.971,15.953-3.721 s5.884,10.359,2.633,15.492C53.568,55.714,44.589,60.785,33.621,65.24c-1.941,0.789-3.617,1.47-5.354,2.417 C26.595,68.569,24.79,69.002,23.01,69.002z"/><circle cx="32" cy="53" r="5" fill="#739f4d"/><circle cx="27" cy="58" r="5" fill="#739f4d"/><circle cx="38" cy="48" r="5" fill="#739f4d"/><circle cx="44" cy="43" r="5" fill="#739f4d"/><circle cx="50" cy="37" r="5" fill="#739f4d"/><circle cx="56" cy="32" r="5" fill="#739f4d"/><circle cx="61" cy="27" r="5" fill="#739f4d"/><path fill="#f4665c" d="M23.974,78.457c-4.493,0-8.564-3.051-9.705-7.614c-1.343-5.377,1.958-10.834,7.336-12.177 c0.105-0.026,0.275-0.066,0.511-0.118c3.819-0.836,25.305-7.675,41.64-36.456c2.736-4.82,8.86-6.512,13.682-3.775 c4.821,2.736,6.511,8.862,3.775,13.682C61.188,67.282,33.825,76.533,26.409,78.156C25.594,78.359,24.777,78.457,23.974,78.457z"/><path fill="#ffe385" d="M44.498,65c-0.447,0-0.899-0.119-1.309-0.371l-13-8c-0.859-0.529-1.316-1.523-1.158-2.521 s0.9-1.802,1.882-2.039l23.841-5.754L47,40.5c-0.76-0.569-1.131-1.521-0.958-2.454c0.172-0.934,0.858-1.688,1.771-1.95l21-6 c1.328-0.379,2.711,0.389,3.091,1.718c0.379,1.327-0.39,2.711-1.718,3.091l-16.159,4.616L62,45.5 c0.774,0.581,1.144,1.557,0.948,2.505s-0.921,1.698-1.861,1.926l-23.159,5.59l7.883,4.851c1.176,0.724,1.542,2.264,0.818,3.439 C46.157,64.577,45.337,65,44.498,65z"/><path fill="#f9b84f" d="M37.481,80.981c-4.214,0-7.982-3.288-9.804-7.388c-2.468-5.552-0.697-10.178,4.855-12.645 c16.816-7.475,24.523-14.139,32.986-28.525c3.08-5.235,9.594-6.753,14.833-3.673c5.236,3.08,7.66,8.904,4.13,14.827 c-10.898,18.29-22.051,28.158-43.014,37.475C40.016,81.697,38.974,80.981,37.481,80.981z"/><path fill="#40396e" d="M38.006,84.503c-3.488,0-6.939-1.426-9.443-3.858c-0.721,0.193-1.415,0.363-2.049,0.502 c-0.968,0.243-2.021,0.373-3.08,0.373c-5.955,0-11.128-4.055-12.579-9.86c-0.699-2.8-0.438-5.741,0.728-8.375 c-2.719-6.383-0.212-13.773,5.953-17.136c2.956-1.613,5.562-2.671,7.86-3.604c6.151-2.498,11.463-4.655,24.199-24.768 c3.981-6.283,12.337-8.162,18.628-4.182c0.217,0.137,0.429,0.281,0.64,0.435c3.367-0.989,6.979-0.579,10.054,1.164 c4.692,2.663,7.198,7.826,6.453,13.09c4.495,4.305,5.478,11.104,2.268,16.562C76.541,63.707,64.987,73.779,43.483,83.337 C41.741,84.11,39.898,84.503,38.006,84.503z M29.109,76.927c0.5,0,0.986,0.215,1.324,0.605c1.879,2.173,4.71,3.471,7.572,3.471 c1.399,0,2.765-0.291,4.056-0.865c20.747-9.22,31.883-18.92,42.558-37.068c2.511-4.267,1.561-9.641-2.258-12.778 c-0.51-0.419-0.74-1.09-0.597-1.733c0.915-4.1-0.924-8.247-4.576-10.32c-2.459-1.395-5.392-1.619-8.044-0.613 c-0.593,0.224-1.263,0.111-1.749-0.3c-0.353-0.298-0.695-0.551-1.046-0.773c-4.659-2.946-10.849-1.557-13.798,3.099 c-13.337,21.06-19.13,23.412-25.838,26.137c-2.214,0.899-4.722,1.917-7.503,3.435c-4.759,2.596-6.573,8.435-4.13,13.293 c0.254,0.505,0.248,1.102-0.015,1.602c-1.089,2.066-1.379,4.444-0.815,6.696c1.061,4.244,4.836,7.208,9.183,7.208 c0.771,0,1.539-0.095,2.281-0.28c0.91-0.2,1.898-0.453,2.91-0.744C28.785,76.949,28.948,76.927,29.109,76.927z"/></g></svg>