<svg xmlns="http://www.w3.org/2000/svg"  viewBox="0 0 100 100" width="100px" height="100px"><path d="M27.612,95.014c-9.186,0-16.659-7.473-16.659-16.659V37.4c-1.853-1.755-2.969-4.228-2.969-6.88 c0-4.359,2.922-8.043,6.897-9.174c0.72-1.422,1.865-2.637,3.354-3.423l7.705-4.033c1.15-0.592,2.407-0.896,3.666-0.896 c1.091,0,2.146,0.22,3.112,0.628l2.308-2.298c1.468-1.465,3.527-2.308,5.647-2.308c2.153,0,4.162,0.823,5.656,2.317l0.792,0.79 l2.296-1.207c1.131-0.603,2.431-0.929,3.736-0.929c0.806,0,1.605,0.122,2.378,0.362c1.645,0.51,3.052,1.511,4.059,2.872 c0.613-0.15,1.251-0.229,1.9-0.232c2.176,0,4.191,0.836,5.709,2.354l5.624,5.651c5.082,0.18,9.16,4.37,9.16,9.494 c0,0.947-0.141,1.87-0.405,2.745c8.174,1.319,14.437,8.425,14.437,16.966v5.898c0,5.803-2.88,11.149-7.713,14.339l-9.35,6.961 c-0.023,9.718-7.937,17.616-17.659,17.616H27.612z" opacity=".35"/><path fill="#f2f2f2" d="M25.612,93.014c-9.186,0-16.659-7.473-16.659-16.659V35.4c-1.853-1.755-2.969-4.228-2.969-6.88 c0-4.359,2.922-8.043,6.897-9.174c0.72-1.422,1.865-2.637,3.354-3.423l7.705-4.033c1.15-0.592,2.407-0.896,3.666-0.896 c1.091,0,2.146,0.22,3.112,0.628l2.308-2.298c1.468-1.465,3.527-2.308,5.647-2.308c2.153,0,4.162,0.823,5.656,2.317l0.792,0.79 l2.296-1.207c1.131-0.603,2.431-0.929,3.736-0.929c0.806,0,1.605,0.122,2.378,0.362c1.645,0.51,3.052,1.511,4.059,2.872 c0.613-0.15,1.251-0.229,1.9-0.232c2.176,0,4.191,0.836,5.709,2.354l5.624,5.651c5.082,0.18,9.16,4.37,9.16,9.494 c0,0.947-0.141,1.87-0.405,2.745c8.174,1.319,14.437,8.425,14.437,16.966v5.898c0,5.803-2.88,11.149-7.713,14.339l-9.35,6.961 c-0.023,9.718-7.937,17.616-17.659,17.616H25.612z"/><path fill="#f4a3be" d="M46.064,20.239l-6.33-6.31c-0.59-0.59-1.53-0.59-2.12,0l-7.19,7.16l-4.785,6.177l20.617,0.255 l-0.192-5.173C46.654,21.769,46.654,20.819,46.064,20.239z"/><path fill="#ffe385" d="M69.649,27.979l-9.045-10.041c-0.6-0.6-1.56-0.6-2.15,0L50,27.745 C50,27.745,70.089,28.419,69.649,27.979z"/><path fill="#d9eeff" d="M32.085,27l-13.213,0.649l-1.964-4.03c-0.36-0.71-0.09-1.58,0.61-1.95l7.68-4.02 c0.7-0.36,1.57-0.09,1.94,0.61L32.085,27z"/><path fill="#d9eeff" d="M51.156,15.969l-9.453,4.96c-0.75,0.39-1.04,1.32-0.65,2.07l2.6,4.98h13.83L51.156,15.969z"/><path fill="#f4665c" d="M76.83,37.514h-6.377v-7.705h-55v46.546c0,5.611,4.549,10.16,10.16,10.16h33.681 c6.138,0,11.16-5.022,11.16-11.16v-3.22l12.132-9.033c3.072-1.963,4.931-5.358,4.931-9.003v-5.898 C87.516,42.298,82.732,37.514,76.83,37.514z M80.516,54.098c0,1.258-0.641,2.428-1.701,3.105l-8.362,6.623V44.514h6.377 c2.035,0,3.686,1.65,3.686,3.686V54.098z"/><rect width="57.984" height="3" x="14" y="27" fill="#ff7575"/><path fill="#40396e" d="M70.453,65.327c-0.223,0-0.445-0.049-0.653-0.149c-0.518-0.25-0.847-0.775-0.847-1.351V44.514 c0-0.829,0.672-1.5,1.5-1.5h6.377c2.859,0,5.186,2.326,5.186,5.186v5.898c0,1.751-0.867,3.362-2.324,4.325l-8.307,6.58 C71.114,65.216,70.785,65.327,70.453,65.327z M71.953,46.014v14.711l5.93-4.697c0.04-0.032,0.081-0.061,0.124-0.088 c0.632-0.403,1.009-1.092,1.009-1.841V48.2c0-1.205-0.98-2.186-2.186-2.186H71.953z"/><rect width="3" height="6.938" x="68.984" y="37.051" fill="#40396e" opacity=".35"/><rect width="3" height="8.562" x="68.984" y="62.801" fill="#40396e" opacity=".35"/><rect width="57.984" height="3" x="14" y="30" fill="#40396e" opacity=".35"/><path fill="#40396e" d="M59.294,88.014H25.612c-6.429,0-11.659-5.23-11.659-11.659V32.729 c-1.729-0.618-2.969-2.272-2.969-4.21c0-2.526,2.005-4.531,4.469-4.531h1.74c-0.506-1.383,0.07-2.954,1.379-3.646l7.687-4.023 c1.435-0.738,3.209-0.184,3.961,1.238l0.559,1.061l5.776-5.753c1.135-1.133,3.102-1.136,4.24,0.003l3.401,3.391l5.549-2.918 c0.709-0.378,1.53-0.458,2.304-0.217c0.775,0.24,1.409,0.77,1.785,1.492l2.002,3.817l1.559-1.556 c0.556-0.566,1.312-0.885,2.118-0.889c0.004,0,0.009,0,0.013,0c0.807,0,1.565,0.316,2.14,0.89l7.075,7.11h1.744 c2.481,0,4.5,2.019,4.5,4.5c0,1.967-1.269,3.644-3.031,4.254v3.271h4.877c6.719,0,12.186,5.466,12.186,12.186v5.898 c0,4.161-2.083,7.983-5.576,10.237l-11.486,8.552v2.467C71.953,82.335,66.274,88.014,59.294,88.014z M15.453,26.988 c-0.81,0-1.469,0.659-1.469,1.469c0,0.873,0.659,1.531,1.469,1.531c0.828,0,1.5,0.671,1.5,1.5v44.866 c0,4.775,3.885,8.659,8.659,8.659h33.682c5.326,0,9.659-4.333,9.659-9.659v-3.221c0-0.474,0.224-0.92,0.604-1.203l12.132-9.033 c0.028-0.021,0.058-0.042,0.088-0.061c2.654-1.696,4.238-4.589,4.238-7.739v-5.898c0-5.065-4.121-9.186-9.186-9.186h-6.377 c-0.828,0-1.5-0.671-1.5-1.5v-6.025c0-0.829,0.672-1.5,1.5-1.5c0.858,0,1.531-0.673,1.531-1.5s-0.673-1.5-1.5-1.5h-2.367 c-0.399,0-0.781-0.159-1.063-0.442l-7.514-7.55l-3.026,3c-0.337,0.336-0.816,0.492-1.286,0.421 c-0.472-0.072-0.881-0.364-1.102-0.786l-2.95-5.626l-6.56,3.422c-0.579,0.304-1.292,0.198-1.757-0.265l-4.185-4.171l-7.192,7.16 c-0.338,0.336-0.831,0.503-1.298,0.433c-0.471-0.072-0.893-0.35-1.114-0.771l-1.504-2.856l-7.598,4.04l1.009,1.791 c0.245,0.465,0.229,1.024-0.043,1.474c-0.271,0.45-0.759,0.726-1.284,0.726H15.453z M70.453,65.326 c-0.223,0-0.445-0.049-0.653-0.149c-0.518-0.25-0.847-0.775-0.847-1.351V44.514c0-0.829,0.672-1.5,1.5-1.5h6.377 c2.859,0,5.186,2.327,5.186,5.186v5.898c0,1.751-0.867,3.362-2.324,4.325l-8.307,6.579C71.114,65.216,70.785,65.326,70.453,65.326z M71.953,46.014v14.711l5.93-4.697c0.04-0.032,0.081-0.061,0.124-0.088c0.632-0.403,1.009-1.092,1.009-1.841V48.2 c0-1.206-0.98-2.186-2.186-2.186H71.953z"/></svg>