<svg xmlns="http://www.w3.org/2000/svg"  viewBox="0 0 100 100" width="100px" height="100px"><g id="Слой_2"><path d="M72,17C67.8,8.65,61.445,3,52,3S33.859,8.462,29.658,16.812C20.33,20.582,14,29.796,14,40c0,10.014,5.942,15.063,15,19 l1.309,6.506l4.036,8.072l3.443,6.885l2.781,5.562l1.885,3.771l2.391,4.781C46.209,97.306,48.95,99,52,99h0.038l0.06-0.001 c2.991-0.022,5.797-1.8,7.11-4.528l3.25-6.75l0.919-1.909l2.49-5.173l0.77-1.6l7.617-15.819C83.631,59.466,90,50.228,90,40 C90,29.796,81.329,20.77,72,17z" opacity=".35"/><path fill="#f2f2f2" d="M72.342,14.812C68.141,6.462,59.445,1,50,1S31.859,6.462,27.658,14.812C18.33,18.582,12,27.796,12,38 c0,10.014,5.948,18.964,15.006,22.901l1.302,2.605l4.036,8.072l3.443,6.885l2.781,5.562l1.885,3.771l2.391,4.781 C44.209,95.306,46.95,97,50,97h0.038l0.06-0.001c2.991-0.022,5.797-1.8,7.11-4.528l3.25-6.75l0.919-1.909l2.49-5.173l0.77-1.6 l7.617-15.819C81.631,57.466,88,48.228,88,38C88,27.796,81.67,18.582,72.342,14.812z"/><polygon fill="#f9b84f" points="50,88 22,34 77,34"/><path fill="#d47f56" d="M37,59c4.728,0,9.264-1.513,13-4.257C53.736,57.487,58.272,59,63,59c0.331,0,1.674,0.018,2,0l11-25H23l11,25 C34.507,59.041,36.482,59,37,59z"/><path fill="#40396e" d="M37,59c4.728,0,9.264-1.513,13-4.257C53.736,57.487,58.272,59,63,59c0.331,0,1.674,0.018,2,0l11-25H23l11,25 C34.507,59.041,36.482,59,37,59z" opacity=".35"/><ellipse cx="50" cy="25" fill="#f4665c" rx="18" ry="17"/><circle cx="63" cy="37" r="17" fill="#ffe8d9"/><circle cx="37" cy="37" r="17" fill="#f4a3be"/><path fill="#d47f56" d="M63,59c-3.118,0-6.146-0.67-8.923-1.905h0L50,61.172l-4.077-4.077h0C43.146,58.33,40.118,59,37,59 c-0.518,0-1.028-0.031-1.536-0.072l0.593,1.186l6.885,13.771L43,73.828L47.172,78l-1.448,1.448l1.885,3.771L50,80.828l2.331,2.331 l1.838-3.818L52.828,78l3.831-3.831l6.935-14.403l0.388-0.805C63.656,58.979,63.331,59,63,59z M38.328,63.5l4.172-4.172L47.172,64 L43,68.172L38.328,63.5z M50,75.172L45.828,71L50,66.828L54.172,71L50,75.172z M57,68.172L52.828,64l4.672-4.672l4.172,4.172 L57,68.172z"/><path fill="#f2f2f2" d="M25.314,36.239c-0.829,0-1.5-0.672-1.5-1.5c0-6.065,4.935-11,11-11c0.829,0,1.5,0.672,1.5,1.5 s-0.671,1.5-1.5,1.5c-4.411,0-8,3.589-8,8C26.814,35.567,26.143,36.239,25.314,36.239z"/><path fill="#40396e" d="M50.021,91c-1.165,0-2.193-0.636-2.705-1.658L30.614,55.937C22.566,53.224,17,45.53,17,37 c0-8.919,5.859-16.695,14.346-19.185C34.308,10.117,41.704,5,50,5s15.692,5.117,18.654,12.815C77.141,20.305,83,28.081,83,37 c0,8.902-5.866,16.691-14.352,19.185L52.703,89.301C52.21,90.325,51.158,90.992,50.021,91z M50,8 c-7.28,0-13.746,4.638-16.088,11.541c-0.164,0.482-0.562,0.849-1.056,0.973C25.287,22.409,20,29.188,20,37 c0,7.437,4.978,14.124,12.104,16.263c0.396,0.119,0.726,0.396,0.911,0.766L50,88l16.241-33.731 c0.192-0.399,0.551-0.693,0.979-0.803C74.745,51.539,80,44.769,80,37c0-7.812-5.287-14.591-12.855-16.486 c-0.495-0.124-0.893-0.49-1.056-0.973C63.746,12.638,57.28,8,50,8z"/></g></svg>