<svg xmlns="http://www.w3.org/2000/svg"  viewBox="0 0 100 100" width="100px" height="100px"><g id="Слой_2"><path d="M90.92,41.978C90.973,41.319,91,40.658,91,40c0-10.204-6.33-19.418-15.658-23.188C63,16,62.445,3,53,3 c-9.445,0-18.141,5.462-22.342,13.812C21.33,20.582,15,29.796,15,40c0,0.66,0.027,1.323,0.08,1.984C14.383,43.186,14,44.567,14,46 c0,0.729,0.025,1.501,0.077,2.362c0.01,0.173,0.024,0.339,0.037,0.506l0.011,0.141c0.045,0.593,0.106,1.205,0.179,1.8l0.012,0.099 c0.018,0.15,0.037,0.3,0.058,0.45c0.219,1.594,0.537,3.177,0.943,4.702C18.115,66.56,31,71,34.512,80.322 C32.325,82.188,31,84.931,31,87.932C31,93.483,35.584,98,41.219,98h23.562C70.416,98,75,93.483,75,87.932 c0-2.999-1.324-5.741-3.513-7.608c9.31-5.034,16.395-13.754,19.195-24.264c0.406-1.527,0.724-3.11,0.944-4.708 c0.019-0.14,0.039-0.293,0.057-0.445l0.012-0.097c0.074-0.598,0.135-1.211,0.181-1.822l0.01-0.125 c0.013-0.16,0.026-0.329,0.036-0.498c0.046-0.774,0.071-1.471,0.076-2.13c0.002-0.078,0.003-0.156,0.003-0.234 C92.003,44.564,91.619,43.182,90.92,41.978z" opacity=".35"/><path fill="#f2f2f2" d="M88.92,39.978C88.973,39.319,89,38.658,89,38c0-10.204-6.33-19.418-15.658-23.188C69.141,6.462,60.445,1,51,1 c-9.445,0-18.141,5.462-22.342,13.812C19.33,18.582,13,27.796,13,38c0,0.66,0.027,1.323,0.08,1.984C12.383,41.186,12,42.567,12,44 c0,0.729,0.025,1.501,0.077,2.362c0.01,0.173,0.024,0.339,0.037,0.506l0.011,0.141c0.045,0.593,0.106,1.205,0.179,1.8l0.012,0.099 c0.018,0.15,0.037,0.3,0.058,0.45c0.219,1.594,0.537,3.177,0.943,4.702c2.798,10.501,9.886,19.225,19.195,24.263 C30.325,80.188,29,82.931,29,85.932C29,91.483,33.584,96,39.219,96h23.562C68.416,96,73,91.483,73,85.932 c0-2.999-1.324-5.741-3.513-7.608c9.31-5.034,16.395-13.754,19.195-24.264c0.406-1.527,0.724-3.11,0.944-4.708 c0.019-0.14,0.039-0.293,0.057-0.445l0.012-0.097c0.074-0.598,0.135-1.211,0.181-1.822l0.01-0.125 c0.013-0.16,0.026-0.329,0.036-0.498c0.046-0.774,0.071-1.471,0.076-2.13c0.002-0.078,0.003-0.156,0.003-0.234 C90.003,42.564,89.619,41.182,88.92,39.978z"/><ellipse cx="22.562" cy="43.429" fill="#f4a3be" rx="2.752" ry="2.407"/><ellipse cx="79.298" cy="43.429" fill="#ffe8d9" rx="2.752" ry="2.407"/><path fill="#707cc0" d="M62.483,83.969L53,81.122V67.01l-6.102,0.021v14.242l-9.381,2.697C36.611,84.251,36,85.041,36,85.932 C36,87.074,36.993,88,38.219,88h23.562C63.007,88,64,87.074,64,85.932C64,85.041,63.389,84.251,62.483,83.969z"/><circle cx="50" cy="26" r="17" fill="#f4665c"/><circle cx="63" cy="38" r="16.298" fill="#ffe8d9"/><circle cx="37" cy="38" r="16.298" fill="#f4a3be"/><path fill="#f2f2f2" d="M25.313,37.239c-0.828,0-1.5-0.672-1.5-1.5c0-6.065,4.935-11,11-11c0.828,0,1.5,0.672,1.5,1.5 s-0.672,1.5-1.5,1.5c-4.411,0-8,3.589-8,8C26.813,36.567,26.142,37.239,25.313,37.239z"/><path fill="#96c362" d="M65.216,31.651c0,0-21.743,2.044-14,23.899C73.588,53.141,65.216,31.651,65.216,31.651z"/><path fill="#9aa2e6" d="M19,44.75C19,61.457,32.879,75,50,75s31-13.543,31-30.25H19z"/><path fill="#707cc0" d="M79.952,52C80.632,49.687,81,47.258,81,44.75H19c0,2.508,0.368,4.937,1.048,7.25H79.952z"/><path fill="#40396e" d="M61.781,90.25H38.219c-2.464,0-4.469-1.938-4.469-4.318c0-1.882,1.245-3.534,3.1-4.111l7.799-2.242v-2.76 C31.886,74.732,21.22,65.14,17.874,52.579c-0.345-1.292-0.616-2.642-0.805-4.01l-0.058-0.463 c-0.064-0.513-0.116-1.031-0.156-1.555l-0.038-0.513C16.775,45.352,16.75,44.68,16.75,44c0-0.944,0.584-1.754,1.41-2.088 c-0.272-1.291-0.41-2.601-0.41-3.912c0-8.631,5.908-16.305,14.167-18.566C34.651,11.924,41.968,6.75,50,6.75 s15.349,5.174,18.083,12.684C76.342,21.695,82.25,29.369,82.25,38c0,1.312-0.138,2.621-0.41,3.912 c0.826,0.334,1.41,1.144,1.41,2.088c0,0.679-0.025,1.352-0.066,2.021l-0.039,0.525c-0.04,0.527-0.092,1.046-0.156,1.562 l-0.056,0.442c-0.19,1.386-0.461,2.735-0.807,4.029c-3.358,12.603-14.063,22.2-26.876,24.252v2.616l7.88,2.365 c1.872,0.584,3.12,2.237,3.12,4.118C66.25,88.312,64.245,90.25,61.781,90.25z M19.761,44.75c0.011,0.363,0.028,0.726,0.05,1.086 l0.037,0.49c0.036,0.472,0.082,0.941,0.141,1.406l0.056,0.445c0.169,1.229,0.415,2.455,0.729,3.629 c3.148,11.818,13.419,20.748,25.557,22.222c0.753,0.092,1.319,0.73,1.319,1.489v5.19c0,0.669-0.442,1.257-1.086,1.441 l-8.854,2.545c-0.561,0.175-0.959,0.676-0.959,1.237c0,0.727,0.659,1.318,1.469,1.318h23.562c0.81,0,1.469-0.592,1.469-1.318 c0-0.562-0.401-1.063-0.998-1.25l-8.934-2.681c-0.634-0.19-1.068-0.774-1.068-1.437v-5.038c0-0.761,0.569-1.4,1.324-1.489 c12.185-1.439,22.493-10.372,25.653-22.229c0.313-1.175,0.56-2.402,0.73-3.649l0.054-0.425c0.059-0.465,0.104-0.935,0.141-1.413 l0.038-0.504c0.021-0.349,0.038-0.705,0.049-1.066h-0.298c-0.478,0-0.926-0.228-1.209-0.611 c-0.282-0.385-0.365-0.881-0.223-1.337c0.491-1.569,0.74-3.186,0.74-4.802c0-7.526-5.322-14.191-12.654-15.847 c-0.521-0.117-0.941-0.504-1.102-1.014C63.392,14.434,57.021,9.75,50,9.75s-13.392,4.684-15.494,11.39 c-0.16,0.51-0.58,0.896-1.102,1.014C26.072,23.809,20.75,30.474,20.75,38c0,1.616,0.249,3.232,0.74,4.802 c0.143,0.456,0.06,0.952-0.223,1.337c-0.283,0.384-0.731,0.611-1.209,0.611H19.761z M81,44.75h0.01H81z"/></g></svg>