<svg xmlns="http://www.w3.org/2000/svg"  viewBox="0 0 100 100" width="100px" height="100px"><g id="Слой_2"><path d="M86,37h-1.506c-0.007-0.024-0.013-0.047-0.02-0.071c-0.104-0.362-0.212-0.733-0.33-1.1 c-0.09-0.282-0.186-0.559-0.282-0.836l-0.037-0.107l-0.039-0.111c-0.118-0.341-0.239-0.684-0.369-1.024 c-0.086-0.225-0.177-0.446-0.269-0.666l-0.075-0.181c-0.473-1.155-0.944-2.185-1.433-3.13c-0.914-1.765-1.556-3.046-2.005-3.967 C81.14,23.894,82,21.501,82,19c0-6.065-4.935-11-11-11H56c-6.065,0-11,4.935-11,11c0,2.037,0.57,4.002,1.596,5.695 c-0.691,0.368-1.33,0.841-1.899,1.41l-0.615,0.615c-1.358-0.56-2.771-0.989-4.212-1.276c-1.439-1.36-3.049-2.485-4.795-3.348 C32.261,20.705,29.123,20,25.75,20c-3.213,0-6.682,0.652-10.309,1.937c-3.514,1.245-5.686,4.703-5.281,8.41l0.003,0.03l0.004,0.03 l0.012,0.099l0.003,0.024l0.005,0.036l0.004,0.032l0.001,0.01c0.338,2.967,1.017,5.653,2.027,8.038C9.089,40.586,7,44.054,7,48 c0,3.633,2.492,6.271,5.383,8.298l-0.331,1.927l8.218,28.39C21.87,92.141,27.005,96,32.758,96h37.484 c5.753,0,10.888-3.859,12.487-9.385l8.218-28.39l0.132-0.455C94.645,55.927,97,52.221,97,48C97,41.935,92.065,37,86,37z" opacity=".35"/><path fill="#f2f2f2" d="M84,35h-1.506c-0.007-0.024-0.013-0.047-0.02-0.071c-0.104-0.362-0.212-0.733-0.33-1.1 c-0.09-0.282-0.186-0.559-0.282-0.836l-0.037-0.107l-0.039-0.111c-0.118-0.341-0.239-0.684-0.369-1.024 c-0.086-0.225-0.177-0.446-0.269-0.666l-0.075-0.181c-0.473-1.155-0.944-2.185-1.433-3.13c-0.914-1.765-1.556-3.046-2.005-3.967 C79.14,21.894,80,19.501,80,17c0-6.065-4.935-11-11-11H54c-6.065,0-11,4.935-11,11c0,2.037,0.57,4.002,1.596,5.695 c-0.691,0.368-1.33,0.841-1.899,1.41l-0.615,0.615c-1.358-0.56-2.771-0.989-4.212-1.276c-1.439-1.36-3.049-2.485-4.795-3.348 C30.261,18.705,27.123,18,23.75,18c-3.213,0-6.682,0.652-10.309,1.937c-3.514,1.245-5.686,4.703-5.281,8.41l0.003,0.03l0.004,0.03 l0.012,0.099l0.003,0.024l0.005,0.036l0.004,0.032l0.001,0.01c0.338,2.967,1.017,5.653,2.027,8.038C7.089,38.586,5,42.054,5,46 c0,3.633,1.812,6.989,4.703,9.016l0.35,1.208l8.218,28.39C19.87,90.141,25.005,94,30.758,94h37.484 c5.753,0,10.888-3.859,12.487-9.385l8.218-28.39l0.132-0.455C92.645,53.927,95,50.221,95,46C95,39.935,90.065,35,84,35z"/><path fill="#739f4d" d="M17.074,41.473l4.021-5.553l4.787,6c0,0-2.617,2.234-2.809,2.234c-0.191,0-6.383-1.309-6.383-1.309 L17.074,41.473z"/><path fill="#739f4d" d="M37.277,39.571c0,0-1.965-18.896-21.164-12.094C18.229,47.13,37.277,39.571,37.277,39.571z"/><path fill="#96c362" d="M37.277,39.571c0,0-1.965-18.896-21.164-12.094c0.003,0.025,0.006,0.049,0.009,0.074L36.569,39.82 C37.021,39.672,37.277,39.571,37.277,39.571z"/><path fill="#d9eeff" d="M69,17H54v7c-0.239,0.957-3.274,3.831-4.915,7C46.807,35.401,47,40.736,47,45.691V81c0,2.761,2.239,5,5,5 l19-20c2.761,0,5-2.239,5-5V45.691c0-4.955-1.186-9.839-3.464-14.24C70.895,28.282,69.239,24.957,69,24V17z"/><path fill="#70bfff" d="M69,20H54c-1.657,0-3-1.343-3-3v0c0-1.657,1.343-3,3-3h15c1.657,0,3,1.343,3,3v0C72,18.657,70.657,20,69,20z"/><path fill="#fff" d="M47,45.691V61c0,2.761,2.239,5,5,5h19c2.761,0,5-2.239,5-5V45.691c0-4.382-0.931-8.706-2.721-12.691H49.721 C47.931,36.985,47,41.31,47,45.691z"/><path fill="#ef8630" d="M50.617,45.5c0,8.008-9.139,14.5-17.148,14.5s-14.5-6.492-14.5-14.5S25.461,31,33.469,31 S50.617,37.492,50.617,45.5z"/><polygon fill="#ffe385" points="45.659,63.548 27.952,45.841 46.341,27.452 65,45"/><path fill="#739f4d" d="M15,48l10.551,34.39c0.629,2.138,2.619,3.61,4.882,3.61h38.101c2.263,0,4.253-1.472,4.882-3.61L84,48H15z"/><path fill="#96c362" d="M84.5,49h-69c-1.381,0-2.5-1.119-2.5-2.5v-0.984C13,44.126,14.126,43,15.516,43h68.968 C85.874,43,87,44.126,87,45.516V46.5C87,47.881,85.881,49,84.5,49z"/><rect width="6" height="18" x="31" y="59" fill="#ef8630"/><rect width="6" height="18" x="62" y="59" fill="#fff"/><rect width="6" height="18" x="52" y="59" fill="#fff"/><rect width="6" height="18" x="41" y="59" fill="#ef8630"/><polygon fill="#40396e" points="82.03,54 84,49 15.383,49 17.764,54" opacity=".35"/><path fill="none" d="M84,42h-7.219c-0.02-0.167-0.043-0.333-0.067-0.5l-0.024-0.175c-0.046-0.335-0.094-0.669-0.151-1.001 c-0.047-0.278-0.101-0.556-0.156-0.833c-0.06-0.305-0.124-0.609-0.193-0.912c-0.067-0.292-0.137-0.584-0.212-0.874 c-0.073-0.281-0.151-0.561-0.231-0.84c-0.087-0.302-0.175-0.605-0.271-0.906c-0.071-0.222-0.148-0.442-0.224-0.662l-0.037-0.106 l-0.042-0.12c-0.095-0.274-0.19-0.547-0.294-0.818c-0.061-0.159-0.126-0.316-0.192-0.474l-0.084-0.202 c-0.402-0.982-0.788-1.828-1.181-2.586c-2.635-5.089-3.273-6.654-3.424-7.131v-2.988c1.723-0.445,3-2.013,3-3.873 c0-2.206-1.794-4-4-4H54c-2.206,0-4,1.794-4,4c0,1.86,1.277,3.428,3,3.873v2.988c-0.141,0.446-0.709,1.845-2.94,6.193 l-0.999-0.999c-0.195-0.195-0.451-0.293-0.707-0.293s-0.512,0.098-0.707,0.293l-4.408,4.408c-2.502-2.026-5.579-3.224-8.799-3.419 c-0.119-0.151-0.237-0.296-0.356-0.435c-0.218-0.255-0.446-0.504-0.678-0.739c-1.02-1.035-2.175-1.875-3.434-2.498 C28.131,25.461,26.038,25,23.75,25c-2.415,0-5.097,0.516-7.971,1.535c-0.437,0.155-0.71,0.59-0.66,1.051 c0.001,0.007,0.006,0.052,0.007,0.059c0.002,0.013,0.004,0.026,0.006,0.038c0.525,4.727,2.063,8.346,4.575,10.77 c-0.576,1.125-1.01,2.313-1.294,3.547H16c-2.206,0-4,1.794-4,4c0,2.047,1.545,3.739,3.53,3.973l9.465,32.696 C25.733,85.219,28.103,87,30.758,87h37.484c2.655,0,5.025-1.781,5.763-4.332L83.462,50H84c2.206,0,4-1.794,4-4S86.206,42,84,42z"/><path fill="#40396e" d="M68.242,89H30.758c-3.54,0-6.699-2.375-7.684-5.775l-9.146-31.593C11.604,50.776,10,48.541,10,46 c0-3.309,2.691-6,6-6h0.897c0.131-0.394,0.274-0.782,0.433-1.165c-2.263-2.682-3.668-6.334-4.18-10.877 c-0.002-0.014-0.021-0.161-0.021-0.161c-0.149-1.386,0.665-2.68,1.979-3.146c6.135-2.174,11.48-2.184,15.749-0.071 c1.461,0.723,2.797,1.693,3.973,2.887c0.207,0.21,0.411,0.431,0.611,0.657c1.727,0.192,3.397,0.635,4.985,1.321l4.009-4.008 c1.117-1.117,3.125-1.117,4.242,0l0.977,0.977c0.842-1.709,1.197-2.531,1.345-2.901v-1.316c-1.83-1.059-3-3.031-3-5.195 c0-3.309,2.691-6,6-6h15c3.309,0,6,2.691,6,6c0,2.164-1.17,4.137-3,5.195v1.317c0.229,0.579,0.954,2.223,3.199,6.56 c0.425,0.818,0.823,1.69,1.255,2.744l0.079,0.19c0.093,0.224,0.156,0.378,0.215,0.533c0.104,0.272,0.202,0.551,0.299,0.829 l0.097,0.277c0.081,0.233,0.161,0.466,0.237,0.702c0.104,0.32,0.196,0.644,0.289,0.965c0.084,0.292,0.167,0.59,0.245,0.89 c0.08,0.314,0.153,0.621,0.225,0.929c0.074,0.323,0.142,0.646,0.206,0.971c0.059,0.297,0.115,0.592,0.165,0.887 c0.001,0.004,0.002,0.007,0.002,0.011H84c3.309,0,6,2.691,6,6c0,2.972-2.172,5.445-5.011,5.919l-9.063,31.306 C74.941,86.625,71.782,89,68.242,89z M16,43c-1.654,0-3,1.346-3,3c0,1.433,1.02,2.671,2.426,2.944 c0.552,0.107,0.997,0.516,1.153,1.056l9.376,32.391C26.57,84.516,28.546,86,30.758,86h37.484c2.212,0,4.188-1.484,4.803-3.609 l9.353-32.308C82.583,49.441,83.17,49,83.838,49H84c1.654,0,3-1.346,3-3s-1.346-3-3-3h-6.781c-0.757,0-1.395-0.563-1.488-1.313 l-0.031-0.218c-0.045-0.331-0.091-0.654-0.146-0.977c-0.046-0.271-0.099-0.538-0.151-0.808c-0.059-0.294-0.12-0.589-0.187-0.881 c-0.065-0.284-0.135-0.569-0.207-0.854c-0.068-0.265-0.144-0.535-0.222-0.806c-0.085-0.296-0.17-0.588-0.263-0.878 c-0.067-0.212-0.142-0.423-0.215-0.633l-0.08-0.233c-0.103-0.292-0.188-0.541-0.283-0.788c-0.051-0.132-0.104-0.26-0.156-0.388 l-0.109-0.262c-0.399-0.978-0.763-1.772-1.145-2.51c-1.928-3.722-3.122-6.206-3.456-7.186C69.027,24.11,69,23.947,69,23.782 v-2.539c0-0.635,0.4-1.201,0.999-1.414C71.195,19.405,72,18.268,72,17c0-1.654-1.346-3-3-3H54c-1.654,0-3,1.346-3,3 c0,1.268,0.805,2.405,2.001,2.829C53.6,20.042,54,20.608,54,21.243v2.539c0,0.165-0.027,0.329-0.081,0.485 c-0.274,0.804-1.145,2.656-2.517,5.356c-0.217,0.428-0.627,0.727-1.102,0.802c-0.47,0.079-0.957-0.081-1.296-0.421l-2.447-2.447 l-4.753,4.753c-0.459,0.46-1.161,0.569-1.74,0.276c-1.715-0.872-3.56-1.388-5.483-1.531c-0.411-0.031-0.792-0.23-1.052-0.55 l-0.203-0.244c-0.205-0.239-0.416-0.471-0.632-0.688c-0.941-0.956-2.006-1.731-3.166-2.305c-3.534-1.749-8.079-1.681-13.416,0.209 c0.002,0.02,0.011,0.09,0.013,0.109c0.485,4.329,1.846,7.666,4.046,9.917c0.442,0.452,0.554,1.133,0.278,1.702 c-0.412,0.851-0.74,1.749-0.978,2.668C19.302,42.537,18.704,43,18.02,43H16z"/></g></svg>