<svg xmlns="http://www.w3.org/2000/svg"  viewBox="0 0 100 100" width="50px" height="50px"><g id="Слой_2"><path d="M90.546,22.739c2.732-3.151,2.59-7.94-0.411-10.918C88.623,10.323,86.623,9.5,84.501,9.5c-1.947,0-3.786,0.69-5.24,1.954 C77.804,9.942,75.76,9,73.5,9h-8c-4.411,0-8,3.589-8,8c0,0.132,0.001,0.264,0.003,0.396c-1.178,0.386-2.257,1.046-3.159,1.948 l-7.182,7.182c-1.169,1.168-1.946,2.689-2.227,4.308c-0.251,0.197-0.491,0.411-0.72,0.64l-2.692,2.692 c-0.749-0.228-1.535-0.346-2.34-0.346c-2.137,0-4.145,0.832-5.657,2.343l-6.364,6.363c-1.49,1.49-2.344,3.551-2.344,5.657 c0,1.63,0.512,3.234,1.434,4.566c-0.219,0.386-0.408,0.794-0.564,1.219l-2.403,6.574c-0.502,1.371-0.603,2.792-0.364,4.135 c-1.097-0.55-2.315-0.84-3.578-0.84c-2.137,0-4.145,0.832-5.657,2.343c-3.391,3.391-5.072,8.075-4.613,12.851 c0.46,4.777,3.026,9.069,7.042,11.776c2.618,1.766,5.69,2.701,8.884,2.701c3.198-0.002,6.271-0.936,8.887-2.702 c3.632-2.45,6.005-6.177,6.807-10.248c0.989-0.101,1.959-0.387,2.844-0.841l6.227-3.195c0.135-0.069,0.267-0.142,0.397-0.219 c1.117,0.575,2.363,0.88,3.655,0.88c2.137,0,4.145-0.832,5.657-2.343l6.364-6.363c1.49-1.49,2.344-3.552,2.344-5.657 c0-0.22-0.009-0.44-0.028-0.659l3.374-3.374c0.95-0.95,1.62-2.085,1.995-3.295c0.521-0.323,1.007-0.708,1.451-1.152l7.182-7.182 c0.765-0.765,1.363-1.682,1.763-2.678c0.359,0.014,0.72,0.021,1.08,0.021c4.411,0,8-3.589,8-8v-8 C93,26.24,92.058,24.196,90.546,22.739z M24.995,77.473c0.002,0.004,0.003,0.009,0.005,0.013c0.001,0,0.001,0,0.001,0 c0.001,0,0,0.002-0.003,0.006c-0.007-0.007-0.01-0.011-0.01-0.011C24.99,77.478,24.993,77.476,24.995,77.473z" opacity=".35"/><path fill="#f2f2f2" d="M88.546,20.739c2.732-3.151,2.59-7.94-0.411-10.918C86.623,8.323,84.623,7.5,82.501,7.5 c-1.947,0-3.786,0.69-5.24,1.954C75.804,7.942,73.76,7,71.5,7h-8c-4.411,0-8,3.589-8,8c0,0.132,0.001,0.264,0.003,0.396 c-1.178,0.386-2.257,1.046-3.159,1.948l-7.182,7.182c-1.169,1.168-1.946,2.689-2.227,4.308c-0.251,0.197-0.491,0.411-0.72,0.64 l-2.692,2.692c-0.749-0.228-1.535-0.346-2.34-0.346c-2.137,0-4.145,0.832-5.657,2.343l-6.364,6.363 c-1.49,1.49-2.344,3.551-2.344,5.657c0,1.63,0.512,3.234,1.434,4.566c-0.219,0.386-0.408,0.794-0.564,1.219l-2.403,6.574 c-0.502,1.371-0.603,2.792-0.364,4.135c-1.097-0.55-2.315-0.84-3.578-0.84c-2.137,0-4.145,0.832-5.657,2.343 C8.296,67.57,6.614,72.254,7.074,77.03c0.46,4.777,3.026,9.069,7.042,11.776c2.618,1.766,5.69,2.701,8.884,2.701 c3.198-0.002,6.271-0.936,8.887-2.702c3.632-2.45,6.005-6.177,6.807-10.248c0.989-0.101,1.959-0.387,2.844-0.841l6.227-3.195 c0.135-0.069,0.267-0.142,0.397-0.219c1.117,0.575,2.363,0.88,3.655,0.88c2.137,0,4.145-0.832,5.657-2.343l6.364-6.363 c1.49-1.49,2.344-3.552,2.344-5.657c0-0.22-0.009-0.44-0.028-0.659l3.374-3.374c0.95-0.95,1.62-2.085,1.995-3.295 c0.521-0.323,1.007-0.708,1.451-1.152l7.182-7.182c0.765-0.765,1.363-1.682,1.763-2.678c0.359,0.014,0.72,0.021,1.08,0.021 c4.411,0,8-3.589,8-8v-8C91,24.24,90.058,22.196,88.546,20.739z M22.995,75.473c0.002,0.004,0.003,0.009,0.005,0.013 c0.001,0,0.001,0,0.001,0c0.001,0,0,0.002-0.003,0.006c-0.007-0.007-0.01-0.011-0.01-0.011 C22.99,75.478,22.993,75.476,22.995,75.473z"/><path fill="#40396e" d="M23,85.007c-1.84,0-3.68-0.53-5.25-1.59c-2.4-1.618-3.933-4.174-4.206-7.01 c-0.273-2.837,0.725-5.618,2.739-7.632c0.586-0.586,1.535-0.586,2.121,0s0.586,1.535,0,2.121 c-1.377,1.378-2.061,3.281-1.874,5.224c0.189,1.97,1.218,3.678,2.897,4.811c2.137,1.441,5.009,1.441,7.146,0 c2.526-1.704,3.556-4.756,2.562-7.593c-0.976-2.787-0.34-5.791,1.66-7.84l50.641-51.055c0.584-0.587,1.533-0.592,2.121-0.009 c0.588,0.584,0.592,1.533,0.009,2.122L32.932,67.603c-1.19,1.219-1.563,3.04-0.967,4.743c1.43,4.079-0.098,8.632-3.715,11.071 C26.681,84.477,24.84,85.006,23,85.007z"/><rect width="23.335" height="10.157" x="50.992" y="29.763" fill="#d47f56" transform="rotate(45.001 62.66 34.84)"/><path fill="#40396e" d="M67.318,48.182c-0.384,0-0.768-0.146-1.061-0.439l-16.5-16.5c-0.281-0.281-0.439-0.663-0.439-1.061 s0.158-0.779,0.439-1.061l7.182-7.182c0.586-0.586,1.535-0.586,2.121,0l16.5,16.5C75.842,38.721,76,39.103,76,39.5 s-0.158,0.779-0.439,1.061l-7.182,7.182C68.085,48.035,67.702,48.182,67.318,48.182z M52.939,30.182l14.378,14.379l5.061-5.061 L58,25.121L52.939,30.182z"/><rect width="29.698" height="9" x="29.651" y="49" fill="#d47f56" transform="rotate(45.001 44.5 53.5)"/><path fill="#40396e" d="M51.818,68.682c-0.384,0-0.768-0.146-1.061-0.439l-21-21c-0.281-0.281-0.439-0.663-0.439-1.061 s0.158-0.779,0.439-1.061l6.364-6.363c0.586-0.586,1.535-0.586,2.121,0l21,21c0.281,0.281,0.439,0.663,0.439,1.061 s-0.158,0.779-0.439,1.061l-6.364,6.363C52.585,68.535,52.202,68.682,51.818,68.682z M32.939,46.182l18.878,18.879l4.243-4.242 L37.182,41.939L32.939,46.182z"/><path fill="#dd4f2c" d="M83,34.5c-10.752,0-19.5-8.748-19.5-19.5h8c0,6.341,5.159,11.5,11.5,11.5V34.5z"/><path fill="#40396e" d="M83,36c-11.58,0-21-9.421-21-21c0-0.828,0.671-1.5,1.5-1.5h8c0.829,0,1.5,0.672,1.5,1.5 c0,5.514,4.486,10,10,10c0.829,0,1.5,0.672,1.5,1.5v8C84.5,35.328,83.829,36,83,36z M65.062,16.5 c0.724,8.731,7.707,15.714,16.438,16.438v-5.024c-5.973-0.689-10.725-5.441-11.414-11.414H65.062z"/><path fill="#ffe385" d="M41,69c-1.674-3.262-7.808-9.833-11-11"/><path fill="#40396e" d="M39.666,69.685c-1.573-3.065-7.515-9.301-10.181-10.275l1.03-2.818c3.684,1.347,10.061,8.297,11.819,11.725 L39.666,69.685z"/><path fill="#ffe385" d="M37.886,70.598c-1.45-2.824-7.055-8.567-9.088-9.311l2.403-6.574c4.273,1.562,10.971,8.905,12.912,12.689 L37.886,70.598z"/><path fill="#40396e" d="M37.887,72.098c-0.544,0-1.07-0.297-1.335-0.815c-1.344-2.618-6.714-8.019-8.269-8.586 c-0.778-0.285-1.178-1.146-0.894-1.924l2.403-6.574c0.137-0.374,0.416-0.678,0.777-0.846s0.773-0.186,1.147-0.049 c4.654,1.702,11.639,9.335,13.731,13.414c0.378,0.737,0.087,1.641-0.65,2.02l-6.228,3.195 C38.352,72.045,38.118,72.098,37.887,72.098z M30.642,60.614c2.42,1.661,5.984,5.398,7.792,8.017l3.581-1.837 c-2.13-3.254-6.572-8.035-9.971-10.017L30.642,60.614z"/><g><rect width="22.627" height="6" x="42.436" y="42.25" fill="#96c362" transform="rotate(45.001 53.75 45.25)"/><path fill="#40396e" d="M59.629,56.871c-0.384,0-0.768-0.146-1.061-0.439l-16-16c-0.586-0.586-0.586-1.535,0-2.121l4.242-4.242 c0.586-0.586,1.535-0.586,2.121,0l16,16c0.586,0.586,0.586,1.535,0,2.121l-4.242,4.242C60.396,56.725,60.013,56.871,59.629,56.871 z M45.75,39.371L59.629,53.25l2.121-2.121L47.871,37.25L45.75,39.371z"/></g><g><circle cx="65" cy="37" r="1" fill="#ffb789"/></g><g><circle cx="40" cy="49" r="1" fill="#ffb789"/></g><g><circle cx="67.5" cy="39.5" r="1.5" fill="#ffb789"/></g><g><circle cx="37.5" cy="46.5" r="1.5" fill="#ffb789"/></g></g></svg>