<svg xmlns="http://www.w3.org/2000/svg"  viewBox="0 0 100 100" width="100px" height="100px"><path d="M52,96.193c-24.59,0-40.479-13.896-40.479-35.402c0-11.576,4.427-23.398,12.154-32.479 c0.396-0.567,1.379-1.966,3.884-5.526c3.332-6.22,15.047-7.549,24.441-7.549c0.807,0,1.613,0.012,2.417,0.036 c3.262-5.319,7.485-8.551,14.867-11.644l0.141-0.059c1.012-0.452,2.136-0.691,3.26-0.691c2.412,0,4.663,1.039,6.177,2.85 l0.949,1.139c1.98,2.373,2.412,5.717,1.101,8.517c-0.732,1.562-1.961,2.854-3.48,3.666c-0.764,0.475-1.534,1.117-2.292,1.903 c0.418,0.45,0.779,0.93,1.084,1.44c3.257,4.581,4.337,6.112,4.773,6.744c7.299,8.998,11.482,20.522,11.482,31.653 C92.479,82.297,76.59,96.193,52,96.193z" opacity=".35"/><path fill="#f2f2f2" d="M50,94.193c-24.59,0-40.479-13.896-40.479-35.402c0-11.576,4.427-23.398,12.154-32.479 c0.396-0.567,1.379-1.966,3.884-5.526c3.332-6.22,15.047-7.549,24.441-7.549c0.807,0,1.613,0.012,2.417,0.036 c3.262-5.319,7.485-8.551,14.867-11.644l0.141-0.059c1.012-0.452,2.136-0.691,3.26-0.691c2.412,0,4.663,1.039,6.177,2.85 l0.949,1.139c1.98,2.373,2.412,5.717,1.101,8.517c-0.732,1.562-1.961,2.854-3.48,3.666c-0.764,0.475-1.534,1.117-2.292,1.903 c0.418,0.45,0.779,0.93,1.084,1.44c3.257,4.581,4.337,6.112,4.773,6.744c7.299,8.998,11.482,20.522,11.482,31.653 C90.479,80.297,74.59,94.193,50,94.193z"/><path fill="#d47f56" d="M83.979,58.791c0,19.598-15.29,28.903-33.979,28.903s-33.979-9.304-33.979-28.903 c0-11.482,5.097-23.162,13.214-31.08c4.53-0.594,36.999-0.594,41.718,0.198C78.882,35.827,83.979,47.309,83.979,58.791z"/><path fill="#d9eeff" d="M74.774,30.389c0.838,1.183,0.273,1.953-0.984,2.545c-2.931,1.577-9.841,4.791-23.66,4.791 s-21.309-3.358-24.45-4.936c-1.256-0.592-0.375-1.68,0.253-2.863l4.476-6.473l39.286-0.192L74.774,30.389z"/><path fill="#d9eeff" d="M68.877,24.455c0-2.643-8.495-4.719-18.877-4.719s-18.877,2.076-18.877,4.719 S39.618,29.174,50,29.174S68.877,27.098,68.877,24.455z"/><path fill="#70bfff" d="M66.574,25.562c0-1.51-7.305-2.832-16.234-2.832s-16.234,1.321-16.234,2.832 s7.305,2.832,16.234,2.832S66.574,27.072,66.574,25.562z"/><path fill="#707cc0" d="M71.566,9.038l-0.648-0.777c-0.199-0.238-0.495-0.364-0.795-0.364c-0.152,0-0.306,0.032-0.448,0.099 c-0.036,0.017-0.098,0.043-0.184,0.078c-5.744,2.406-9.361,6.324-11.172,11.053c-0.303,0.638-3.75,7.955-4.021,9.194 c2.002-0.104,3.884-0.254,5.554-0.483c0.965-7.177,6.382-14.031,11.341-17.2c0.223-0.099,0.408-0.276,0.515-0.505 C71.877,9.772,71.822,9.345,71.566,9.038z"/><path fill="#40396e" d="M50,89.193c-21.884,0-35.479-11.649-35.479-30.402c0-10.484,4.051-21.204,11.115-29.418 c0.275-0.397,1.166-1.664,4.233-6.024c2.135-4.967,18.27-5.112,20.131-5.112c1.775,0,3.551,0.062,5.292,0.188 c2.999-6.102,6.404-9.033,13.924-12.183l0.213-0.09c1.21-0.562,2.75-0.229,3.597,0.784l0.944,1.133 c0.743,0.891,0.905,2.145,0.413,3.194c-0.291,0.621-0.787,1.124-1.402,1.425l-0.037,0.022c-2.496,1.484-4.96,4.147-7.052,7.593 c2.16,0.759,3.516,1.68,4.117,2.793c3.625,5.099,4.658,6.565,4.978,7.038c6.668,8.146,10.491,18.589,10.491,28.657 C85.479,77.544,71.884,89.193,50,89.193z M28.049,31.153c-0.032,0.047-0.066,0.092-0.103,0.135 c-6.625,7.684-10.425,17.708-10.425,27.503c0,20.204,16.777,27.402,32.479,27.402s32.479-7.198,32.479-27.402 c0-9.398-3.585-19.162-9.835-26.785c-0.041-0.051-0.079-0.104-0.113-0.158c-0.261-0.39-3.137-4.441-5.027-7.101 c-0.049-0.069-0.093-0.143-0.129-0.22c-0.004-0.009-0.488-0.94-4.095-1.883c-0.445-0.116-0.812-0.43-0.996-0.852 s-0.164-0.904,0.054-1.31c2.521-4.694,5.744-8.371,9.075-10.352c0.058-0.036,0.191-0.112,0.254-0.14l-0.941-1.134 c-0.088,0.041-0.2,0.089-0.354,0.152c-7.242,3.033-9.995,5.531-12.805,11.618c-0.265,0.573-0.858,0.923-1.491,0.865 c-1.986-0.171-4.03-0.258-6.074-0.258c-10.662,0-16.885,2.111-17.373,3.293c-0.046,0.143-0.112,0.272-0.198,0.396 C32.429,24.925,28.228,30.897,28.049,31.153z"/></svg>