<svg xmlns="http://www.w3.org/2000/svg"  viewBox="0 0 100 100" width="100px" height="100px"><path d="M28.5,99c-2.017,0-3.95-0.958-5.171-2.562c-1.221-1.604-1.63-3.722-1.095-5.666l8.276-30 c0.281-1.022,0.802-1.932,1.49-2.676v-0.192c-0.791-0.855-1.358-1.927-1.598-3.129l-2.268-11.332L12.887,28.079 c-1.855-1.868-2.4-4.646-1.387-7.078c1.013-2.43,3.368-4,6-4h11.773l14.73-5.764C44.144,6.119,48.35,2,53.5,2 c5.238,0,9.5,4.262,9.5,9.5L75.834,17h7.296c5.125,0,9.476,3.666,10.347,8.716l4.428,25.68c0.326,1.892-0.195,3.82-1.432,5.29 C95.233,58.157,93.421,59,91.5,59h-6c-3.168,0-5.861-2.265-6.404-5.386l-1.941-11.161L74.589,54.82 C74.344,56.002,73.78,57.056,73,57.9v0.196c0.688,0.744,1.209,1.655,1.491,2.677l8.275,29.999c0.536,1.944,0.127,4.062-1.094,5.667 C80.45,98.042,78.517,99,76.5,99H28.5z" opacity=".35"/><path fill="#f2f2f2" d="M26.5,97c-2.017,0-3.95-0.958-5.171-2.562c-1.221-1.604-1.63-3.722-1.095-5.666l8.276-30 c0.281-1.022,0.802-1.932,1.49-2.676v-0.192c-0.791-0.855-1.358-1.927-1.598-3.129l-2.268-11.332L10.887,26.079 C9.032,24.211,8.487,21.432,9.5,19c1.013-2.43,3.368-4,6-4h11.773l14.73-5.764C42.144,4.119,46.35,0,51.5,0 C56.738,0,61,4.262,61,9.5L73.834,15h7.296c5.125,0,9.476,3.666,10.347,8.716l4.428,25.68c0.326,1.892-0.195,3.82-1.432,5.29 C93.233,56.157,91.421,57,89.5,57h-6c-3.168,0-5.861-2.265-6.404-5.386l-1.941-11.161L72.589,52.82 C72.344,54.002,71.78,55.056,71,55.9v0.196c0.688,0.744,1.209,1.655,1.491,2.677l8.275,29.999c0.536,1.944,0.127,4.062-1.094,5.667 C78.45,96.042,76.517,97,74.5,97H26.5z"/><polygon fill="#707cc0" points="16.07,22.07 33,22 37,44 31,38"/><path fill="#707cc0" d="M69.713,21.5l11.417,0c1.947,0,3.611,1.402,3.942,3.32L89.5,50.5h-6l-4-23l-11.961-0.245 L69.713,21.5z"/><polygon fill="#9aa2e6" points="64.758,51.5 36.292,51.5 30.017,21.5 71.034,21.5"/><polygon fill="#9aa2e6" points="66.225,60.5 34.775,60.5 26.5,90.5 74.5,90.5"/><rect width="29" height="12" x="36" y="50" fill="#707cc0"/><path fill="none" stroke="#40396e" stroke-linecap="round" stroke-linejoin="round" stroke-miterlimit="10" stroke-width="3" d="M85.072,24.82c-0.331-1.919-1.995-3.32-3.942-3.32H72.5l-21-9l-23,9h-13l16.625,16.751L34.775,51.5H36.5v9h-1.725l-8.275,30h48 l-8.275-30H64.5v-9h1.725l5.03-24.245L79.5,27.5l4,23h6L85.072,24.82z"/><circle cx="51.5" cy="9.5" r="4.5" fill="#40396e"/><polygon fill="#40396e" points="28,23 74,23 51.5,12.225"/></svg>