<svg xmlns="http://www.w3.org/2000/svg"  viewBox="0 0 100 100" width="100px" height="100px"><path fill="#d1d1d1" d="M36.712,100C31.908,100,28,96.092,28,91.288c0-4.079,2.895-7.661,6.884-8.519L41,81.342v-3.942 c-4.116-1.514-7.77-4.047-10.656-7.399h-4.142C17.269,70,10,62.731,10,53.798V44.5C10,38.71,14.71,34,20.5,34H24v-9.5 c0-3.584,2.916-6.5,6.5-6.5h22.808C56.437,9.206,64.894,3,74.502,3c12.407,0,22.502,10.094,22.502,22.5 c0,11.903-9.292,21.677-21.004,22.451V53c0,10.66-6.41,20.03-16,23.997v4.345l6.229,1.453C70.116,83.629,73,87.209,73,91.288 c0,4.804-3.908,8.712-8.712,8.712H36.712z"/><path fill="#f2f2f2" d="M34.712,98C29.908,98,26,94.092,26,89.288c0-4.079,2.895-7.661,6.884-8.519L39,79.342v-3.942 c-4.116-1.514-7.77-4.047-10.656-7.399h-4.142C15.269,68,8,60.731,8,51.798V42.5C8,36.71,12.71,32,18.5,32H22v-9.5 c0-3.584,2.916-6.5,6.5-6.5h22.808C54.437,7.206,62.894,1,72.502,1c12.407,0,22.502,10.094,22.502,22.5 c0,11.903-9.292,21.677-21.004,22.451V51c0,10.66-6.41,20.03-16,23.997v4.345l6.229,1.453C68.116,81.629,71,85.209,71,89.288 C71,94.092,67.092,98,62.288,98H34.712z"/><path fill="#70bfff" d="M72.502,7.5c-8.486,0-15.431,6.644-15.952,15H28.5v16h-10c-2.209,0-4,1.791-4,4v9.298 c0,5.358,4.344,9.702,9.702,9.702h7.383c3.041,4.743,8.068,8.089,13.914,8.839V84.5l-11.252,2.625 c-1.02,0.219-1.748,1.12-1.748,2.163c0,1.222,0.99,2.212,2.212,2.212h27.576c1.222,0,2.212-0.99,2.212-2.212 c0-1.043-0.729-1.944-1.748-2.163L51.5,84.5V70.169c9.097-1.651,16-9.597,16-19.169V38.688c1.576,0.52,3.254,0.812,5.002,0.812 c8.824,0,16.002-7.178,16.002-16C88.504,14.678,81.325,7.5,72.502,7.5z M24.202,55.5c-2.041,0-3.702-1.661-3.702-3.702V44.5h8V51 c0,1.552,0.2,3.053,0.543,4.5H24.202z"/><path fill="#ef8630" d="M72.502,38.996c-1.683,0-5.984,1.502-7.502,1.004c-0.967-0.317,0.787-2.499-0.086-2.991 c-4.035-2.275-6.955-6.305-7.715-11.046C57.07,25.16,56,24.838,56,24c0-8.544,7.956-15.996,16.502-15.996S88,14.956,88,23.5 S81.048,38.996,72.502,38.996z"/><circle cx="72.502" cy="23.5" r="11.501" fill="#ffc571"/><path fill="#fff6d9" d="M81.524,16.381l-7.52,4.517L73.999,12.1C73.506,12.031,73.012,12,72.5,12 c-0.509,0-1.012,0.031-1.502,0.098l0.007,8.805l-7.528-4.522c-0.613,0.788-1.158,1.633-1.539,2.572l7.563,4.545l-7.648,4.345 c0.382,0.938,0.878,1.821,1.493,2.607l7.66-4.357l-0.003,8.808C71.491,34.97,71.991,35,72.5,35c0.512,0,1.021-0.031,1.513-0.099 l-0.009-8.802l7.63,4.384c0.614-0.786,1.116-1.667,1.498-2.605l-7.633-4.38l7.566-4.545C82.686,18.015,82.137,17.169,81.524,16.381 z"/><path fill="#ff7575" d="M48,69c-9.925,0-18-8.075-18-18V24h36v27C66,60.925,57.925,69,48,69z"/><path fill="none" stroke="#40396e" stroke-linecap="round" stroke-linejoin="round" stroke-miterlimit="10" stroke-width="3" d="M72.502,7.5c-8.486,0-15.431,6.644-15.952,15H28.5v16h-10c-2.209,0-4,1.791-4,4v9.298c0,5.358,4.344,9.702,9.702,9.702h7.383 c3.041,4.743,8.068,8.089,13.914,8.839V84.5l-11.252,2.625c-1.02,0.219-1.748,1.12-1.748,2.163c0,1.222,0.99,2.212,2.212,2.212 h27.576c1.222,0,2.212-0.99,2.212-2.212c0-1.043-0.729-1.944-1.748-2.163L51.5,84.5V70.169c9.097-1.651,16-9.597,16-19.169V38.688 c1.576,0.52,3.254,0.812,5.002,0.812c8.824,0,16.002-7.178,16.002-16C88.504,14.678,81.325,7.5,72.502,7.5z M24.202,55.5 c-2.041,0-3.702-1.661-3.702-3.702V44.5h8V51c0,1.552,0.2,3.053,0.543,4.5H24.202z"/><rect width="36" height="15" x="30" y="24" fill="#70bfff"/><path fill="#40396e" d="M66,38.666V24h-9.975C56.223,30.587,60.266,36.205,66,38.666z" opacity=".35"/><path fill="none" stroke="#fff" stroke-linecap="round" stroke-linejoin="round" stroke-miterlimit="10" stroke-width="3" d="M39.589,59.892C37.055,57.23,35.5,53.628,35.5,49.663V28.5"/></svg>