<svg xmlns="http://www.w3.org/2000/svg"  viewBox="0 0 100 100" width="100px" height="100px"><g id="Слой_2"><path d="M98.464,23.522c-0.459-3.622-3.309-6.473-6.932-6.931c-0.337-0.043-3.423-0.417-7.901-0.417 c-9.606,0-27.045,1.845-35.921,14.2c-0.329,0.458-0.642,0.924-0.94,1.398c-0.047-0.117-0.094-0.234-0.142-0.351 C40.208,15.98,18.71,11.962,16.28,11.555c-0.437-0.073-0.882-0.11-1.324-0.11c-3.158,0-6.028,1.866-7.31,4.753 c-0.986,2.221-9.375,22.098-0.364,35.96c4.586,7.055,12.32,10.873,23.007,11.369c2.015,6.24,3.612,14.207,4.757,23.747 l0.082,0.685l0.113,0.275c0.117,0.426,0.276,0.836,0.477,1.227l0.086,0.168l0.094,0.155c0.343,0.584,0.763,1.102,1.252,1.542 l0.201,0.181l0.132,0.096c0.377,0.298,0.782,0.551,1.209,0.757l0.13,0.074l0.356,0.137c0.423,0.161,0.853,0.276,1.288,0.346 c0.043,0.007,0.088,0.014,0.133,0.021L40.828,93l0.67,0h0.194l0.002,0h0.539l0.246-0.073c0.388-0.058,0.805-0.164,1.214-0.31 l0.254-0.091l0.152-0.073c0.444-0.193,0.863-0.433,1.25-0.717l0.101-0.066l0.236-0.197c0.515-0.439,0.942-0.933,1.296-1.49 c0.071-0.108,0.137-0.218,0.202-0.334c0.207-0.373,0.375-0.766,0.505-1.175l0.116-0.255l0.114-0.682 c1.003-6.219,3.223-11.86,6.611-16.812c4.561,1.239,8.842,1.866,12.766,1.866c9.078,0,16.469-3.164,21.969-9.406 C101.352,49.467,98.795,26.137,98.464,23.522z" opacity=".35"/><path fill="#f2f2f2" d="M97.464,21.522c-0.459-3.622-3.309-6.473-6.932-6.931c-0.337-0.043-3.423-0.417-7.901-0.417 c-9.606,0-27.045,1.845-35.921,14.2c-0.329,0.458-0.642,0.924-0.94,1.398c-0.047-0.117-0.094-0.234-0.142-0.351 C39.208,13.98,17.71,9.962,15.28,9.555c-0.437-0.073-0.882-0.11-1.324-0.11c-3.158,0-6.028,1.866-7.31,4.753 c-0.986,2.221-9.375,22.098-0.364,35.96c4.586,7.055,12.32,10.873,23.007,11.369c2.015,6.24,3.612,14.207,4.757,23.747 l0.082,0.685l0.113,0.275c0.117,0.426,0.276,0.836,0.477,1.227l0.086,0.168l0.094,0.155c0.343,0.584,0.763,1.102,1.252,1.542 l0.201,0.181l0.132,0.096c0.377,0.298,0.782,0.551,1.209,0.757l0.13,0.074l0.356,0.137c0.423,0.161,0.853,0.276,1.288,0.346 c0.043,0.007,0.088,0.014,0.133,0.021L39.828,91l0.67,0h0.194l0.002,0h0.539l0.246-0.073c0.388-0.058,0.805-0.164,1.214-0.31 l0.254-0.091l0.152-0.073c0.444-0.193,0.863-0.433,1.25-0.717l0.101-0.066l0.236-0.197c0.515-0.439,0.942-0.933,1.296-1.49 c0.071-0.108,0.137-0.218,0.202-0.334c0.207-0.373,0.375-0.766,0.505-1.175l0.116-0.255l0.114-0.682 c1.003-6.219,3.223-11.86,6.611-16.812c4.561,1.239,8.842,1.866,12.766,1.866c9.078,0,16.469-3.164,21.969-9.406 C100.352,47.467,97.795,24.137,97.464,21.522z"/><path fill="#40396e" d="M75.945,45.1c-0.221-0.798-1.046-1.266-1.844-1.046c-0.273,0.076-25.009,7.203-33.207,32.448 C36.06,46.365,27.467,42.874,26.431,42.563c-0.794-0.239-1.654,0.204-1.892,0.998c-0.238,0.793,0.188,1.621,0.982,1.859 c0.092,0.035,9.243,3.868,13.49,39.258c0.002,0.014,0.01,0.024,0.012,0.038c0.024,0.164,0.072,0.32,0.146,0.464 c0.011,0.021,0.023,0.04,0.035,0.06c0.079,0.138,0.176,0.265,0.295,0.372c0.012,0.011,0.025,0.019,0.038,0.029 c0.124,0.105,0.263,0.193,0.419,0.254c0.004,0.001,0.006,0.004,0.01,0.005c0.094,0.036,0.193,0.063,0.296,0.079 c0.079,0.013,0.156,0.019,0.234,0.019c0.001,0,0.002,0.001,0.003,0.001c0.001,0,0.002,0,0.002,0c0.001,0,0.001,0,0.002,0 c0.001,0,0.001,0,0.002,0c0.058,0,0.116-0.003,0.175-0.01c0.115-0.014,0.223-0.043,0.327-0.08c0.016-0.006,0.03-0.014,0.046-0.021 c0.148-0.059,0.284-0.137,0.404-0.236c0.005-0.004,0.011-0.007,0.016-0.011c0.121-0.103,0.22-0.227,0.302-0.362 c0.012-0.019,0.025-0.036,0.036-0.056c0.076-0.137,0.127-0.287,0.157-0.444c0.003-0.015,0.012-0.026,0.014-0.041 C46.763,55.093,74.62,47.023,74.9,46.945C75.698,46.724,76.166,45.897,75.945,45.1z"/><path fill="#96c362" d="M13.958,17.445c0,0-16.564,37.292,19.418,36.11C54.202,24.189,13.958,17.445,13.958,17.445z"/><path fill="#40396e" d="M13.958,17.445c0,0,40.244,6.745,19.418,36.11c-0.562,0.018-1.109,0.028-1.646,0.028 C-2.09,53.583,13.958,17.445,13.958,17.445 M13.956,14.445c-1.17,0-2.253,0.686-2.741,1.783 c-0.348,0.785-8.446,19.354-0.741,31.205c3.947,6.072,11.098,9.15,21.255,9.15c0.569,0,1.149-0.01,1.745-0.029 c0.937-0.031,1.806-0.498,2.349-1.263c6.335-8.932,8.08-16.99,5.187-23.95C35.531,18.16,15.312,14.63,14.454,14.486 C14.287,14.458,14.121,14.445,13.956,14.445L13.956,14.445z"/><path fill="#96c362" d="M89.527,22.527c0,0-52.24-6.616-37.412,37.412C96.143,74.768,89.527,22.527,89.527,22.527z"/><path fill="#40396e" d="M82.631,22.174c4.105,0,6.896,0.353,6.896,0.353s5.075,40.062-23.233,40.062c-4.017,0-8.708-0.807-14.179-2.65 C40.712,26.083,68.967,22.174,82.631,22.174 M82.631,19.174c-8.648,0-24.286,1.574-31.86,12.117 c-5.182,7.213-5.686,17.174-1.499,29.606c0.299,0.889,0.997,1.586,1.886,1.886c5.53,1.862,10.623,2.807,15.137,2.807 c7.579,0,13.709-2.594,18.218-7.711c10.82-12.277,8.112-34.776,7.991-35.728c-0.172-1.358-1.242-2.427-2.6-2.599 C89.782,19.536,86.876,19.174,82.631,19.174L82.631,19.174z"/><path fill="#739f4d" d="M52.115,59.94c44.028,14.828,37.412-37.412,37.412-37.412s-0.018-0.002-0.049-0.006L52.102,59.898 C52.106,59.912,52.11,59.926,52.115,59.94z"/><path fill="#739f4d" d="M13.906,17.564c-0.974,2.275-15.271,36.984,19.253,35.995L13.906,17.564z"/></g></svg>