<svg xmlns="http://www.w3.org/2000/svg"  viewBox="0 0 100 100" width="100px" height="100px"><g id="Слой_2"><path d="M91.447,44.286c-1.32-2.012-3.378-3.477-5.773-4.036c-0.363-0.349-0.799,1.253-1.313,0.844 C82.976,37.524,79.488,33,75.496,33c-3.54,0-6.16,1.192-8.002,2.457C65.651,34.191,63.031,33,59.493,33 c-3.538,0-6.158,1.191-8,2.456c-1.08-0.741-2.434-1.45-4.076-1.916c15.714-2.049,41.164-5.066,41.164-5.066 c3.569-0.321,6.213-3.485,5.894-7.053c-0.119-1.325-0.643-2.535-1.44-3.511c0.794-1.283,1.114-2.79,0.904-4.303 c-0.447-3.199-3.211-5.608-6.431-5.608h0c-0.308,0-0.62,0.022-0.925,0.066l-55.384,7.692C30.481,15.586,29.746,15.5,29,15.5 c-0.42,0-0.839,0.028-1.253,0.083c-0.41-0.054-0.825-0.081-1.242-0.081c-0.506,0-1.007,0.039-1.5,0.118 c-0.496-0.079-0.998-0.12-1.504-0.12c-2.207,0-4.332,0.782-6.013,2.162l-2.881,0.4c-1.717,0.237-3.242,1.131-4.29,2.517 c-1.047,1.385-1.492,3.094-1.254,4.813c0.053,0.381,0.139,0.75,0.255,1.106c-0.263,0.808-0.371,1.681-0.29,2.58 c0.117,1.302,0.602,2.48,1.348,3.436c-0.25,1.224-0.374,2.5-0.374,3.839c0,3.309,0.748,5.808,1.65,7.713 c-2.213,0.288-4.226,1.493-5.522,3.345c-1.494,2.129-1.856,4.868-0.966,7.32c0.255,0.702,0.539,1.419,0.892,2.257l0.215,0.501 c0.347,0.795,0.666,1.486,0.987,2.139c0.389,0.787,0.781,1.527,1.236,2.335l0.106,0.186c0.417,0.733,0.855,1.462,1.296,2.153 C14.861,72.077,21.658,75.094,30,79l1.19,6.736C32.012,89.425,35.224,92,39,92h24c3.449,0,6.499-2.198,7.589-5.47l1.493-4.477 c8.119-3.919,15.17-10.152,20.021-17.745c0.438-0.684,0.877-1.413,1.339-2.226l0.049-0.085c0.48-0.853,0.871-1.594,1.256-2.375 c0.314-0.634,0.633-1.325,0.974-2.108l0.21-0.488c0.329-0.779,0.595-1.449,0.804-2.019c0.389-0.957,0.587-1.968,0.587-3.007 C97.322,48.323,94.83,45.218,91.447,44.286z" opacity=".35"/><path fill="#f2f2f2" d="M89,43c-1.32-2.012-2.931-4.191-5.326-4.75c-0.363-0.349-0.799-0.747-1.313-1.156 C80.976,33.524,77.488,31,73.496,31c-3.54,0-6.16,1.192-8.002,2.457C63.651,32.191,61.031,31,57.493,31 c-3.538,0-6.158,1.191-8,2.456c-1.08-0.741-2.434-1.45-4.076-1.916c15.714-2.049,41.164-5.066,41.164-5.066 c3.569-0.321,6.213-3.485,5.894-7.053c-0.119-1.325-0.643-2.535-1.44-3.511c0.794-1.283,1.114-2.79,0.904-4.303 c-0.447-3.199-3.211-5.608-6.431-5.608h0c-0.308,0-0.62,0.022-0.925,0.066l-55.384,7.692C28.481,13.586,27.746,13.5,27,13.5 c-0.42,0-0.839,0.028-1.253,0.083c-0.41-0.054-0.825-0.081-1.242-0.081c-0.506,0-1.007,0.039-1.5,0.118 c-0.496-0.079-0.998-0.12-1.504-0.12c-2.207,0-4.332,0.782-6.013,2.162l-2.881,0.4c-1.717,0.237-3.242,1.131-4.29,2.517 c-1.047,1.385-1.492,3.094-1.254,4.813c0.053,0.381,0.139,0.75,0.255,1.106c-0.263,0.808-0.371,1.681-0.29,2.58 c0.117,1.302,0.602,2.48,1.348,3.436C8.124,31.739,8,33.015,8,34.354c0,3.309,0.748,5.808,1.65,7.713 c-2.213,0.288-4.226,1.493-5.522,3.345c-1.494,2.129-1.856,4.868-0.966,7.32c0.255,0.702,0.539,1.419,0.892,2.257l0.215,0.501 c0.347,0.795,0.666,1.486,0.987,2.139c0.389,0.787,0.781,1.527,1.236,2.335l0.106,0.186c0.417,0.733,0.855,1.462,1.296,2.153 c4.967,7.773,12.19,14.083,20.532,17.989l0.765,3.443C30.012,87.425,33.224,90,37,90h24c3.449,0,6.499-2.198,7.589-5.47 l1.493-4.477c8.119-3.919,15.17-10.152,20.021-17.745c0.438-0.684,0.877-1.413,1.339-2.226l0.049-0.085 c0.48-0.853,0.871-1.594,1.256-2.375c0.314-0.634,0.633-1.325,0.974-2.108l0.21-0.488c0.329-0.779,0.595-1.449,0.804-2.019 c0.389-0.957,0.587-1.968,0.587-3.007C95.322,46.323,92.383,43.932,89,43z"/><path fill="#f9b84f" d="M61,86H37c-1.417,0-2.621-0.966-2.929-2.349l-1.317-5.928c-8.429-3.381-15.739-9.431-20.645-17.108 c-0.391-0.613-0.785-1.268-1.172-1.948l-0.089-0.155c-0.406-0.722-0.76-1.389-1.107-2.092c-0.288-0.585-0.575-1.207-0.878-1.902 l-0.202-0.47c-0.322-0.764-0.576-1.406-0.8-2.022c-0.334-0.92-0.198-1.947,0.363-2.747C8.784,48.479,9.702,48,10.681,48h6.17 C16.947,47.665,17,47.263,17,46.716c0-1.415-0.321-1.872-1.181-3.092C14.629,41.934,13,39.619,13,35.354 c0-4.265,1.631-6.579,2.822-8.27C16.679,25.868,17,25.414,17,24c0-2.481,2.019-4.5,4.5-4.5c0.513,0,1.021,0.088,1.5,0.258 c0.879-0.312,1.86-0.339,2.75-0.081C26.154,19.56,26.573,19.5,27,19.5c2.481,0,4.5,2.019,4.5,4.5c0,4.265-1.631,6.579-2.822,8.27 c-0.857,1.217-1.178,1.671-1.178,3.084c0,0.943,0.165,1.479,0.436,1.969c2.382,0.633,3.842,2.093,4.744,2.994 c0.236,0.236,0.628,0.629,0.751,0.697c-0.022-0.015,0.042-0.012,0.092-0.014c0.035,0,0.066,0,0.095-0.006 c0.068-0.049,0.46-0.441,0.694-0.676C35.552,39.077,37.629,37,41.493,37c3.865,0,5.942,2.078,7.183,3.319 c0.249,0.249,0.626,0.626,0.749,0.694c-0.021-0.015,0.046-0.012,0.093-0.014c0.035,0,0.067,0,0.096-0.006 c0.07-0.049,0.462-0.441,0.697-0.676C51.551,39.077,53.629,37,57.493,37c3.865,0,5.942,2.078,7.183,3.319 c0.249,0.249,0.626,0.626,0.749,0.694c-0.021-0.015,0.046-0.012,0.093-0.014c0.035,0,0.067,0,0.096-0.006 c0.07-0.05,0.45-0.429,0.701-0.68C67.557,39.073,69.634,37,73.496,37c2.362,0,4.306,1.83,4.486,4.146 c1.215,0.69,2.082,1.557,2.697,2.171c0.236,0.235,0.628,0.628,0.751,0.695C81.414,44.001,81.454,44,81.5,44 c2.312,0,4.223,1.753,4.472,4h1.352c1.653,0,2.998,1.346,2.998,3c0,0.412-0.083,0.812-0.246,1.188 c-0.185,0.511-0.43,1.131-0.738,1.861l-0.202,0.469c-0.302,0.694-0.589,1.317-0.874,1.892c-0.352,0.713-0.705,1.38-1.107,2.095 l-0.06,0.104c-0.42,0.739-0.814,1.394-1.206,2.006c-4.739,7.417-11.772,13.356-19.861,16.786l-2.183,6.548 C63.437,85.176,62.293,86,61,86z"/><rect width="54" height="12" x="25.5" y="47.5" fill="#f9b84f"/><path fill="#40396e" d="M13.498,25c-0.737,0-1.379-0.543-1.484-1.294c-0.114-0.82,0.459-1.578,1.279-1.691l72-10 c0.818-0.112,1.578,0.458,1.692,1.279c0.114,0.82-0.459,1.578-1.279,1.691l-72,10C13.636,24.995,13.567,25,13.498,25z"/><path fill="#40396e" d="M13.498,29c-0.768,0-1.422-0.587-1.492-1.366c-0.074-0.825,0.535-1.554,1.36-1.628l72.5-6.5 c0.815-0.073,1.554,0.535,1.628,1.36c0.074,0.825-0.535,1.554-1.36,1.628l-72.5,6.5C13.588,28.998,13.543,29,13.498,29z"/><rect width="50" height="14" x="25" y="53" fill="#ffe385"/><path fill="#f9b84f" d="M65.491,47c-2.621,0-3.973-1.353-5.06-2.439C59.492,43.621,58.871,43,57.493,43c-1.379,0-2,0.621-2.94,1.561 C53.466,45.647,52.113,47,49.491,47c-2.621,0-3.973-1.353-5.06-2.439C43.492,43.621,42.871,43,41.493,43 c-1.377,0-1.998,0.621-2.937,1.561C37.469,45.647,36.117,47,33.496,47s-3.973-1.353-5.059-2.439C27.498,43.621,26.877,43,25.5,43 c-0.829,0-1.5-0.672-1.5-1.5s0.671-1.5,1.5-1.5c2.621,0,3.973,1.353,5.059,2.439C31.498,43.379,32.119,44,33.496,44 c1.378,0,1.999-0.621,2.938-1.561C37.52,41.353,38.872,40,41.493,40c2.621,0,3.974,1.353,5.06,2.439 C47.493,43.379,48.113,44,49.491,44c1.379,0,2-0.621,2.94-1.561C53.519,41.353,54.871,40,57.493,40 c2.621,0,3.974,1.353,5.06,2.439C63.493,43.379,64.113,44,65.491,44c1.38,0,2.001-0.621,2.942-1.562 C69.521,41.353,70.874,40,73.496,40c0.829,0,1.5,0.672,1.5,1.5s-0.671,1.5-1.5,1.5c-1.38,0-2.001,0.621-2.941,1.561 C69.467,45.647,68.114,47,65.491,47z"/><path fill="#ffe385" d="M81.5,50c-2.622,0-3.975-1.353-5.062-2.438C75.497,46.621,74.876,46,73.496,46 c-1.38,0-2.001,0.621-2.941,1.561C69.467,48.647,68.114,50,65.491,50c-2.621,0-3.973-1.353-5.06-2.439 C59.492,46.621,58.871,46,57.493,46c-1.379,0-2,0.621-2.94,1.561C53.466,48.647,52.113,50,49.491,50 c-2.621,0-3.973-1.353-5.06-2.439C43.492,46.621,42.871,46,41.493,46c-1.377,0-1.998,0.621-2.937,1.561 C37.469,48.647,36.117,50,33.496,50s-3.973-1.353-5.059-2.439C27.498,46.621,26.877,46,25.5,46c-0.829,0-1.5-0.672-1.5-1.5 s0.671-1.5,1.5-1.5c2.621,0,3.973,1.353,5.059,2.439C31.498,46.379,32.119,47,33.496,47c1.378,0,1.999-0.621,2.938-1.561 C37.52,44.353,38.872,43,41.493,43c2.621,0,3.974,1.353,5.06,2.439C47.493,46.379,48.113,47,49.491,47c1.379,0,2-0.621,2.94-1.561 C53.519,44.353,54.871,43,57.493,43c2.621,0,3.974,1.353,5.06,2.439C63.493,46.379,64.113,47,65.491,47 c1.38,0,2.001-0.621,2.942-1.562C69.521,44.353,70.874,43,73.496,43c2.623,0,3.976,1.353,5.063,2.439 C79.499,46.379,80.12,47,81.5,47c0.829,0,1.5,0.672,1.5,1.5S82.329,50,81.5,50z"/><path fill="#f9b84f" d="M82.5,57c-0.829,0-1.5-0.672-1.5-1.5c0-1.299-0.072-2.078-0.143-2.528c-2.208-0.2-3.425-1.417-4.42-2.41 C75.497,49.621,74.876,49,73.496,49c-1.38,0-2.001,0.621-2.941,1.561C69.467,51.647,68.114,53,65.491,53 c-2.621,0-3.973-1.353-5.06-2.439C59.492,49.621,58.871,49,57.493,49c-1.379,0-2,0.621-2.94,1.561 C53.466,51.647,52.113,53,49.491,53c-2.621,0-3.973-1.353-5.06-2.439C43.492,49.621,42.871,49,41.493,49 c-1.377,0-1.998,0.621-2.937,1.561C37.469,51.647,36.117,53,33.496,53s-3.973-1.353-5.059-2.439C27.498,49.621,26.877,49,25.5,49 c-0.829,0-1.5-0.672-1.5-1.5s0.671-1.5,1.5-1.5c2.621,0,3.973,1.353,5.059,2.439C31.498,49.379,32.119,50,33.496,50 c1.378,0,1.999-0.621,2.938-1.561C37.52,47.353,38.872,46,41.493,46c2.621,0,3.974,1.353,5.06,2.439 C47.493,49.379,48.113,50,49.491,50c1.379,0,2-0.621,2.94-1.561C53.519,47.353,54.871,46,57.493,46 c2.621,0,3.974,1.353,5.06,2.439C63.493,49.379,64.113,50,65.491,50c1.38,0,2.001-0.621,2.942-1.562 C69.521,47.353,70.874,46,73.496,46c2.623,0,3.976,1.353,5.063,2.439c0.868,0.867,1.464,1.464,2.637,1.55 c0.38-0.112,0.793-0.094,1.175,0.063C83.559,50.545,84,52.021,84,55.5C84,56.328,83.329,57,82.5,57z"/><path fill="#ffe385" d="M17.5,59.577c-0.829,0-1.5-0.672-1.5-1.5c0-3.315,1.208-5.031,2.273-6.544 C19.238,50.163,20,49.081,20,46.716s-0.762-3.447-1.727-4.817C17.208,40.385,16,38.67,16,35.354c0-3.313,1.208-5.028,2.274-6.541 C19.238,27.444,20,26.363,20,24c0-0.828,0.671-1.5,1.5-1.5S23,23.172,23,24c0,3.313-1.208,5.028-2.274,6.541 C19.762,31.909,19,32.99,19,35.354c0,2.366,0.762,3.448,1.727,4.818C21.792,41.686,23,43.4,23,46.716s-1.208,5.031-2.273,6.544 C19.762,54.63,19,55.712,19,58.077C19,58.905,18.329,59.577,17.5,59.577z"/><path fill="#f9b84f" d="M20.5,59.577c-0.829,0-1.5-0.672-1.5-1.5c0-3.315,1.208-5.031,2.273-6.544C22.238,50.163,23,49.081,23,46.716 s-0.762-3.447-1.727-4.817C20.208,40.385,19,38.67,19,35.354c0-3.313,1.208-5.028,2.274-6.541C22.238,27.444,23,26.363,23,24 c0-0.828,0.671-1.5,1.5-1.5S26,23.172,26,24c0,3.313-1.208,5.028-2.274,6.541C22.762,31.909,22,32.99,22,35.354 c0,2.366,0.762,3.448,1.727,4.818C24.792,41.686,26,43.4,26,46.716s-1.208,5.031-2.273,6.544C22.762,54.63,22,55.712,22,58.077 C22,58.905,21.329,59.577,20.5,59.577z"/><path fill="#ffe385" d="M23,59.577c-0.829,0-1.5-0.672-1.5-1.5c0-3.315,1.208-5.031,2.273-6.544c0.965-1.37,1.727-2.452,1.727-4.817 s-0.762-3.447-1.727-4.817c-1.065-1.514-2.273-3.229-2.273-6.545c0-3.313,1.208-5.028,2.274-6.541 C24.738,27.444,25.5,26.363,25.5,24c0-0.828,0.671-1.5,1.5-1.5s1.5,0.672,1.5,1.5c0,3.313-1.208,5.028-2.274,6.541 c-0.964,1.368-1.726,2.449-1.726,4.812c0,2.366,0.762,3.448,1.727,4.818c1.065,1.514,2.273,3.229,2.273,6.544 s-1.208,5.031-2.273,6.544c-0.965,1.37-1.727,2.452-1.727,4.817C24.5,58.905,23.829,59.577,23,59.577z"/><polygon fill="#707cc0" points="61.793,83 36.138,83 34,74 65,74"/><path fill="#9aa2e6" d="M10.681,51C16.373,66.659,31.374,77.848,49,77.848S81.627,66.659,87.319,51H10.681z"/><path fill="#707cc0" d="M14.638,59h68.724c1.595-2.496,2.93-5.174,3.957-8H10.681C11.708,53.826,13.043,56.504,14.638,59z"/><path fill="#40396e" d="M61,86H37c-1.417,0-2.621-0.966-2.929-2.349l-1.317-5.928c-8.429-3.381-15.739-9.431-20.645-17.108 c-0.391-0.613-0.785-1.268-1.172-1.948l-0.089-0.155c-0.406-0.722-0.76-1.389-1.107-2.092c-0.288-0.585-0.575-1.207-0.878-1.902 l-0.202-0.47c-0.322-0.764-0.576-1.406-0.8-2.022c-0.334-0.92-0.198-1.947,0.363-2.747C8.784,48.479,9.702,48,10.681,48h6.17 C16.947,47.665,17,47.263,17,46.716c0-1.415-0.321-1.872-1.181-3.092C14.629,41.934,13,39.619,13,35.354 c0-4.265,1.631-6.579,2.822-8.27C16.679,25.868,17,25.414,17,24c0-2.481,2.019-4.5,4.5-4.5c0.513,0,1.021,0.088,1.5,0.258 c0.879-0.312,1.86-0.339,2.75-0.081C26.154,19.56,26.573,19.5,27,19.5c2.481,0,4.5,2.019,4.5,4.5c0,4.265-1.631,6.579-2.822,8.27 c-0.857,1.217-1.178,1.671-1.178,3.084c0,0.943,0.165,1.479,0.436,1.969c2.382,0.633,3.842,2.093,4.744,2.994 c0.236,0.236,0.628,0.629,0.751,0.697c-0.022-0.015,0.042-0.012,0.092-0.014c0.035,0,0.066,0,0.095-0.006 c0.068-0.049,0.46-0.441,0.694-0.676C35.552,39.077,37.629,37,41.493,37c3.865,0,5.942,2.078,7.183,3.319 c0.249,0.249,0.626,0.626,0.749,0.694c-0.021-0.015,0.046-0.012,0.093-0.014c0.035,0,0.067,0,0.096-0.006 c0.07-0.049,0.462-0.441,0.697-0.676C51.551,39.077,53.629,37,57.493,37c3.865,0,5.942,2.078,7.183,3.319 c0.249,0.249,0.626,0.626,0.749,0.694c-0.021-0.015,0.046-0.012,0.093-0.014c0.035,0,0.067,0,0.096-0.006 c0.07-0.05,0.45-0.429,0.701-0.68C67.557,39.073,69.634,37,73.496,37c2.362,0,4.306,1.83,4.486,4.146 c1.215,0.69,2.082,1.557,2.697,2.171c0.236,0.235,0.628,0.628,0.751,0.695C81.414,44.001,81.454,44,81.5,44 c2.312,0,4.223,1.753,4.472,4h1.352c1.653,0,2.998,1.346,2.998,3c0,0.412-0.083,0.812-0.246,1.188 c-0.185,0.511-0.43,1.131-0.738,1.861l-0.202,0.469c-0.302,0.694-0.589,1.317-0.874,1.892c-0.352,0.713-0.705,1.38-1.107,2.095 l-0.06,0.104c-0.42,0.739-0.814,1.394-1.206,2.006c-4.739,7.417-11.772,13.356-19.861,16.786l-2.183,6.548 C63.437,85.176,62.293,86,61,86z M10.681,51c0.208,0.573,0.446,1.173,0.746,1.885l0.187,0.436 c0.282,0.646,0.55,1.228,0.818,1.771c0.324,0.654,0.654,1.276,1.028,1.941l0.05,0.089c0.397,0.696,0.764,1.308,1.128,1.878 c4.708,7.367,11.789,13.125,19.939,16.215c0.472,0.179,0.823,0.584,0.933,1.077L37,83h24l2.399-7.197 c0.139-0.416,0.453-0.751,0.86-0.916C72.046,71.735,78.83,66.093,83.362,59c0.365-0.571,0.732-1.181,1.092-1.813l0.092-0.161 c0.369-0.657,0.699-1.279,1.003-1.893c0.288-0.586,0.556-1.166,0.838-1.814l0.186-0.431c0.288-0.684,0.518-1.261,0.719-1.811 L87.324,51h-2.997c-0.488,0-0.945-0.237-1.226-0.636c-0.281-0.398-0.351-0.909-0.187-1.369C82.971,48.837,83,48.67,83,48.5 c0-0.827-0.673-1.5-1.5-1.5c-1.379,0-2-0.62-2.94-1.559c-0.671-0.671-1.505-1.504-2.69-1.995c-0.656-0.271-1.032-0.966-0.9-1.663 c0.017-0.092,0.026-0.187,0.026-0.283c0-0.827-0.673-1.5-1.5-1.5c-2.62,0-3.973,1.351-5.06,2.436 C67.494,43.378,66.871,44,65.491,44c-1.377,0-1.998-0.62-2.937-1.56C61.467,41.354,60.115,40,57.493,40 c-2.622,0-3.974,1.353-5.061,2.439C51.492,43.379,50.871,44,49.491,44c-1.377,0-1.998-0.62-2.937-1.56 C45.467,41.354,44.115,40,41.493,40c-2.621,0-3.973,1.353-5.059,2.439C35.495,43.379,34.875,44,33.496,44 c-1.378,0-1.998-0.621-2.937-1.561c-0.879-0.88-1.972-1.973-3.838-2.318c-0.397-0.073-0.748-0.304-0.973-0.64 c-0.75-1.118-1.249-2.248-1.249-4.128c0-2.364,0.762-3.444,1.726-4.812C27.292,29.028,28.5,27.313,28.5,24 c0-0.827-0.673-1.5-1.5-1.5c-0.217,0-0.428,0.046-0.626,0.137c-0.396,0.182-0.853,0.182-1.248,0 c-0.438-0.201-0.962-0.176-1.374,0.063c-0.466,0.27-1.039,0.27-1.505,0c-0.226-0.131-0.484-0.2-0.748-0.2 c-0.827,0-1.5,0.673-1.5,1.5c0,2.365-0.762,3.445-1.727,4.812C17.208,30.325,16,32.04,16,35.354c0,3.315,1.207,5.03,2.272,6.543 C19.237,43.268,20,44.351,20,46.716c0,1.414-0.263,2.472-0.878,3.535C18.854,50.715,18.359,51,17.824,51H10.681z"/></g></svg>