<svg xmlns="http://www.w3.org/2000/svg"  viewBox="0 0 100 100" width="100px" height="100px"><path d="M62.773,95.5c-4.472,0-8.268-2.179-10.773-5.789c-2.506,3.609-6.302,5.789-10.773,5.789 c-7.311,0-12.685-4.809-13.038-11.536c-0.333,0.029-0.672,0.044-1.014,0.044c-4.505,0-7.171-2.023-8.614-3.72 c-3.227-3.794-2.637-8.635-2.485-9.567c0.012-0.075,0.025-0.148,0.04-0.222C9.437,69.681,4.75,64.021,4.75,56.441 c0-7.988,6.19-14.346,14.35-15.053c-1.782-1.36-3.052-3.676-3.052-6.896c0-2.883,1.017-5.889,2.789-8.246 c2.439-3.246,6.066-5.034,10.212-5.034c1.108,0,2.218,0.135,3.291,0.411C34.459,11.436,44.06,5.669,50.01,3.756 c0.648-0.208,1.316-0.312,1.99-0.312s1.32,0.195,1.984,0.31C67,6,73,19,73,21c4.146,0,9.724,2.001,12.164,5.248 c1.771,2.356,2.788,5.362,2.788,8.245c0,3.22-1.27,5.535-3.052,6.896c8.16,0.707,14.35,7.064,14.35,15.053 c0,7.58-4.687,13.24-11.365,14.059c0.015,0.072,0.027,0.145,0.039,0.218c0.152,0.936,0.742,5.777-2.483,9.571 c-1.444,1.697-4.11,3.72-8.615,3.72c-0.342,0-0.681-0.015-1.014-0.044C75.458,90.691,70.084,95.5,62.773,95.5z" opacity=".35"/><path fill="#f2f2f2" d="M60.773,93.5c-4.472,0-8.268-2.179-10.773-5.789c-2.506,3.609-6.302,5.789-10.773,5.789 c-7.311,0-12.685-4.809-13.038-11.536c-0.333,0.029-0.672,0.044-1.014,0.044c-4.505,0-7.171-2.023-8.614-3.72 c-3.227-3.794-2.637-8.635-2.485-9.567c0.012-0.075,0.025-0.148,0.04-0.222C7.437,67.681,2.75,62.021,2.75,54.441 c0-7.988,6.19-14.346,14.35-15.053c-1.782-1.36-3.052-3.676-3.052-6.896c0-2.883,1.017-5.889,2.789-8.246 c2.439-3.246,6.066-5.034,10.212-5.034c1.108,0,2.218,0.135,3.291,0.411C32.459,9.436,42.06,3.669,48.01,1.756 c0.648-0.208,1.316-0.312,1.99-0.312s1.342,0.104,1.984,0.31c5.956,1.916,15.557,7.682,17.676,17.87 c1.073-0.276,2.183-0.411,3.291-0.411c4.146,0,7.772,1.788,10.213,5.035c1.771,2.356,2.788,5.362,2.788,8.245 c0,3.22-1.27,5.535-3.052,6.896c8.16,0.707,14.35,7.064,14.35,15.053c0,7.58-4.687,13.24-11.365,14.059 c0.015,0.072,0.027,0.145,0.039,0.218c0.152,0.936,0.742,5.777-2.483,9.571c-1.444,1.697-4.11,3.72-8.615,3.72 c-0.342,0-0.681-0.015-1.014-0.044C73.458,88.691,68.084,93.5,60.773,93.5z"/><path fill="#9aa2e6" d="M50,56.357c4.216,0,7.026,2.873,7.026,7.661s-3.747,5.746-3.747,12.449 c0,5.746,2.81,10.534,7.494,10.534c3.747,0,6.557-2.195,6.557-5.746c0-3.551-1.874-3.83-1.874-3.83 c0,4.788-6.557,5.746-6.557-0.958s5.621-9.576,5.621-17.237c0-0.711-0.062-1.332-0.156-1.9c0.092-0.008,0.156-0.015,0.156-0.015 c6.557,0,4.684,7.661,4.684,10.534c0,3.83,1.874,7.661,5.621,7.661c5.621,0,4.684-5.746,4.684-5.746 c-0.937,2.873-6.089,1.915-5.621-1.915s1.874-5.746,1.874-9.576c0-1.382-0.289-2.267-0.687-3.082 c2.441-1.843,4.469-3.621,6.307-3.621c5.621,0,4.684,7.661,1.874,7.661c-1.874,0-2.81-1.915-2.81-1.915s-0.937,4.788,3.747,4.788 c3.747,0,6.557-2.873,6.557-7.661s-3.747-8.618-9.368-8.618c-2.575,0-4.3,0.565-6.385,1.334c0,0,0.765-2.071,0.765-4.207 c0-4.818-3.554-6.703-3.554-9.576c0-1.915,1.3-2.873,2.617-2.873c2.81,0,3.747,3.83,3.747,3.83c1.874,0,1.089-8.618-5.621-8.618 c-5.468,0-5.531,4.788-5.531,6.252c0,4.282,2.701,7.154,2.701,10.985c0,2.619-1.853,5.746-5.6,5.746 c-6.557,0-5.621-8.618-5.621-8.618c0-5.746,4.684-8.618,4.684-16.279C63.583,12.307,50,7.944,50,7.944 s-13.583,4.363-13.583,15.854c0,7.661,4.684,10.534,4.684,16.279c0,0,0.937,8.618-5.621,8.618c-3.747,0-5.6-3.127-5.6-5.746 c0-3.83,2.701-6.703,2.701-10.985c0-1.464-0.063-6.252-5.531-6.252c-6.71,0-7.494,8.618-5.621,8.618c0,0,0.937-3.83,3.747-3.83 c1.317,0,2.617,0.958,2.617,2.873c0,2.873-3.554,4.758-3.554,9.576c0,2.136,0.765,4.207,0.765,4.207 c-2.086-0.769-3.811-1.334-6.385-1.334c-5.621,0-9.368,3.83-9.368,8.618s2.81,7.661,6.557,7.661c4.684,0,3.747-4.788,3.747-4.788 s-0.937,1.915-2.81,1.915c-2.81,0-3.747-7.661,1.874-7.661c1.838,0,3.866,1.779,6.307,3.621c-0.397,0.816-0.687,1.7-0.687,3.082 c0,3.83,1.405,5.746,1.874,9.576c0.468,3.83-4.684,4.788-5.621,1.915c0,0-0.937,5.746,4.684,5.746 c3.747,0,5.621-3.83,5.621-7.661c0-2.873-1.874-10.534,4.684-10.534c0,0,0.064,0.007,0.156,0.015 c-0.094,0.568-0.156,1.189-0.156,1.9c0,7.661,5.621,10.534,5.621,17.237s-6.557,5.746-6.557,0.958c0,0-1.874,0.28-1.874,3.83 c0,3.551,2.81,5.746,6.557,5.746c4.684,0,7.494-4.788,7.494-10.534c0-6.703-3.747-7.661-3.747-12.449S45.784,56.357,50,56.357z"/><path fill="#40396e" d="M25.223,53.651c0,0,4.579,2.776,10.505,2.249l-5.579,5.272l0.382,9.124l-4.298,5.595 l-5.21-2.001l-0.569-3.769l3.948,1.51l1.8-2.518l-0.41-5.068l-1.674-6.649L25.223,53.651z" opacity=".35"/><path fill="#40396e" d="M20.999,30.082l4.792-4.772l3.852,0.226l2.621,4.546l-0.981,7.409l-1.039,8.704 l5.316,3.922c0,0-4.369,0.145-10.877-1.549l0.456-1.531l-0.811-4.267l0.77-4.866c0,0,1.385-3.196,1.445-3.159 c0.059,0.036,1.729-2.857,1.729-2.857l-1.717-2.372l-3.789,2.009c0,0-0.805,3.256-0.853,3.341s-1.741-0.968-1.741-0.968 l0.047-3.426L20.999,30.082z" opacity=".35"/><path fill="none" stroke="#40396e" stroke-linecap="round" stroke-linejoin="round" stroke-miterlimit="10" stroke-width="3" d="M50,56.357c4.216,0,7.026,2.873,7.026,7.661s-3.747,5.746-3.747,12.449c0,5.746,2.81,10.534,7.494,10.534 c3.747,0,6.557-2.195,6.557-5.746c0-3.551-1.874-3.83-1.874-3.83c0,4.788-6.557,5.746-6.557-0.958s5.621-9.576,5.621-17.237 c0-0.711-0.062-1.332-0.156-1.9c0.092-0.008,0.156-0.015,0.156-0.015c6.557,0,4.684,7.661,4.684,10.534 c0,3.83,1.874,7.661,5.621,7.661c5.621,0,4.684-5.746,4.684-5.746c-0.937,2.873-6.089,1.915-5.621-1.915s1.874-5.746,1.874-9.576 c0-1.382-0.289-2.267-0.687-3.082c2.441-1.843,4.469-3.621,6.307-3.621c5.621,0,4.684,7.661,1.874,7.661 c-1.874,0-2.81-1.915-2.81-1.915s-0.937,4.788,3.747,4.788c3.747,0,6.557-2.873,6.557-7.661s-3.747-8.618-9.368-8.618 c-2.575,0-4.3,0.565-6.385,1.334c0,0,0.765-2.071,0.765-4.207c0-4.818-3.554-6.703-3.554-9.576c0-1.915,1.3-2.873,2.617-2.873 c2.81,0,3.747,3.83,3.747,3.83c1.874,0,1.089-8.618-5.621-8.618c-5.468,0-5.531,4.788-5.531,6.252 c0,4.282,2.701,7.154,2.701,10.985c0,2.619-1.853,5.746-5.6,5.746c-6.557,0-5.621-8.618-5.621-8.618 c0-5.746,4.684-8.618,4.684-16.279C63.583,12.307,50,7.944,50,7.944s-13.583,4.363-13.583,15.854 c0,7.661,4.684,10.534,4.684,16.279c0,0,0.937,8.618-5.621,8.618c-3.747,0-5.6-3.127-5.6-5.746c0-3.83,2.701-6.703,2.701-10.985 c0-1.464-0.063-6.252-5.531-6.252c-6.71,0-7.494,8.618-5.621,8.618c0,0,0.937-3.83,3.747-3.83c1.317,0,2.617,0.958,2.617,2.873 c0,2.873-3.554,4.758-3.554,9.576c0,2.136,0.765,4.207,0.765,4.207c-2.086-0.769-3.811-1.334-6.385-1.334 c-5.621,0-9.368,3.83-9.368,8.618s2.81,7.661,6.557,7.661c4.684,0,3.747-4.788,3.747-4.788s-0.937,1.915-2.81,1.915 c-2.81,0-3.747-7.661,1.874-7.661c1.838,0,3.866,1.779,6.307,3.621c-0.397,0.816-0.687,1.7-0.687,3.082 c0,3.83,1.405,5.746,1.874,9.576c0.468,3.83-4.684,4.788-5.621,1.915c0,0-0.937,5.746,4.684,5.746 c3.747,0,5.621-3.83,5.621-7.661c0-2.873-1.874-10.534,4.684-10.534c0,0,0.064,0.007,0.156,0.015 c-0.094,0.568-0.156,1.189-0.156,1.9c0,7.661,5.621,10.534,5.621,17.237s-6.557,5.746-6.557,0.958c0,0-1.874,0.28-1.874,3.83 c0,3.551,2.81,5.746,6.557,5.746c4.684,0,7.494-4.788,7.494-10.534c0-6.703-3.747-7.661-3.747-12.449S45.784,56.357,50,56.357z"/><path fill="#40396e" d="M74.777,53.651c0,0-4.579,2.776-10.505,2.249l5.579,5.272l-0.382,9.124l4.298,5.595 l5.21-2.001l0.569-3.769l-3.948,1.51l-1.8-2.518l0.41-5.068l1.674-6.649L74.777,53.651z" opacity=".35"/><path fill="#40396e" d="M78.212,30.082L73.42,25.31l-3.852,0.226l-2.621,4.546l0.981,7.409l1.039,8.704 l-5.316,3.922c0,0,4.369,0.145,10.877-1.549l-0.456-1.531l0.811-4.267l-0.77-4.866c0,0-1.385-3.196-1.445-3.159 c-0.059,0.036-1.729-2.857-1.729-2.857l1.717-2.372l3.789,2.009c0,0,0.805,3.256,0.853,3.341s1.741-0.968,1.741-0.968 l-0.047-3.426L78.212,30.082z" opacity=".35"/><path fill="#40396e" d="M35.611,58.919c-0.077,0-0.155-0.007-0.233-0.021c-0.758-0.131-1.274-0.853-1.155-1.63 c0.026-0.169,3.525-5.942,7.068-4.977c-4.045,2.448-4.277,5.338-4.295,5.439C36.872,58.425,36.279,58.919,35.611,58.919z" opacity=".35"/><path fill="#40396e" d="M64.397,58.919c0.077,0,0.155-0.007,0.233-0.021c0.758-0.131,1.274-0.853,1.155-1.63 c-0.026-0.169-3.525-5.942-7.068-4.977c4.045,2.448,4.277,5.338,4.295,5.439C63.136,58.425,63.73,58.919,64.397,58.919z" opacity=".35"/><ellipse cx="42.317" cy="39.405" fill="#40396e" rx="4.495" ry="4.595"/><path fill="#fff" d="M40.505,38.104c0,0,2.606,0.099,3.495,2.837C44,40.94,40.229,41.076,40.505,38.104z"/><ellipse cx="58.317" cy="39.405" fill="#40396e" rx="4.495" ry="4.595"/><path fill="#fff" d="M60.128,38.104c0,0-2.606,0.099-3.495,2.837C56.633,40.94,60.404,41.076,60.128,38.104z"/><circle cx="45" cy="23" r="3" fill="#40396e" opacity=".35"/><circle cx="50.5" cy="16.5" r="1.5" fill="#40396e" opacity=".35"/><circle cx="54" cy="22" r="2" fill="#40396e" opacity=".35"/></svg>