<svg xmlns="http://www.w3.org/2000/svg"  viewBox="0 0 100 100" width="100px" height="100px"><g id="Слой_2"><path d="M82.945,52.011c2.151-3.426,3.305-7.392,3.305-11.511c0-10.945-8.125-20.027-18.661-21.531 c-0.336-0.73-0.79-1.396-1.339-1.973V16.5c0-5.652-4.598-10.25-10.25-10.25h-8c-5.056,0-9.268,3.679-10.101,8.501 c-2.901,0.04-5.484,1.788-6.599,4.476c-1.122,2.728-0.503,5.823,1.573,7.899l2.876,2.876v10.12c-12.1,5.339-20,16.419-20,28.524 c0,6.016,2.089,15.078,6.675,20.76c4.537,5.621,11.361,8.844,18.722,8.844h21.707c7.361,0,14.185-3.223,18.722-8.844 c4.586-5.682,6.675-14.744,6.675-20.76C88.25,62.766,86.389,56.989,82.945,52.011z" opacity=".35"/><path fill="#f2f2f2" d="M80.945,50.011c2.151-3.426,3.305-7.392,3.305-11.511c0-10.945-8.125-20.027-18.661-21.531 c-0.336-0.73-0.79-1.396-1.339-1.973V14.5c0-5.652-4.598-10.25-10.25-10.25h-8c-5.056,0-9.268,3.679-10.101,8.501 c-2.901,0.04-5.484,1.788-6.599,4.476c-1.122,2.728-0.503,5.823,1.573,7.899l2.876,2.876v10.12c-12.1,5.339-20,16.419-20,28.524 c0,6.016,2.089,15.078,6.675,20.76c4.537,5.621,11.361,8.844,18.722,8.844h21.707c7.361,0,14.185-3.223,18.722-8.844 c4.586-5.682,6.675-14.744,6.675-20.76C86.25,60.766,84.389,54.989,80.945,50.011z"/><path fill="#70bfff" d="M60.853,89c5.046,0,9.896-2.202,13.081-6.147C77.129,78.894,79,71.81,79,66.646C79,53.035,66.016,42,50,42 S21,53.035,21,66.646c0,5.164,1.871,12.248,5.066,16.206C29.251,86.798,34.1,89,39.147,89H60.853z"/><rect width="18" height="34" x="41" y="21" fill="#70bfff"/><polygon fill="#70bfff" points="41,25 36,20.755 59,20.755 59,25"/><path fill="#70bfff" d="M62.5,53C54.505,53,48,46.495,48,38.5S54.505,24,62.5,24S77,30.505,77,38.5S70.495,53,62.5,53z M62.5,31 c-4.136,0-7.5,3.364-7.5,7.5s3.364,7.5,7.5,7.5s7.5-3.364,7.5-7.5S66.636,31,62.5,31z"/><path fill="#d47f56" d="M55.074,11.5H45.25c-1.657,0-3,1.343-3,3v6.25h15.824V14.5C58.074,12.843,56.731,11.5,55.074,11.5z"/><path fill="#f9b84f" d="M21,66.646c0,5.164,1.871,12.248,5.066,16.206C29.251,86.798,34.1,89,39.147,89h21.706 c5.046,0,9.896-2.202,13.081-6.147C77.129,78.894,79,71.81,79,66.646c0-2.67-0.506-5.238-1.43-7.646H22.43 C21.506,61.408,21,63.976,21,66.646z"/><path fill="#f2f2f2" d="M71.5,75c-0.169,0-0.34-0.028-0.508-0.089c-0.779-0.28-1.185-1.14-0.903-1.919 c4.073-11.316-5.141-19.007-5.535-19.328c-0.641-0.523-0.738-1.468-0.217-2.109c0.522-0.642,1.465-0.74,2.106-0.221 c0.113,0.092,11.273,9.325,6.468,22.674C72.691,74.62,72.114,75,71.5,75z"/><path fill="#40396e" d="M60.854,91.25H39.146c-5.842,0-11.248-2.546-14.831-6.984c-3.654-4.527-5.565-12.291-5.565-17.619 c0-11.16,7.99-21.123,20-25.097V25.932l-4.341-4.341c-0.645-0.645-0.837-1.605-0.49-2.448c0.352-0.848,1.168-1.393,2.081-1.393 h4.75V14.5c0-2.895,2.355-5.25,5.25-5.25h8c2.895,0,5.25,2.355,5.25,5.25v3.264c1.123,0.125,2,1.08,2,2.236v1.801 c0.421-0.034,0.838-0.051,1.25-0.051c9.236,0,16.75,7.514,16.75,16.75c0,4.321-1.678,8.452-4.648,11.554 c4.299,4.718,6.648,10.555,6.648,16.593c0,5.328-1.911,13.092-5.565,17.619C72.102,88.704,66.695,91.25,60.854,91.25z M37.811,20.75l3.5,3.5c0.281,0.281,0.439,0.663,0.439,1.061v17.341c0,0.665-0.438,1.25-1.075,1.438 C29.355,47.434,21.75,56.498,21.75,66.646c0,4.685,1.717,11.791,4.899,15.734c3.011,3.73,7.566,5.869,12.497,5.869h21.707 c4.931,0,9.486-2.139,12.497-5.869c3.183-3.943,4.899-11.05,4.899-15.734c0-5.712-2.424-11.241-6.826-15.569 c-0.299-0.293-0.461-0.698-0.447-1.117c0.013-0.419,0.201-0.812,0.518-1.087c3.022-2.614,4.756-6.396,4.756-10.373 c0-7.582-6.168-13.75-13.75-13.75c-0.803,0-1.634,0.08-2.473,0.237c-0.435,0.083-0.892-0.033-1.235-0.319 c-0.343-0.285-0.542-0.708-0.542-1.154V20.75h-0.5c-0.828,0-1.5-0.672-1.5-1.5V14.5c0-1.24-1.01-2.25-2.25-2.25h-8 c-1.24,0-2.25,1.01-2.25,2.25v4.75c0,0.828-0.672,1.5-1.5,1.5H37.811z M65.058,46.237c-0.23,0-0.461-0.054-0.673-0.159 c-1.587-0.796-3.29-1.465-5.06-1.988c-0.638-0.188-1.075-0.773-1.075-1.438V32.339c0-0.59,0.347-1.126,0.885-1.368 c1.062-0.479,2.195-0.721,3.365-0.721c4.549,0,8.25,3.701,8.25,8.25c0,3.353-2.011,6.346-5.122,7.625 C65.445,46.2,65.251,46.237,65.058,46.237z M61.25,41.55c1.315,0.435,2.592,0.944,3.813,1.522 c1.65-0.923,2.687-2.655,2.687-4.572c0-2.895-2.355-5.25-5.25-5.25c-0.426,0-0.844,0.051-1.25,0.15V41.55z"/></g></svg>