<svg xmlns="http://www.w3.org/2000/svg"  viewBox="0 0 100 100" width="100px" height="100px"><path d="M29.8,98.8c-4,0-7.9-1.1-11.4-3.3l-0.1-0.1c-11-7.3-13.3-23.5-5-36.3c4.4-6.8,12.5-11.5,19.4-13.1	C26,41.9,19.2,35.9,17,29c-1.1-3.2,0.6-6.8,3.7-8c3.6-1.5,7.5-2.2,11.5-2.2c5,0,10.2,1.2,14.9,3.4c0.1,0,0.2,0.1,0.3,0.1	c1.9-6.7,6.4-12.4,12.7-15.8c0.9-0.5,2-0.8,3.1-0.8c1.7,0,3.4,0.7,4.6,1.9c5.8,5.9,8.6,14.2,7.4,22.4c-0.1,1-0.3,2-0.6,2.9	c2-0.2,4-0.3,6-0.3c3.6,0,6.5,2.9,6.5,6.5c0,3.3-2.5,6-5.7,6.4c1.1,0.5,2.1,1.2,3.1,1.9c5.7,4.1,9.6,10.8,10.8,18.2	c1.1,6.1,0.1,12.3-2.7,17.5c-3.8,7-11.4,11.6-19.4,11.6l-0.3,0c-3.1,0-6.1-0.8-8.9-2.2c-3.2-1.7-6.1-4.2-8.4-7.3	c-0.6-0.7-1.1-1.5-1.6-2.3c-0.4,0.7-0.8,1.4-1.2,2c-5.4,8.3-14.4,13.7-23,13.8L29.8,98.8z" opacity=".35"/><path fill="#f2f2f2" d="M27.8,96.8c-4,0-7.9-1.1-11.4-3.3l-0.1-0.1c-11-7.3-13.3-23.5-5-36.3c4.4-6.8,10.6-11.5,17.5-13.1	C22.1,39.9,17.2,33.9,15,27c-1.1-3.2,0.6-6.8,3.7-8c3.6-1.5,7.5-2.2,11.5-2.2c5,0,10.2,1.2,14.9,3.4c0.1,0,0.2,0.1,0.3,0.1	c1.9-6.7,6.4-12.4,12.7-15.8c0.9-0.5,2-0.8,3.1-0.8c1.7,0,3.4,0.7,4.6,1.9c5.8,5.9,8.6,14.2,7.4,22.4c-0.1,1-0.3,2-0.6,2.9	c2-0.2,4-0.3,6-0.3c3.6,0,6.5,2.9,6.5,6.5c0,3.3-2.5,6-5.7,6.4c1.1,0.5,2.1,1.2,3.1,1.9c5.7,4.1,9.6,10.8,10.8,18.2	c1.1,6.1,0.1,12.3-2.7,17.5c-3.8,7-11.4,11.6-19.4,11.6l-0.3,0c-3.1,0-6.1-0.8-8.9-2.2c-3.2-1.7-6.1-4.2-8.4-7.3	c-0.6-0.7-1.1-1.5-1.6-2.3c-0.4,0.7-0.8,1.4-1.2,2c-5.4,8.3-14.4,13.7-23,13.8L27.8,96.8z"/><path fill="#739f4d" stroke="#40396e" stroke-miterlimit="10" stroke-width="3" d="M27.9,90.3c-2.7,0-5.5-0.7-8.1-2.3c-7.9-5.2-9.5-17.4-3.1-27.3c3.5-5.4,8.5-9.3,14.1-10.5	c4.3-1,8.3-0.2,11.6,1.9c7.9,5.2,9.5,17.4,3.1,27.3C41.7,85.4,34.9,90.2,27.9,90.3z"/><path fill="#739f4d" stroke="#40396e" stroke-miterlimit="10" stroke-width="3" d="M71.1,86.3c-2,0-4-0.5-5.9-1.5c-2.4-1.3-4.6-3.2-6.2-5.4c-2.1-2.9-3.5-6.3-4.1-9.8c-1-5.7,0.3-11.4,3.5-15.7	c2.3-3.4,5.8-5.5,9.5-6C76.6,46.5,85.3,54,87,64.8c0.8,4.5,0.2,9.3-2,13.4C82.3,83.1,76.7,86.4,71.1,86.3z"/><path fill="none" stroke="#40396e" stroke-linecap="round" stroke-linejoin="round" stroke-miterlimit="10" stroke-width="3" d="M44.1,53.2c8.2-9.8,20.6-16.1,34.5-16.1"/><path fill="none" stroke="#40396e" stroke-linecap="round" stroke-linejoin="round" stroke-miterlimit="10" stroke-width="3" d="M67.8,47.4c0.3-3.7,1.5-7,3.3-9.5"/><path fill="#96c362" d="M61.3,10.2C56,13.1,52,18.3,51.1,24.8c-0.4,2.6-0.2,5.2,0.4,7.6c-2.4-2.5-5.5-4.8-9-6.4	c-7.4-3.4-15.2-3.5-21.3-1c2.1,6.2,7.3,12.1,14.6,15.5c4.3,2,9.1,3,13.8,2.7c1.7-0.1,3.4-0.4,5.1-0.8c1.7-0.5,3.1-1.1,4.5-2.2	c0.8-0.6,1.5-1.2,2.2-1.9c1.4-1.4,2.5-3,3.5-4.7c1-2,1.7-4.2,2.1-6.4C67.8,20.6,65.5,14.4,61.3,10.2z"/><path fill="#739f4d" d="M35.8,40.5c7.2,3.3,15.6,3.2,21.6,0.9L21.1,25C23.2,31.2,28.4,37.1,35.8,40.5z"/><path fill="#739f4d" d="M57.5,41.7c5.3-2.9,9.2-8.2,10.2-14.6c0.9-6.5-2.1-13-6.3-17.3L57.5,41.7C57.4,41.7,57.4,41.7,57.5,41.7z"/><path fill="none" stroke="#40396e" stroke-linecap="round" stroke-linejoin="round" stroke-miterlimit="10" stroke-width="3" d="M50.7,43.1c2.3-0.2,4.4-0.8,6.4-1.6c-1.4-4.4-4.5-8.6-8.7-11.9" opacity=".35"/><path fill="none" stroke="#40396e" stroke-linecap="round" stroke-linejoin="round" stroke-miterlimit="10" stroke-width="3" d="M61.3,10.2C56,13.1,52,18.3,51.1,24.8c-0.4,2.6-0.2,5.2,0.4,7.6c-2.4-2.5-5.5-4.8-9-6.4	c-7.4-3.4-15.2-3.5-21.3-1c2.1,6.2,7.3,12.1,14.6,15.5c2.9,1.3,6.1,2.2,9.3,2.6c8,0.9,15.9-2.3,19.7-9.6c0.6-1.1,1-2.3,1.4-3.5	c0.3-0.9,0.5-1.9,0.6-2.9C67.8,20.6,65.5,14.4,61.3,10.2z"/><path fill="#96c362" stroke="#f2f2f2" stroke-linecap="round" stroke-linejoin="round" stroke-miterlimit="10" stroke-width="3" d="M60.8,68.7c-0.6-3.6,0.2-7.2,2.2-9.9"/><path fill="none" stroke="#f2f2f2" stroke-linecap="round" stroke-linejoin="round" stroke-miterlimit="10" stroke-width="3" d="M21.4,63.8c2.3-3.6,5.7-6.3,9.5-7c2.9-0.7,5.6-0.1,7.8,1.3"/></svg>