<svg xmlns="http://www.w3.org/2000/svg"  viewBox="0 0 100 100" width="50px" height="50px"><g id="Слой_2"><path d="M93,43v-4c0-10.227-10.085-18.26-26.01-21.477c0.669-1.586,0.685-3.338,0.044-4.938C66.043,10.104,63.673,8.5,60.999,8.5 c-0.828,0-1.638,0.156-2.409,0.463c-3.744,1.497-6.826,3.906-9.056,7.049c-10.383,0.171-19.971,2.16-27.132,5.644 C13.76,25.86,9,32.02,9,39v4c0,0.274,0.014,0.551,0.043,0.824c0.103,0.996,0.294,1.99,0.57,2.972C9.205,48.171,9,49.578,9,51v4 c0,0.274,0.014,0.551,0.043,0.824c0.103,0.996,0.294,1.99,0.57,2.972C9.205,60.171,9,61.578,9,63v4 c0,0.274,0.014,0.551,0.043,0.824C10.492,81.832,28.138,92,51,92s40.508-10.168,41.958-24.177C92.986,67.551,93,67.274,93,67v-4 c0-1.422-0.205-2.829-0.612-4.204c0.276-0.982,0.467-1.976,0.57-2.972C92.986,55.551,93,55.274,93,55v-4 c0-1.422-0.205-2.829-0.612-4.204c0.276-0.982,0.467-1.976,0.57-2.972C92.986,43.551,93,43.274,93,43z" opacity=".35"/><path fill="#f2f2f2" d="M91,41v-4c0-10.227-10.085-18.26-26.01-21.477c0.669-1.586,0.685-3.338,0.044-4.938 C64.043,8.104,61.673,6.5,58.999,6.5c-0.828,0-1.638,0.156-2.409,0.463c-3.744,1.497-6.826,3.906-9.056,7.049 c-10.383,0.171-19.971,2.16-27.132,5.644C11.76,23.86,7,30.02,7,37v4c0,0.274,0.014,0.551,0.043,0.824 c0.103,0.996,0.294,1.99,0.57,2.972C7.205,46.171,7,47.578,7,49v4c0,0.274,0.014,0.551,0.043,0.824 c0.103,0.996,0.294,1.99,0.57,2.972C7.205,58.171,7,59.578,7,61v4c0,0.274,0.014,0.551,0.043,0.824C8.492,79.832,26.138,90,49,90 s40.508-10.168,41.958-24.177C90.986,65.551,91,65.274,91,65v-4c0-1.422-0.205-2.829-0.612-4.204 c0.276-0.982,0.467-1.976,0.57-2.972C90.986,53.551,91,53.274,91,53v-4c0-1.422-0.205-2.829-0.612-4.204 c0.276-0.982,0.467-1.976,0.57-2.972C90.986,41.551,91,41.274,91,41z"/><path fill="#ffc571" d="M82.521,61C79.822,52.488,65.846,46,49,46s-30.822,6.488-33.521,15H15v4c0.981,9.476,15.856,17,34,17 s33.019-7.524,34-17v-4H82.521z"/><ellipse cx="49" cy="61" fill="#ef8630" rx="34" ry="15"/><path fill="#ffc571" d="M82.521,49C79.822,40.488,65.846,34,49,34s-30.822,6.488-33.521,15H15v4c0.981,9.476,15.856,17,34,17 s33.019-7.524,34-17v-4H82.521z"/><ellipse cx="49" cy="49" fill="#ef8630" rx="34" ry="15"/><path fill="#ffc571" d="M82.521,37C79.822,28.488,65.846,22,49,22s-30.822,6.488-33.521,15H15v4c0.981,9.476,15.856,17,34,17 s33.019-7.524,34-17v-4H82.521z"/><ellipse cx="49" cy="37" fill="#ef8630" rx="34" ry="15"/><path fill="#b73b3b" d="M68,36.5c0-4.694-8.507-8.5-19-8.5s-19,3.806-19,8.5c0,1.963,1.502,3.765,4,5.204l0,14.124 c0,2.089,1.527,3.955,3.607,4.153C39.993,60.209,42,58.339,42,56v-6.27c0-2.807,2.338-5.048,5.142-4.932 c0.042,0.002,0.085,0.003,0.127,0.005C49.914,44.911,52,47.089,52,49.736l0,20.092c0,2.089,1.527,3.955,3.607,4.153 C57.993,74.209,60,72.339,60,70V43.422C64.836,41.881,68,39.358,68,36.5z"/><path fill="#40396e" d="M49,22c18.778,0,34,6.716,34,15v4c-0.141,1.364-0.579,2.685-1.264,3.951C82.554,46.24,83,47.596,83,49v4 c-0.141,1.364-0.579,2.685-1.264,3.951C82.554,58.24,83,59.596,83,61v4c-0.981,9.476-15.856,17-34,17s-33.019-7.524-34-17v-4 c0-1.404,0.446-2.76,1.264-4.049C15.579,55.685,15.141,54.364,15,53v-4c0-1.404,0.446-2.76,1.264-4.049 C15.579,43.685,15.141,42.364,15,41v-4C15,28.716,30.222,22,49,22 M49,19c-21.093,0-37,7.738-37,18v4 c0,0.103,0.005,0.206,0.016,0.309c0.124,1.196,0.424,2.386,0.894,3.553C12.305,46.207,12,47.593,12,49v4 c0,0.103,0.005,0.206,0.016,0.309c0.124,1.196,0.424,2.386,0.894,3.553C12.305,58.207,12,59.593,12,61v4 c0,0.103,0.005,0.206,0.016,0.309C13.178,76.535,29.077,85,49,85s35.822-8.465,36.984-19.691C85.995,65.206,86,65.103,86,65v-4 c0-1.407-0.305-2.793-0.91-4.138c0.471-1.167,0.77-2.357,0.894-3.553C85.995,53.206,86,53.103,86,53v-4 c0-1.407-0.305-2.793-0.91-4.138c0.471-1.167,0.77-2.357,0.894-3.553C85.995,41.206,86,41.103,86,41v-4 C86,26.738,70.093,19,49,19L49,19z"/><path fill="#40396e" d="M49.998,29.498c-0.768,0-1.421-0.584-1.492-1.362c-0.011-0.121-0.975-12.164,9.938-16.528 c0.768-0.307,1.643,0.066,1.949,0.836c0.308,0.769-0.066,1.642-0.836,1.949c-8.811,3.524-8.097,13.07-8.062,13.476 c0.07,0.823-0.539,1.552-1.362,1.624C50.087,29.496,50.042,29.498,49.998,29.498z"/><path fill="#d84178" d="M57.279,30.867c-0.007-0.206-0.029-0.411-0.065-0.616c-0.362-2.022-1.949-3.676-3.954-4.121 c-0.97-0.215-1.905-0.154-2.747,0.113c-0.331,0.105-0.694,0.105-1.025,0c-0.842-0.268-1.776-0.329-2.747-0.113 c-2.005,0.445-3.592,2.099-3.954,4.121c-0.037,0.205-0.058,0.41-0.065,0.616H42.7c0,4.032,3.268,7.3,7.3,7.3s7.3-3.268,7.3-7.3 H57.279z"/><path fill="#f4a3be" d="M49.122,31.456c-0.507,1.222-1.694,1.848-2.652,1.399c-0.958-0.449-1.323-1.803-0.816-3.025 s1.694-1.848,2.652-1.399S49.629,30.234,49.122,31.456z"/></g></svg>