<svg xmlns="http://www.w3.org/2000/svg"  viewBox="0 0 100 100" width="100px" height="100px"><path d="M58.9,99.2c-2.5,0-4.9-0.7-6.9-2c-2,1.3-4.4,2-6.9,2c-1.6,0-3.2-0.3-4.7-0.9c-13.9-5.5-23.3-20.3-23.3-37	c0-7.4,1.8-14.6,5.3-20.9c3.4-6.1,5.4-12.6,6.1-19.3l0-0.3C29.5,13.2,35.4,7,42.9,5.8c0.9-0.1,1.9-0.2,2.8-0.2C47.9,5.5,50,6,52,6.7	c2-0.8,4.1-1.2,6.3-1.2c0.9,0,1.9,0.1,2.8,0.2C68.5,7,74.4,13,75.4,20.5l0.1,0.3l0,0.6c0.6,6.7,2.7,13.1,6,19.1	c3.5,6.2,5.3,13.5,5.3,20.9c0,16.6-9.4,31.5-23.3,37C62.1,98.9,60.5,99.2,58.9,99.2z" opacity=".35"/><path fill="#f2f2f2" d="M56.9,97.2c-2.5,0-4.9-0.7-6.9-2c-2,1.3-4.4,2-6.9,2c-1.6,0-3.2-0.3-4.7-0.9c-13.9-5.5-23.3-20.3-23.3-37	c0-7.4,1.8-14.6,5.3-20.9c3.4-6.1,5.4-12.6,6.1-19.3l0-0.3C27.5,11.2,33.4,5,40.9,3.8c0.9-0.1,1.9-0.2,2.8-0.2C45.9,3.5,48,4,50,4.7	c2-0.8,4.1-1.2,6.3-1.2c0.9,0,1.9,0.1,2.8,0.2C66.5,5,72.4,11,73.4,18.5l0.1,0.3l0,0.6c0.6,6.7,2.7,13.1,6,19.1	c3.5,6.2,5.3,13.5,5.3,20.9c0,16.6-9.4,31.5-23.3,37C60.1,96.9,58.5,97.2,56.9,97.2z"/><path fill="#f9b84f" d="M67,19.8c0-0.1,0-0.2,0-0.3c-0.5-4.7-4.2-8.6-8.9-9.3c-3-0.5-5.8,0.3-8,1.9c-2.2-1.6-5-2.4-8-1.9	c-4.7,0.8-8.4,4.6-8.9,9.3c0,0.1,0,0.2,0,0.3c-0.7,7.7-3.1,15.1-6.9,21.9c-2.9,5.1-4.5,11.2-4.5,17.7c0,14.3,8,26.5,19.2,30.9	c3,1.2,6.4,0,7.9-2.9L50,85l1.3,2.4c1.5,2.8,4.9,4.1,7.9,2.9c11.1-4.4,19.2-16.6,19.2-30.9c0-6.5-1.7-12.6-4.5-17.7	C70.1,34.9,67.7,27.5,67,19.8z"/><path fill="#ef8630" d="M52.1,12.9l-4.9-0.6l-8.6,1.5h3.9c3.1,0,5.7,2.6,5.7,5.7v15.5h3.5V19.5c0-3.1,2.6-5.7,5.7-5.7l-1.9-1.5	L52.1,12.9z"/><ellipse cx="50" cy="57.7" fill="#40396e" rx="15" ry="17.8"/><path fill="#40396e" d="M48.3,29.1L37.8,47.3h24.4L51.9,29.1C51.1,27.7,49.1,27.7,48.3,29.1z"/><path fill="none" stroke="#40396e" stroke-linecap="round" stroke-linejoin="round" stroke-miterlimit="10" stroke-width="3" d="M67,19.8c0-0.1,0-0.2,0-0.3c-0.5-4.7-4.2-8.6-8.9-9.3c-3-0.5-5.8,0.3-8,1.9c-2.2-1.6-5-2.4-8-1.9	c-4.7,0.8-8.4,4.6-8.9,9.3c0,0.1,0,0.2,0,0.3c-0.7,7.7-3.1,15.1-6.9,21.9c-2.9,5.1-4.5,11.2-4.5,17.7c0,14.3,8,26.5,19.2,30.9	c3,1.2,6.4,0,7.9-2.9L50,85l1.3,2.4c1.5,2.8,4.9,4.1,7.9,2.9c11.1-4.4,19.2-16.6,19.2-30.9c0-6.5-1.7-12.6-4.5-17.7	C70.1,34.9,67.7,27.5,67,19.8z"/><circle cx="50" cy="30.3" r="2.2" fill="#40396e"/><circle cx="48.3" cy="32.1" r="2.2" fill="#40396e"/><circle cx="46.4" cy="34.7" r="2.2" fill="#40396e"/><circle cx="44.6" cy="37.5" r="2.2" fill="#40396e"/><circle cx="42.6" cy="40.9" r="2.2" fill="#40396e"/><circle cx="40.9" cy="44.3" r="2.2" fill="#40396e"/><circle cx="39.2" cy="47.3" r="2.2" fill="#40396e"/><circle cx="37.8" cy="50.4" r="2.2" fill="#40396e"/><circle cx="36.7" cy="53.7" r="2.2" fill="#40396e"/><circle cx="36.3" cy="57.1" r="2.2" fill="#40396e"/><circle cx="36.1" cy="60.9" r="2.2" fill="#40396e"/><circle cx="37.2" cy="64.5" r="2.2" fill="#40396e"/><circle cx="38.5" cy="67.8" r="2.2" fill="#40396e"/><circle cx="40.5" cy="69.7" r="2.2" fill="#40396e"/><circle cx="42.7" cy="72.2" r="2.2" fill="#40396e"/><circle cx="44.7" cy="74.5" r="2.2" fill="#40396e"/><circle cx="46.9" cy="77.4" r="2.2" fill="#40396e"/><circle cx="51.8" cy="32.1" r="2.2" fill="#40396e"/><circle cx="53.8" cy="34.7" r="2.2" fill="#40396e"/><circle cx="55.5" cy="37.5" r="2.2" fill="#40396e"/><circle cx="57.5" cy="40.9" r="2.2" fill="#40396e"/><circle cx="59.2" cy="44.3" r="2.2" fill="#40396e"/><circle cx="60.9" cy="47.3" r="2.2" fill="#40396e"/><circle cx="62.3" cy="50.4" r="2.2" fill="#40396e"/><circle cx="63.4" cy="53.7" r="2.2" fill="#40396e"/><circle cx="63.8" cy="57.1" r="2.2" fill="#40396e"/><circle cx="64" cy="60.9" r="2.2" fill="#40396e"/><circle cx="63" cy="64.5" r="2.2" fill="#40396e"/><circle cx="61.6" cy="67.8" r="2.2" fill="#40396e"/><circle cx="59.6" cy="69.7" r="2.2" fill="#40396e"/><circle cx="57.4" cy="72.2" r="2.2" fill="#40396e"/><circle cx="55.4" cy="74.5" r="2.2" fill="#40396e"/><circle cx="53.2" cy="77.4" r="2.2" fill="#40396e"/><path fill="#ef8630" d="M23.6,64.9c0.5,1.8,1,3.6,1.3,5.4c2.8,8.6,8.7,15.5,16.5,18.5c2.3,0.9,4.9-0.1,6-2.2l1.3-2.4 c0.3-0.5,0.8-0.8,1.3-0.8s1.1,0.3,1.3,0.8l1.3,2.4c1.2,2.2,3.8,3.1,6,2.2c10.9-4.3,18.2-16.2,18.2-29.5c0-6-1.5-11.9-4.3-17 c-4-7.1-6.3-14.6-7.1-22.5c0,0,0,0,0,0l0-0.2c-0.5-4.1-3.6-7.4-7.7-8c-2.5-0.4-4.9,0.2-6.9,1.6c-0.5,0.4-1.2,0.4-1.7,0 c-2-1.4-4.5-2-6.9-1.6c-4,0.6-7.2,4-7.7,8l0,0.2c-0.7,7.9-3.1,15.4-7.1,22.5c-0.2,0.4-0.4,0.7-0.6,1.1c-1.6,4.9-2.5,10-3.7,15 c0,0.3,0,0.6,0,0.8C23.1,61.3,23.3,63.1,23.6,64.9z M30.1,43.9c4.2-7.4,6.7-15.4,7.4-23.6l0-0.2c0.3-2.7,2.4-5,5.2-5.4 c0.3-0.1,0.7-0.1,1-0.1c1.3,0,2.6,0.4,3.7,1.2c0.8,0.5,1.7,0.8,2.6,0.8c0.9,0,1.9-0.3,2.6-0.8c1.1-0.8,2.3-1.2,3.6-1.2 c0.3,0,0.7,0,1,0.1c2.7,0.4,4.8,2.7,5.2,5.4l0,0.2c0.8,8.3,3.3,16.2,7.4,23.6c2.6,4.6,3.9,10,3.9,15.5c0,12.1-6.6,22.9-16.3,26.7 c-0.2,0.1-0.4,0.1-0.7,0.1c-0.7,0-1.3-0.4-1.6-1L54,82.9c-0.8-1.4-2.3-2.3-4-2.3s-3.2,0.9-4,2.3l-1.3,2.4c-0.3,0.6-1,1-1.6,1 c-0.2,0-0.4,0-0.7-0.1c-9.8-3.9-16.3-14.6-16.3-26.7C26.1,53.8,27.5,48.5,30.1,43.9z"/><path fill="#ef8630" d="M68.5,19.7c0.3,3.1,0.9,6.1,1.7,9.1c-0.2-1-0.4-2-0.6-2.9C69.2,23.8,69,21.6,68.5,19.7 C68.5,19.6,68.5,19.7,68.5,19.7z"/><path fill="#ef8630" d="M50,88.2c0,0-0.1,0.1-0.1,0.1c0.1,0,0.1,0,0.2,0.1C50.1,88.3,50,88.2,50,88.2z"/><path fill="#ef8630" d="M36.4,89.8c0.8,0.6,1.7,1,2.7,1.4C38.2,90.8,37.3,90.3,36.4,89.8z"/><path fill="#40396e" d="M51.9,71.8h-3.8l-7.9-0.6l5.1,5.9c1.9,2.3,3,5.1,3,8.1v0l0.8,0h2l0.8,0v0c0-3,1.1-5.9,3-8.1l5.1-5.9L51.9,71.8	z"/></svg>