<svg xmlns="http://www.w3.org/2000/svg"  viewBox="0 0 100 100" width="100px" height="100px"><path d="M52,96c-1.6,0-3.2-0.6-4.4-1.7c-1.4-1.2-2.1-3-2.1-4.8c0-6-1.5-10.6-4.8-14.1c-1.3,0.5-2.7,0.7-4.1,0.7	c-0.1,0-0.3,0-0.4,0c-2.2,2.5-5.4,3.9-8.8,3.9c-5.3,0-9.8-3.5-11.4-8.4c-6.7-1.7-9.7-7-9.7-11.8c0-6,4.6-12.4,14.7-12.4	c0.5,0,0.9,0,1.3,0c2.2-2.5,5.4-4,8.8-4c0.4,0,0.8,0,1.3,0.1c0.4-1.1,0.9-2,1.6-2.9c-1-1-1.8-2.1-2.5-3.4c-2-3.9-2.2-8.1-0.8-12	c1.1-2.9,3-5.3,5.6-7C38.1,11,44.1,6.3,52,6.3c7.9,0,13.9,4.7,15.7,12.2c2.5,1.7,4.5,4.1,5.6,7c1.4,3.8,1.2,8.1-0.8,12	c-0.6,1.3-1.5,2.4-2.5,3.4c0.7,0.9,1.2,1.9,1.6,2.9c0.4,0,0.8-0.1,1.3-0.1c3.4,0,6.6,1.5,8.8,4c0.4,0,0.9,0,1.3,0	c10.1,0,14.7,6.4,14.7,12.4c0,4.8-3.1,10.1-9.7,11.8c-1.6,4.9-6.1,8.4-11.4,8.4c-3.4,0-6.6-1.5-8.8-3.9c-0.1,0-0.3,0-0.4,0	c-1.5,0-3-0.3-4.3-0.8c-2.9,3.5-4.3,8.1-4.5,14.4c0,0.2,0,0.4-0.1,0.6c-0.4,3.1-3,5.5-6.1,5.7L52,96z" opacity=".35"/><path fill="#f2f2f2" d="M50,94c-1.6,0-3.2-0.6-4.4-1.7c-1.4-1.2-2.1-3-2.1-4.8c0-6-1.5-10.6-4.8-14.1c-1.3,0.5-2.7,0.7-4.1,0.7	c-0.1,0-0.3,0-0.4,0c-2.2,2.5-5.4,3.9-8.8,3.9c-5.3,0-9.8-3.5-11.4-8.4c-6.7-1.7-9.7-7-9.7-11.8c0-6,4.6-12.4,14.7-12.4	c0.5,0,0.9,0,1.3,0c2.2-2.5,5.4-4,8.8-4c0.4,0,0.8,0,1.3,0.1c0.4-1.1,0.9-2,1.6-2.9c-1-1-1.8-2.1-2.5-3.4c-2-3.9-2.2-8.1-0.8-12	c1.1-2.9,3-5.3,5.6-7C36.1,9,42.1,4.3,50,4.3c7.9,0,13.9,4.7,15.7,12.2c2.5,1.7,4.5,4.1,5.6,7c1.4,3.8,1.2,8.1-0.8,12	c-0.6,1.3-1.5,2.4-2.5,3.4c0.7,0.9,1.2,1.9,1.6,2.9c0.4,0,0.8-0.1,1.3-0.1c3.4,0,6.6,1.5,8.8,4c0.4,0,0.9,0,1.3,0	c10.1,0,14.7,6.4,14.7,12.4c0,4.8-3.1,10.1-9.7,11.8c-1.6,4.9-6.1,8.4-11.4,8.4c-3.4,0-6.6-1.5-8.8-3.9c-0.1,0-0.3,0-0.4,0	c-1.5,0-3-0.3-4.3-0.8c-2.9,3.5-4.3,8.1-4.5,14.4c0,0.2,0,0.4-0.1,0.6c-0.4,3.1-3,5.5-6.1,5.7L50,94z"/><path fill="#96c362" stroke="#40396e" stroke-linecap="round" stroke-linejoin="round" stroke-miterlimit="10" stroke-width="3" d="M34.7,55.9c-0.1,0-0.2,0-0.3,0c0.2-0.6,0.3-1.3,0.3-2c0-3.2-2.5-5.9-5.5-5.9c-2.6,0-4.8,2-5.4,4.6	c-1.4-0.4-3-0.7-4.8-0.7c-5.6,0-8.2,2.6-8.2,5.9c0,3.2,2.6,5.9,8.2,5.9c0.4,0,0.9,0,1.3-0.1c-0.2,0.6-0.4,1.3-0.4,2	c0,3.2,2.5,5.9,5.5,5.9c2.9,0,5.3-2.4,5.5-5.5c1,1,2.3,1.6,3.7,1.6c3.1,0,5.5-2.6,5.5-5.9S37.7,55.9,34.7,55.9z"/><path fill="#96c362" stroke="#40396e" stroke-linecap="round" stroke-linejoin="round" stroke-miterlimit="10" stroke-width="3" d="M60.8,21.2c-0.6-0.3-1-0.9-1.1-1.6c-0.7-6.1-4.8-8.8-9.7-8.8s-9,2.7-9.7,8.8c-0.1,0.7-0.5,1.3-1.1,1.6	c-4,1.6-6.4,6.4-3.9,11.3c1.3,2.6,4.1,3.7,7,3.8c1.4,0.1,2.2,1.6,1.6,2.8c-0.5,1-1.6,1.1-2.5,1.3c-2.1,0.4-4.5,1.7-5,4	c-0.5,2.4,1.6,4.3,3.6,5.1c0.9,0.3,1.8,0.5,2.7,0.5c-0.3,0.6-0.6,1.3-0.6,2c0,2.4,2.2,4.4,4.8,3.8c1.4-0.3,2.6-1.4,3-2.9	c0.4-1.9-0.2-1.9,0.2,0c0.3,1.4,1.5,2.6,3,2.9c2.5,0.5,4.8-1.4,4.8-3.8c0-0.7-0.2-1.4-0.6-2c3.6-0.2,6.4-2.3,6.4-4.9	c0-3-3.2-4.3-5.7-4.8c-0.9-0.2-2-0.7-2.1-1.7c-0.2-1.1,0.7-2.2,1.8-2.3c2.9-0.2,5.7-1.3,7-3.8C67.1,27.6,64.8,22.8,60.8,21.2z"/><path fill="#96c362" stroke="#40396e" stroke-linecap="round" stroke-linejoin="round" stroke-miterlimit="10" stroke-width="3" d="M81,52c-1.7,0-3.3,0.2-4.8,0.7C75.7,50,73.5,48,70.9,48c-3.1,0-5.5,2.6-5.5,5.9c0,0.7,0.1,1.4,0.3,2	c-0.1,0-0.2,0-0.3,0c-3.1,0-5.5,2.6-5.5,5.9s2.5,5.9,5.5,5.9c1.4,0,2.7-0.6,3.7-1.6c0.2,3.1,2.6,5.5,5.5,5.5c3.1,0,5.5-2.6,5.5-5.9	c0-0.7-0.1-1.4-0.4-2c0.4,0,0.8,0.1,1.3,0.1c5.6,0,8.2-2.6,8.2-5.9C89.2,54.6,86.6,52,81,52z"/><line x1="50" x2="50" y1="28.7" y2="87.5" fill="none" stroke="#40396e" stroke-linecap="round" stroke-linejoin="round" stroke-miterlimit="10" stroke-width="3"/><path fill="none" stroke="#40396e" stroke-linecap="round" stroke-linejoin="round" stroke-miterlimit="10" stroke-width="3" d="M23.5,59.2C40,62.5,50,70.9,50,87.5"/><path fill="none" stroke="#40396e" stroke-linecap="round" stroke-linejoin="round" stroke-miterlimit="10" stroke-width="3" d="M72.6,59.2c-14.2,4.3-22,12.4-22.6,28.3"/></svg>