<svg xmlns="http://www.w3.org/2000/svg"  viewBox="0 0 100 100" width="100px" height="100px"><path d="M28.3,94.2c-7.9,0-14.9-5.1-17.4-12.6c-2.4-7-0.5-15.3,5.2-22c2.4-2.9,5.5-5.5,9.4-7.9c1.7-1.1,3.5-1.9,5.1-2.6	c1.5-0.7,2.8-1.2,3.8-1.9c0.9-0.6,1.4-2.2,1.8-3.5c1.1-3.6,2.4-7.7,5.4-11.5C49.9,21.9,62.1,14.7,75.8,12c0.8-0.1,1.6-0.3,2.1-0.6	c1.2-0.6,3.4-1.6,6.1-1.6c2.7,0,5,1,6.8,3c3.9,4.3,3.5,10.6,3.3,14.7l-0.1,0.9c-0.4,6.8-3.5,13.5-8.8,18.7c-2.2,2.2-4.5,4-6.7,5.8	c-2.3,1.8-4.6,3.7-6.5,5.7c-2,2.1-3.3,5.2-4.4,8.3c-2,5.3-4.5,10.8-9.4,15.2c-3.6,3.2-8.1,5.9-13.8,8l-1.3,0.5	c-4.1,1.5-9.3,3.5-14.5,3.6L28.3,94.2z" opacity=".35"/><path fill="#f2f2f2" d="M26.3,92.2c-7.9,0-14.9-5.1-17.4-12.6c-2.4-7-0.5-15.3,5.2-22c2.4-2.9,5.5-5.5,9.4-7.9c1.7-1.1,3.5-1.9,5.1-2.6	c1.5-0.7,2.8-1.2,3.8-1.9c0.9-0.6,1.4-2.2,1.8-3.5c1.1-3.6,2.4-7.7,5.4-11.5C47.9,19.9,60.1,12.7,73.8,10c0.8-0.1,1.6-0.3,2.1-0.6	c1.2-0.6,3.4-1.6,6.1-1.6c2.7,0,5,1,6.8,3c3.9,4.3,3.5,10.6,3.3,14.7l-0.1,0.9c-0.4,6.8-3.5,13.5-8.8,18.7c-2.2,2.2-4.5,4-6.7,5.8	c-2.3,1.8-4.6,3.7-6.5,5.7c-2,2.1-3.3,5.2-4.4,8.3c-2,5.3-4.5,10.8-9.4,15.2c-3.6,3.2-8.1,5.9-13.8,8l-1.3,0.5	c-4.1,1.5-9.3,3.5-14.5,3.6L26.3,92.2z"/><path fill="#ef8630" stroke="#40396e" stroke-miterlimit="10" stroke-width="3" d="M75.1,16.4c-11.9,2.3-22.8,8.5-30.4,17.9c-2.2,2.8-3.2,6-4.2,9.3c-0.8,2.7-2,5.3-4.4,6.9	c-2.8,1.9-6.2,2.8-9.1,4.6c-2.9,1.8-5.7,3.9-7.9,6.6C15.5,66,13.2,72,15,77.5c1.7,4.9,6.3,8.3,11.5,8.2c4.6-0.1,9.4-2.1,13.7-3.7	c4.2-1.6,8.4-3.6,11.7-6.7c3.8-3.5,5.8-7.9,7.6-12.7c1.4-3.7,3-7.5,5.8-10.4c4-4.2,9.1-7.5,13.3-11.6c3.9-3.8,6.6-8.9,6.9-14.4	c0.2-3.1,0.8-8.4-1.5-10.9c-1.5-1.6-3.7-0.7-5.4,0.1C77.5,15.8,76.3,16.1,75.1,16.4z"/><path fill="#b73b3b" d="M28.6,61.3c-4.5,3.3-10.9,9.8-6.9,15.7c3.4,5,9.6,1.6,13.9,0.2c6.5-2,13.7-6.1,15.3-13.3c0,0,2.4-4.2,1.5-6.4	c-0.4-1.1-3.1-0.5-4.5-1.2c-2.7-1.4-6.2-0.8-9-0.1C35.2,57.3,31.7,59,28.6,61.3z"/><path fill="#b73b3b" d="M53.5,33.4c-2.1,1.8-4.1,3.8-5.4,6.1c-2.2,4,0.2,8.5,4.3,9.9c4.9,1.6,8.8-2.7,12.1-5.7	c4.8-4.3,12.2-8.7,12.2-16.1c0-4.8-6.1-3.6-6.1-3.6C66.1,25,61.8,27.2,58,30C56.6,31,55,32.2,53.5,33.4z"/></svg>