<svg xmlns="http://www.w3.org/2000/svg"  viewBox="0 0 100 100" width="100px" height="100px"><g id="Слой_2"><path d="M93.606,55.893c-8.359-21.827-25.672-39.14-47.501-47.499c-1.546-0.593-3.171-0.895-4.826-0.895 c-5.556,0-10.623,3.486-12.609,8.675c-1.537,4.009-1.017,8.5,1.215,12.048L10.191,78.864c-1.198,3.079-0.801,6.542,1.06,9.262 c1.87,2.734,4.954,4.367,8.25,4.367c1.243,0,2.466-0.23,3.635-0.685l50.641-19.694c2.147,1.363,4.652,2.11,7.224,2.11 c1.655,0,3.28-0.302,4.832-0.897c3.363-1.287,6.026-3.811,7.496-7.105C94.798,62.929,94.897,59.26,93.606,55.893z" opacity=".35"/><path fill="#f2f2f2" d="M91.606,53.893c-8.359-21.827-25.672-39.14-47.501-47.499c-1.546-0.593-3.171-0.895-4.826-0.895 c-5.556,0-10.623,3.486-12.609,8.675c-1.537,4.009-1.017,8.5,1.215,12.048L8.191,76.864c-1.198,3.079-0.801,6.542,1.06,9.262 c1.87,2.734,4.954,4.367,8.25,4.367c1.243,0,2.466-0.23,3.635-0.685l50.641-19.694c2.147,1.363,4.652,2.11,7.224,2.11 c1.655,0,3.28-0.302,4.832-0.897c3.363-1.287,6.026-3.811,7.496-7.105C92.798,60.929,92.897,57.26,91.606,53.893z"/><path fill="#40396e" d="M39.279,9.499c-3.498,0-6.689,2.195-7.939,5.462c-1.291,3.369-0.278,7.075,2.26,9.362L12.851,77.676 c-0.599,1.54-0.402,3.27,0.527,4.627c0.938,1.371,2.479,2.19,4.123,2.19c0.621,0,1.234-0.116,1.823-0.345l53.36-20.751 c1.587,1.757,3.88,2.827,6.317,2.827c1.04,0,2.063-0.19,3.041-0.565c2.118-0.811,3.796-2.4,4.721-4.474s0.987-4.383,0.175-6.503 c-7.852-20.504-24.115-36.767-44.62-44.62C41.342,9.689,40.32,9.499,39.279,9.499L39.279,9.499z"/><path fill="#ffd54f" d="M39.278,18l-23.63,60.764c-0.631,1.622,0.967,3.22,2.589,2.589L79,57.722l0,0 C71.999,39.442,57.558,25.001,39.278,18L39.278,18z"/><path fill="none" stroke="#ef8630" stroke-linecap="round" stroke-miterlimit="10" stroke-width="11" d="M79,57.722L79,57.722C71.999,39.442,57.558,25.001,39.278,18l0,0"/><path fill="#689f38" d="M55,64.146c0,0-1.072-11.333-12-7.264C44.178,68.673,55,64.146,55,64.146z"/><path fill="#689f38" d="M32.596,46.284c-1.579-0.459-2.929-0.62-4.095-0.572l-3.656,9.402C28.069,55.039,32.406,53.572,32.596,46.284 z"/><circle cx="43" cy="41" r="8" fill="#de5147"/><path fill="#de5147" d="M33,69c-4.971,0-9,4.029-9,9c0,0.367,0.03,0.727,0.074,1.082l16.214-6.305C38.66,70.499,36.015,69,33,69z"/><circle cx="33.25" cy="62.25" r="2.75" fill="none" stroke="#40396e" stroke-miterlimit="10" stroke-width="3"/><circle cx="57.25" cy="50.25" r="2.75" fill="none" stroke="#40396e" stroke-miterlimit="10" stroke-width="3"/></g></svg>