<svg xmlns="http://www.w3.org/2000/svg"  viewBox="0 0 100 100" width="100px" height="100px"><path d="M52,98C27.7,98,8,80.4,8,58.9c0-15.6,10.8-29.8,26.7-35.8l-0.9-5.5c-0.4-2.2,0.5-4.5,2.2-6	c1.2-1,2.7-1.6,4.3-1.6c0.7,0,1.3,0.1,2,0.3c1.2,0.4,2.3,0.8,3.2,1.3l0.6-1.5C47,7.6,49.3,6,52,6s5,1.6,6,4.1l0.7,1.7	c0.7-0.4,1.5-0.8,2.3-1.2c0.9-0.4,1.8-0.6,2.8-0.6c1.4,0,2.8,0.5,3.9,1.3c1.9,1.5,2.9,3.9,2.5,6.3l-0.9,5.5	C85.2,29.1,96,43.3,96,58.9C96,80.4,76.3,98,52,98z" opacity=".35"/><path fill="#f2f2f2" d="M50,96C25.7,96,6,78.4,6,56.9c0-15.6,10.8-29.8,26.7-35.8l-0.9-5.5c-0.4-2.2,0.5-4.5,2.2-6	c1.2-1,2.7-1.6,4.3-1.6c0.7,0,1.3,0.1,2,0.3c1.2,0.4,2.3,0.8,3.2,1.3L44,8.1C45,5.6,47.3,4,50,4s5,1.6,6,4.1l0.7,1.7	c0.7-0.4,1.5-0.8,2.3-1.2C59.9,8.2,60.9,8,61.8,8c1.4,0,2.8,0.5,3.9,1.3c1.9,1.5,2.9,3.9,2.5,6.3l-0.9,5.5	C83.2,27.1,94,41.3,94,56.9C94,78.4,74.3,96,50,96z"/><path fill="#ff7575" d="M56.7,26.2l-1.1,3.2v0.5c15.1,2.3,26.6,13.5,26.6,26.9c0,12.9-10.5,23.7-24.7,26.6c-3.8,0.8-7.8-3.3-7.8-3.3	s-3.6,4-7.4,3.3c-14.2-2.8-24.7-13.7-24.7-26.6c0-13.4,11.5-24.6,26.6-26.9v-0.5l-1.5-3.1c-16.4,2.9-28.8,15.4-28.8,30.4	c0,17.2,16.2,31.4,36.1,31.4s36.1-14.2,36.1-31.4C86.1,41.6,73.4,29,56.7,26.2z"/><path fill="#ffe8d9" d="M44.1,29.8C29,32.1,17.5,43.3,17.5,56.7c0,12.9,10.5,23.7,24.7,26.6c3.8,0.8,7.4-3.3,7.4-3.3s4,4,7.8,3.3	c14.2-2.8,24.7-13.7,24.7-26.6c0-13.4-11.5-24.6-26.6-26.9v-0.1c-1.8-0.3-3.7-0.4-5.7-0.4C47.9,29.4,46,29.5,44.1,29.8L44.1,29.8z"/><path fill="#ff7575" d="M38.8,16.2l1.9,11.2l3.7,2.3C44.4,26.9,38.8,16.2,38.8,16.2z M61.2,16.2c0,0-5.7,10.7-5.6,13.6l3.7-2.3	L61.2,16.2z"/><path fill="#ff7575" d="M50,29.5c3.1,0,6.2,0.4,9,1l2.2-14.3c-7.5,3.8-7.5,5.6-7.5,5.6L50,12.5l-3.8,9.4c0,0,0-1.9-7.5-5.6l2.5,14.2	C44.1,29.8,47,29.5,50,29.5z"/><path fill="none" stroke="#40396e" stroke-linecap="round" stroke-linejoin="round" stroke-miterlimit="10" stroke-width="3" d="M60,25.6l1.9-11.1c-5,2.4-7.9,5.9-7.9,5.9L50,10.5l-3.9,9.9c0,0-2.3-4.1-7.9-5.9L40,25.6	c-15.9,3.8-27.5,16.3-27.5,31.3c0,18,16.8,32.6,37.5,32.6s37.5-14.6,37.5-32.6C87.5,41.9,75.8,29.4,60,25.6z"/><path fill="#de5147" d="M44.1,78.2c1.7,0.3,3.4-0.6,4.5-1.4c0.8-0.6,1.9-0.6,2.7,0c1.2,0.8,2.9,1.8,4.7,1.4c3.4-0.7,6.4-1.9,9.1-3.6	c1.3-0.8,1.4-2.7,0.3-3.7L51.5,59c-0.9-0.7-2.1-0.7-3,0L34.7,70.9c-1.2,1-1,2.8,0.3,3.7C37.7,76.3,40.7,77.5,44.1,78.2z"/><path fill="#de5147" d="M46,51.9V38c0-1.3-1.2-2.4-2.5-2.2c0,0,0,0,0,0v0c-11.3,1.7-19.8,10-19.8,20c0,3.7,1.2,7.2,3.2,10.2	c0.7,1.1,2.3,1.3,3.3,0.4l15-13C45.7,53.1,46,52.5,46,51.9z"/><circle cx="42.6" cy="36.5" r="2.6" fill="#de5147"/><circle cx="39.2" cy="37.3" r="2.6" fill="#de5147"/><circle cx="35.9" cy="38.9" r="2.6" fill="#de5147"/><circle cx="32.5" cy="40.9" r="2.6" fill="#de5147"/><circle cx="29.7" cy="43.5" r="2.6" fill="#de5147"/><circle cx="27.1" cy="46.2" r="2.6" fill="#de5147"/><circle cx="25.5" cy="50" r="2.6" fill="#de5147"/><circle cx="24.4" cy="53.7" r="2.6" fill="#de5147"/><circle cx="23.9" cy="57.8" r="2.6" fill="#de5147"/><circle cx="24.4" cy="61.5" r="2.6" fill="#de5147"/><circle cx="25.8" cy="65" r="2.6" fill="#de5147"/><circle cx="28.8" cy="65.6" r="2.6" fill="#de5147"/><circle cx="45.3" cy="36.9" r="2.6" fill="#de5147"/><circle cx="46" cy="40" r="2.6" fill="#de5147"/><circle cx="46" cy="43.7" r="2.6" fill="#de5147"/><circle cx="46" cy="47.4" r="2.6" fill="#de5147"/><circle cx="45.3" cy="51" r="2.6" fill="#de5147"/><circle cx="38.3" cy="70.3" r="2.6" fill="#de5147"/><circle cx="41.2" cy="67.6" r="2.6" fill="#de5147"/><circle cx="44.1" cy="65.2" r="2.6" fill="#de5147"/><circle cx="47" cy="62.7" r="2.6" fill="#de5147"/><circle cx="62" cy="70.3" r="2.6" fill="#de5147"/><circle cx="59" cy="67.6" r="2.6" fill="#de5147"/><circle cx="56.2" cy="65.2" r="2.6" fill="#de5147"/><circle cx="53.3" cy="62.7" r="2.6" fill="#de5147"/><circle cx="50" cy="60.3" r="2.6" fill="#de5147"/><circle cx="36.4" cy="72.6" r="2.6" fill="#de5147"/><circle cx="38" cy="74.7" r="2.6" fill="#de5147"/><circle cx="41" cy="75.8" r="2.6" fill="#de5147"/><circle cx="44" cy="76.4" r="2.6" fill="#de5147"/><circle cx="46.8" cy="75.5" r="2.6" fill="#de5147"/><circle cx="63.7" cy="72.8" r="2.6" fill="#de5147"/><circle cx="61.6" cy="74.5" r="2.6" fill="#de5147"/><circle cx="58.7" cy="75.6" r="2.6" fill="#de5147"/><circle cx="55.8" cy="76.4" r="2.6" fill="#de5147"/><circle cx="53.1" cy="75.5" r="2.6" fill="#de5147"/><circle cx="50" cy="74.4" r="2.6" fill="#de5147"/><circle cx="43.3" cy="53.3" r="2.6" fill="#de5147"/><circle cx="40.6" cy="56" r="2.6" fill="#de5147"/><circle cx="37.4" cy="58.6" r="2.6" fill="#de5147"/><circle cx="34.5" cy="61.1" r="2.6" fill="#de5147"/><circle cx="31.3" cy="63.9" r="2.6" fill="#de5147"/><path fill="#de5147" d="M54,51.9V38c0-1.3,1.2-2.4,2.5-2.2c0,0,0,0,0,0v0c11.3,1.7,19.8,10,19.8,20c0,3.7-1.2,7.2-3.2,10.2	c-0.7,1.1-2.3,1.3-3.3,0.4l-15-13C54.3,53.1,54,52.5,54,51.9z"/><circle cx="57.1" cy="36.3" r="2.6" fill="#de5147"/><circle cx="60.8" cy="37.3" r="2.6" fill="#de5147"/><circle cx="64.1" cy="38.9" r="2.6" fill="#de5147"/><circle cx="67.5" cy="40.9" r="2.6" fill="#de5147"/><circle cx="70.3" cy="43.5" r="2.6" fill="#de5147"/><circle cx="72.9" cy="46.2" r="2.6" fill="#de5147"/><circle cx="74.5" cy="50" r="2.6" fill="#de5147"/><circle cx="75.6" cy="53.7" r="2.6" fill="#de5147"/><circle cx="76.1" cy="57.8" r="2.6" fill="#de5147"/><circle cx="75.6" cy="61.5" r="2.6" fill="#de5147"/><circle cx="74.5" cy="64.4" r="2.6" fill="#de5147"/><circle cx="71.7" cy="65.7" r="2.6" fill="#de5147"/><circle cx="54.8" cy="36.7" r="2.6" fill="#de5147"/><circle cx="54" cy="40" r="2.6" fill="#de5147"/><circle cx="54" cy="43.7" r="2.6" fill="#de5147"/><circle cx="54" cy="47.4" r="2.6" fill="#de5147"/><circle cx="54.7" cy="51" r="2.6" fill="#de5147"/><circle cx="56.7" cy="53.3" r="2.6" fill="#de5147"/><circle cx="59.4" cy="56" r="2.6" fill="#de5147"/><circle cx="62.6" cy="58.6" r="2.6" fill="#de5147"/><circle cx="65.5" cy="61.1" r="2.6" fill="#de5147"/><circle cx="68.7" cy="63.9" r="2.6" fill="#de5147"/></svg>