<svg xmlns="http://www.w3.org/2000/svg"  viewBox="0 0 100 100" width="100px" height="100px"><g id="Слой_2"><path d="M95.966,48.272c-1.211-1.734-3.203-2.772-5.325-2.772h-0.016c-1.061-1.833-4.532-3.416-6.296-4.607 c-1.267-2.897-1.489-5.287-4.274-6.765l6.92-9.77c1.698-2.395,2.361-5.312,1.865-8.211c-0.493-2.895-2.084-5.425-4.479-7.123 c-1.869-1.325-4.068-2.026-6.359-2.026c-3.564,0-6.92,1.736-8.979,4.643l-7.706,10.879c-0.272-0.013-0.544-0.02-0.816-0.02 c-0.713,0-1.424,0.045-2.128,0.133C55.818,21.248,52.917,20.5,50,20.5c-5.225,0-10.023,2.244-13.306,6.116 c-0.401,0.052-0.799,0.122-1.194,0.209C34.517,26.609,33.514,26.5,32.5,26.5c-4.916,0-9.5,2.67-12.005,6.824 c-3.32,1.714-6.013,4.54-7.551,7.945c-1.297,1.212-2.347,2.659-3.101,4.251c-1.926,0.153-3.697,1.159-4.813,2.756 c-1.211,1.73-1.504,3.953-0.782,5.942l0.734,2.016c0.248,0.684,0.531,1.403,0.89,2.256l0.214,0.499 c0.331,0.767,0.648,1.454,1.001,2.174c0.372,0.755,0.764,1.497,1.204,2.281l0.096,0.17c0.432,0.764,0.868,1.493,1.3,2.173 C14.4,73.211,20.939,77.165,28.68,81.103l2.906,8.539c1.041,2.343,3.372,3.859,5.939,3.859h25.949c2.567,0,4.899-1.515,5.94-3.861 l2.856-6.425c8.466-4.304,15.661-11.228,20.397-19.672l0.056-0.099c0.456-0.823,0.841-1.559,1.225-2.339 c0.333-0.682,0.649-1.376,1.003-2.196l0.171-0.401c0.366-0.875,0.646-1.585,0.895-2.269l0.733-2.018 C97.474,52.23,97.18,50.007,95.966,48.272z" opacity=".35"/><path fill="#f2f2f2" d="M93.966,46.272c-1.211-1.734-3.203-2.772-5.325-2.772h-0.016c-1.061-1.833-2.532-3.416-4.296-4.607 c-1.267-2.897-3.489-5.287-6.274-6.765l6.92-9.77c1.698-2.395,2.361-5.312,1.865-8.211c-0.493-2.895-2.084-5.425-4.479-7.123 c-1.869-1.325-4.068-2.026-6.359-2.026c-3.564,0-6.92,1.736-8.979,4.643l-7.706,10.879c-0.272-0.013-0.544-0.02-0.816-0.02 c-0.713,0-1.424,0.045-2.128,0.133C53.818,19.248,50.917,18.5,48,18.5c-5.225,0-10.023,2.244-13.306,6.116 c-0.401,0.052-0.799,0.122-1.194,0.209C32.517,24.609,31.514,24.5,30.5,24.5c-4.916,0-9.5,2.67-12.005,6.824 c-3.32,1.714-6.013,4.54-7.551,7.945c-1.297,1.212-2.347,2.659-3.101,4.251c-1.926,0.153-3.697,1.159-4.813,2.756 c-1.211,1.73-1.504,3.953-0.782,5.942l0.734,2.016c0.248,0.684,0.531,1.403,0.89,2.256l0.214,0.499 c0.331,0.767,0.648,1.454,1.001,2.174c0.372,0.755,0.764,1.497,1.204,2.281l0.096,0.17c0.432,0.764,0.868,1.493,1.3,2.173 C12.4,71.211,18.939,77.165,26.68,81.103l2.906,6.539c1.041,2.343,3.372,3.859,5.939,3.859h25.949c2.567,0,4.899-1.515,5.94-3.861 l2.856-6.425c8.466-4.304,15.661-11.228,20.397-19.672l0.056-0.099c0.456-0.823,0.841-1.559,1.225-2.339 c0.333-0.682,0.649-1.376,1.003-2.196l0.171-0.401c0.366-0.875,0.646-1.585,0.895-2.269l0.733-2.018 C95.474,50.23,95.18,48.007,93.966,46.272z"/><path fill="#f9b84f" d="M61.475,86.5H35.525c-0.593,0-1.13-0.349-1.37-0.89l-3.649-8.21c-7.626-3.503-14.049-9.127-18.599-16.293 c-0.39-0.613-0.781-1.269-1.163-1.944L10.652,59c-0.401-0.716-0.753-1.383-1.075-2.036c-0.311-0.634-0.598-1.256-0.897-1.949 l-0.198-0.461c-0.324-0.771-0.578-1.414-0.801-2.028l-0.732-2.013C6.781,50.053,6.85,49.54,7.13,49.14 c0.28-0.401,0.739-0.64,1.229-0.64h3.196c0.274-2.474,1.556-4.719,3.565-6.214c1.132-3.291,3.749-5.934,7.024-7.109 c1.353-3.38,4.679-5.677,8.355-5.677c1.028,0,2.034,0.174,3,0.519c1.218-0.435,2.512-0.6,3.801-0.482 C39.55,25.786,43.555,23.5,48,23.5c2.663,0,5.255,0.852,7.384,2.414c2.032-0.551,4.208-0.55,6.24,0.001l9.479-13.384 c1.123-1.586,2.954-2.532,4.898-2.532c1.248,0,2.447,0.382,3.468,1.105c1.305,0.925,2.173,2.306,2.442,3.887 c0.271,1.581-0.091,3.172-1.017,4.478L71.49,32.747c1.107,0.767,1.974,1.839,2.488,3.1c3.09,0.881,5.475,3.345,6.252,6.464 c2.574,1.162,4.432,3.453,5.048,6.189h3.363c0.489,0,0.948,0.238,1.229,0.64c0.28,0.4,0.349,0.913,0.182,1.373l-0.731,2.013 c-0.224,0.613-0.477,1.254-0.796,2.018l-0.163,0.382c-0.338,0.782-0.623,1.403-0.901,1.975c-0.35,0.712-0.699,1.379-1.096,2.094 l-0.058,0.103c-4.562,8.135-11.59,14.637-19.861,18.413l-3.601,8.102C62.604,86.151,62.067,86.5,61.475,86.5z"/><circle cx="58.5" cy="37.5" r="9" fill="#f9b84f"/><circle cx="71.5" cy="44.5" r="6" fill="#f9b84f"/><circle cx="30.5" cy="38.5" r="6" fill="#f9b84f"/><circle cx="26" cy="46" r="8.5" fill="#f9b84f"/><circle cx="67.5" cy="38.5" r="4" fill="#f9b84f"/><rect width="50" height="14" x="23.625" y="53.5" fill="#ffe385"/><path fill="#9ba7c5" d="M58.998,43c-0.6,0-1.205-0.179-1.731-0.552c-1.352-0.958-1.672-2.83-0.714-4.183l17-24 c0.958-1.352,2.831-1.672,4.182-0.714c1.352,0.958,1.672,2.83,0.714,4.183l-17,24C60.863,42.56,59.938,43,58.998,43z"/><circle cx="58" cy="41" r="5.5" fill="#ffe385"/><circle cx="64" cy="49" r="7.5" fill="#ffe385"/><circle cx="36.5" cy="38.5" r="6" fill="#ffe385"/><circle cx="76.5" cy="50.5" r="6" fill="#ffe385"/><circle cx="53.5" cy="49.5" r="6" fill="#ffe385"/><circle cx="43.5" cy="47.5" r="6" fill="#ffe385"/><circle cx="34.5" cy="47.5" r="6" fill="#ffe385"/><circle cx="30" cy="47" r="7" fill="#ffe385"/><circle cx="20.5" cy="49.5" r="6" fill="#ffe385"/><circle cx="48" cy="36" r="9.5" fill="#ffe385"/><polygon fill="#707cc0" points="60.5,83.5 36.5,83.5 32.5,74.5 64.5,74.5"/><path fill="#9aa2e6" d="M10.5,51.5c5.692,15.659,20.499,26.848,38.125,26.848S80.808,67.159,86.5,51.5H10.5z"/><path fill="#707cc0" d="M82.581,59.5c1.571-2.496,2.891-5.174,3.919-8h-76c1.027,2.826,2.356,5.504,3.94,8H82.581z"/><circle cx="52" cy="35" r="1.5" fill="#f9b84f"/><circle cx="40" cy="39" r="1.5" fill="#f9b84f"/><circle cx="35" cy="48" r="1.5" fill="#f9b84f"/><circle cx="54" cy="43" r="1.5" fill="#f9b84f"/><circle cx="66" cy="48" r="1.5" fill="#f9b84f"/><circle cx="22" cy="48" r="1.5" fill="#f9b84f"/><path fill="#40396e" d="M61.475,86.5H35.525c-0.593,0-1.13-0.349-1.37-0.89l-3.649-8.21c-7.626-3.503-14.049-9.127-18.599-16.293 c-0.39-0.613-0.781-1.269-1.163-1.944L10.652,59c-0.401-0.716-0.753-1.383-1.075-2.036c-0.311-0.634-0.598-1.256-0.897-1.949 l-0.198-0.461c-0.324-0.771-0.578-1.414-0.801-2.028l-0.732-2.013C6.781,50.053,6.85,49.54,7.13,49.14 c0.28-0.401,0.739-0.64,1.229-0.64h3.196c0.274-2.474,1.556-4.719,3.565-6.214c1.132-3.291,3.749-5.934,7.024-7.109 c1.353-3.38,4.679-5.677,8.355-5.677c1.028,0,2.034,0.174,3,0.519c1.218-0.435,2.512-0.6,3.801-0.482 C39.55,25.786,43.555,23.5,48,23.5c2.663,0,5.255,0.852,7.384,2.414c2.032-0.551,4.208-0.55,6.24,0.001l9.479-13.384 c1.123-1.586,2.954-2.532,4.898-2.532c1.248,0,2.447,0.382,3.468,1.105c1.305,0.925,2.173,2.306,2.442,3.887 c0.271,1.581-0.091,3.172-1.017,4.478L71.49,32.747c1.107,0.767,1.974,1.839,2.488,3.1c3.09,0.881,5.475,3.345,6.252,6.464 c2.574,1.162,4.432,3.453,5.048,6.189h3.363c0.489,0,0.948,0.238,1.229,0.64c0.28,0.4,0.349,0.913,0.182,1.373l-0.731,2.013 c-0.224,0.613-0.477,1.254-0.796,2.018l-0.163,0.382c-0.338,0.782-0.623,1.403-0.901,1.975c-0.35,0.712-0.699,1.379-1.096,2.094 l-0.058,0.103c-4.562,8.135-11.59,14.637-19.861,18.413l-3.601,8.102C62.604,86.151,62.067,86.5,61.475,86.5z M36.5,83.5 l24.001-0.001l3.436-7.733c0.152-0.341,0.426-0.613,0.768-0.764c7.911-3.478,14.643-9.628,18.955-17.318l0.086-0.152 c0.367-0.661,0.693-1.283,0.995-1.899c0.283-0.581,0.549-1.161,0.83-1.812l0.188-0.437c0.298-0.713,0.534-1.312,0.743-1.884 h-2.518c-0.79,0-1.445-0.613-1.497-1.402c-0.158-2.426-1.747-4.495-4.047-5.272c-0.534-0.181-0.922-0.646-1.004-1.203 c-0.375-2.554-2.334-4.574-4.875-5.028c-0.577-0.103-1.04-0.532-1.188-1.099c-0.336-1.288-1.328-2.354-2.59-2.784 c-0.447-0.152-0.798-0.507-0.943-0.958c-0.146-0.45-0.071-0.942,0.203-1.329l10.405-14.689c0.462-0.652,0.642-1.447,0.507-2.238 s-0.568-1.481-1.221-1.944c-1.309-0.927-3.261-0.587-4.184,0.714L63.436,28.547c-0.395,0.559-1.118,0.776-1.754,0.536 c-1.962-0.742-4.142-0.773-6.113-0.087c-0.5,0.173-1.055,0.07-1.46-0.271C52.382,27.27,50.27,26.5,48,26.5 c-3.665,0-6.936,2.043-8.535,5.333c-0.303,0.624-0.99,0.956-1.674,0.809c-1.225-0.272-2.523-0.147-3.689,0.363 c-0.383,0.168-0.82,0.168-1.203,0C32.134,32.67,31.326,32.5,30.5,32.5c-2.633,0-4.996,1.77-5.748,4.304 c-0.147,0.494-0.537,0.878-1.033,1.018c-2.815,0.79-5.069,3.021-5.883,5.821c-0.1,0.345-0.32,0.642-0.62,0.838 c-1.7,1.111-2.716,2.987-2.716,5.02c0,0.132,0.005,0.264,0.014,0.395c0.029,0.415-0.115,0.823-0.398,1.128 c-0.284,0.305-0.682,0.478-1.098,0.478h-2.519H10.5c0.208,0.571,0.444,1.171,0.744,1.885l0.187,0.435 c0.281,0.646,0.547,1.226,0.815,1.771c0.321,0.653,0.649,1.275,1.022,1.941l0.057,0.102c0.387,0.684,0.753,1.294,1.115,1.866 c4.336,6.83,10.496,12.154,17.812,15.397c0.341,0.15,0.612,0.422,0.764,0.762L36.5,83.5z"/></g></svg>