<svg xmlns="http://www.w3.org/2000/svg"  viewBox="0 0 100 100" width="100px" height="100px"><g id="Слой_2"><path d="M91.133,16.935C85.883,10.287,77.846,6.475,69.081,6.475c-6.896,0-13.749,2.412-19.295,6.792 c-1.526,1.205-6.393,4.257-11.1,7.208c-6.425,4.029-13.708,8.595-17.408,11.517C5.333,44.582,4,65.029,15.845,80.031 c6.369,8.065,16.134,12.691,26.793,12.691c8.431,0,16.814-2.953,23.605-8.316c5.8-4.579,10.124-10.608,12.507-17.435 c1.523-4.364,1.911-5.78,4.905-7.879c0.493-0.345,0.984-0.711,1.459-1.086C98.172,47.694,100.872,29.27,91.133,16.935z" opacity=".35"/><path fill="#f2f2f2" d="M89.133,14.935C83.883,8.287,75.846,4.475,67.081,4.475c-6.896,0-13.749,2.412-19.295,6.792 c-1.526,1.205-6.393,4.257-11.1,7.208c-6.425,4.029-13.708,8.595-17.408,11.517C3.333,42.582,2,63.029,13.845,78.031 c6.369,8.065,16.134,12.691,26.793,12.691c8.431,0,16.814-2.953,23.605-8.316c5.8-4.579,10.124-10.608,12.507-17.435 c1.523-4.364,3.904-7.79,6.905-9.879C95.489,46.852,98.872,27.27,89.133,14.935z"/><path fill="#40396e" d="M84.209,18.034c-4.295-5.44-10.902-8.559-18.127-8.559c-5.777,0-11.529,2.03-16.197,5.716 c-1.739,1.373-6.501,4.359-11.543,7.52c-6.318,3.961-13.478,8.451-16.966,11.205C7.596,44.797,6.632,62.094,16.769,74.932 c5.414,6.857,13.75,10.789,22.869,10.789c7.311,0,14.594-2.571,20.507-7.24c5.052-3.989,8.816-9.231,10.885-15.158 c1.87-5.359,4.898-9.621,8.755-12.326c0.417-0.292,0.831-0.6,1.23-0.916C91.91,41.479,92.24,28.205,84.209,18.034z"/><path fill="#ffb789" d="M81.854,19.893c-7.017-8.887-20.498-9.938-30.11-2.348c-4.137,3.267-22.386,13.891-28.509,18.725 c-12.502,9.872-13.238,25.244-4.111,36.803c9.127,11.558,26.66,12.925,39.162,3.054c4.757-3.756,8.098-8.598,9.911-13.792 c1.908-5.467,5.124-10.469,9.865-13.793c0.369-0.259,0.734-0.53,1.093-0.814C88.768,40.137,88.871,28.78,81.854,19.893z"/><circle cx="44.5" cy="68.5" r="3.5" fill="#d47f56"/><circle cx="62" cy="23" r="5" fill="#d47f56"/><circle cx="34.5" cy="67.5" r="2.5" fill="#d47f56"/><circle cx="42.5" cy="58.5" r="2.5" fill="#d47f56"/><circle cx="59.5" cy="34.5" r="2.5" fill="#d47f56"/><circle cx="70.5" cy="31.5" r="2.5" fill="#d47f56"/></g></svg>