<svg xmlns="http://www.w3.org/2000/svg"  viewBox="0 0 100 100" width="50px" height="50px"><path d="M56.5,96c-10.199,0-21.851-5.63-31.967-15.447C14.807,71.115,9,62.254,9,53.5 c0-15.968,15.587-36.884,29.469-39.318C40.387,10.269,44.036,5,50.5,5c5.267,0,8.293,1.798,9.906,3.925 C61.913,8.194,63.249,8,64.5,8c6.465,0,10.152,3.708,11.799,5.966C78.018,13.15,79.332,13,80.5,13 c7.636,0,11.868,6.562,13.165,10.439c1.019,3.047-0.379,6.431-3.25,7.87c0,0.001-4.42,2.342-11.786,8.746 c1.479,4.133,1.325,7.496,1.175,12.731c-0.046,1.598-0.121,4.22-0.015,5.063c0.569,1.932,1.479,3.778,2.529,5.909 C84.515,68.216,87,73.261,87,80.5C87,89.626,74.458,96,56.5,96z" opacity=".35"/><path fill="#f2f2f2" d="M54.5,94c-10.199,0-21.851-5.63-31.967-15.447C12.807,69.115,7,60.254,7,51.5 c0-10.635,15.587-36.884,29.469-39.318C38.387,8.269,42.036,3,48.5,3c5.267,0,8.293,1.798,9.906,3.925 C59.913,6.194,61.249,6,62.5,6c6.465,0,10.152,3.708,11.799,5.966C76.018,11.15,77.332,11,78.5,11 c7.636,0,11.868,6.562,13.165,10.439c1.019,3.047-0.379,6.431-3.25,7.87c0,0.001-4.42,2.342-11.786,8.746 c1.479,4.133,1.325,7.496,1.175,12.731c-0.046,1.598-0.121,4.22-0.015,5.063c0.569,1.932,1.479,3.778,2.529,5.909 C82.515,66.216,85,71.261,85,78.5C85,87.626,72.458,94,54.5,94z"/><path fill="#f2f2f2" d="M59.5,36.5c0,0,14-19,19-19s7,6,7,6s-8,4-21,17L59.5,36.5z"/><path fill="#f2f2f2" d="M48.5,30.5c0,0,9-18,14-18s7,4,7,4s-7,4-16,18L48.5,30.5z"/><path fill="#f2f2f2" d="M39.5,22.5c0,0,4-12,9-12s6,2,6,2s-5,2-11,14L39.5,22.5z"/><path fill="#b06947" d="M54.5,86C35.925,86,15,62.188,15,49.5C15,42.331,29.57,20,38.5,20 c3.216,0,22.857,12.479,29.939,19.561c1.693,1.693,1.497,6.498,1.367,11.002c-0.094,3.285-0.169,5.88,0.251,7.35 c0.765,2.676,1.944,5.07,3.085,7.385C75.126,69.321,77,73.123,77,78.5C77,81.117,69.272,86,54.5,86z"/><path fill="#ff7575" d="M64,38c-8,0-28,5-28,31c0,24,32,16,32,16l11-5l-2.157-9.663L71,58l0.315-13.303L70,41 C70,41,69,38,64,38z"/><path fill="none" stroke="#40396e" stroke-linecap="round" stroke-linejoin="round" stroke-miterlimit="10" stroke-width="3" d="M69.5,38.5c-0.445-0.445-0.944-0.915-1.487-1.404C78.917,26.809,85.5,23.5,85.5,23.5s-2-6-7-6c-3.544,0-11.604,9.54-16.001,15.099 c-1.62-1.227-3.353-2.479-5.125-3.708C64.43,19.401,69.5,16.5,69.5,16.5s-2-4-7-4c-3.164,0-7.926,7.203-11,12.496 c-1.903-1.204-3.75-2.314-5.437-3.261C50.5,14.5,53.5,11.5,53.5,11.5s0-2-5-2c-4,0-6.309,5.412-7.847,9.558 C39.73,18.699,38.992,18.5,38.5,18.5c-10,0-25,23-25,31c0,14,22,38,41,38c15,0,24-5,24-9c0-9-5-14-7-21 C70.509,54.033,72.859,41.859,69.5,38.5z"/><path fill="#ffe8d9" d="M51,63c0,0-3.542-6.096-1.166-10.798C52.287,47.349,59,48,59,48s-3.124,2.719-5,6 C52.265,57.034,51,63,51,63z"/><path fill="#ffe8d9" d="M67,62c0,0,5.301,6.184,5.938,14.4c0.086,1.104-0.388,2.217-1.317,2.82C66.341,82.646,54,81,54,81 l12.428-4.143c1.49-0.497,2.411-1.987,2.189-3.542L67,62z"/></svg>