<svg xmlns="http://www.w3.org/2000/svg"  viewBox="0 0 100 100" width="100px" height="100px"><path d="M85.2,66.77c-1.87,2.51-4.37,4.33-7.2,5.34v12.27c0,6.47-5.27,11.74-11.75,11.74 S54.5,90.85,54.5,84.38V52.65c-1.31,1.48-2.84,2.71-4.46,3.68V84c0,6.62-5.39,12-12,12c-6.62,0-12-5.38-12-12V56.18 c-5.43-3.52-8.47-9.85-7.99-17.18c0.22-3.32,1.48-16.52,2-22.03l0.02-0.19c0.37-3.86,3.58-6.78,7.47-6.78h22 c3.27,0,6.06,2.07,7.07,5.04C58.73,12,62.26,10,66.25,10c5.54,0,9.36,3.08,11.36,9.15l0.03,0.09l0.03,0.09l9.97,33.76 C89.04,57.83,88.15,62.81,85.2,66.77z" opacity=".35"/><path fill="#d9eeff" d="M49.536,37.5c-0.251-3.775-2-22-2-22h-22c0,0-1.749,18.225-2,22 c-0.46,6.935,3.566,10.585,7.964,11.5l0.036,33c0,2.485,2.015,4.5,4.5,4.5s4.5-2.015,4.5-4.5L40.5,49 C45.101,48.101,49.997,44.457,49.536,37.5z"/><path fill="#d9eeff" d="M70.78,63.5H68.5v18.88c0,2.34-1.9,4.24-4.25,4.24S60,84.72,60,82.38V19.75 c0-2.35,1.9-4.25,4.25-4.25c2.26,0,3.25,1,4.24,4l9.96,33.72C79.97,58.35,76.13,63.5,70.78,63.5z"/><path fill="#40396e" d="M54.03,37.2c-0.24-3.52-1.71-18.98-2.01-22.13C51.79,12.75,49.87,11,47.54,11h-22 c-2.33,0-4.26,1.75-4.48,4.07l-0.03,0.29c-0.53,5.49-1.77,18.61-1.98,21.84c-0.53,7.99,3.61,12.96,7.99,15.22V82c0,4.96,4.03,9,9,9 c4.96,0,9-4.04,9-9V52.53C50.15,50.14,54.53,44.83,54.03,37.2z M39.04,49.3V82c0,1.65-1.35,3-3,3c-1.66,0-3-1.35-3-3V49.29 c0-0.71-0.5-1.32-1.2-1.47c-3.41-0.71-7.23-3.81-6.81-10.22c0.11-1.56,0.47-5.63,0.86-9.85c0.39-4.23,0.81-8.6,1.01-10.75h19.27 c0.41,4.3,1.66,17.49,1.87,20.6c0.39,5.94-3.63,9.41-7.79,10.23C39.54,47.96,39.04,48.58,39.04,49.3z"/><path fill="#40396e" d="M82.77,51.95L72.76,18.09c-0.7-2.12-2.34-7.09-8.51-7.09c-4.82,0-8.75,3.93-8.75,8.75v62.63 c0,4.82,3.93,8.74,8.75,8.74S73,87.2,73,82.38V67.81c3.1-0.55,5.86-2.24,7.79-4.83C83.18,59.79,83.9,55.76,82.77,51.95z M75.99,59.39C74.75,61.05,72.85,62,70.78,62H68.5c-0.83,0-1.5,0.67-1.5,1.5v18.88c0,1.51-1.23,2.74-2.75,2.74 s-2.75-1.23-2.75-2.74V19.75c0-1.52,1.23-2.75,2.75-2.75c1.24,0,1.88,0.13,2.8,2.92l9.96,33.73C77.6,55.63,77.23,57.73,75.99,59.39 z"/><path fill="#f2f2f2" d="M85.64,51.09l-9.97-33.76l-0.03-0.09l-0.03-0.09C73.61,11.08,69.79,8,64.25,8 c-3.99,0-7.52,2-9.64,5.04C53.6,10.07,50.81,8,47.54,8h-22c-3.89,0-7.1,2.92-7.47,6.78l-0.02,0.19c-0.52,5.51-1.78,18.71-2,22.03 c-0.48,7.33,2.56,13.66,7.99,17.18V82c0,6.62,5.38,12,12,12c6.61,0,12-5.38,12-12V54.33c1.62-0.97,3.15-2.2,4.46-3.68v31.73 c0,6.47,5.27,11.74,11.75,11.74S76,88.85,76,82.38V70.11c2.83-1.01,5.33-2.83,7.2-5.34C86.15,60.81,87.04,55.83,85.64,51.09z M42.04,50.47V82c0,3.31-2.7,6-6,6c-3.31,0-6-2.69-6-6V50.44c-4.49-1.47-8.48-5.87-8-13.04c0.25-3.75,1.93-21.3,2-22.04 c0.08-0.77,0.72-1.36,1.5-1.36h22c0.77,0,1.42,0.59,1.49,1.36c0.07,0.74,1.75,18.29,2,22.04C51.51,44.53,46.9,49.01,42.04,50.47z M78.39,61.18C76.58,63.61,73.81,65,70.78,65H70v17.38c0,3.16-2.58,5.74-5.75,5.74s-5.75-2.58-5.75-5.74V19.75 c0-3.17,2.58-5.75,5.75-5.75c3.33,0,4.64,1.92,5.66,5.03l9.98,33.76C80.75,55.7,80.2,58.76,78.39,61.18z"/><path fill="#40396e" d="M40.535,38c-0.812,0-1.479-0.647-1.499-1.464l-0.5-20.5C38.516,15.208,39.171,14.52,40,14.5 c0.012,0,0.024,0,0.037,0c0.812,0,1.479,0.647,1.499,1.464l0.5,20.5c0.02,0.828-0.635,1.516-1.464,1.536 C40.56,38,40.547,38,40.535,38z"/><path fill="#40396e" d="M32.537,38c-0.013,0-0.025,0-0.037,0c-0.829-0.021-1.483-0.708-1.464-1.536l0.5-20.5 c0.021-0.816,0.687-1.464,1.499-1.464c0.013,0,0.025,0,0.037,0c0.829,0.021,1.483,0.708,1.464,1.536l-0.5,20.5 C34.015,37.353,33.348,38,32.537,38z"/></svg>