<svg xmlns="http://www.w3.org/2000/svg"  viewBox="0 0 100 100" width="100px" height="100px"><g id="Слой_2"><path d="M91.005,41c0,0-10.808,7.42-16.005,5c-4.042-1.882-2.715-13.682-3-14l6.755-10.015 c1.572-2.27,1.006-5.385-1.265-6.957l-3.289-2.277c-0.842-0.583-1.836-0.889-2.846-0.889c-0.298,0-0.597,0.027-0.894,0.081 c-1.007,0.183-1.925,0.669-2.639,1.382c-0.164-1.776-9.94-5.981-10.542-5.737c-1.229,0.498-2.21,1.464-2.726,2.685l-3.727,8.809 C49.176,18.376,47.372,18,45.5,18c-4.23,0-8.166,1.994-10.69,5.262c-4.589,0.908-8.337,4.105-9.954,8.476 c-1.215,0.685-2.316,1.555-3.264,2.581c-3.805,0.845-7.058,3.312-8.92,6.682H11c-2.402,0-4.655,1.064-6.18,2.92 c-1.525,1.855-2.134,4.271-1.669,6.627C6.199,66.008,16.73,73.137,31,79.563V87c0,4.411,3.589,8,8,8h24c4.411,0,8-3.589,8-8v-1.43 c14.371-6.417,24.649-19.19,27.802-34.79c0.133-0.582,0.2-1.181,0.2-1.78C99.003,44.589,95.415,41,91.005,41z" opacity=".35"/><path fill="#f2f2f2" d="M89.005,39h-3.001c-1.694-2.095-3.989-3.641-6.582-4.424c-1.55-2.126-3.702-3.769-6.158-4.703 c-0.482-0.857-1.054-1.655-1.706-2.381l5.197-7.507c1.572-2.27,1.006-5.385-1.265-6.957l-3.289-2.277 c-0.842-0.583-1.836-0.889-2.846-0.889c-0.298,0-0.597,0.027-0.894,0.081c-1.007,0.183-1.925,0.669-2.639,1.382 c-0.164-1.776-1.275-3.406-3.032-4.149l-3.684-1.559c-0.622-0.263-1.285-0.395-1.948-0.395c-0.638,0-1.276,0.122-1.878,0.366 c-1.229,0.498-2.21,1.464-2.726,2.685l-3.727,8.809C47.176,16.376,45.372,16,43.5,16c-4.23,0-8.166,1.994-10.69,5.262 c-4.589,0.908-8.337,4.105-9.954,8.476c-1.215,0.685-2.316,1.555-3.264,2.581c-3.805,0.845-7.058,3.312-8.92,6.682H9 c-2.402,0-4.655,1.064-6.18,2.92c-1.525,1.855-2.134,4.271-1.669,6.627C4.199,64.008,14.73,77.137,29,83.563V85 c0,4.411,3.589,8,8,8h24c4.411,0,8-3.589,8-8v-1.43c14.371-6.417,24.649-19.19,27.802-34.79c0.133-0.582,0.2-1.181,0.2-1.78 C97.003,42.589,93.415,39,89.005,39z"/><path fill="#40396e" d="M47.999,39.001c-0.256,0-0.517-0.05-0.768-0.155c-1.02-0.425-1.502-1.596-1.077-2.615l10-24 c0.425-1.019,1.597-1.503,2.615-1.076c1.02,0.425,1.502,1.596,1.077,2.615l-10,24C49.526,38.537,48.782,39.001,47.999,39.001z"/><rect width="35" height="15" x="30" y="34" fill="#d9eeff"/><circle cx="22.5" cy="45.5" r="5.5" fill="#d9eeff"/><circle cx="29.5" cy="41.5" r="5.5" fill="#d9eeff"/><circle cx="68.5" cy="42.5" r="5.5" fill="#d9eeff"/><circle cx="75.5" cy="47.5" r="5.5" fill="#d9eeff"/><rect width="24" height="9" x="37" y="76" fill="#707cc0"/><circle cx="35.5" cy="34.5" r="5.5" fill="#d9eeff"/><circle cx="61.5" cy="36.5" r="5.5" fill="#d9eeff"/><circle cx="43.5" cy="29.5" r="5.5" fill="#d9eeff"/><circle cx="51.5" cy="34.5" r="6.5" fill="#d9eeff"/><path fill="#40396e" d="M52.998,44c-0.387,0-0.778-0.112-1.123-0.346c-0.914-0.621-1.15-1.865-0.529-2.779l17-25 c0.622-0.912,1.866-1.147,2.778-0.529c0.914,0.621,1.15,1.865,0.529,2.779l-17,25C54.267,43.693,53.638,44,52.998,44z"/><path fill="#9ba7c5" d="M31.5,44h-4c-0.828,0-1.5-0.672-1.5-1.5l0,0c0-0.828,0.672-1.5,1.5-1.5h4c0.828,0,1.5,0.672,1.5,1.5l0,0 C33,43.328,32.328,44,31.5,44z"/><path fill="#9ba7c5" d="M49.5,35h-4c-0.828,0-1.5-0.672-1.5-1.5l0,0c0-0.828,0.672-1.5,1.5-1.5h4c0.828,0,1.5,0.672,1.5,1.5l0,0 C51,34.328,50.328,35,49.5,35z"/><path fill="#9ba7c5" d="M41.854,43.975l-2.828-2.828c-0.586-0.586-0.586-1.536,0-2.121l0,0c0.586-0.586,1.536-0.586,2.121,0 l2.828,2.828c0.586,0.586,0.586,1.536,0,2.121l0,0C43.389,44.561,42.439,44.561,41.854,43.975z"/><path fill="#9ba7c5" d="M66.854,48.975l-2.828-2.828c-0.586-0.586-0.586-1.536,0-2.121v0c0.586-0.586,1.536-0.586,2.121,0 l2.828,2.828c0.586,0.586,0.586,1.536,0,2.121v0C68.389,49.561,67.439,49.561,66.854,48.975z"/><path fill="#9aa2e6" d="M9,47c3.691,18.724,20.193,32.848,40,32.848S85.309,65.724,89,47H9z"/><path fill="#40396e" d="M43.5,24c2.709,0,4.956,1.961,5.411,4.539C49.705,28.194,50.579,28,51.5,28c2.904,0,5.362,1.905,6.196,4.534 C58.684,31.586,60.022,31,61.5,31c3.038,0,5.5,2.462,5.5,5.5c0,0.247-0.022,0.488-0.053,0.726C67.44,37.081,67.96,37,68.5,37 c2.942,0,5.337,2.311,5.486,5.216C74.467,42.078,74.974,42,75.5,42c2.869,0,5.222,2.197,5.475,5H89 c-2.912,14.775-13.805,26.679-28,31.046V85H37v-6.954C22.805,73.679,11.912,61.775,9,47h8.212C17.077,46.523,17,46.021,17,45.5 c0-3.038,2.462-5.5,5.5-5.5c0.574,0,1.127,0.089,1.648,0.252C24.714,37.816,26.893,36,29.5,36c0.169,0,0.335,0.01,0.5,0.025V34 h0.025c0.253-2.803,2.606-5,5.475-5c0.903,0,1.753,0.222,2.505,0.608C38.005,29.572,38,29.536,38,29.5 C38,26.462,40.462,24,43.5,24 M89,47h0.005 M43.5,21c-3.441,0-6.412,2.056-7.747,5.004C35.668,26.001,35.584,26,35.5,26 c-4.271,0-7.808,3.093-8.409,7.269c-0.007,0.027-0.013,0.053-0.019,0.08c-1.996,0.589-3.698,1.891-4.789,3.654 c-4.078,0.103-7.452,3.092-8.15,6.997H9c-0.897,0-1.748,0.402-2.317,1.095c-0.57,0.693-0.8,1.605-0.626,2.485 C9.03,62.663,19.644,74.978,34,80.202V85c0,1.657,1.343,3,3,3h24c1.657,0,3-1.343,3-3v-4.798 c14.313-5.209,24.906-17.466,27.916-32.486c0.056-0.23,0.086-0.469,0.086-0.716c0-1.657-1.341-3-2.997-3H89h-5.746 c-1.232-2.759-3.872-4.696-6.997-4.967c-1.178-2.642-3.658-4.557-6.61-4.956C68.603,30.567,65.345,28,61.5,28 c-0.923,0-1.826,0.148-2.681,0.433C57.056,26.299,54.405,25,51.5,25c-0.258,0-0.514,0.01-0.769,0.031 C49.223,22.584,46.525,21,43.5,21L43.5,21z"/></g></svg>