<svg xmlns="http://www.w3.org/2000/svg"  viewBox="0 0 100 100" width="50px" height="50px"><path d="M15.039,89.551c-3.733,0-7.035-2.253-8.411-5.739C5.045,79.811,6.455,75.42,9.84,73.064	c-1.499-0.779-2.78-1.974-3.658-3.476c-2.501-4.282-1.158-9.677,3.059-12.282l3.081-1.899C16.1,44.495,27.369,37.045,40.5,37.045	c0.514,0,1.035,0.013,1.56,0.038l34.091-21.007c1.718-1.062,3.693-1.625,5.707-1.625c0.885,0,1.773,0.109,2.639,0.324	c2.876,0.716,5.281,2.518,6.775,5.074c1.493,2.553,1.883,5.531,1.098,8.385c-0.785,2.853-2.645,5.212-5.235,6.644L64.194,47.581	c0.476,0.567,0.925,1.151,1.347,1.751l18.383-7.761c1.353-0.572,2.781-0.863,4.241-0.863c1.445,0,2.86,0.285,4.206,0.848	c2.733,1.145,4.835,3.291,5.924,6.045c1.087,2.753,1.02,5.756-0.192,8.456c-1.21,2.7-3.407,4.748-6.186,5.768L62.775,72.562	c-1.31,6.545-7.101,11.492-14.026,11.492H32.303c-0.225,0-0.45-0.006-0.677-0.017l-13.44,4.951	C17.171,89.362,16.113,89.551,15.039,89.551z" opacity=".35"/><path fill="#f2f2f2" d="M13.039,87.551c-3.733,0-7.035-2.253-8.411-5.739C3.045,77.811,4.455,73.42,7.84,71.064	c-1.499-0.779-2.78-1.974-3.658-3.476c-2.501-4.282-1.158-9.677,3.059-12.282l3.081-1.899C14.1,42.495,25.369,35.045,38.5,35.045	c0.514,0,1.035,0.013,1.56,0.038l34.091-21.007c1.718-1.062,3.693-1.625,5.707-1.625c0.885,0,1.773,0.109,2.639,0.324	c2.876,0.716,5.281,2.518,6.775,5.074c1.493,2.553,1.883,5.531,1.098,8.385c-0.785,2.853-2.645,5.212-5.235,6.644L62.194,45.581	c0.476,0.567,0.925,1.151,1.347,1.751l18.383-7.761c1.353-0.572,2.781-0.863,4.241-0.863c1.445,0,2.86,0.285,4.206,0.848	c2.733,1.145,4.835,3.291,5.924,6.045c1.087,2.753,1.02,5.756-0.192,8.456c-1.21,2.7-3.407,4.748-6.186,5.768L60.775,70.562	c-1.31,6.545-7.101,11.492-14.026,11.492H30.303c-0.225,0-0.45-0.006-0.677-0.017l-13.44,4.951	C15.171,87.362,14.113,87.551,13.039,87.551z"/><path fill="#ffb789" d="M81.99,27.187L13.244,65.259c-1.218,0.672-2.749,0.25-3.451-0.951l0,0	c-0.702-1.201-0.318-2.742,0.865-3.473L77.561,19.61c2.098-1.297,4.853-0.612,6.098,1.518l0,0	C84.904,23.258,84.15,25.996,81.99,27.187z"/><path fill="#ffe8d9" d="M46.749,75.554H30.303c-4.309,0-7.803-3.493-7.803-7.803V53.202h32.052v14.549	C54.552,72.06,51.059,75.554,46.749,75.554z"/><path fill="#ff7575" d="M38.5,55.116c7.29,0,13.748,0.946,17.723,5.475c1.379,1.571,4.007,2.657,4.011,0.59l0-0.102	c0-9.974-9.731-18.059-21.734-18.059S16.766,51.106,16.766,61.08l0,0.102c0.004,2.067,2.632,0.981,4.011-0.59	C24.752,56.062,31.21,55.116,38.5,55.116z"/><path fill="#ffb789" d="M88.845,51.612L13.547,79.916c-0.701,0.255-1.506-0.163-1.814-0.942l0,0	c-0.308-0.779-0.006-1.634,0.68-1.927l74.331-30.77c1.217-0.52,2.906,0.406,3.452,1.787v0C90.742,49.445,90.089,51.16,88.845,51.612	z"/><path fill="none" stroke="#40396e" stroke-linecap="round" stroke-linejoin="round" stroke-miterlimit="10" stroke-width="3" d="M90.249,47.988c-0.906-2.294-3.525-3.392-5.796-2.429L60.57,55.642c-1.599-4.659-5.168-8.597-9.888-11.117L81.99,27.187	c2.16-1.192,2.914-3.929,1.669-6.059s-4-2.816-6.098-1.518L41.657,41.734c-1.033-0.121-2.085-0.189-3.157-0.189	c-11.282,0-20.661,6.93-22.618,16.071l-5.224,3.219c-1.183,0.731-1.566,2.273-0.865,3.473c0.702,1.201,2.233,1.622,3.451,0.951	l3.458-1.915c0.934,0.526,2.205,0.439,3.043-0.541c0.819-0.958,1.741-1.849,2.747-2.666l0.008-0.005v7.618	c0,1.296,0.321,2.516,0.88,3.592l-11.325,4.781c-1.28,0.543-1.894,2.008-1.383,3.301c0.511,1.293,1.96,1.943,3.266,1.465	l14.877-5.481c0.482,0.093,0.978,0.145,1.487,0.145h16.446c4.309,0,7.803-3.493,7.803-7.803v-1.824l33.125-12.204	C89.993,52.873,91.155,50.283,90.249,47.988z"/><path fill="#40396e" d="M38.83,55.119c1.098,0.004,2.175,0.033,3.228,0.091	c-1.138-2.758-0.948-5.864,0.646-8.345c0.755-1.174,1.78-2.13,2.986-2.829c-1.232-0.359-2.513-0.631-3.835-0.801	c-0.621,0.61-1.198,1.267-1.674,2.008C38.285,48.191,37.848,51.79,38.83,55.119z" opacity=".35"/><path fill="#40396e" d="M57.135,51.783c-0.709-0.98-1.529-1.898-2.442-2.745	c-1.067,0.232-2.101,0.607-3.074,1.131c-2.307,1.243-4.076,3.202-5.138,5.526c1.04,0.183,2.041,0.419,2.996,0.717	c0.81-1.507,2.025-2.772,3.565-3.602C54.303,52.13,55.703,51.796,57.135,51.783z" opacity=".35"/><path fill="#40396e" d="M24.807,57.508c-1.675-0.674-3.128-1.823-4.131-3.369	c-0.427-0.658-0.745-1.371-0.98-2.11c-0.727,1.04-1.331,2.145-1.799,3.304c0.086,0.147,0.169,0.295,0.261,0.438	c0.986,1.521,2.303,2.74,3.808,3.648C22.829,58.662,23.779,58.031,24.807,57.508z" opacity=".35"/><path fill="#40396e" d="M26.863,45.83c-0.109,0.645-0.171,1.301-0.171,1.963c0,3.012,1.163,5.85,3.157,8.029	c1.271-0.256,2.604-0.428,3.985-0.537c-2.553-1.695-4.143-4.474-4.143-7.492c0-1.206,0.265-2.384,0.743-3.483	C29.182,44.727,27.988,45.236,26.863,45.83z" opacity=".35"/><circle cx="29" cy="62" r="1" fill="#ffb789" opacity=".35"/><circle cx="28" cy="66" r="1" fill="#ffb789" opacity=".35"/><circle cx="32" cy="65" r="1" fill="#ffb789" opacity=".35"/></svg>