<svg xmlns="http://www.w3.org/2000/svg"  viewBox="0 0 100 100" width="100px" height="100px"><path d="M34,97c-3.29,0-6.065-2.463-6.454-5.73l-8.5-67.997c-0.22-1.843,0.359-3.695,1.59-5.083 C21.874,16.795,23.645,16,25.5,16h31.852l1.275-8.469C59.109,4.327,61.812,2,65.055,2h8.968c1.894,0,3.688,0.823,4.925,2.258 c1.235,1.434,1.783,3.33,1.504,5.203l-0.996,6.609c1.498,0.223,2.885,0.965,3.904,2.112c1.235,1.395,1.814,3.247,1.595,5.088 l-8.5,68.002C76.065,94.537,73.29,97,70,97H34z" opacity=".35"/><path fill="#f2f2f2" d="M32,95c-3.29,0-6.065-2.463-6.454-5.73l-8.5-67.997c-0.22-1.843,0.359-3.695,1.59-5.083 C19.874,14.795,21.645,14,23.5,14h31.852l1.275-8.469C57.109,2.327,59.812,0,63.055,0h8.968c1.894,0,3.688,0.823,4.925,2.258 c1.235,1.434,1.783,3.33,1.504,5.203l-0.996,6.609c1.498,0.223,2.885,0.965,3.904,2.112c1.235,1.395,1.814,3.247,1.595,5.088 l-8.5,68.002C74.065,92.537,71.29,95,68,95H32z"/><polygon fill="#d9eeff" points="68,88.5 32,88.5 23.5,20.5 76.5,20.5"/><polygon fill="#ff7575" points="59.028,82.961 53.028,82.961 64.5,6.5 70.5,6.5"/><polygon fill="#70bfff" points="26.673,47 32,88.5 68,88.5 73.327,47"/><polygon fill="none" stroke="#40396e" stroke-linecap="round" stroke-linejoin="round" stroke-miterlimit="10" stroke-width="3" points="69.913,20.5 72.022,6.5 63.055,6.5 60.945,20.5 23.5,20.5 32,88.5 68,88.5 76.5,20.5"/><line x1="38.18" x2="31.43" y1="81.5" y2="27.5" fill="none" stroke="#fff" stroke-linecap="round" stroke-linejoin="round" stroke-miterlimit="10" stroke-width="3"/><polygon fill="#40396e" points="58.424,47 53.028,82.961 59.028,82.961 64.424,47" opacity=".35"/></svg>