<svg xmlns="http://www.w3.org/2000/svg"  viewBox="0 0 100 100" width="100px" height="100px"><path d="M52,97.9c-2.2,0-3.8-0.9-4.9-1.9c-0.3,0-0.6,0.1-1,0.1c-1.3,0-2.6-0.3-3.7-0.9c-1.4-0.7-2.3-1.8-3-2.8	c-1.1-0.2-2.4-0.6-3.6-1.6c-1.1-0.9-1.8-2-2.3-3c-1-0.3-2.2-0.9-3.2-2c-1-1-1.5-2.2-1.9-3.2c-1-0.5,1.2-2.5,0.3-3.7	c-0.9-1.1-4.5-1-4.7-2c-0.9-0.6,2.4-4.1,1.6-5.3c-0.8-1.2-5.4,0.2-5.4-0.9c-0.9-0.7-1.8-1.6-2.4-2.9c-0.6-1.4-0.8-2.7-0.7-3.8	c-0.8-0.8-1.6-1.9-2-3.3c-0.4-1.5-0.4-2.8-0.1-3.9c-0.7-0.9-1.3-2.2-1.5-3.7c-0.2-1.5,0.1-2.8,0.5-3.8c-0.4-0.9-0.8-2.1-0.7-3.4	c0-1.3,0.4-2.4,0.9-3.3c-0.3-1-0.5-2.1-0.4-3.4c0.2-1.4,0.7-2.5,1.3-3.4c-0.2-1.1-0.2-2.3,0.2-3.7c0.5-1.5,1.3-2.6,2.2-3.4	c0-1.2,0.4-2.6,1.3-3.9c0.9-1.4,2.2-2.2,3.3-2.7c0.5-1.1,1.2-2.4,2.6-3.4c1.1-0.8,2.4-1.3,3.8-1.4c0.7-0.9,1.8-1.8,3.2-2.3	c0.8-0.3,1.7-0.5,2.6-0.5c0.4,0,0.8,0,1.1,0.1c0.8-0.7,1.9-1.2,3.3-1.5c0.2,0,0.5-0.1,0.7-0.1c-0.5-0.9-0.8-2-0.8-3.1	c0-3.6,2.9-6.5,6.5-6.5c6.1,0,8.7,5.1,11.4,10.5c0.8,0.2,4.4-1,5-0.6c0.6-0.2,1.3-0.3,2.1-0.3c0.4,0,0.9,0,1.3,0.1	c1.4,0.2,2.5,0.8,3.3,1.5c0.4-0.1,0.7-0.1,1.1-0.1c0.9,0,1.7,0.2,2.5,0.5c1.5,0.5,2.5,1.4,3.2,2.3c1.4,0.1,0.3,3.1,1.4,3.9	c1.4,1,4.5-0.3,5,0.9c1.1,0.5,2.4,1.3,3.3,2.7c0.9,1.3,1.2,2.7,1.3,3.9c0.9,0.8,1.7,1.9,2.2,3.4c0.4,1.4,0.4,2.6,0.2,3.7	c0.6,0.9,1.1,2,1.3,3.4c0.2,1.3,0,2.4-0.3,3.4c0.5,0.9,0.8,2,0.9,3.3c0,1.4-0.3,2.5-0.7,3.5c0.4,1,0.7,2.3,0.5,3.8	c-0.2,1.6-0.8,2.8-1.5,3.7c0.2,1.1,0.3,2.5-0.1,4c-0.4,1.4-1.2,2.5-2,3.3c0.1,1.1-0.1,2.4-0.7,3.8c-0.6,1.3-1.5,2.3-2.4,2.9	c-0.1,1.1-0.4,2.3-1.1,3.6c-0.8,1.2-1.7,2-2.7,2.6c-0.2,1.1-0.6,2.3-1.5,3.4c-0.9,1.1-1.9,1.9-2.9,2.3c-0.3,1-0.8,2.2-1.8,3.2	c-1,1.1-2.2,1.7-3.2,2c-0.4,1-1.1,2.1-2.3,3c-1.2,1-2.6,1.4-3.6,1.6c-0.6,1-1.5,2-3,2.8c-1.1,0.6-2.4,0.9-3.7,0.9	c-0.3,0-0.7,0-1-0.1C55.8,97,54.2,97.9,52,97.9z" opacity=".35"/><path fill="#f2f2f2" d="M50,95.9c-2.2,0-3.8-0.9-4.9-1.9c-0.3,0-0.6,0.1-1,0.1c-1.3,0-2.6-0.3-3.7-0.9c-1.4-0.7-2.3-1.8-3-2.8	c-1.1-0.2-2.4-0.6-3.6-1.6c-1.1-0.9-1.8-2-2.3-3c-1-0.3-2.2-0.9-3.2-2c-1-1-1.5-2.2-1.9-3.2c-1-0.5-2-1.2-2.9-2.3	c-0.9-1.1-1.3-2.3-1.5-3.4c-0.9-0.6-1.9-1.4-2.7-2.6c-0.8-1.2-1.1-2.5-1.1-3.6c-0.9-0.7-1.8-1.6-2.4-2.9c-0.6-1.4-0.8-2.7-0.7-3.8	c-0.8-0.8-1.6-1.9-2-3.3c-0.4-1.5-0.4-2.8-0.1-3.9c-0.7-0.9-1.3-2.2-1.5-3.7c-0.2-1.5,0.1-2.8,0.5-3.8c-0.4-0.9-0.8-2.1-0.7-3.4	c0-1.3,0.4-2.4,0.9-3.3c-0.3-1-0.5-2.1-0.4-3.4c0.2-1.4,0.7-2.5,1.3-3.4c-0.2-1.1-0.2-2.3,0.2-3.7c0.5-1.5,1.3-2.6,2.2-3.4	c0-1.2,0.4-2.6,1.3-3.9c0.9-1.4,2.2-2.2,3.3-2.7c0.5-1.1,1.2-2.4,2.6-3.4c1.1-0.8,2.4-1.3,3.8-1.4c0.7-0.9,1.8-1.8,3.2-2.3	c0.8-0.3,1.7-0.5,2.6-0.5c0.4,0,0.8,0,1.1,0.1c0.8-0.7,1.9-1.2,3.3-1.5c0.2,0,0.5-0.1,0.7-0.1c-0.5-0.9-0.8-2-0.8-3.1	c0-3.6,2.9-6.5,6.5-6.5c6.1,0,11.6,3.6,14.3,9c0.8,0.2,1.6,0.5,2.2,0.8c0.6-0.2,1.3-0.3,2.1-0.3c0.4,0,0.9,0,1.3,0.1	c1.4,0.2,2.5,0.8,3.3,1.5c0.4-0.1,0.7-0.1,1.1-0.1c0.9,0,1.7,0.2,2.5,0.5c1.5,0.5,2.5,1.4,3.2,2.3c1.4,0.1,2.7,0.6,3.8,1.4	c1.4,1,2.1,2.2,2.6,3.4c1.1,0.5,2.4,1.3,3.3,2.7c0.9,1.3,1.2,2.7,1.3,3.9c0.9,0.8,1.7,1.9,2.2,3.4c0.4,1.4,0.4,2.6,0.2,3.7	c0.6,0.9,1.1,2,1.3,3.4c0.2,1.3,0,2.4-0.3,3.4c0.5,0.9,0.8,2,0.9,3.3c0,1.4-0.3,2.5-0.7,3.5c0.4,1,0.7,2.3,0.5,3.8	c-0.2,1.6-0.8,2.8-1.5,3.7c0.2,1.1,0.3,2.5-0.1,4c-0.4,1.4-1.2,2.5-2,3.3c0.1,1.1-0.1,2.4-0.7,3.8c-0.6,1.3-1.5,2.3-2.4,2.9	c-0.1,1.1-0.4,2.3-1.1,3.6c-0.8,1.2-1.7,2-2.7,2.6c-0.2,1.1-0.6,2.3-1.5,3.4c-0.9,1.1-1.9,1.9-2.9,2.3c-0.3,1-0.8,2.2-1.8,3.2	c-1,1.1-2.2,1.7-3.2,2c-0.4,1-1.1,2.1-2.3,3c-1.2,1-2.6,1.4-3.6,1.6c-0.6,1-1.5,2-3,2.8c-1.1,0.6-2.4,0.9-3.7,0.9	c-0.3,0-0.7,0-1-0.1C53.8,95,52.2,95.9,50,95.9z"/><path fill="#96c362" stroke="#40396e" stroke-miterlimit="10" stroke-width="3" d="M80.4,46.9c0-1,1.7-2,1.7-3c0-1-1.8-1.9-1.9-2.9c-0.1-1,1.6-2.2,1.4-3.1c-0.1-1-2-1.7-2.2-2.6	c-0.2-1,1.2-2.4,0.9-3.3c-0.3-1-2.3-1.3-2.7-2.1c-0.4-0.9,0.6-2.6,0-3.4c-0.6-0.8-2.5-0.5-3.2-1.2c-0.7-0.7-0.3-2.7-1.1-3.2	c-0.8-0.6-2.5,0.4-3.4-0.1c-0.8-0.4-1.1-2.4-2-2.8c-0.9-0.3-2.4,1-3.4,0.8c-0.9-0.2-1.5-2.1-2.5-2.3c-0.9-0.2-2.2,1.4-3.2,1.3	c-0.9-0.1-1.8-1.9-2.8-2c-1-0.1-2,1.6-3.1,1.6c-1,0-1.9-1.8-3-1.8c-1,0-2,1.8-3,1.8c-1,0-2.1-1.7-3.1-1.6c-1,0.1-1.9,1.9-2.8,2	c-1,0.1-2.3-1.4-3.2-1.3c-1,0.2-1.6,2.1-2.5,2.3c-1,0.3-2.5-1.1-3.4-0.8c-1,0.4-1.2,2.3-2,2.8c-0.9,0.5-2.7-0.5-3.4,0.1	c-0.8,0.6-0.4,2.6-1.1,3.3c-0.7,0.7-2.7,0.4-3.2,1.2c-0.5,0.8,0.5,2.5,0.1,3.4c-0.4,0.9-2.4,1.2-2.7,2.1c-0.3,0.9,1.1,2.3,0.9,3.3	c-0.2,0.9-2.1,1.6-2.2,2.6c-0.1,1,1.5,2.1,1.4,3.1c-0.1,1-1.9,1.9-1.9,2.9c0,1,1.7,2,1.7,3c0,1.1-1.7,2.3-1.5,3.3	c0.1,1.1,2,1.9,2.2,2.9c0.2,1.1-1.2,2.5-0.9,3.6c0.3,1,2.3,1.5,2.7,2.5c0.4,1-0.8,2.7-0.3,3.7c0.5,1,2.5,1.2,3,2.1	c0.5,1-0.4,2.8,0.1,3.7c0.6,0.9,2.6,0.9,3.2,1.8c0.6,0.9-0.1,2.8,0.5,3.7c0.7,0.9,2.7,0.6,3.4,1.4c0.7,0.8,0.2,2.8,0.9,3.6	c0.8,0.8,2.8,0.3,3.5,1c0.8,0.8,0.5,2.8,1.3,3.4c0.9,0.7,2.8,0,3.6,0.5c0.9,0.6,1,2.7,1.9,3.2c1,0.5,2.7-0.6,3.7-0.3	c1.1,0.4,1.9,2.3,2.9,2.3c1,0,1.8-1.9,2.9-2.3c1-0.3,2.6,0.9,3.7,0.3c0.9-0.5,0.9-2.5,1.9-3.2c0.9-0.6,2.8,0.2,3.6-0.5	c0.8-0.7,0.5-2.7,1.3-3.4c0.8-0.7,2.8-0.2,3.5-1c0.7-0.8,0.2-2.7,0.9-3.6c0.7-0.8,2.7-0.6,3.4-1.4c0.7-0.9-0.1-2.8,0.5-3.7	c0.6-0.9,2.7-0.9,3.2-1.8c0.6-0.9-0.4-2.7,0.1-3.7c0.5-1,2.6-1.2,3-2.1c0.5-1-0.7-2.7-0.3-3.7c0.4-1,2.4-1.5,2.7-2.5	c0.3-1-1.1-2.5-0.9-3.6c0.2-1.1,2.1-1.9,2.2-2.9C82,49.2,80.4,48,80.4,46.9z"/><path fill="#ffe8d9" d="M49,25.5c0-1.9-1.5-3.4-3.4-3.3C26.3,23,23,30.7,23,47.1c0,14.5,12.5,30.1,21.2,35.1c2.2,1.2,4.8-0.4,4.8-2.9	V25.5z"/><path fill="#40396e" d="M29.2,48.7c-2.4,0-3.5-1.2-3.5-2.6c0-1.4,1.1-2.6,3.5-2.6s5.2,2.6,5.2,2.6S31.6,48.7,29.2,48.7z M37.9,58.2	c0,0-2.8-2.6-5.2-2.6c-2.4,0-3.5,1.2-3.5,2.6s1.1,2.6,3.5,2.6S37.9,58.2,37.9,58.2z M44.8,70.4c0,0-2.8-2.6-5.2-2.6	c-2.4,0-3.5,1.2-3.5,2.6s1.1,2.6,3.5,2.6C42,73,44.8,70.4,44.8,70.4z M37.9,33.9c0,0-2.8-2.6-5.2-2.6c-2.4,0-3.5,1.2-3.5,2.6	c0,1.4,1.1,2.6,3.5,2.6S37.9,33.9,37.9,33.9z"/><path fill="none" stroke="#40396e" stroke-linecap="round" stroke-linejoin="round" stroke-miterlimit="10" stroke-width="3" d="M43.3,7.9c5.3,0,9.6,4.6,9.6,10.2"/></svg>