<svg xmlns="http://www.w3.org/2000/svg"  viewBox="0 0 100 100" width="100px" height="100px"><path d="M30.6,97c-10,0-18.2-5.4-20.9-13.8c-0.7-2.1-2.3-6.6-2.3-6.7c-0.8-2.3-0.3-4.8,1.3-6.5c1.6-1.8,3.7-4.1,4.4-5.2	c3.7-4.9,9.5-8.6,15.9-10.1c1.5-0.4,2.9-0.5,4-0.6c0.6,0,1.1-0.1,1.5-0.2c1.2-0.2,1.7-0.7,2-1c1.4-2.7,3.1-5.1,5.3-7.3	c3.1-3.2,6.9-5.5,11-6.9c0.1-0.1,0.2-0.4,0.3-0.9c0.5-3.1,1.5-6,2.8-8.7c3.7-7.5,11-10.6,17.5-13.3c3.7-1.5,7.8-3.3,8.8-5.1l0-0.1	C83.4,8.4,85.6,7,88.1,7c1,0,2,0.2,2.9,0.7c2,1,3.3,2.8,3.6,4.9c0,0.1,0.1,0.1,0.1,0.2c0.3,0.7,0.4,1,0.4,1.2c0.4,1.4,0.7,2.9,1,4.4	c0.8,4.3,1.1,8.6,1,12.8c-0.5,16.6-7.8,24.5-13.8,28.1c-0.9,0.5-1.7,0.9-2.4,1.2c-0.4,0.2-1.1,0.5-1.2,0.6c-0.3,0.2-0.4,0.5-0.4,0.5	c-1.3,7.7-7,15-14.7,19c-2.2,1.1-4.4,1.7-6.3,2.2c-2.2,0.6-3.5,0.9-4,1.6c-4,5.4-8.9,9.2-14.5,11C36.6,96.5,33.6,97,30.6,97z" opacity=".35"/><path fill="#f2f2f2" d="M28.6,95c-10,0-18.2-5.4-20.9-13.8c-0.7-2.1-2.3-6.6-2.3-6.7c-0.8-2.3-0.3-4.8,1.3-6.5c1.6-1.8,3.7-4.1,4.4-5.2	c3.7-4.9,9.5-8.6,15.9-10.1c1.5-0.4,2.9-0.5,4-0.6c0.6,0,1.1-0.1,1.5-0.2c1.2-0.2,1.7-0.7,2-1c1.4-2.7,3.1-5.1,5.3-7.3	c3.1-3.2,6.9-5.5,11-6.9c0.1-0.1,0.2-0.4,0.3-0.9c0.5-3.1,1.5-6,2.8-8.7c3.7-7.5,11-10.6,17.5-13.3c3.7-1.5,7.8-3.3,8.8-5.1l0-0.1	C81.4,6.4,83.6,5,86.1,5c1,0,2,0.2,2.9,0.7c2,1,3.3,2.8,3.6,4.9c0,0.1,0.1,0.1,0.1,0.2c0.3,0.7,0.4,1,0.4,1.2c0.4,1.4,0.7,2.9,1,4.4	c0.8,4.3,1.1,8.6,1,12.8c-0.5,16.6-7.8,24.5-13.8,28.1c-0.9,0.5-1.7,0.9-2.4,1.2c-0.4,0.2-1.1,0.5-1.2,0.6c-0.3,0.2-0.4,0.5-0.4,0.5	c-1.3,7.7-7,15-14.7,19c-2.2,1.1-4.4,1.7-6.3,2.2c-2.2,0.6-3.5,0.9-4,1.6c-4,5.4-8.9,9.2-14.5,11C34.6,94.5,31.6,95,28.6,95z"/><path fill="#739f4d" stroke="#40396e" stroke-linecap="round" stroke-linejoin="round" stroke-miterlimit="10" stroke-width="3" d="M86.1,11.5C81.9,20,64.7,19.8,59.7,30c-1.1,2.2-1.8,4.5-2.2,6.9c-0.8,5.1-4.6,6-4.6,6c-3,1-6,2.8-8.5,5.3	c-1.9,1.9-3.3,3.9-4.3,6.1c0,0,0,0,0,0.1c-1.9,3-4.8,3.9-6.6,4.1c-1.7,0.2-3.3,0.2-5,0.6c-4.7,1.1-9.2,3.7-12.2,7.7	c-1.3,1.8-4.8,5.6-4.8,5.6s1.6,4.6,2.4,6.9c1.8,5.7,7.6,9.3,14.7,9.3c2.3,0,4.7-0.4,7-1.2c4.7-1.5,8.4-4.8,11.4-8.7	c3-4.1,8.4-3.5,12.5-5.7c5.4-2.8,10.3-8.3,11.3-14.4c0.3-1.7,1.3-3.2,2.6-4.3c1.3-1.1,3-1.6,4.4-2.5C85.7,47,88.2,37.7,88.5,29	c0.1-3.8-0.2-7.7-0.9-11.4c-0.2-1.3-0.5-2.6-0.9-3.9C86.7,13.3,86,11.8,86.1,11.5z"/><path fill="#96c362" d="M48.3,52.3c-4.6,4.6-5.8,10.9-2.6,14.1c3.2,3.2,9.5,2,14.1-2.6c0,0,0,0,0,0c4.6-4.6,5.8-10.9,2.6-14.1	S52.9,47.7,48.3,52.3C48.3,52.3,48.3,52.3,48.3,52.3z"/><path fill="#96c362" d="M78.7,26.3c4.1,2,5,8.4,2,14.2c-3,5.8-8.7,8.9-12.7,6.8c-4.1-2-5-8.4-2-14.2C68.9,27.3,74.6,24.3,78.7,26.3z M41.6,69.4c1.4,4.5-2.4,10-8.4,12.1c-6,2.2-12,0.2-13.3-4.3c-1.4-4.5,2.4-10,8.4-12.1C34.3,62.9,40.3,64.9,41.6,69.4z"/><path fill="#f2f2f2" d="M27.6,69.7c-1.7,0.8-2.6,2.4-2.1,3.5c0.5,1.2,2.3,1.5,4,0.7s2.6-2.4,2.1-3.5C31.1,69.2,29.3,68.9,27.6,69.7z"/><path fill="#f2f2f2" d="M49.1,57.4c-1.3,1.4-1.6,3.2-0.6,4s2.7,0.5,4-0.9s1.6-3.2,0.6-4S50.4,56.1,49.1,57.4z"/><path fill="#f2f2f2" d="M67.6,37.9c-0.6,1.8-0.1,3.5,1.2,3.9c1.2,0.4,2.7-0.7,3.3-2.5c0,0,0,0,0,0c0.6-1.8,0.1-3.5-1.2-3.9 S68.2,36.1,67.6,37.9C67.6,37.9,67.6,37.9,67.6,37.9z"/></svg>