<svg xmlns="http://www.w3.org/2000/svg"  viewBox="0 0 100 100" width="100px" height="100px"><g id="Слой_2"><path d="M87.003,39.824c0-0.096-0.002-0.191-0.005-0.285C86.999,39.457,87,39.374,87,39.291C87,19.28,70.72,3,50.71,3 h0c-1.361,0-2.741,0.076-4.104,0.227C30.102,5.052,16.112,18.712,14.063,35.002C13.801,37.084,30.435,49.769,38,62 c2.943,4.758-4.934,14.539-1.585,15.987c2.377,10.999,11.616,19.179,22.601,19.951C59.607,97.979,60.204,98,60.792,98 c13.29,0,24.196-10.399,24.828-23.674l1.313-27.581c0.012-0.196,0.022-0.429,0.031-0.662l0.026-0.54 c0.013-0.268,0.012-0.54-0.002-0.81c0.005-1.259,0.011-4.378,0.011-4.706C87.002,39.96,87.003,39.892,87.003,39.824z" opacity=".35"/><path fill="#f2f2f2" d="M85.003,37.824c0-0.096-0.002-0.191-0.005-0.285C84.999,37.457,85,37.374,85,37.291C85,17.28,68.72,1,48.71,1 h0c-1.361,0-2.741,0.076-4.104,0.227C28.102,3.052,14.112,16.712,12.063,33.002c-0.364,2.893-0.367,5.817-0.011,8.694 c1.24,15.087,10.405,29.123,22.363,34.291c2.377,10.999,11.616,19.179,22.601,19.951C57.607,95.979,58.204,96,58.792,96 c13.29,0,24.196-10.399,24.828-23.674l1.313-27.581c0.012-0.196,0.022-0.429,0.031-0.662l0.026-0.54 c0.013-0.268,0.012-0.54-0.002-0.81c0.005-1.259,0.011-4.378,0.011-4.706C85.002,37.96,85.003,37.892,85.003,37.824z"/><path fill="#d47f56" d="M77,43.162l-0.014,0.007C76.99,42.988,77,38.181,77,38c0-16.686-14.447-25.37-31.515-23.484 C32.659,15.935,20.99,23.133,20,36c-1,13,6.541,28.02,17.794,32.73c2.248,0.941,3.906,2.903,4.384,5.293v0 c1.506,7.528,7.741,13.396,15.4,13.934c9.536,0.67,17.605-6.623,18.052-16.012l1.315-27.612c0.011-0.189,0.019-0.378,0.027-0.567 L77,43.162z"/><path fill="#de5147" d="M79,37.824l-0.014,0.007C78.99,37.65,79,37.472,79,37.291C79,20.604,64.553,7.292,47.485,9.179 C34.659,10.597,24.261,20.817,22.65,33.62c-1.672,13.294,5.891,25.062,17.143,29.772c2.248,0.941,3.906,2.903,4.384,5.293v0 c1.506,7.528,7.749,14.572,15.4,13.934C67,82,73.182,75.997,73.629,66.607l5.315-27.612c0.011-0.189,0.019-0.378,0.027-0.567 L79,37.824z"/><path fill="#ff7575" d="M48.709,14.338c12.656,0,22.953,10.297,22.953,22.951l-0.004,0.142l-0.009,0.302l-0.006,0.366l-0.006,0.119 c-0.006,0.154-0.012,0.307-0.022,0.46l-0.002,0.033l-0.002,0.033l-1.315,27.612c-0.293,6.152-5.347,10.971-11.506,10.971 c-0.278,0-0.561-0.01-0.84-0.03c-4.448-0.312-7.321-3.561-8.54-9.656c-0.821-4.105-3.646-7.533-7.557-9.17 c-9.23-3.864-17.882-13.28-16.559-23.802c1.301-10.34,10.232-19.016,20.776-20.182C46.95,14.387,47.838,14.338,48.709,14.338 L48.709,14.338 M48.709,9c-1.062,0-2.138,0.058-3.224,0.179C32.659,10.597,21.611,21.196,20,34 c-1.672,13.294,8.541,24.682,19.794,29.392c2.248,0.941,3.906,2.903,4.384,5.293c1.506,7.528,5.741,13.396,13.4,13.934 c0.407,0.029,0.813,0.043,1.215,0.043c8.998,0,16.409-7.067,16.837-16.055l1.315-27.612c0.011-0.188,0.019-0.378,0.027-0.567 L77,37.824l-0.014,0.007C76.99,37.651,77,37.472,77,37.291C77,21.666,64.334,9,48.709,9L48.709,9z"/><path fill="#40396e" d="M58.556,90.25c-0.458,0-0.918-0.016-1.381-0.049c-8.54-0.6-15.715-7.07-17.447-15.736 c-0.326-1.63-1.465-2.997-3.046-3.658c-10.093-4.225-18.149-16.741-19.157-29.76c-0.31-2.353-0.313-4.845-0.001-7.328 C19.25,19.994,31.06,8.482,44.994,6.942c1.152-0.128,2.32-0.192,3.471-0.192C64.981,6.75,78.679,20.181,79,36.689l0,0.029 c0,0,0,3.743-0.004,5.239c0,0.02-0.039,2.312-0.051,2.511l-1.313,27.584c-0.247,5.179-2.518,9.929-6.395,13.374 C67.738,88.537,63.234,90.25,58.556,90.25z M48.465,9.75c-1.041,0-2.098,0.059-3.141,0.175 C32.729,11.316,22.058,21.707,20.5,34.094c-0.28,2.229-0.278,4.465,0.007,6.643c0.934,12.039,8.22,23.488,17.332,27.303 c2.502,1.046,4.308,3.229,4.83,5.838c1.469,7.344,7.521,12.826,14.717,13.332c4.379,0.303,8.619-1.145,11.859-4.024 c3.269-2.905,5.184-6.909,5.391-11.274l1.314-27.603c0.013-0.267,0.046-2.378,0.046-2.379C76.001,40.51,76,36.988,76,36.733 C75.704,21.854,63.354,9.75,48.465,9.75z"/><ellipse cx="49.5" cy="28" fill="#ffe8d9" rx="8.667" ry="8"/><ellipse cx="49.5" cy="28" fill="#40396e" opacity=".35" rx="3.5" ry="3"/></g></svg>