<svg xmlns="http://www.w3.org/2000/svg"  viewBox="0 0 100 100" width="100px" height="100px"><path d="M42.993,96.991c-3.845,0-7.703-0.617-11.467-1.836C17.399,90.583,7.945,77.196,8,61.847 c0.056-15.509,8.957-27.188,24.422-32.044c2.555-0.803,4.6-2.457,5.757-4.657c2.939-5.587,8.595-12.772,18.851-15.275 c2.256-0.552,4.572-0.832,6.881-0.832c6.294,0,12.275,2.018,17.297,5.833c6.588,5.006,10.517,12.565,10.777,20.74 c0.134,4.208-0.666,8.276-2.377,12.092c-1.153,2.571-1.135,5.412,0.049,7.795c1.555,3.13,2.343,6.497,2.342,10.01 c-0.004,11.159-8.343,20.736-19.397,22.276c-0.706,0.098-1.418,0.163-2.121,0.194c-2.587,0.113-4.962,0.91-6.874,2.306 C57.599,94.672,50.471,96.991,42.993,96.991z" opacity=".35"/><path fill="#f2f2f2" d="M40.993,94.991c-3.845,0-7.703-0.617-11.467-1.836C15.399,88.583,5.945,75.196,6,59.847 c0.056-15.509,8.957-27.188,24.422-32.044c2.555-0.803,4.6-2.457,5.757-4.657c2.939-5.587,8.595-12.772,18.851-15.275 c2.256-0.552,4.572-0.832,6.881-0.832c6.294,0,12.275,2.018,17.297,5.833c6.588,5.006,10.517,12.565,10.777,20.74 c0.134,4.208-0.666,8.276-2.377,12.092c-1.153,2.571-1.135,5.412,0.049,7.795c1.555,3.13,2.343,6.497,2.342,10.01 c-0.004,11.159-8.343,20.736-19.397,22.276c-0.706,0.098-1.418,0.163-2.121,0.194c-2.587,0.113-4.962,0.91-6.874,2.306 C55.599,92.672,48.471,94.991,40.993,94.991z"/><path fill="#fff" d="M81.678,43.044c1.257-2.802,1.916-5.93,1.811-9.225c-0.432-13.57-13.728-22.853-26.918-19.634 c-7.849,1.916-12.273,7.487-14.639,11.987c-1.991,3.787-5.481,6.551-9.563,7.833C24.39,36.51,12.561,43.059,12.5,59.87 c-0.044,12.187,7.432,23.348,19.027,27.101c9.816,3.177,19.241,1.179,26.248-3.937c3.022-2.207,6.678-3.386,10.416-3.549 c0.5-0.022,1.005-0.068,1.514-0.138c7.82-1.089,13.792-7.946,13.794-15.841c0.001-2.555-0.598-4.971-1.663-7.113 C79.762,52.216,79.77,47.299,81.678,43.044z"/><path fill="none" stroke="#40396e" stroke-linejoin="round" stroke-miterlimit="10" stroke-width="3" d="M81.678,43.044 c1.257-2.802,1.916-5.93,1.811-9.225c-0.432-13.57-13.728-22.853-26.918-19.634c-7.849,1.916-12.273,7.487-14.639,11.987 c-1.991,3.787-5.481,6.551-9.563,7.833C24.39,36.51,12.561,43.059,12.5,59.87c-0.044,12.187,7.432,23.348,19.027,27.101 c9.816,3.177,19.241,1.179,26.248-3.937c3.022-2.207,6.678-3.386,10.416-3.549c0.5-0.022,1.005-0.068,1.514-0.138 c7.82-1.089,13.792-7.946,13.794-15.841c0.001-2.555-0.598-4.971-1.663-7.113C79.762,52.216,79.77,47.299,81.678,43.044z"/><circle cx="40.5" cy="60.5" r="14.5" fill="#ffc571"/><path fill="none" stroke="#f2f2f2" stroke-linecap="round" stroke-linejoin="round" stroke-miterlimit="10" stroke-width="3" d="M31,60.5c0-5.247,4.253-9.5,9.5-9.5"/></svg>