<svg xmlns="http://www.w3.org/2000/svg"  viewBox="0 0 100 100" width="100px" height="100px"><g id="Слой_2"><path d="M92,22.614V12.01c0-2.36-1.281-4.537-3.344-5.683c-0.965-0.535-2.055-0.817-3.155-0.817 c-1.213,0-2.398,0.338-3.429,0.977L79.77,7.921l-27.856,17.36C49.83,25.094,47.68,25,45.5,25C31.239,25,16,28.941,16,40v7.662 l-4.818,3.002c-2.496,1.557-4.234,3.989-4.897,6.85c-0.665,2.86-0.175,5.811,1.38,8.306c0.815,1.305,1.866,2.399,3.081,3.24 C8.681,72.287,15.088,74.375,17,78c1.585,3.001-2.311,7.191,0.941,7.808C23.646,94.271,40.077,95,45.5,95 C63.696,95,75,89.061,75,79.5V58.41l13.533-7.142C90.672,50.14,92,47.937,92,45.52V35.342c0-2.264-1.204-4.396-3.143-5.566 c-0.471-0.284-0.974-0.506-1.497-0.662l1.578-0.984C90.854,26.938,92,24.875,92,22.614z" opacity=".35"/><path fill="#f2f2f2" d="M90,20.614V10.01c0-2.36-1.281-4.537-3.344-5.683c-0.965-0.535-2.055-0.817-3.155-0.817 c-1.213,0-2.398,0.338-3.429,0.977L77.77,5.921l-27.856,17.36C47.83,23.094,45.68,23,43.5,23C29.239,23,14,26.941,14,38v7.662 l-4.818,3.002c-2.496,1.557-4.234,3.989-4.897,6.85c-0.665,2.86-0.175,5.811,1.38,8.306c0.815,1.305,1.866,2.399,3.081,3.24 c-2.065,3.229-2.386,7.449-0.475,11.074c1.585,3.001,4.418,5.059,7.67,5.676C21.646,92.271,38.077,93,43.5,93 C61.696,93,73,87.061,73,77.5V56.41l13.533-7.142C88.672,48.14,90,45.937,90,43.52V33.342c0-2.264-1.204-4.396-3.143-5.566 c-0.471-0.284-0.974-0.506-1.497-0.662l1.578-0.984C88.854,24.938,90,22.875,90,20.614z"/><path fill="#9ba7c5" d="M43.5,88c-11.388,0-22.872-2.831-24.342-9.112c-0.38,0.075-0.768,0.113-1.156,0.113 c-2.232,0-4.266-1.227-5.309-3.201c-1.543-2.927-0.419-6.562,2.506-8.106L19,65.688v-3.11l-0.826,0.516 C17.22,63.687,16.124,64,15.003,64c-2.086,0-3.991-1.057-5.095-2.825c-0.848-1.361-1.115-2.971-0.752-4.532 c0.362-1.561,1.31-2.887,2.67-3.735L19,48.438V38c0-6.908,12.305-10,24.5-10c2.61,0,5.166,0.145,7.604,0.431l29.309-18.266h0 l2.293-1.429c0.463-0.287,1.045-0.302,1.521-0.038C84.705,8.963,85,9.465,85,10.01v10.604c0,0.518-0.267,0.999-0.707,1.272 L65.768,33.432C67.566,35.071,68,36.756,68,38v1.826l14.8-7.811c0.465-0.246,1.024-0.229,1.475,0.042S85,32.816,85,33.342V43.52 c0,0.557-0.308,1.067-0.8,1.327L68,53.396V77.5C68,84.753,55.695,88,43.5,88z"/><path fill="#fedeb3" d="M13.413,55.454c-1.406,0.876-1.835,2.727-0.959,4.133C13.022,60.499,14.001,61,15.003,61 c0.542,0,1.09-0.146,1.584-0.454L82,19.781v-7.07L13.413,55.454z"/><rect width="43" height="39" x="22" y="38" fill="#9ba7c5"/><ellipse cx="43.5" cy="38" fill="#9ba7c5" rx="21.5" ry="7"/><ellipse cx="43.5" cy="77.5" fill="#9ba7c5" rx="21.5" ry="7.5"/><ellipse cx="43.4" cy="38.5" fill="#f2f2f2" rx="15.4" ry="4.5"/><ellipse cx="43.5" cy="38" fill="#ff7575" rx="7.5" ry="2"/><polygon fill="#40396e" points="19,76 22,77.673 65,54.979 65,51.587" opacity=".35"/><path fill="#fedeb3" d="M65,44.802L65,44.802L22,67.496l0,0l-5.4,2.85c-1.465,0.773-2.026,2.588-1.253,4.054 c0.538,1.019,1.579,1.601,2.656,1.601c0.472,0,0.951-0.112,1.398-0.348L65,51.587l0,0l17-8.972V35.83L65,44.802z"/><g><path fill="#40396e" d="M43.5,88c-11.388,0-22.872-2.831-24.342-9.112c-0.38,0.075-0.768,0.113-1.156,0.113 c-2.232,0-4.266-1.227-5.309-3.201c-1.543-2.927-0.419-6.562,2.506-8.106L19,65.688v-3.11l-0.826,0.516 C17.22,63.687,16.124,64,15.003,64c-2.086,0-3.991-1.057-5.095-2.825c-0.848-1.361-1.115-2.971-0.752-4.532 c0.362-1.561,1.31-2.887,2.67-3.735L19,48.438V38c0-6.908,12.305-10,24.5-10c2.61,0,5.166,0.145,7.604,0.431l29.309-18.266h0 l2.293-1.429c0.463-0.287,1.045-0.302,1.521-0.038C84.705,8.963,85,9.465,85,10.01v10.604c0,0.518-0.267,0.999-0.707,1.272 L65.768,33.432C67.566,35.071,68,36.756,68,38v1.826l14.8-7.811c0.465-0.246,1.024-0.229,1.475,0.042S85,32.816,85,33.342V43.52 c0,0.557-0.308,1.067-0.8,1.327L68,53.396V77.5C68,84.753,55.695,88,43.5,88z M20.5,75.27c0.269,0,0.537,0.072,0.775,0.216 C21.725,75.757,22,76.244,22,76.77v0.73c0,4.206,9.444,7.5,21.5,7.5S65,81.706,65,77.5V52.491c0-0.557,0.308-1.067,0.8-1.326 L82,42.614v-6.785l-14.8,7.812c-0.463,0.246-1.023,0.23-1.475-0.042C65.275,43.327,65,42.84,65,42.314V38 c0-1.486-1.453-2.656-2.671-3.377c-0.452-0.267-0.731-0.749-0.737-1.273c-0.006-0.524,0.262-1.014,0.707-1.291L82,19.781l0-7.069 L52.242,31.257c-0.292,0.182-0.638,0.258-0.981,0.215C48.786,31.158,46.175,31,43.5,31C31.645,31,22,34.141,22,38v11.271 c0,0.518-0.267,0.999-0.707,1.273l-7.88,4.91c-0.68,0.424-1.154,1.087-1.335,1.867c-0.182,0.781-0.048,1.586,0.376,2.267 C13.006,60.472,13.958,61,15.003,61c0.56,0,1.107-0.157,1.584-0.454l3.119-1.944c0.463-0.286,1.045-0.302,1.521-0.038 C21.705,58.828,22,59.33,22,59.875v6.717c0,0.557-0.308,1.066-0.8,1.326L16.6,70.347c-1.462,0.772-2.024,2.59-1.253,4.053 c0.521,0.988,1.539,1.602,2.656,1.602c0.483,0,0.966-0.12,1.397-0.348l0.401-0.211C20.02,75.327,20.26,75.27,20.5,75.27z"/></g></g></svg>