<svg xmlns="http://www.w3.org/2000/svg"  viewBox="0 0 100 100" width="100px" height="100px"><path d="M42,94.9c-13.8,0-24.5-5.8-29.5-10.7l-0.3-0.3l-0.1-0.1c-4-4.7-3.4-8.5-2.2-11c2.3-4.7,7.7-5.4,10.6-5.8	c0.2,0,0.5-0.1,0.7-0.1c1.8-1,3.9-4.2,6.4-9.7c0.3-0.8,0.7-1.6,1.1-2.4c1.2-2.5,2.3-5.1,3.3-7.9l0.1-0.3c2.3-7,5.3-15.8,13.3-24	C57.5,10.4,76.5,9.1,84,9.1c1.2,0,2.1,0,2.6,0.1c1.9,0,3.8,0.7,5.2,1.8c1.8,1.4,2.8,3.6,3.1,6l0,0.5v0.1c0,3.8-2.7,5.8-4.4,7.2	c-0.6,0.5-1.1,0.9-1.4,1.1c1.1,3.7,1.8,8.9,1.8,14.6c0,9.4-1.7,27-13.1,38.9C65.2,92.7,52.7,94.6,43.3,94.9l-0.1,0H42z" opacity=".35"/><path fill="#f2f2f2" d="M40,92.9c-13.8,0-24.5-5.8-29.5-10.7l-0.3-0.3l-0.1-0.1c-4-4.7-3.4-8.5-2.2-11c2.3-4.7,7.7-5.4,10.6-5.8	c0.2,0,0.5-0.1,0.7-0.1c1.8-1,3.9-4.2,6.4-9.7c0.3-0.8,0.7-1.6,1.1-2.4c1.2-2.5,2.3-5.1,3.3-7.9l0.1-0.3c2.3-7,5.3-15.8,13.3-24	C55.5,8.4,74.5,7.1,82,7.1c1.2,0,2.1,0,2.6,0.1c1.9,0,3.8,0.7,5.2,1.8c1.8,1.4,2.8,3.6,3.1,6l0,0.5v0.1c0,3.8-2.7,5.8-4.4,7.2	c-0.6,0.5-1.1,0.9-1.4,1.1c1.1,3.7,1.8,8.9,1.8,14.6c0,9.4-1.7,27-13.1,38.9C63.2,90.7,50.7,92.6,41.3,92.9l-0.1,0H40z"/><path fill="#e66f2e" stroke="#40396e" stroke-miterlimit="10" stroke-width="3" d="M86.4,15.6c-0.2-2.1-1.9-1.9-1.9-1.9S61,12.2,48,25.2c-7.1,7.3-9.6,14.9-11.9,21.8c-1.3,4-3.1,7.5-4.6,10.9	c-4.2,9.4-7.3,12-10.1,13.2c-1.3,0.6-6.5,0.4-7.6,2.7c-0.6,1.1,0.2,2.5,1.3,3.8c4.4,4.4,13.8,8.8,24.9,8.8c0.4,0,0.8,0,1.1,0	c8.4-0.2,18.9-1.7,30-13.4c9-9.4,11.3-23.5,11.3-34.4c0-5.9-0.8-10.7-1.7-13.4C79,19.6,86.4,17.3,86.4,15.6z"/><path fill="#40396e" d="M69.2,38.6c-0.8,0-1.3-0.4-1.7-1c-2.5-4.8-7.8-4.8-7.8-4.8l0,0c-1,0-1.9-0.8-1.9-1.9s0.8-1.9,1.9-1.9	c0.4,0,7.6-0.2,11.3,6.7c0.6,1,0.2,2.1-0.8,2.7C69.8,38.6,69.6,38.6,69.2,38.6z M72.1,53.7c1-0.6,1.3-1.7,0.8-2.5	c-2.9-5.7-8.8-6.7-9-6.7c-1.1-0.2-2.1,0.6-2.1,1.5c-0.2,1,0.6,2.1,1.5,2.1c0,0,4.2,0.8,6.3,4.8c0.4,0.6,1,1,1.7,1	C71.5,53.9,71.7,53.9,72.1,53.7z M52.8,55.6c1-0.4,1.5-1.5,1-2.5c-1.9-4.6-7.1-5-7.5-5c-1,0-1.9,0.8-2.1,1.7c0,1,0.8,1.9,1.7,2.1	c0,0,3.3,0.4,4.2,2.7c0.4,0.8,1,1.1,1.7,1.1C52.2,55.8,52.6,55.8,52.8,55.6z M58.1,73c1-0.2,1.7-1.1,1.5-2.3c-0.8-3.3-3.6-5-5.2-5.4	c-1-0.2-2.1,0.4-2.3,1.3s0.4,2.1,1.3,2.3c0,0,2.1,0.6,2.5,2.3c0.2,1,1,1.5,1.9,1.5C57.9,73,57.9,73,58.1,73z M40.9,73	c1-0.2,1.7-1.1,1.5-2.3c-0.8-3.4-3.6-5-5.4-5.4c-1-0.2-2.1,0.4-2.3,1.5c-0.2,1,0.4,2.1,1.5,2.3c0,0,1.9,0.4,2.3,2.3	c0.2,1,1,1.5,1.9,1.5C40.7,73,40.7,73,40.9,73z" opacity=".35"/></svg>