<svg xmlns="http://www.w3.org/2000/svg"  viewBox="0 0 100 100" width="100px" height="100px"><path fill-opacity=".3" d="M87.5,91c-4.854,0-8.948-3.31-10.146-7.791C70.689,88.201,62.521,91,54,91	c-1.02,0-2.008-0.039-2.937-0.117c-7.496-0.546-14.544-3.23-20.422-7.646c-0.471,1.758-1.396,3.368-2.717,4.688	C25.942,89.908,23.306,91,20.5,91C14.71,91,10,86.29,10,80.5V54.219c-4.464-2.87-6.891-6.461-6.489-12.642	c0.14-2.058,0.967-8.559,2.458-19.336l0.085-0.616C6.544,18.335,9.251,16,12.5,16h17c1.979,0,3.758,0.867,4.953,2.271	C40.358,14.84,47.092,13,54,13c3.325,0,6.608,0.418,9.758,1.243c5.546,1.431,10.639,4.034,15.01,7.644	C81.896,18.265,86.521,16,91.5,16c3.584,0,6.5,2.916,6.5,6.5v58C98,86.29,93.29,91,87.5,91z"/><path fill="#f2f2f2" d="M85.5,89c-4.854,0-8.948-3.31-10.146-7.791C68.689,86.201,60.521,89,52,89	c-1.02,0-2.008-0.039-2.937-0.117c-7.496-0.546-14.544-3.23-20.422-7.646c-0.471,1.758-1.396,3.368-2.717,4.688	C23.942,87.908,21.306,89,18.5,89C12.71,89,8,84.29,8,78.5V53.783c-4.464-2.87-6.891-8.025-6.489-14.206	c0.14-2.058,0.967-8.559,2.458-19.336l0.085-0.616C4.544,16.335,7.251,14,10.5,14h17c1.979,0,3.758,0.867,4.953,2.271	C38.358,12.84,45.092,11,52,11c3.325,0,6.608,0.418,9.758,1.243c5.546,1.431,10.639,4.034,15.01,7.644	C79.896,16.265,84.521,14,89.5,14c3.584,0,6.5,2.916,6.5,6.5v58C96,84.29,91.29,89,85.5,89z"/><path fill="#40396e" d="M52,32.5c-9.665,0-17.5,7.835-17.5,17.5S42.335,67.5,52,67.5S69.5,59.665,69.5,50	S61.665,32.5,52,32.5z M52,64.5c-8.008,0-14.5-6.492-14.5-14.5c0-8.008,6.492-14.5,14.5-14.5S66.5,41.992,66.5,50	C66.5,58.008,60.008,64.5,52,64.5z" opacity=".35"/><path fill="#40396e" d="M25.23,50.8l0.01,19.65l-4.11-6.21C19.05,59.75,18,54.96,18,50	c0-8.76,3.33-17.09,9.39-23.45l2.15-2.26l0.42,3.1c0.92,6.82,1.44,11.03,1.54,12.51c0.02,0.3,0.03,0.6,0.03,0.88	C31.53,46.5,29,49.65,25.23,50.8z" opacity=".35"/><path fill="#40396e" d="M78,29.25l-2.185,15.493c-0.039,0.274-0.066,0.557-0.074,0.833	c-0.067,2.411,0.275,4.264,0.938,5.924c0.533,1.332,1.375,2.409,2.32,3.282V67h6v-9v-5V29L78,29.25z" opacity=".35"/><path fill="#707cc0" d="M85.75,82L85.75,82C83.679,82,82,80.321,82,78.25V52.775h7.5V78.25C89.5,80.321,87.821,82,85.75,82z"/><rect width="8" height="5.525" x="82" y="53" fill="#40396e" opacity=".35"/><path fill="#d9eeff" d="M82.275,53.164C78.667,50.458,78.473,47.479,79,43l2-15c0.693-5.108,3.345-7.5,8.5-7.5h0v34.364	C89.5,54.864,85.675,55.714,82.275,53.164z"/><path fill="#707cc0" d="M14.5,47.675V78.5c0,2.209,1.791,4,4,4h0c2.209,0,4-1.791,4-4V47.675H14.5z"/><rect width="8" height="5.525" x="14.5" y="47.675" fill="#40396e" opacity=".35"/><path fill="#d9eeff" d="M28.464,40.102C28.184,36.926,26,20.5,26,20.5H10.5c0,0-2.287,16.319-2.5,19.5	c-0.391,5.844,3.092,7.27,6.831,8.041c2.412,0.554,5.691,0.365,7.669,0.096C26.169,47.64,28.92,45.283,28.464,40.102z"/><path fill="#40396e" d="M89.5,19c-5.497,0-10.25,3.841-11.489,9.103C71.581,20.466,62.1,16,52,16	c-8.374,0-16.233,2.983-22.438,8.461c-0.196-1.435-0.424-3.069-0.578-4.173C28.881,19.547,28.247,19,27.499,19H10.502	c-0.749,0-1.382,0.546-1.485,1.288C8.443,24.416,6.682,37.204,6.503,39.9C6.146,45.285,8.554,49.219,13,50.654l0,26.824	c0,3.437,2.657,6.437,6.093,6.52c1.905,0.046,3.692-0.753,4.935-2.221c1.001-1.182,1.469-2.728,1.468-4.277l-0.004-6.222	C31.896,79.224,41.669,84,52,84c10.674,0,20.62-5.006,27-13.336l0,7.127c0,3.049,2.186,5.77,5.211,6.158	C87.87,84.419,91,81.568,91,78V20.5C91,19.672,90.328,19,89.5,19L89.5,19z M88,78c0,1.654-1.346,3-3,3s-3-1.346-3-3V59.781	l-2.814,5.122C73.73,74.832,63.313,81,52,81c-10.921,0-21.159-5.856-26.718-15.283l-2.795-4.741l0.01,16.774	c0.001,0.868-0.337,1.684-0.95,2.298C20.933,80.662,20.117,81,19.249,81C17.457,81,16,79.543,16,77.751V48.28l-1.194-0.249	c-2.15-0.447-5.698-2.071-5.309-7.932c0.172-2.596,1.766-14.189,2.309-18.1h2.664l-0.468,15.454	c-0.025,0.828,0.626,1.521,1.453,1.545C15.47,39,15.485,39,15.501,39c0.808,0,1.474-0.642,1.498-1.454L17.47,22h3.06l0.471,15.546	C21.025,38.358,21.691,39,22.499,39c0.016,0,0.031,0,0.047-0.001c0.827-0.024,1.479-0.717,1.453-1.545L23.531,22h2.664	c0.18,1.291,0.474,3.421,0.794,5.79l0.418,3.096l2.154-2.261C35.475,22.418,43.443,19,52,19c10.322,0,19.937,5.116,25.718,13.687	l2.2,3.262l0.859-6.328v-0.001c0.521-3.838,3.51-6.843,7.223-7.489V78z"/></svg>