<svg xmlns="http://www.w3.org/2000/svg"  viewBox="0 0 100 100" width="100px" height="100px"><path d="M13.5,90C9.916,90,7,87.084,7,83.5V67c0-2.518,0.209-5.03,0.624-7.502 C5.933,57.204,5,54.413,5,51.5c0-4.162,1.915-8.021,5.071-10.541c0.503-5.456,3.655-10.239,8.371-12.862 C19.964,22.281,25.241,18,31.5,18c0.903,0,1.792,0.088,2.663,0.264c2.484-1.458,5.328-2.248,8.247-2.264 c2.501-2.521,5.953-4,9.59-4s7.088,1.479,9.59,4c2.919,0.016,5.763,0.806,8.247,2.264C70.708,18.088,72.581,18,73.484,18 c6.271,0,11.556,4.298,13.067,10.102c4.71,2.624,7.048,7.404,7.551,12.857C97.257,43.479,99,47.338,99,51.5 c0,2.913-0.933,5.704-2.624,7.998C96.791,61.97,97,64.482,97,67v16.5c0,3.584-2.916,6.5-6.5,6.5H13.5z" opacity=".35"/><path fill="#f2f2f2" d="M11.5,88C7.916,88,5,85.084,5,81.5V65c0-2.518,0.209-5.03,0.624-7.502 C3.933,55.204,3,52.413,3,49.5c0-4.162,1.915-8.021,5.071-10.541c0.503-5.456,3.655-10.239,8.371-12.862 C17.964,20.281,23.241,16,29.5,16c0.903,0,1.792,0.088,2.663,0.264c2.484-1.458,5.328-2.248,8.247-2.264 c2.501-2.521,5.953-4,9.59-4s7.088,1.479,9.59,4c2.919,0.016,5.763,0.806,8.247,2.264C68.708,16.088,69.597,16,70.5,16 c6.271,0,11.556,4.298,13.067,10.102c4.71,2.624,7.859,7.404,8.362,12.857C95.085,41.479,97,45.338,97,49.5 c0,2.913-0.933,5.704-2.624,7.998C94.791,59.97,95,62.482,95,65v16.5c0,3.584-2.916,6.5-6.5,6.5H11.5z"/><circle cx="29.5" cy="29.5" r="7" fill="#96c362"/><circle cx="16.5" cy="49.5" r="7" fill="#96c362"/><circle cx="70.5" cy="29.5" r="7" fill="#96c362"/><circle cx="50" cy="23.5" r="7" fill="#96c362"/><circle cx="83.5" cy="49.5" r="7" fill="#96c362"/><circle cx="24.5" cy="40.5" r="8.5" fill="#dd4f2c"/><circle cx="40.5" cy="30.5" r="8.5" fill="#dd4f2c"/><circle cx="75.5" cy="40.5" r="8.5" fill="#dd4f2c"/><circle cx="59.5" cy="30.5" r="8.5" fill="#dd4f2c"/><path fill="#ffc571" d="M13,80V65c0-20.402,16.598-37,37-37s37,16.598,37,37v15H13z"/><path fill="none" stroke="#40396e" stroke-linejoin="round" stroke-miterlimit="10" stroke-width="3" d="M90.5,49.5 c0-3.263-2.236-5.997-5.258-6.773C85.406,42.01,85.5,41.267,85.5,40.5c0-4.875-3.491-8.93-8.108-9.816 c0.066-0.386,0.108-0.78,0.108-1.184c0-3.866-3.134-7-7-7c-1.388,0-2.679,0.409-3.767,1.107c-1.821-1.91-4.385-3.107-7.233-3.107 c-1.04,0-2.042,0.159-2.985,0.454C55.496,18.348,52.966,16.5,50,16.5s-5.496,1.848-6.515,4.454C42.542,20.659,41.54,20.5,40.5,20.5 c-2.848,0-5.411,1.196-7.233,3.107C32.179,22.909,30.888,22.5,29.5,22.5c-3.866,0-7,3.134-7,7c0,0.405,0.042,0.799,0.108,1.184 C17.991,31.57,14.5,35.625,14.5,40.5c0,0.767,0.094,1.51,0.258,2.227C11.736,43.503,9.5,46.237,9.5,49.5 c0,2.469,1.281,4.634,3.212,5.881C11.921,58.455,11.5,61.678,11.5,65v16.5h77V65c0-3.321-0.421-6.545-1.212-9.619 C89.219,54.134,90.5,51.969,90.5,49.5z"/><circle cx="27" cy="62" r="2" fill="#ffe8d9"/><circle cx="22" cy="69" r="2" fill="#ffe8d9"/><circle cx="32" cy="69" r="2" fill="#ffe8d9"/></svg>