<svg xmlns="http://www.w3.org/2000/svg"  viewBox="0 0 100 100" width="100px" height="100px"><path d="M22.5,95c-3.584,0-6.5-2.916-6.5-6.5c0-3.889,1.846-7.705,4.006-10.839 C5.54,58.163,5.904,20.79,6.001,16.357C6.081,12.85,8.996,10,12.5,10h65c3.55,0,6.404,2.78,6.498,6.33 c0.014,0.581,0.087,4.678-0.349,10.707C92.765,27.631,100,35.237,100,44.5c0,6.964-5.09,24.59-27.741,26.357 c-0.025,0.061-0.052,0.121-0.077,0.182c-0.814,1.918-1.694,3.989-2.688,5.925C71.811,80.164,74,84.299,74,88.5 c0,3.584-2.916,6.5-6.5,6.5H22.5z" opacity=".35"/><path fill="#f2f2f2" d="M20.5,93c-3.584,0-6.5-2.916-6.5-6.5c0-3.889,1.846-7.705,4.006-10.839 C3.54,56.163,3.904,18.79,4.001,14.357C4.081,10.85,6.996,8,10.5,8h65c3.55,0,6.404,2.78,6.498,6.33 c0.014,0.581,0.087,4.678-0.349,10.707C90.765,25.631,98,33.237,98,42.5c0,6.964-5.09,24.59-27.741,26.357 c-0.025,0.061-0.052,0.121-0.077,0.182c-0.814,1.918-1.694,3.989-2.688,5.925C69.811,78.164,72,82.299,72,86.5 c0,3.584-2.916,6.5-6.5,6.5H20.5z"/><path fill="#70bfff" d="M80.5,31.5c-1.666,0-3.847,0.372-6.135,1.035C75.698,22.226,75.5,14.5,75.5,14.5h-65c0,0-1,45,16,61 c0,0-6,6.076-6,11h45c0-4.924-6-11-6-11c2.552-3.002,4.69-9.414,6.495-13.037c0.163,0.022,0.33,0.037,0.505,0.037 c20,0,25-13.925,25-20S86.575,31.5,80.5,31.5z M68.631,56.427c2.176-5.689,3.669-11.623,4.689-17.187 c2.446-0.995,5.163-1.74,7.18-1.74c2.757,0,5,2.243,5,5C85.5,42.634,85.013,55.4,68.631,56.427z"/><polygon fill="#2785bd" points="66,86 21,86 26,76 62,76"/><rect width="64" height="7.5" x="10.5" y="14.5" fill="#f9b84f"/><path fill="none" stroke="#40396e" stroke-linecap="round" stroke-linejoin="round" stroke-miterlimit="10" stroke-width="3" d="M80.5,31.5c-1.666,0-3.847,0.372-6.135,1.035C75.698,22.226,75.5,14.5,75.5,14.5h-65c0,0-1,45,16,61c0,0-6,6.076-6,11h45 c0-4.924-6-11-6-11c2.552-3.002,4.69-9.414,6.495-13.037c0.163,0.022,0.33,0.037,0.505,0.037c20,0,25-13.925,25-20 S86.575,31.5,80.5,31.5z M68.631,56.427c2.176-5.689,3.669-11.623,4.689-17.187c2.446-0.995,5.163-1.74,7.18-1.74 c2.757,0,5,2.243,5,5C85.5,42.634,85.013,55.4,68.631,56.427z"/><circle cx="20.5" cy="28.5" r="2.5" fill="#f2f2f2"/><circle cx="35.5" cy="28.5" r="2.5" fill="#f2f2f2"/><circle cx="50.5" cy="28.5" r="2.5" fill="#f2f2f2"/><circle cx="27.5" cy="38.5" r="2.5" fill="#f2f2f2"/><circle cx="42.5" cy="38.5" r="2.5" fill="#f2f2f2"/><circle cx="57.5" cy="38.5" r="2.5" fill="#f2f2f2"/><circle cx="27.5" cy="58.5" r="2.5" fill="#f2f2f2"/><circle cx="42.5" cy="58.5" r="2.5" fill="#f2f2f2"/><circle cx="57.5" cy="58.5" r="2.5" fill="#f2f2f2"/><circle cx="65.5" cy="28.5" r="2.5" fill="#f2f2f2"/><circle cx="20.5" cy="48.5" r="2.5" fill="#f2f2f2"/><circle cx="35.5" cy="48.5" r="2.5" fill="#f2f2f2"/><circle cx="50.5" cy="48.5" r="2.5" fill="#f2f2f2"/><circle cx="35.5" cy="69.5" r="2.5" fill="#f2f2f2"/><circle cx="50.5" cy="69.5" r="2.5" fill="#f2f2f2"/><circle cx="65.5" cy="48.5" r="2.5" fill="#f2f2f2"/></svg>