<svg xmlns="http://www.w3.org/2000/svg"  viewBox="0 0 100 100" width="100px" height="100px"><path d="M33.5,94C24.402,94,17,86.598,17,77.5v-52c0-3.584,2.916-6.5,6.5-6.5h55c3.584,0,6.5,2.916,6.5,6.5 V33h4.5c5.79,0,10.5,4.71,10.5,10.5v20c0,9.289-7.318,12.079-15,13.775V77.5C85,86.598,77.598,94,68.5,94H33.5z" opacity=".35"/><path fill="#f2f2f2" d="M31.5,92C22.402,92,15,84.598,15,75.5v-52c0-3.584,2.916-6.5,6.5-6.5h55c3.584,0,6.5,2.916,6.5,6.5 V31h4.5C93.29,31,98,35.71,98,41.5v20c0,9.289-7.318,12.079-15,13.775V75.5C83,84.598,75.598,92,66.5,92H31.5z"/><path fill="#ff7575" d="M87.5,37.5h-11v-14h-55v52c0,5.523,4.477,10,10,10h35c5.523,0,10-4.477,10-10v-4c0,0,15,0,15-10v-20 C91.5,39.291,89.709,37.5,87.5,37.5z M85.5,60.5c0,4.043-5.446,4.906-9,5.04V43.5h9C85.5,43.5,85.5,56.5,85.5,60.5z"/><path fill="#f2f2f2" d="M68,21H29V4c0-2.209,1.791-4,4-4h31c2.209,0,4,1.791,4,4V21z"/><line x1="36.5" x2="36.5" y1="23.5" y2="55.5" fill="none" stroke="#f2f2f2" stroke-linecap="round" stroke-linejoin="round" stroke-miterlimit="10" stroke-width="3"/><rect width="13" height="13" x="30" y="48" fill="#f2f2f2"/><path fill="none" stroke="#40396e" stroke-linecap="round" stroke-linejoin="round" stroke-miterlimit="10" stroke-width="3" d="M87.5,37.5h-11v-14h-55v52c0,5.523,4.477,10,10,10h35c5.523,0,10-4.477,10-10v-4c0,0,15,0,15-10v-20 C91.5,39.291,89.709,37.5,87.5,37.5z M85.5,60.5c0,4.043-5.446,4.906-9,5.04V43.5h9C85.5,43.5,85.5,56.5,85.5,60.5z"/><g><path fill="none" stroke="#40396e" stroke-linecap="round" stroke-linejoin="round" stroke-miterlimit="10" stroke-width="3" d="M43.489,6.539c-0.006,0,2,1.998,2,3.996c0,2.001-2,2.001-2,4.002s1.994,4.002,2,4.002"/><path fill="none" stroke="#40396e" stroke-linecap="round" stroke-linejoin="round" stroke-miterlimit="10" stroke-width="3" d="M51.489,6.539c-0.006,0,2,1.998,2,3.996c0,2.001-2,2.001-2,4.002s1.994,4.002,2,4.002"/><path fill="none" stroke="#40396e" stroke-linecap="round" stroke-linejoin="round" stroke-miterlimit="10" stroke-width="3" d="M59.489,6.539c-0.006,0,2,1.998,2,3.996c0,2.001-2,2.001-2,4.002s1.994,4.002,2,4.002"/><g><path fill="none" stroke="#40396e" stroke-linecap="round" stroke-linejoin="round" stroke-miterlimit="10" stroke-width="3" d="M35.489,6.539c-0.006,0,2,1.998,2,3.996c0,2.001-2,2.001-2,4.002s1.994,4.002,2,4.002"/></g></g></svg>