<svg xmlns="http://www.w3.org/2000/svg"  viewBox="0 0 100 100" width="100px" height="100px"><path d="M19.31,85.092C10.868,85.092,4,78.224,4,69.781v-0.189c0-2.684,1.634-4.992,3.96-5.983 c2.337-16.307,13.69-38.25,37.874-38.25c6.575,0,14.241,2.596,22.323,7.537c2.165-1.478,5.019-3.471,7.654-5.331 c0.286-2.138,1.259-4.168,2.819-5.73c1.89-1.887,4.396-2.923,7.062-2.923s5.172,1.036,7.056,2.917 c0.628,0.63,1.164,1.335,1.599,2.098c0.764,0.435,1.468,0.972,2.095,1.599c3.891,3.89,3.892,10.222,0.003,14.114 c-1.596,1.595-3.637,2.581-5.845,2.845c-1.413,1.92-2.916,3.979-4.174,5.727c4.49,5.158,7.603,10.372,9.083,15.199 c2.604,0.849,4.491,3.3,4.491,6.183v0.189c0,8.442-6.868,15.311-15.31,15.311H19.31z" opacity=".35"/><path fill="#f2f2f2" d="M17.31,83.092C8.868,83.092,2,76.224,2,67.781v-0.189c0-2.684,1.634-4.992,3.96-5.983 c2.337-16.307,13.69-38.25,37.874-38.25c6.575,0,14.241,2.596,22.323,7.537c2.165-1.478,5.019-3.471,7.654-5.331 c0.286-2.138,1.259-4.168,2.819-5.73c1.89-1.887,4.396-2.923,7.062-2.923s5.172,1.036,7.056,2.917 c0.628,0.63,1.164,1.335,1.599,2.098c0.764,0.435,1.468,0.972,2.095,1.599c3.891,3.89,3.892,10.222,0.003,14.114 c-1.596,1.595-3.637,2.581-5.845,2.845c-1.413,1.92-2.916,3.979-4.174,5.727c4.49,5.158,7.603,10.372,9.083,15.199 c2.604,0.849,4.491,3.3,4.491,6.183v0.189c0,8.442-6.868,15.311-15.31,15.311H17.31z"/><path fill="#fedeb3" d="M89.846,33.044c1.359-1.359,1.36-3.564,0-4.923c-0.739-0.739-1.728-1.062-2.695-0.997 c0.065-0.967-0.258-1.956-0.997-2.695c-1.36-1.36-3.564-1.359-4.923,0c-1.146,1.146-1.314,2.886-0.528,4.221L69.538,39.813 l4.923,4.923l11.164-11.164C86.96,34.357,88.7,34.189,89.846,33.044z"/><path fill="#d47f56" d="M12,69c0-12.739,8.438-37.733,31.834-37.733C60.52,31.267,88,54.403,88,69H12z"/><path fill="#40396e" d="M65.001,37.458c-2.951,1.737-6.167,3.327-9.635,4.734c-4.697,1.902-9.407,4.812-12.001,7.413 c-2.892,2.901-4.518,6.724-4.58,10.765c-0.062,4.078,1.473,7.889,4.322,10.729c2.775,2.767,6.49,4.29,10.46,4.29 c0.001,0,0,0,0.001,0c4.146,0,8.065-1.641,11.033-4.619c2.593-2.602,5.487-7.321,7.374-12.023 c1.607-4.005,3.464-7.678,5.513-10.992L65.001,37.458z" opacity=".35"/><path fill="#d47f56" d="M76.42,43.853l1.111-1.629l-5.662-5.643l-1.626,1.116c-4.289,2.945-8.93,5.321-13.752,7.275 c-4.458,1.806-8.77,4.512-11.002,6.751c-4.837,4.853-4.955,12.576-0.265,17.252c4.69,4.675,12.414,4.531,17.251-0.321 c2.232-2.239,4.924-6.56,6.715-11.024C71.128,52.8,73.489,48.152,76.42,43.853z"/><path fill="#9aa2e6" d="M83.19,78H17.81C12.944,78,9,74.056,9,69.19V69h83v0.19C92,74.056,88.056,78,83.19,78z"/><path fill="#40396e" d="M82.69,78.092H17.31C11.625,78.092,7,73.467,7,67.781v-0.189c0-0.828,0.672-1.5,1.5-1.5h2.039 c0.64-12.849,9.326-37.733,33.295-37.733c6.273,0,14.191,3.016,22.376,8.51c2.547-1.622,9.169-6.28,12.663-8.76 c-0.425-1.669,0.036-3.479,1.296-4.741c1.943-1.94,5.103-1.941,7.046-0.001c0.656,0.658,1.106,1.484,1.314,2.379 c0.895,0.207,1.721,0.658,2.377,1.314c1.941,1.941,1.942,5.102,0.001,7.045c-1.269,1.268-3.094,1.725-4.767,1.291 c-2.848,3.847-6.61,8.996-8.134,11.238c6.714,6.832,10.782,13.786,11.408,19.458H91.5c0.828,0,1.5,0.672,1.5,1.5v0.189 C93,73.467,88.375,78.092,82.69,78.092z M10.117,69.092c0.62,3.408,3.609,6,7.192,6H82.69c3.583,0,6.572-2.592,7.192-6H88 c-0.828,0-1.5-0.672-1.5-1.5c0-5.348-4.178-12.522-11.461-19.684c-0.483-0.475-0.588-1.216-0.255-1.806 c1.009-1.79,8.757-12.239,9.637-13.425c0.457-0.615,1.304-0.785,1.965-0.398c0.778,0.457,1.765,0.338,2.399-0.296 c0.772-0.772,0.772-2.03,0-2.803c-0.401-0.402-0.954-0.604-1.534-0.561c-0.434,0.023-0.854-0.131-1.16-0.437 s-0.465-0.729-0.437-1.16c0.04-0.589-0.16-1.134-0.562-1.536c-0.772-0.772-2.029-0.771-2.802,0.001 c-0.633,0.634-0.755,1.62-0.296,2.399c0.395,0.67,0.211,1.531-0.423,1.982c-0.509,0.363-12.497,8.896-14.69,10.096 c-0.498,0.272-1.106,0.241-1.571-0.082c-7.857-5.418-15.685-8.525-21.477-8.525c-22.695,0-30.334,24.883-30.334,36.233 c0,0.828-0.672,1.5-1.5,1.5H10.117z M89.5,67.592h0.01H89.5z"/></svg>