<svg xmlns="http://www.w3.org/2000/svg"  viewBox="0 0 100 100" width="100px" height="100px"><path d="M91.6,28.7c-0.3-0.6-0.7-1.4-1.1-2.1c1.1-2,1.6-4.3,1.8-7c0.1-2-0.7-4.1-2.1-5.5c-1.4-1.5-3.3-2.3-5.3-2.3	l-0.2,0c-1.2,0-2.5,0.1-4,0.2c-0.7-0.8-1.4-1.5-1.9-2c-1.4-1.3-3.2-2-5-2c-0.3,0-0.7,0-1,0.1c-2.2,0.3-4.1,1.6-5.3,3.5	c-1,1.6-3.2,5.7-3.2,11c0,0.1,0,0.3,0,0.4c-0.7,0.2-1.3,0.4-2,0.6c0-0.1,0-0.3,0-0.5c0-2-0.4-3.6-0.8-4.6c-1.1-2.9-3.9-4.9-7-4.9	c-0.3,0-0.6,0-0.9,0.1c-0.3,0-0.7,0.1-1.1,0.2c-1.8-1.7-3.8-2.7-5.4-3.4c-0.9-0.4-1.9-0.6-2.8-0.6c-1.2,0-2.3,0.3-3.4,0.8	c-1.9,1-3.3,2.8-3.8,4.9c-0.2,0.9-0.4,2-0.6,3.3c-1.9,1-3.2,2.2-3.9,3c-1.8,2-2.4,4.8-1.5,7.4c0.1,0.4,0.3,0.8,0.5,1.1	c-0.2,0.1-0.3,0.2-0.5,0.3c-1.8,1-5.4,3.4-7.6,7.4c-0.8,0.1-1.7,0.2-2.6,0.4l-0.1,0c-3.5,0.8-5.9,4.1-5.7,7.7	c0.1,1.5,0.4,3.7,1.2,5.9c1.1,2.8,2.8,5,4.9,6.4c-4.4,9.1-7.1,19.3-7.4,29.4c-0.1,3.6,2.7,6.6,6.2,6.7l0.2,0h0.1	c3.5,0,6.4-2.7,6.5-6.3c0-0.6,0.1-1.1,0.1-1.7c3.3-2,5.9-3.5,8.1-4.4c0.8,1.2,1.9,2.4,3.4,3.4c2.2,1.5,5,2.5,8.4,2.7	c0.2,0,0.5,0,0.7,0c2,0,3.8-0.8,5.2-2.1c1-1,1.8-2.3,2.1-3.7c1.4-0.1,2.8-0.2,4.3-0.4c2.3,3.9,6.4,6.3,11.3,6.3c2.6,0,4.7-0.5,5.9-1	c3.7-1.3,5.8-5.3,4.6-9.1c-0.1-0.3-0.2-0.7-0.4-1.1c0.7-0.9,1.3-1.8,1.8-2.8c0.9-1.8,1-3.9,0.3-5.9c-0.7-1.9-2.2-3.5-4.1-4.3	c-1-0.4-2.2-0.9-3.5-1.3c0-0.1,0-0.2,0-0.3c-0.2-1.3-0.8-2.4-1.6-3.4l0,0l0.5-5.6l0,0c1.1-1.4,1.7-3.1,1.7-4.9	c0-1.3-0.2-2.7-0.5-4.2c0.9-1.1,1.5-2.4,2-3.8c0.2-0.5,0.3-1,0.3-1.4c1,0.2,2,0.3,3.1,0.3c2.8,0,5.1-0.5,6.5-0.9	c2.1-0.6,3.8-2,4.8-4C92.5,32.9,92.5,30.7,91.6,28.7z" opacity=".35"/><path fill="#f2f2f2" d="M89.6,26.7c-0.3-0.6-0.7-1.4-1.1-2.1c1.1-2,1.6-4.3,1.8-7c0.1-2-0.7-4.1-2.1-5.5c-1.4-1.5-3.3-2.3-5.3-2.3	l-0.2,0c-1.2,0-2.5,0.1-4,0.2c-0.7-0.8-1.4-1.5-1.9-2c-1.4-1.3-3.2-2-5-2c-0.3,0-0.7,0-1,0.1c-2.2,0.3-4.1,1.6-5.3,3.5	c-1,1.6-3.2,5.7-3.2,11c0,0.1,0,0.3,0,0.4c-0.7,0.2-1.3,0.4-2,0.6c0-0.1,0-0.3,0-0.5c0-2-0.4-3.6-0.8-4.6c-1.1-2.9-3.9-4.9-7-4.9	c-0.3,0-0.6,0-0.9,0.1c-0.3,0-0.7,0.1-1.1,0.2c-1.8-1.7-3.8-2.7-5.4-3.4c-0.9-0.4-1.9-0.6-2.8-0.6c-1.2,0-2.3,0.3-3.4,0.8	c-1.9,1-3.3,2.8-3.8,4.9c-0.2,0.9-0.4,2-0.6,3.3c-1.9,1-3.2,2.2-3.9,3c-1.8,2-2.4,4.8-1.5,7.4c0.1,0.4,0.3,0.8,0.5,1.1	c-0.2,0.1-0.3,0.2-0.5,0.3c-1.8,1-5.4,3.4-7.6,7.4c-0.8,0.1-1.7,0.2-2.6,0.4l-0.1,0c-3.5,0.8-5.9,4.1-5.7,7.7	c0.1,1.5,0.4,3.7,1.2,5.9c1.1,2.8,2.8,5,4.9,6.4c-4.4,9.1-7.1,19.3-7.4,29.4c-0.1,3.6,2.7,6.6,6.2,6.7l0.2,0h0.1	c3.5,0,6.4-2.7,6.5-6.3c0-0.6,0.1-1.1,0.1-1.7c3.3-2,5.9-3.5,8.1-4.4c0.8,1.2,1.9,2.4,3.4,3.4c2.2,1.5,5,2.5,8.4,2.7	c0.2,0,0.5,0,0.7,0c2,0,3.8-0.8,5.2-2.1c1-1,1.8-2.3,2.1-3.7c1.4-0.1,2.8-0.2,4.3-0.4c2.3,3.9,6.4,6.3,11.3,6.3c2.6,0,4.7-0.5,5.9-1	c3.7-1.3,5.8-5.3,4.6-9.1c-0.1-0.3-0.2-0.7-0.4-1.1c0.7-0.9,1.3-1.8,1.8-2.8c0.9-1.8,1-3.9,0.3-5.9c-0.7-1.9-2.2-3.5-4.1-4.3	c-1-0.4-2.2-0.9-3.5-1.3c0-0.1,0-0.2,0-0.3c-0.2-1.3-0.8-2.4-1.6-3.4l0,0l0.5-5.6l0,0c1.1-1.4,1.7-3.1,1.7-4.9	c0-1.3-0.2-2.7-0.5-4.2c0.9-1.1,1.5-2.4,2-3.8c0.2-0.5,0.3-1,0.3-1.4c1,0.2,2,0.3,3.1,0.3c2.8,0,5.1-0.5,6.5-0.9	c2.1-0.6,3.8-2,4.8-4C90.5,30.9,90.5,28.7,89.6,26.7z"/><path fill="#96c362" d="M46.3,27.5c0,0-1.7-2.2,0.2-5.7c1.6-2.9,4.5-3.5,5.9-3.7c0.4-0.1,0.8,0.2,1,0.6c0.2,0.5,0.4,1.4,0.4,2.4	C53.8,25.6,50.7,27.5,46.3,27.5z"/><path fill="#96c362" d="M41.1,21.9c-3.2,0-5.1,1.6-5.8,2.4c-0.2,0.2-0.3,0.6-0.2,0.9c0.4,1.2,1.8,4.1,5.8,4.1c4,0,5.4-1.8,5.4-1.8	S45.5,21.9,41.1,21.9z"/><path fill="#96c362" d="M42.5,14.4c-0.5-0.2-1.1,0.1-1.3,0.7c-0.3,1.2-0.7,3.2-0.7,5.7c0,5.3,5.6,6.7,5.6,6.7s1.9-1.9,1.9-6.2	C48.1,17.3,44.4,15.2,42.5,14.4z"/><path fill="#96c362" d="M64.2,35c-5.3,0-6.7,3.7-6.7,3.7s3.1,3.1,7.4,1.9c2.4-0.7,3.4-2.6,3.8-3.8c0.2-0.5-0.1-1-0.6-1.2	C67.2,35.4,65.7,35,64.2,35z"/><path fill="#96c362" d="M57.5,38.8c0,0-3.7,1.5-3.7,5.3c0,2.9,1.3,4.7,2.1,5.6c0.4,0.4,1,0.4,1.4,0c1.3-1.4,2.1-3.3,2.1-5.4	C59.4,40,57.5,38.8,57.5,38.8z"/><path fill="#96c362" d="M58.2,39.5c0,2.8,0.5,4.8,1.4,5.8c1.3,1.8,4,1.5,5.3,1.7c0.5,0,0.8-0.3,0.8-0.8c-0.1-2.7-0.2-4.7-1.4-5.8	C62.3,38.7,58.2,39.5,58.2,39.5z"/><path fill="#96c362" stroke="#40396e" stroke-miterlimit="10" stroke-width="3" d="M33.2,34.8c-0.3-0.4-0.8-0.6-1.2-0.4c-1.7,1-5.9,3.7-5.9,8.4c0,4.8,1.9,6.4,1.9,6.4s7-1,7-7.6	C35,38.3,33.9,35.9,33.2,34.8z"/><path fill="#96c362" stroke="#40396e" stroke-linecap="round" stroke-linejoin="round" stroke-miterlimit="10" stroke-width="3" d="M83.7,29.4c-0.6-1.3-1.9-3.6-4.2-4.8c3.4-1.6,4.2-4.6,4.3-7.3c0-0.5-0.4-1-0.9-1c-2.1,0-4.9,0.2-7.2,1.1	c-0.8-2.1-2.3-3.7-3.2-4.6c-0.4-0.4-1.1-0.3-1.4,0.2c-1,1.6-2.2,4.4-2.2,7.6c0,3.1,1.9,5.1,1.9,5.1s0.7,5.6,7.7,5.6	c2.1,0,3.8-0.3,4.8-0.6C83.6,30.5,83.9,29.9,83.7,29.4z"/><path fill="none" stroke="#40396e" stroke-linecap="round" stroke-linejoin="round" stroke-miterlimit="10" stroke-width="3" d="M68.1,35.6c-0.9-0.3-2.4-0.6-3.9-0.6c-5.3,0-6.7,3.8-6.7,3.8s-3.8,1.5-3.8,5.3c0,2.9,1.3,4.7,2.1,5.6	c0.4,0.4,1,0.4,1.4,0c1.1-1.2,1.9-2.9,2.1-4.6c0,0,0,0,0,0.1c1.7,2.2,4.8,2.8,6.5,3c0.6,0.1,1-0.4,1-1c-0.1-3.4-0.8-4.9-2.3-6.3	c-0.1,0-0.1-0.1-0.2-0.1c0.2,0,0.3-0.1,0.5-0.1c2.4-0.7,3.4-2.6,3.8-3.8C68.9,36.3,68.6,35.8,68.1,35.6z"/><path fill="#96c362" stroke="#40396e" stroke-linecap="round" stroke-linejoin="round" stroke-miterlimit="10" stroke-width="3" d="M73.8,68.4c-1.3-0.5-3.8-1.5-5.8-1.5c-0.4,0-0.7,0-1.1,0.1c0-1.9-0.3-3.8-0.5-4.9c-0.1-0.6-0.7-0.9-1.3-0.7	c-1.9,0.8-5.8,2.8-5.8,6.6c0,3.1,1.9,4.6,1.9,4.6l0,0l0,0c0,0,0,7.5,6.9,7.5c1.7,0,3-0.3,3.7-0.6c0.5-0.2,0.7-0.7,0.6-1.1	c-0.3-1.1-1.1-3-2.6-4.5c2.4-0.9,3.7-2.8,4.4-4.2C74.5,69.1,74.3,68.6,73.8,68.4z"/><path fill="none" stroke="#40396e" stroke-linecap="round" stroke-linejoin="round" stroke-miterlimit="10" stroke-width="3" d="M53.3,18.7c-0.1-0.4-0.6-0.7-1-0.6c-1,0.1-2.8,0.5-4.4,1.9c-0.7-3.2-3.8-4.9-5.4-5.6c-0.5-0.2-1.1,0.1-1.3,0.7	c-0.3,1.2-0.7,3.2-0.7,5.7c0,0.4,0,0.8,0.1,1.1c-3,0.1-4.8,1.6-5.5,2.4c-0.2,0.2-0.3,0.6-0.2,0.9c0.4,1.2,1.8,4.1,5.8,4.1	c4,0,5.4-1.8,5.4-1.8c4.5,0,7.5-1.9,7.5-6.4C53.8,20.1,53.5,19.3,53.3,18.7z"/><path fill="#96c362" stroke="#40396e" stroke-miterlimit="10" stroke-width="3" d="M36.9,73c0,0,0,3.8,3.1,5.9c1.6,1.1,4,1.5,5.3,1.6c0.6,0,1.1-0.4,1-1c-0.3-5.1-3.2-7.5-6.1-7.5	C38.1,72.1,36.9,73,36.9,73z"/><path fill="#96c362" stroke="#40396e" stroke-miterlimit="10" stroke-width="3" d="M43.9,64.6c-3.6,0-6.5,1.9-6.5,7.5c0,0,0.6,0,2.8,0c4.3,0,5.9-3.6,6.5-6.4c0.1-0.6-0.3-1.1-0.9-1.1H43.9z"/><path fill="#96c362" stroke="#40396e" stroke-miterlimit="10" stroke-width="3" d="M37.6,47.7c-6-1.1-7.9,4.3-7.9,4.3s2.1,2.3,6.2,3c3.7,0.7,6.1-1.8,7-2.9c0.3-0.3,0.3-0.8,0-1.1	C42.2,50,40.6,48.2,37.6,47.7z"/><path fill="#96c362" stroke="#40396e" stroke-miterlimit="10" stroke-width="3" d="M20.1,42.9c-0.4,0.1-0.7,0.5-0.7,1c0.1,0.9,0.2,2.5,0.8,4c1.9,4.8,5.9,4.8,9.4,3.5c0,0,1.1-2.4,0.1-5.1	C27.9,41.6,22.2,42.4,20.1,42.9z"/><path fill="none" stroke="#40396e" stroke-linecap="round" stroke-linejoin="round" stroke-miterlimit="10" stroke-width="3" d="M18.1,86.1C19,62.3,34,32.8,70.6,25.6"/><path fill="none" stroke="#40396e" stroke-linecap="round" stroke-linejoin="round" stroke-miterlimit="10" stroke-width="3" d="M18.5,80.9c25-16.3,18.9-2.6,42.7-8.1"/><path fill="none" stroke="#40396e" stroke-linecap="round" stroke-linejoin="round" stroke-miterlimit="10" stroke-width="3" d="M46.1,28.2c0.1,0.6,0.1,1.2,0.1,1.8c0,2.4-0.7,4.6-1.9,6.3"/><path fill="none" stroke="#40396e" stroke-linecap="round" stroke-linejoin="round" stroke-miterlimit="10" stroke-width="3" d="M44.4,36.8c1.4-0.4,2.9-0.6,4.4-0.6c3.4,0,6.4,1,8.4,2.5"/></svg>