<svg xmlns="http://www.w3.org/2000/svg"  viewBox="0 0 100 100" width="100px" height="100px"><path d="M42.699,98.5c-0.306,0-0.614-0.022-0.92-0.065c-0.364-0.054-8.289-1.228-15.791-2.751 c-3.316-0.673-5.581-3.83-5.156-7.187c0.464-3.662,1.278-7.519,2.438-11.553c-1.172,0.579-2.457,0.882-3.771,0.882 c-0.862,0-1.72-0.13-2.548-0.387c-2.913-0.903-5.08-3.212-5.796-6.177c-1.855-7.677-3.281-19.052,5.709-29.165 c1.406-1.583,2.961-2.945,4.661-4.084C20.6,37.581,21.613,35.767,21,35l-4-4c-3.064-1.083-9.96-1.025-10.376-4.25 c-0.417-3.226,0.995-6.365,3.685-8.193c5.178-3.521,11.092-5.381,17.102-5.381c4.856,0,9.574,1.17,14.021,3.478 c0.591,0.307,1.163,0.622,1.716,0.946C47.816,9.646,56.453,4.5,66,4.5c9.063,0,18,8.5,22.376,12.363 c2.72,0.509,5.222,1.823,7.221,3.822c2.533,2.536,2.532,6.659-0.001,9.192c-0.87,0.868-1.939,1.459-3.104,1.732 c-0.079,3.406-0.821,6.764-2.173,9.884c1.425,2.259,2.647,4.768,3.649,7.492c1.099,2.989,0.461,6.318-1.667,8.688 c-1.623,1.81-3.949,2.848-6.38,2.848c-0.7,0-1.4-0.086-2.081-0.256l-8.444-2.111c0.013,0.061,0.025,0.122,0.038,0.182 c2.138,10.383-0.628,18.924-8.971,27.693c-1.636,1.721-3.835,2.669-6.192,2.669c-0.719,0-1.44-0.091-2.143-0.271 c-3-0.766-5.363-3.1-6.163-6.092l-1.015-3.789c-1.15,5.319-1.754,9.891-1.754,13.453c0,1.891-0.82,3.683-2.251,4.919 C45.77,97.938,44.26,98.5,42.699,98.5z" opacity=".35"/><path fill="#f2f2f2" d="M40.699,96.5c-0.306,0-0.614-0.022-0.92-0.065c-0.364-0.054-8.289-1.228-15.791-2.751 c-3.316-0.673-5.581-3.83-5.156-7.187c0.464-3.662,1.278-7.519,2.438-11.553c-1.172,0.579-2.457,0.882-3.771,0.882 c-0.862,0-1.72-0.13-2.548-0.387c-2.913-0.903-5.08-3.212-5.796-6.177c-1.855-7.677-3.281-19.052,5.709-29.165 c1.406-1.583,2.961-2.945,4.661-4.084c-0.924-0.433-1.714-1.06-2.327-1.827l-6.929-2.453c-3.064-1.083-5.228-3.759-5.644-6.984 c-0.417-3.226,0.995-6.365,3.685-8.193c5.178-3.521,11.092-5.381,17.102-5.381c4.856,0,9.574,1.17,14.021,3.478 c0.591,0.307,1.163,0.622,1.716,0.946C45.816,7.646,54.453,2.5,64,2.5c9.063,0,17.554,4.77,22.376,12.363 c2.72,0.509,5.222,1.823,7.221,3.822c2.533,2.536,2.532,6.659-0.001,9.192c-0.87,0.868-1.939,1.459-3.104,1.732 c-0.079,3.406-0.821,6.764-2.173,9.884c1.425,2.259,2.647,4.768,3.649,7.492c1.099,2.989,0.461,6.318-1.667,8.688 c-1.623,1.81-3.949,2.848-6.38,2.848c-0.7,0-1.4-0.086-2.081-0.256l-8.444-2.111c0.013,0.061,0.025,0.122,0.038,0.182 c2.138,10.383-0.628,18.924-8.971,27.693c-1.636,1.721-3.835,2.669-6.192,2.669c-0.719,0-1.44-0.091-2.143-0.271 c-3-0.766-5.363-3.1-6.163-6.092l-1.015-3.789c-1.15,5.319-1.754,9.891-1.754,13.453c0,1.891-0.82,3.683-2.251,4.919 C43.77,95.938,42.26,96.5,40.699,96.5z"/><path fill="#ffc571" d="M84,29c0,11.046-5.843,15.236-18,14c-11.046,0-23.404-0.595-23.404-11.64S52.954,9,64,9 S84,17.954,84,29z"/><path fill="#d47f56" d="M25.28,87.314c2.606-20.589,15.027-43.316,15.68-44.258l3.327-1.502l7.269,4.845l1.337,2.32 C52.791,48.964,40.699,73.904,40.699,90C40.699,90,32.849,88.85,25.28,87.314z"/><path fill="#40396e" d="M39.899,89.785l0.703-2.672 c0.039-0.599,0.086-1.204,0.145-1.821L27.004,81.68l-1.091,4.152C32.099,87.114,38.048,89.132,39.899,89.785z" opacity=".35"/><path fill="#40396e" d="M42.011,80.196l0.703-2.672 c0.039-0.599,0.086-1.204,0.145-1.821L29.115,72.09l-1.091,4.152C34.211,77.523,40.16,79.543,42.011,80.196z" opacity=".35"/><path fill="#40396e" d="M47.547,60.82l0.703-2.672 c0.039-0.599,0.086-1.204,0.145-1.821l-11.429-3.124l-2.258,4.079C40.894,58.562,45.696,60.167,47.547,60.82z" opacity=".35"/><path fill="#40396e" d="M44.779,70.508l0.703-2.672 c0.039-0.599,0.086-1.204,0.145-1.821l-13.744-3.612l-1.091,4.152C36.979,67.836,42.928,69.855,44.779,70.508z" opacity=".35"/><path fill="#739f4d" d="M84.157,48.921C80.685,40.157,73,32,62,32c-10,0-15.412,4.944-16.135,5.444 c-0.112-1.117-3.51-13.951-9.428-17.022c-3.513-1.823-7.224-2.747-11.027-2.747c-4.7,0-9.35,1.471-13.448,4.257l0,0 c-1.407,0.956-1.131,3.107,0.475,3.674l8.41,2.977l1.157-0.289l0.275,1.832l6.21,2.674l1.907-0.68l0.448,2.602l0.934,0.471 c2.163,1.089,4.014,2.077,5.609,3.284c-0.779-0.181-1.546-0.293-2.277-0.293c-6.629,0-11.664,2.039-15.391,6.232 c-6.887,7.747-5.889,16.53-4.249,23.319l0,0c0.37,1.529,2.238,2.108,3.407,1.056l8.606-7.847v-1.618h1.55l2.997-2.983l2.924-2.937 l0.608-0.608c1.499-1.497,2.245-7.821,10.377-8.469c7.458,5.451,4.107,11.192,4.734,13.53l0.223,0.83l2.538,1.466l-1.45,2.498 l1.441,5.486l1.349,0.779l-0.776,1.344l2.248,8.392c0.419,1.567,2.392,2.069,3.51,0.894l0,0c6.813-7.161,9-13.712,7.313-21.904 c-1.014-4.937-3.641-8.823-8.002-11.829c0.653,0.169,1.355,0.365,2.138,0.59l0.866,0.248l2.047-0.485l1.808,1.352l5.982,1.994 l1.563-1.311l0.699,1.445l9.246,2.311c1.619,0.404,3.03-1.165,2.454-2.731L84.157,48.921z"/><path fill="#96c362" d="M33.149,34.36c-0.514-0.157-1.409-0.674-1.482-1.22l-0.818-1.713l-1.69-0.01 c-0.203,0.067-0.393,0.099-0.569,0.099c-0.267,0-0.51-0.054-0.724-0.161l-3.74-1.609c-0.532-0.234-0.905-0.708-1.004-1.271 c0,0-0.716-0.557-0.766-0.891l-0.954-0.25c-0.09,0.022-0.233,0.057-0.423,0.057c-0.202,0-0.414-0.041-0.596-0.114l-6.256-2.212 c-0.623-0.224-2.303-0.716-2.364-1.373c-0.06-0.652,1.493-1.337,2.055-1.665c3.626-2.173,7.529-3.278,11.59-3.278 c3.616,0,7.161,0.885,10.535,2.631c5.313,2.761,8.915,7.096,9.824,14.127c0.581,4.5,0.177,8.824,0.177,8.824 S38.508,36.003,33.149,34.36z"/><path fill="#96c362" d="M58.607,78.418c-0.776,0-1.453-0.518-1.646-1.26L55.33,71.09c-0.102-0.438-0.05-0.852,0.141-1.233 l0.773-1.335l-1.28-0.743c-0.373-0.184-0.681-0.579-0.791-1.055l-0.851-3.238c-0.125-0.4-0.068-0.871,0.172-1.283l1.408-2.442 c-0.375-0.218-2.228-1.283-2.491-1.438c-0.384-0.223-0.754-0.573-0.767-1.02c-0.293-10.126-5.704-12.973-5.704-12.973 c1.523-0.411,7.374-0.06,10.913,1.929c5.264,2.958,8.065,6.274,9.169,11.609c1.524,7.411-0.38,13.578-6.175,19.999 C59.524,78.223,59.084,78.418,58.607,78.418z"/><path fill="none" stroke="#40396e" stroke-linecap="round" stroke-linejoin="round" stroke-miterlimit="10" stroke-width="3" d="M63.867,23.281c1.332-1.332,3.172-2.156,5.205-2.156c2.033,0,3.873,0.824,5.205,2.156s2.156,3.172,2.156,5.205"/><path fill="none" stroke="#40396e" stroke-linecap="round" stroke-linejoin="round" stroke-miterlimit="10" stroke-width="3" d="M76.434,28.486c0-2.033,0.824-3.873,2.156-5.205c1.332-1.332,3.172-2.156,5.205-2.156c2.033,0,3.873,0.824,5.205,2.156"/><path fill="#96c362" d="M33.149,34.36c-0.514-0.157-1.409-0.674-1.482-1.22l-0.818-1.713l-1.69-0.01 c-0.203,0.067-0.393,0.099-0.569,0.099c-0.267,0-0.51-0.054-0.724-0.161l-3.74-1.609c-0.532-0.234-0.905-0.708-1.004-1.271 c0,0-0.716-0.557-0.766-0.891l-0.954-0.25c-0.09,0.022-0.233,0.057-0.423,0.057c-0.202,0-0.414-0.041-0.596-0.114l-6.256-2.212 c-0.623-0.224-2.303-0.716-2.364-1.373c-0.06-0.652,1.493-1.337,2.055-1.665c3.626-2.173,7.529-3.278,11.59-3.278 c3.616,0,7.161,0.885,10.535,2.631c5.313,2.761,8.915,7.096,9.824,14.127c0.581,4.5,0.177,8.824,0.177,8.824 S38.508,36.003,33.149,34.36z"/><path fill="#96c362" d="M58.607,78.418c-0.776,0-1.453-0.518-1.646-1.26L55.33,71.09c-0.102-0.438-0.05-0.852,0.141-1.233 l0.773-1.335l-1.28-0.743c-0.373-0.184-0.681-0.579-0.791-1.055l-0.851-3.238c-0.125-0.4-0.068-0.871,0.172-1.283l1.408-2.442 c-0.375-0.218-2.228-1.283-2.491-1.438c-0.384-0.223-0.754-0.573-0.767-1.02c-0.293-10.126-5.704-12.973-5.704-12.973 c1.523-0.411,7.374-0.06,10.913,1.929c5.264,2.958,8.065,6.274,9.169,11.609c1.524,7.411-0.38,13.578-6.175,19.999 C59.524,78.223,59.084,78.418,58.607,78.418z"/><path fill="none" stroke="#40396e" stroke-linecap="round" stroke-linejoin="round" stroke-miterlimit="10" stroke-width="3" d="M85.869,49.23c-1.336-3.634-3.076-6.703-5.196-9.217C82.765,36.852,84,33.074,84,29c0-11.046-8.954-20-20-20 c-10.211,0-18.618,7.657-19.833,17.539c-1.945-2.424-4.459-4.42-7.729-6.117c-3.513-1.823-7.224-2.747-11.027-2.747 c-4.7,0-9.35,1.471-13.448,4.257c-1.407,0.956-1.131,3.107,0.475,3.674l8.41,2.977l1.157-0.289l0.275,1.832l6.21,2.674l1.907-0.68 l0.448,2.602l0.934,0.471c2.163,1.089,4.014,2.077,5.609,3.284c-0.779-0.181-1.546-0.293-2.277-0.293 c-6.629,0-11.664,2.039-15.391,6.232c-6.887,7.747-5.889,16.53-4.249,23.319c0.37,1.529,2.238,2.108,3.407,1.056l8.153-7.447 l-0.006-2.937h2.93l5.608-5.608c1.094-1.093,2.685-2.735,4.368-4.325c-4.614,8.025-12.766,23.944-14.652,38.84 C32.849,88.85,40.699,90,40.699,90c0-12.217,5.814-29.947,8.663-37.895c0.471,2.128,0.904,4.229,1.313,5.755l0.223,0.83 l2.538,1.466l-1.45,2.498l1.441,5.486l1.349,0.779l-0.776,1.344l2.248,8.392c0.419,1.567,2.392,2.069,3.51,0.894 c6.813-7.161,9-13.712,7.313-21.904c-1.014-4.937-3.641-8.823-8.002-11.829c0.653,0.169,11.523,2.981,11.523,2.981l3.135-1.315 l2.124,2.427l7.567,2.05C85.034,52.364,86.445,50.795,85.869,49.23z"/></svg>