<svg xmlns="http://www.w3.org/2000/svg"  viewBox="0 0 100 100" width="100px" height="100px"><g id="Слой_2"><path d="M89.324,43h-3.652c-0.151-0.627-3.364-1.408-3.673-2c-0.99-1.896-7.11-18.549-21.723-25.234 c-3.939-1.802-7.981-2.716-12.012-2.716c-8.904,0-17.283,4.33-24.963,12.887c-2.214-2.991-2.3-6.294-2.303-6.479 C20.994,15.911,18.078,13,14.5,13C10.916,13,8,15.916,8,19.5c0,4.463,2.695,12.764,11,18.5c0.415,1.327,0.431,3.762,0.905,5 h-7.224c-2.607,0-5.057,1.275-6.552,3.41c-1.496,2.135-1.857,4.873-0.966,7.323C9.69,66.188,19.003,73.607,31,79v4 c0,4.411,3.589,8,8,8h24c4.411,0,8-3.589,8-8v-1.441c11.92-5.361,21.202-15.258,25.758-27.608 c0.374-0.941,0.564-1.933,0.564-2.951C97.322,46.589,93.734,43,89.324,43z" opacity=".35"/><path fill="#f2f2f2" d="M87.324,41h-3.652c-0.151-0.627-0.379-1.243-0.688-1.835c-0.99-1.896-10.095-18.714-24.707-25.399 c-3.939-1.802-7.981-2.716-12.012-2.716c-8.904,0-17.283,4.33-24.963,12.887c-2.214-2.991-2.3-6.294-2.303-6.479 C18.994,13.911,16.078,11,12.5,11C8.916,11,6,13.916,6,17.5c0,4.463,2.266,13.915,10.57,19.652 c0.415,1.327,0.86,2.611,1.334,3.848h-7.224c-2.607,0-5.057,1.275-6.552,3.41c-1.496,2.135-1.857,4.873-0.966,7.323 C7.69,64.188,17.003,74.165,29,79.559V81c0,4.411,3.589,8,8,8h24c4.411,0,8-3.589,8-8v-1.441 c11.92-5.361,21.202-15.258,25.758-27.608c0.374-0.941,0.564-1.933,0.564-2.951C95.322,44.589,91.734,41,87.324,41z"/><path fill="#40396e" d="M32.501,38c-0.025,0-0.051-0.001-0.076-0.002C11.245,36.939,11,18.685,11,18.5c0-0.828,0.671-1.5,1.5-1.5 c0.828,0,1.499,0.67,1.5,1.497c0.004,0.657,0.306,15.592,18.575,16.505c0.828,0.041,1.465,0.745,1.423,1.573 C33.958,37.377,33.295,38,32.501,38z M14,18.5h0.01H14z"/><path fill="#96c362" d="M75.893,43.868c0,0-24.374-46.677-52.071-9.378C36.765,79.108,75.893,43.868,75.893,43.868z"/><path fill="#739f4d" d="M23.822,34.489C27.721,71.416,51.983,68.413,66,59c8.193-5.502,9.893-15.132,9.893-15.132 s-0.009-0.017-0.023-0.043l-52.022-9.37C23.839,34.467,23.83,34.477,23.822,34.489z"/><polygon fill="#707cc0" points="61,82 37,82 35,73 64,73"/><path fill="#9aa2e6" d="M10.681,50C16.373,65.659,31.374,76.848,49,76.848S81.627,65.659,87.319,50H10.681z"/><path fill="#707cc0" d="M14.638,58h68.724c1.595-2.496,2.93-5.174,3.957-8H10.681C11.708,52.826,13.043,55.504,14.638,58z"/><path fill="#40396e" d="M61,85H37c-1.654,0-3-1.346-3-3v-4.801c-8.975-3.279-16.719-9.491-21.891-17.584 c-0.391-0.613-0.785-1.268-1.172-1.948l-0.086-0.15c-0.409-0.727-0.763-1.394-1.11-2.097c-0.288-0.585-0.576-1.208-0.879-1.903 l-0.2-0.466c-0.323-0.767-0.577-1.409-0.801-2.025c-0.334-0.92-0.198-1.947,0.363-2.747C8.784,47.479,9.702,47,10.681,47h15.093 c-1-1.714-1.918-3.594-2.743-5.617c-0.506-1.24-0.989-2.562-1.435-3.929c-0.225-0.691-0.445-1.407-0.655-2.129 c-0.256-0.881-0.065-1.899,0.499-2.659c7.712-10.371,16.056-15.629,24.799-15.629c18.588,0.003,31.73,24.344,32.281,25.381h0 c0.008,0.015,0.017,0.029,0.025,0.045c0.646,1.219,0.38,2.714-0.645,3.635c-0.031,0.028-0.396,0.357-1.054,0.902h10.479 c1.653,0,2.998,1.346,2.998,3c0,0.412-0.083,0.812-0.246,1.188c-0.185,0.511-0.43,1.131-0.738,1.861l-0.202,0.469 c-0.301,0.693-0.589,1.316-0.873,1.892c-0.352,0.713-0.706,1.38-1.107,2.095l-0.063,0.109c-0.417,0.733-0.811,1.389-1.203,2.001 C80.719,67.709,72.976,73.92,64,77.199V82C64,83.654,62.654,85,61,85z M10.681,50c0.208,0.573,0.446,1.173,0.746,1.885 l0.187,0.436c0.282,0.647,0.55,1.228,0.818,1.771c0.324,0.654,0.654,1.276,1.028,1.941l0.048,0.084 c0.399,0.701,0.766,1.312,1.131,1.883c5,7.824,12.579,13.761,21.342,16.716C36.589,74.921,37,75.493,37,76.137V82h24v-5.863 c0-0.644,0.411-1.216,1.021-1.421C70.783,71.761,78.363,65.824,83.362,58c0.366-0.571,0.732-1.182,1.092-1.814l0.095-0.165 c0.366-0.652,0.696-1.274,1-1.888c0.288-0.585,0.556-1.165,0.838-1.813l0.187-0.435c0.286-0.681,0.516-1.258,0.718-1.808 L87.324,50H72.449c-0.65,0-1.227-0.419-1.427-1.038c-0.2-0.618,0.021-1.296,0.548-1.677c2.693-1.948,4.305-3.4,4.32-3.415 l0.004-0.002c-0.01-0.018-0.02-0.035-0.029-0.053c-0.511-0.962-12.821-23.775-29.624-23.778c-7.746,0-15.279,4.851-22.394,14.418 c0.174,0.725,0.385,1.409,0.6,2.068c0.424,1.299,0.882,2.553,1.36,3.727c1.14,2.794,2.461,5.282,3.928,7.395 c0.318,0.459,0.355,1.057,0.097,1.551C29.574,49.69,29.062,50,28.503,50H10.681z"/></g></svg>