<svg xmlns="http://www.w3.org/2000/svg"  viewBox="0 0 100 100" width="100px" height="100px"><g id="Слой_2"><path d="M88.739,66.718c0.185-1.206,0.095-2.448-0.278-3.626c-0.861-2.718-2.072-5.091-3.613-7.089 c0.248-1.977,0.132-3.476,0.074-4.01c-0.445-4.064-3.864-7.13-7.953-7.13c-0.606,0-4.381,1.114-4.97,1.135 c-1.645-2.257-1.059-4.813-3.933-4.983C64,40,61.47,31.419,60,30c-0.343-0.331,0-2.272,0-2.968v-3.107c1.911-2.166,3-4.977,3-7.925 c0-6.617-5.383-12-12-12H34c-6.617,0-12,5.383-12,12c0,2.948,1.089,5.759,3,7.925v2.176c0,0.561-0.316,1.174-0.846,1.64 c-2.587,2.28-4.691,5.001-6.253,8.088l-0.031,0.062c-0.29,0.574-0.561,1.166-0.807,1.758c-0.01,0.024-0.021,0.051-0.027,0.065 c-0.257,0.624-0.493,1.263-0.701,1.898c-0.007,0.022-0.014,0.044-0.021,0.067l-0.039,0.124c-0.162,0.506-0.325,1.081-0.471,1.667 l-0.011,0.042l-0.054,0.216c-0.005,0.019-0.009,0.038-0.014,0.057c-0.156,0.662-0.281,1.284-0.38,1.9 c-0.014,0.087-0.027,0.175-0.038,0.263c-0.079,0.523-0.142,1.058-0.194,1.635c-0.014,0.161-0.028,0.323-0.04,0.487 C15.024,46.784,15,47.397,15,48v36c0,7.72,6.28,14,14,14h26c1.268,0,2.515-0.17,3.725-0.506C60.468,97.83,62.236,98,64,98 c14.336,0,26-10.766,26-24C90,71.485,89.576,69.044,88.739,66.718z" opacity=".35"/><path fill="#f2f2f2" d="M86.739,64.718c0.185-1.206,0.095-2.448-0.278-3.626c-0.861-2.718-2.072-5.091-3.613-7.089 c0.248-1.977,0.132-3.476,0.074-4.01c-0.445-4.064-3.864-7.13-7.953-7.13c-0.606,0-1.205,0.011-1.794,0.032 c-1.645-2.257-4.235-3.71-7.109-3.88c-0.049-0.181-0.102-0.367-0.158-0.558l-0.031-0.112c-0.059-0.216-0.127-0.457-0.205-0.694 c-0.227-0.693-0.482-1.373-0.782-2.085c-0.133-0.315-0.281-0.634-0.433-0.953l-0.065-0.136c-0.164-0.344-0.33-0.684-0.506-1.018 c-0.2-0.38-0.412-0.76-0.633-1.135c-0.167-0.283-0.339-0.554-0.513-0.824c-1.176-1.834-2.519-3.484-3.989-4.903 C58.409,26.269,58,25.728,58,25.032v-3.107c1.911-2.166,3-4.977,3-7.925c0-6.617-5.383-12-12-12H32c-6.617,0-12,5.383-12,12 c0,2.948,1.089,5.759,3,7.925v2.176c0,0.561-0.316,1.174-0.846,1.64c-2.587,2.28-4.691,5.001-6.253,8.088l-0.031,0.062 c-0.29,0.574-0.561,1.166-0.807,1.758c-0.01,0.024-0.021,0.051-0.027,0.065c-0.257,0.624-0.493,1.263-0.701,1.898 c-0.007,0.022-0.014,0.044-0.021,0.067l-0.039,0.124c-0.162,0.506-0.325,1.081-0.471,1.667l-0.011,0.042l-0.054,0.216 c-0.005,0.019-0.009,0.038-0.014,0.057c-0.156,0.662-0.281,1.284-0.38,1.9c-0.014,0.087-0.027,0.175-0.038,0.263 c-0.079,0.523-0.142,1.058-0.194,1.635c-0.014,0.161-0.028,0.323-0.04,0.487C13.024,44.784,13,45.397,13,46v36 c0,7.72,6.28,14,14,14h26c1.268,0,2.515-0.17,3.725-0.506C58.468,95.83,60.236,96,62,96c14.336,0,26-10.766,26-24 C88,69.485,87.576,67.044,86.739,64.718z"/><path fill="#40396e" d="M81.444,64.987c0.003-0.005,0.006-0.011,0.009-0.016c0.404-0.723,0.491-1.58,0.241-2.369 c-0.939-2.964-2.357-5.35-4.229-7.123c0.713-2.538,0.519-4.647,0.486-4.941c-0.167-1.521-1.452-2.674-2.982-2.674 c-1.772,0-3.433,0.098-4.981,0.294c-0.028-0.363-0.101-0.726-0.219-1.081C69.158,45.238,67.442,44,65.499,44 c-0.484,0-0.963,0.078-1.424,0.232c-0.752,0.251-1.451,0.57-2.094,0.954c-0.017-0.397-0.046-0.814-0.088-1.256 c-0.016-0.171-0.038-0.342-0.06-0.513l-0.018-0.141c-0.059-0.475-0.132-0.939-0.216-1.381c-0.046-0.243-0.093-0.487-0.148-0.73 c-0.093-0.412-0.208-0.848-0.351-1.334l-0.041-0.15c-0.044-0.16-0.088-0.32-0.14-0.478c-0.182-0.557-0.39-1.11-0.635-1.692 c-0.104-0.249-0.221-0.495-0.338-0.741l-0.067-0.142c-0.134-0.283-0.269-0.56-0.413-0.833c-0.165-0.312-0.336-0.622-0.517-0.927 c-0.134-0.226-0.274-0.445-0.414-0.664c-0.973-1.517-2.063-2.857-3.254-4.007C53.81,28.779,53,26.944,53,25.032v-5.301 c1.839-1.279,3-3.397,3-5.731c0-3.86-3.14-7-7-7H32c-3.86,0-7,3.14-7,7c0,2.334,1.161,4.452,3,5.731v4.37 c0,2.004-0.926,3.969-2.54,5.392c-2.108,1.858-3.823,4.076-5.097,6.594c-0.007,0.013-0.021,0.042-0.028,0.056 c-0.234,0.465-0.46,0.956-0.661,1.44c-0.005,0.013-0.011,0.026-0.015,0.036c-0.211,0.513-0.403,1.031-0.571,1.547l-0.039,0.124 c-0.14,0.437-0.274,0.907-0.393,1.388l-0.016,0.063l-0.048,0.193c-0.129,0.545-0.23,1.05-0.31,1.547 c-0.009,0.056-0.017,0.112-0.024,0.169c-0.066,0.432-0.121,0.887-0.165,1.378c-0.012,0.131-0.023,0.264-0.033,0.397 C18.02,45.017,18,45.517,18,46v36c0,4.963,4.037,9,9,9h26c1.184,0,2.352-0.235,3.44-0.688C58.268,90.769,60.133,91,62,91 c11.579,0,21-8.523,21-19C83,69.546,82.468,67.169,81.444,64.987z"/><path fill="#d9eeff" d="M50,25.032V17H31v7.101c0,2.948-1.345,5.694-3.557,7.643C23.493,35.225,21,40.321,21,46v36 c0,3.314,2.686,6,6,6h26c3.314,0,6-2.686,6-6V46c0-5.361-2.228-10.193-5.803-13.643C51.197,30.426,50,27.813,50,25.032z"/><path fill="#70bfff" d="M49,18H32c-2.209,0-4-1.791-4-4v0c0-2.209,1.791-4,4-4h17c2.209,0,4,1.791,4,4v0C53,16.209,51.209,18,49,18z"/><path fill="#fff" d="M21,46v36c0,3.314,2.686,6,6,6h26c3.314,0,6-2.686,6-6V46c0-4.107-1.316-7.897-3.535-11H24.516 C22.305,38.104,21,41.898,21,46z"/><path fill="#689f38" d="M47.713,49.865c0,0-1.488,13.396,16.373,10.419C64.085,60.284,65.574,49.865,47.713,49.865z"/><path fill="#689f38" d="M74.97,50.865c0,0,1.488,13.396-16.373,10.419C58.597,61.284,57.109,50.865,74.97,50.865z"/><path fill="#de5147" d="M80,72c0,8.837-8.059,16-18,16s-18-7.163-18-16s8.059-15,18-15S80,63.163,80,72z"/><path fill="#96c362" d="M78.834,63.508c-3.62-11.428-13.918-8.406-15.475-7.875c-0.169-1.253-0.173-2.706,0.37-3.836 c0.433-0.901,1.167-1.515,2.246-1.874c0.786-0.262,1.21-1.111,0.948-1.897c-0.262-0.785-1.111-1.212-1.897-0.948 c-1.869,0.623-3.218,1.779-4.008,3.436c-0.774,1.623-0.851,3.462-0.695,5.017c-2.322-0.709-11.732-2.836-15.157,7.978 c0,0,8.15,2.056,12.699-1.204C57.049,65.239,57.69,69.19,62.5,74c4.447-4.447,5.329-8.159,4.793-11.014 C71.938,65.245,78.834,63.508,78.834,63.508z M60.716,57.762c-0.023,0.022-0.045,0.042-0.068,0.064 c0.013-0.064,0.025-0.128,0.036-0.193C60.695,57.677,60.705,57.72,60.716,57.762z"/></g></svg>