<svg xmlns="http://www.w3.org/2000/svg"  viewBox="0 0 100 100" width="100px" height="100px"><path d="M71,26H32V10c0-2.761,2.239-5,5-5h29c2.761,0,5,2.239,5,5V26z" opacity=".35"/><path fill="#f2f2f2" d="M69,24H30V8c0-2.761,2.239-5,5-5h29c2.761,0,5,2.239,5,5V24z"/><path d="M73.5,99C66.056,99,60,92.944,60,85.5c0-2.319,0.591-4.545,1.667-6.5H39.309l-5.748,14.847 C32.599,96.332,30.163,98,27.5,98c-0.803,0-1.591-0.147-2.343-0.438c-3.345-1.296-5.011-5.067-3.719-8.409L32,63 c-11.934-7.16-20-18.002-20-32.5c0-3.584,2.916-6.5,6.5-6.5h67c3.584,0,6.5,2.916,6.5,6.5c0,14.512-8.574,27.731-20.527,34.887 l3.347,6.825C81.126,73.346,87,78.873,87,85.5C87,92.944,80.944,99,73.5,99z M73.5,85c-0.271,0-0.5,0.229-0.5,0.5 s0.229,0.5,0.5,0.5s0.5-0.229,0.5-0.5S73.771,85,73.5,85z" opacity=".35"/><path fill="#f2f2f2" d="M71.5,97C64.056,97,58,90.944,58,83.5c0-2.319,0.591-4.545,1.667-6.5H37.309l-5.748,14.847 C30.599,94.332,28.163,96,25.5,96c-0.803,0-1.591-0.147-2.343-0.438c-3.345-1.296-5.011-5.067-3.719-8.409l9.982-23.788 C17.486,56.207,10,42.998,10,28.5c0-3.584,2.916-6.5,6.5-6.5h67c3.584,0,6.5,2.916,6.5,6.5c0,14.512-7.5,27.731-19.453,34.887 l3.347,6.825C80.2,71.346,85,76.873,85,83.5C85,90.944,78.944,97,71.5,97z"/><path fill="#40396e" d="M71.5,75c-0.376,0-0.744,0.033-1.107,0.081l-6.097-14.075C76.599,55.558,85,43.211,85,28.5 c0-0.829-0.671-1.5-1.5-1.5h-67c-0.829,0-1.5,0.671-1.5,1.5c0,14.708,8.398,27.053,20.697,32.502L24.101,88.958 c-0.299,0.772,0.085,1.641,0.857,1.94C25.137,90.968,25.32,91,25.5,91c0.602,0,1.169-0.364,1.399-0.959L33.883,72h32.134 l1.513,3.99C64.839,77.418,63,80.247,63,83.5c0,4.687,3.813,8.5,8.5,8.5s8.5-3.813,8.5-8.5S76.187,75,71.5,75z M35.044,69 l3.447-6.904C42.082,63.326,45.948,64,50,64c4.049,0,7.913-0.673,11.502-1.902L64.879,69H35.044z M71.5,89 c-3.033,0-5.5-2.467-5.5-5.5s2.467-5.5,5.5-5.5s5.5,2.467,5.5,5.5S74.533,89,71.5,89z"/><path fill="#40396e" d="M43.006,17.498c0,1.992,2.023,5.502,3.5,5.502c0.829,0,1.5-0.671,1.5-1.5 c0-0.426-0.177-0.81-0.462-1.083c-0.507-0.513-1.538-1.884-1.538-2.919c0-0.349,0.092-0.472,0.561-0.941 c0.573-0.574,1.439-1.44,1.439-3.062c0-2.249-1.677-4.255-2.404-5.02L44.506,9.5l1.378,0.593l-2.756-1.185 c-0.237,0.551-0.107,1.207,0.307,1.642c0.782,0.822,1.572,2.052,1.572,2.945c0,0.349-0.092,0.471-0.561,0.94 C43.872,15.01,43.006,15.876,43.006,17.498z"/><path fill="#40396e" d="M51.006,17.498c0,1.992,2.023,5.502,3.5,5.502c0.829,0,1.5-0.671,1.5-1.5 c0-0.426-0.177-0.81-0.462-1.083c-0.507-0.513-1.538-1.884-1.538-2.919c0-0.349,0.092-0.472,0.561-0.941 c0.573-0.574,1.439-1.44,1.439-3.062c0-2.249-1.677-4.255-2.404-5.02L52.506,9.5l1.378,0.593l-2.756-1.185 c-0.237,0.551-0.107,1.207,0.307,1.642c0.782,0.822,1.572,2.052,1.572,2.945c0,0.349-0.092,0.471-0.561,0.94 C51.872,15.01,51.006,15.876,51.006,17.498z"/><path fill="#40396e" d="M59.006,17.498c0,1.992,2.023,5.502,3.5,5.502c0.829,0,1.5-0.671,1.5-1.5 c0-0.426-0.177-0.81-0.462-1.083c-0.507-0.513-1.538-1.884-1.538-2.919c0-0.349,0.092-0.472,0.561-0.941 c0.573-0.574,1.439-1.44,1.439-3.062c0-2.249-1.677-4.255-2.404-5.02L60.506,9.5l1.378,0.593l-2.756-1.185 c-0.237,0.551-0.107,1.207,0.307,1.642c0.782,0.822,1.572,2.052,1.572,2.945c0,0.349-0.092,0.471-0.561,0.94 C59.872,15.01,59.006,15.876,59.006,17.498z"/><path fill="#40396e" d="M35.006,17.498c0,1.992,2.023,5.502,3.5,5.502c0.829,0,1.5-0.671,1.5-1.5 c0-0.426-0.177-0.81-0.462-1.083c-0.507-0.513-1.538-1.884-1.538-2.919c0-0.349,0.092-0.472,0.561-0.941 c0.573-0.574,1.439-1.44,1.439-3.062c0-2.249-1.677-4.255-2.404-5.02L36.506,9.5l1.378,0.593l-2.756-1.185 c-0.237,0.551-0.107,1.207,0.307,1.642c0.782,0.822,1.572,2.052,1.572,2.945c0,0.349-0.092,0.471-0.561,0.94 C35.872,15.01,35.006,15.876,35.006,17.498z"/><path fill="#f4665c" d="M84.5,28.5c0,18.778-15.222,34-34,34s-34-15.222-34-34H84.5z"/><circle cx="71.5" cy="83.5" r="6.5" fill="#707cc0"/><path fill="none" stroke="#40396e" stroke-linecap="round" stroke-linejoin="round" stroke-miterlimit="10" stroke-width="3" d="M83.5,28.5c0,18.778-14.722,34-33.5,34s-33.5-15.222-33.5-34H83.5z"/><line x1="37.5" x2="25.5" y1="60.5" y2="89.5" fill="none" stroke="#40396e" stroke-linecap="round" stroke-linejoin="round" stroke-miterlimit="10" stroke-width="3"/><line x1="62.5" x2="69.056" y1="60.5" y2="75.784" fill="none" stroke="#40396e" stroke-linecap="round" stroke-linejoin="round" stroke-miterlimit="10" stroke-width="3"/><line x1="33.5" x2="66.5" y1="70.5" y2="70.5" fill="none" stroke="#40396e" stroke-linecap="round" stroke-linejoin="round" stroke-miterlimit="10" stroke-width="3"/><circle cx="71.5" cy="83.5" r="7" fill="none" stroke="#40396e" stroke-linecap="round" stroke-linejoin="round" stroke-miterlimit="10" stroke-width="3"/><g><path fill="none" stroke="#40396e" stroke-linecap="round" stroke-linejoin="round" stroke-miterlimit="10" stroke-width="3" d="M44.506,9.5c-0.006,0,2,1.998,2,3.996c0,2.001-2,2.001-2,4.002s1.994,4.002,2,4.002"/><path fill="none" stroke="#40396e" stroke-linecap="round" stroke-linejoin="round" stroke-miterlimit="10" stroke-width="3" d="M52.506,9.5c-0.006,0,2,1.998,2,3.996c0,2.001-2,2.001-2,4.002s1.994,4.002,2,4.002"/><path fill="none" stroke="#40396e" stroke-linecap="round" stroke-linejoin="round" stroke-miterlimit="10" stroke-width="3" d="M60.506,9.5c-0.006,0,2,1.998,2,3.996c0,2.001-2,2.001-2,4.002s1.994,4.002,2,4.002"/><g><path fill="none" stroke="#40396e" stroke-linecap="round" stroke-linejoin="round" stroke-miterlimit="10" stroke-width="3" d="M36.506,9.5c-0.006,0,2,1.998,2,3.996c0,2.001-2,2.001-2,4.002s1.994,4.002,2,4.002"/></g></g><circle cx="71.5" cy="83.5" r="1.5" fill="#40396e"/></svg>