<svg xmlns="http://www.w3.org/2000/svg"  viewBox="0 0 100 100" width="100px" height="100px"><path d="M14.8,79.4l1.6-1.6c-2.4-3.1-4.3-7.6-3.6-13.7l0-0.2c1.2-7.3,4.9-13,10.7-16.4c0.8-0.4,1.6-0.7,2.5-0.8	c1.8-4.7,5-8.4,9.3-10.9c0.9-0.5,1.9-0.8,3-0.9c1.9-4.4,4.9-7.8,8.9-10.2c0.9-0.5,1.8-0.9,2.8-1.1c0.4-0.1,0.9-0.1,1.3-0.1	c3.3-6.1,9.9-10,15.3-10.4c0.2,0,0.4,0,0.5,0c1.6,0,3.1,0.6,4.3,1.6c5.8-3.8,13.7-4,15.5-4c3.6,0,6.5,2.9,6.5,6.5	c0,1.8-0.2,10.4-4.3,16.2c0.3,0.3,0.5,0.6,0.7,0.9c0.8,1.2,1.1,2.7,1,4.1c-0.5,5.2-4.3,11.5-10.1,14.8c0,1.2-0.3,2.3-0.9,3.4	c-1.9,3.2-5.1,7.1-10.5,9.4c-0.1,0.9-0.4,1.8-0.9,2.6c-2.5,4.3-6.2,7.5-10.9,9.3c-0.1,0.9-0.4,1.7-0.8,2.5c-3.4,5.8-9,9.5-16.3,10.7	c-1.1,0.2-2.2,0.3-3.3,0.3c-4.4,0-8.1-1.6-10.8-3.8l-1.7,1.7c-2.7,2.7-7.1,2.7-9.8,0l0,0C12.1,86.5,12.1,82.1,14.8,79.4z" opacity=".35"/><path fill="#f2f2f2" d="M12.8,77.4l1.6-1.6c-2.4-3.1-4.3-7.6-3.6-13.7l0-0.2c1.2-7.3,4.9-13,10.7-16.4c0.8-0.4,1.6-0.7,2.5-0.8	c1.8-4.7,5-8.4,9.3-10.9c0.9-0.5,1.9-0.8,3-0.9c1.9-4.4,4.9-7.8,8.9-10.2c0.9-0.5,1.8-0.9,2.8-1.1c0.4-0.1,0.9-0.1,1.3-0.1	c3.3-6.1,9.9-10,15.3-10.4c0.2,0,0.4,0,0.5,0c1.6,0,3.1,0.6,4.3,1.6c5.8-3.8,13.7-4,15.5-4c3.6,0,6.5,2.9,6.5,6.5	c0,1.8-0.2,10.4-4.3,16.2c0.3,0.3,0.5,0.6,0.7,0.9c0.8,1.2,1.1,2.7,1,4.1c-0.5,5.2-4.3,11.5-10.1,14.8c0,1.2-0.3,2.3-0.9,3.4	c-1.9,3.2-5.1,7.1-10.5,9.4c-0.1,0.9-0.4,1.8-0.9,2.6c-2.5,4.3-6.2,7.5-10.9,9.3c-0.1,0.9-0.4,1.7-0.8,2.5c-3.4,5.8-9,9.5-16.3,10.7	c-1.1,0.2-2.2,0.3-3.3,0.3c-4.4,0-8.1-1.6-10.8-3.8l-1.7,1.7c-2.7,2.7-7.1,2.7-9.8,0l0,0C10.1,84.5,10.1,80.1,12.8,77.4z"/><path fill="#40396e" d="M70.9,26.4l2.7,2.7L19.1,83.6c-0.8,0.8-2,0.8-2.7,0h0c-0.8-0.8-0.8-2,0-2.7L70.9,26.4z"/><path fill="#f9b84f" stroke="#40396e" stroke-linecap="round" stroke-linejoin="round" stroke-miterlimit="10" stroke-width="3" d="M81.2,28.3c-5.1,5.1-10.8,3.1-11.7,2.5c-1-1-2.6-6.7,2.2-11.7C75.8,15,85,15,85,15S85,24.2,81.2,28.3z M45.7,59.3c5.7-0.3,12.4,1.9,15.2,3.8c-2.2,3.8-6,6.7-11.7,7.6c-7.6,1.2-11.1-4.2-11.4-5.4C37.4,64,37.7,59.9,45.7,59.3z M49.1,53.9c0.3,1.3,3.8,6.4,11.4,5.1c5.7-0.9,9.5-4.1,11.7-7.9c-3.5-2.5-9.8-4.1-15.2-3.2C51.7,48.8,48.8,52.6,49.1,53.9z M66.9,36.5c-5.4,1.9-6.4,4.3-6.1,5.3c0.9,2.6,5.5,6.2,12.1,4.6c5.4-1.3,9.2-7,9.5-10.8C82.7,35.2,74.2,34,66.9,36.5z"/><path fill="#f9b84f" stroke="#40396e" stroke-linecap="round" stroke-linejoin="round" stroke-miterlimit="10" stroke-width="3" d="M34.6,62.4c-1.3-0.3-6.4-3.8-5.4-11.4c0.9-5.7,3.8-9.5,7.6-11.7c1.9,2.5,4.2,9.2,3.8,15.2	C39.9,62.4,35.8,62.8,34.6,62.4z M52.3,43.1c0.9-5.4-0.7-11.7-3.2-15.2c-3.8,2.2-6.7,5.7-7.9,11.4c-1.3,7.6,3.8,11.1,5.1,11.4	C47.5,51.4,51.3,48.5,52.3,43.1z M65.2,17.4c-3.8,0.3-9.5,3.8-11.1,9.5c-1.9,6.7,1.8,11.6,3.6,12.5c1,0.3,4.1-0.5,6.3-5.9	C66.5,26,65.2,17.4,65.2,17.4z M33.9,71.1c5.7-0.3,12.4,1.9,15.2,3.8c-2.2,3.8-6,6.7-11.7,7.6c-7.6,1.2-11.1-4.2-11.4-5.4	C25.6,75.8,25.9,71.7,33.9,71.1z"/><path fill="#f9b84f" stroke="#40396e" stroke-linecap="round" stroke-linejoin="round" stroke-miterlimit="10" stroke-width="3" d="M22.8,74.2c-1.3-0.3-6.4-3.8-5.4-11.4c0.9-5.7,3.8-9.5,7.6-11.7c1.9,2.5,4.2,9.2,3.8,15.2	C28.2,74.2,24,74.5,22.8,74.2z"/></svg>