<svg xmlns="http://www.w3.org/2000/svg"  viewBox="0 0 100 100" width="100px" height="100px"><g id="Слой_2"><path d="M96.542,39.65c-6.278-7.041-16.634-19.272-30.189-23.827c-7.271-7.727-18.002-8.92-23.922-8.92 c-1.839,0-3.046,0.118-3.27,0.141c-2.21,0.231-4.245,1.389-5.576,3.175c-1.331,1.786-1.859,4.066-1.449,6.255l1.137,6.063 c-1.275,0.938-2.552,1.952-3.825,3.037c-3.17-1.693-6.78-2.573-10.638-2.573c-3.505,0-7.301,0.715-11.282,2.126 c-3.509,1.243-5.681,4.697-5.282,8.397c0.554,5.142,1.986,9.494,4.27,12.996c-3.537,5.667-4.206,11.607-4.28,12.39 c-0.337,3.545,1.746,6.922,5.064,8.213c0.548,0.213,5.509,2.073,11.519,2.073c1.597,0,3.135-0.128,4.608-0.381 c-0.379,3.676,0.22,6.819,0.414,7.699c0.667,3.036,3.06,5.428,6.096,6.096c0.405,0.089,2.565,0.534,5.309,0.534 c2.068,0,3.996-0.254,5.754-0.751V85c0,2.357,1.031,4.582,2.83,6.105C45.273,92.327,47.109,93,49,93 c0.44,0,0.884-0.037,1.317-0.109c1.883-0.314,17.749-3.313,23.035-15.746c10.88-5.746,18.362-15.38,23.19-20.795 C100.786,51.59,100.786,44.41,96.542,39.65z" opacity=".35"/><path fill="#f2f2f2" d="M94.542,37.65c-6.278-7.041-16.634-19.272-30.189-23.827c-7.271-7.727-18.002-8.92-23.922-8.92 c-1.839,0-3.046,0.118-3.27,0.141c-2.21,0.231-4.245,1.389-5.576,3.175c-1.331,1.786-1.859,4.066-1.449,6.255l1.137,6.063 c-1.275,0.938-2.552,1.952-3.825,3.037c-3.17-1.693-6.78-2.573-10.638-2.573c-3.505,0-7.301,0.715-11.282,2.126 c-3.509,1.243-5.681,4.697-5.282,8.397c0.554,5.142,1.986,9.494,4.27,12.996c-3.537,5.667-4.206,11.607-4.28,12.39 c-0.337,3.545,1.746,6.922,5.064,8.213c0.548,0.213,5.509,2.073,11.519,2.073c1.597,0,3.135-0.128,4.608-0.381 c-0.379,3.676,0.22,6.819,0.414,7.699c0.667,3.036,3.06,5.428,6.096,6.096c0.405,0.089,2.565,0.534,5.309,0.534 c2.068,0,3.996-0.254,5.754-0.751V83c0,2.357,1.031,4.582,2.83,6.105C43.273,90.327,45.109,91,47,91 c0.44,0,0.884-0.037,1.317-0.109c1.883-0.314,17.749-3.313,23.035-15.746c10.88-5.746,18.362-15.38,23.19-20.795 C98.786,49.59,98.786,42.41,94.542,37.65z"/><path fill="#707cc0" d="M40.725,60.725c-2.333-2.333-6.927-1.523-10.26,1.811c-3.333,3.333-1.811,10.26-1.811,10.26 s6.927,1.523,10.26-1.811C42.248,67.652,43.058,63.058,40.725,60.725z"/><path fill="#707cc0" d="M46,67v16c0,0,18-3,18-16H46z"/><path fill="#707cc0" d="M40,29l-3-16c0,0,19-2,24,12L40,29z"/><path fill="#707cc0" d="M31.713,45.03c0,0-2.149-22.86-25.126-14.718C9.119,53.831,31.713,45.03,31.713,45.03z"/><path fill="#707cc0" d="M7.2,57.667c0,0,2.044-21.743,23.899-14C28.69,66.039,7.2,57.667,7.2,57.667z"/><path fill="#9aa2e6" d="M86.728,43.051c1.498,1.68,1.498,4.218,0,5.899c-5.956,6.68-19.529,22.391-33.79,22.391 c-11.747,0-22.971-10.661-29.409-18.153c-3.544-4.125-3.544-10.25,0-14.375c6.437-7.492,17.662-18.153,29.409-18.153 C67.199,20.66,80.772,36.37,86.728,43.051z"/><path fill="#40396e" d="M57.499,56.999c-0.526,0-1.036-0.277-1.311-0.771c-0.22-0.396-5.326-9.835,0.482-20.925 c0.386-0.734,1.292-1.014,2.025-0.633c0.733,0.385,1.017,1.291,0.633,2.025c-5.036,9.613-0.703,17.738-0.516,18.079 c0.397,0.725,0.134,1.637-0.59,2.036C57.993,56.938,57.744,56.999,57.499,56.999z" opacity=".35"/><path fill="#ffe8d9" d="M87.571,42.974c-3.342-3.749-9.025-10.265-15.879-15.404C65.863,31.415,62,37.995,62,45.5 c0,7.809,4.178,14.624,10.407,18.389c6.535-5.047,11.939-11.245,15.164-14.863C89.108,47.302,89.108,44.698,87.571,42.974z"/><circle cx="72" cy="41" r="2" fill="#40396e"/><path fill="#40396e" d="M45.5,85.386c-0.353,0-0.696-0.124-0.97-0.355C44.194,84.745,44,84.327,44,83.886V72.471 c-0.758-0.286-1.521-0.606-2.284-0.958c-0.303,0.37-0.623,0.726-0.961,1.063c-4.076,4.075-11.497,2.598-12.332,2.418l-0.469-0.103 c-0.572-0.126-1.02-0.573-1.146-1.146l-0.103-0.469c-0.166-0.761-1.418-7.028,1.486-11.216c-0.988-0.917-1.979-1.884-2.963-2.894 c-7.922,4.662-18.144,0.771-18.596,0.596l-0.528-0.206c-0.624-0.243-1.011-0.87-0.948-1.537l0.053-0.564 c0.033-0.351,0.821-7.938,5.933-13.073c-3.294-2.981-5.286-7.504-5.93-13.475l-0.063-0.589c-0.074-0.691,0.335-1.343,0.99-1.575 l0.56-0.198c10.438-3.698,16.788-1.023,20.466,2.362c3.242-3.115,6.496-5.716,9.7-7.752l-1.977-10.541 c-0.077-0.412,0.021-0.837,0.271-1.173c0.251-0.336,0.63-0.552,1.046-0.596l0.809-0.085c0.652-0.064,15.683-1.478,23.367,8.116 c12.33,3.729,23.303,16.062,28.612,22.029l0.507,0.571c2.298,2.578,2.298,6.467-0.002,9.045l-0.514,0.578 c-4.593,5.162-13.057,14.674-22.968,19.729C63.025,82.353,47.302,85.106,46.62,85.22l-0.873,0.146 C45.664,85.379,45.582,85.386,45.5,85.386z M41.251,68.122c0.228,0,0.459,0.052,0.674,0.16c1.358,0.685,2.723,1.261,4.056,1.712 C46.59,70.2,47,70.771,47,71.415v10.674c3.261-0.709,14.425-3.761,16.248-12.59c0.094-0.455,0.394-0.841,0.812-1.045 c9.654-4.703,18.131-14.229,22.685-19.346l0.515-0.579c1.286-1.442,1.286-3.616,0.002-5.057c-0.001,0-0.002-0.001-0.002-0.002 l-0.507-0.57c-5.188-5.83-15.984-17.964-27.665-21.275c-0.314-0.089-0.591-0.278-0.787-0.539 c-5.743-7.598-17.006-7.567-20.158-7.399l1.861,9.927c0.115,0.614-0.163,1.236-0.698,1.56c-3.638,2.2-7.372,5.199-11.099,8.913 c-0.29,0.29-0.653,0.468-1.101,0.437c-0.411-0.011-0.799-0.19-1.074-0.497c-4.037-4.496-10.012-5.452-17.767-2.847 c0.708,5.598,2.744,9.601,6.056,11.905c0.39,0.271,0.628,0.71,0.643,1.185c0.015,0.474-0.195,0.928-0.567,1.222 c-4.591,3.642-5.84,9.767-6.125,11.674c2.198,0.743,10.402,3.075,16.31-1.148c0.611-0.435,1.448-0.353,1.96,0.188 c1.566,1.651,3.156,3.198,4.727,4.599c0.312,0.277,0.493,0.672,0.502,1.09c0.008,0.417-0.158,0.818-0.458,1.108 c-2.578,2.577-2.016,7.577-1.762,9.15c1.573,0.254,6.565,0.824,9.085-1.696c0.509-0.509,0.97-1.07,1.37-1.668 C40.29,68.359,40.765,68.122,41.251,68.122z"/></g></svg>