<svg xmlns="http://www.w3.org/2000/svg"  viewBox="0 0 100 100" width="100px" height="100px"><path d="M25.5,93c-1.986,0-3.836-0.889-5.076-2.44C19.458,89.351,11,78.029,11,52.5 c0-27.681,8.656-38.21,9.643-39.32C21.874,11.795,23.645,11,25.5,11h53c1.855,0,3.626,0.795,4.858,2.182 C84.344,14.29,93,24.819,93,52.5c0,25.529-8.458,36.851-9.422,38.058C82.336,92.111,80.486,93,78.5,93l-12.006,0 C66.471,93,25.5,93,25.5,93z" opacity=".35"/><path fill="#f2f2f2" d="M23.5,91c-1.986,0-3.836-0.889-5.076-2.44C17.458,87.351,9,76.029,9,50.5 c0-27.681,8.656-38.21,9.643-39.32C19.874,9.795,21.645,9,23.5,9h53c1.855,0,3.626,0.795,4.858,2.182 C82.344,12.29,91,22.819,91,50.5c0,25.529-8.458,36.851-9.422,38.058C80.336,90.111,78.486,91,76.5,91l-12.006,0 C64.471,91,23.5,91,23.5,91z"/><path fill="#d47f56" d="M76.5,84.5c0,0,8-10,8-34c0-26-8-35-8-35h-53c0,0-8,9-8,35c0,24,8,34,8,34H76.5z"/><path fill="#40396e" d="M50,86c-0.829,0-1.5-0.671-1.5-1.5v-69c0-0.829,0.671-1.5,1.5-1.5s1.5,0.671,1.5,1.5v69 C51.5,85.329,50.829,86,50,86z" opacity=".35"/><path fill="#40396e" d="M35.499,86c-0.68,0-1.296-0.466-1.458-1.157c-2.803-11.91-4.162-24.142-4.04-36.359 c0.112-11.2,1.471-22.413,4.04-33.329c0.19-0.807,0.995-1.306,1.804-1.116c0.806,0.189,1.306,0.997,1.116,1.804 c-2.518,10.7-3.851,21.692-3.96,32.671c-0.12,11.975,1.213,23.967,3.96,35.641c0.19,0.807-0.31,1.614-1.116,1.804 C35.728,85.987,35.612,86,35.499,86z" opacity=".35"/><path fill="#40396e" d="M64.494,86c-0.114,0-0.229-0.013-0.345-0.041c-0.806-0.189-1.306-0.997-1.116-1.804 c2.747-11.673,4.079-23.664,3.96-35.641c-0.109-10.979-1.442-21.971-3.96-32.671c-0.19-0.807,0.31-1.614,1.116-1.804 c0.807-0.19,1.614,0.31,1.804,1.116c2.569,10.916,3.928,22.129,4.04,33.329c0.122,12.218-1.238,24.451-4.04,36.359 C65.79,85.534,65.174,86,64.494,86z" opacity=".35"/><rect width="67" height="7" x="17" y="31" fill="#707cc0"/><rect width="67" height="7" x="17" y="61" fill="#707cc0"/><path fill="none" stroke="#40396e" stroke-linecap="round" stroke-linejoin="round" stroke-miterlimit="10" stroke-width="3" d="M76.5,84.5c0,0,8-10,8-34c0-26-8-35-8-35h-53c0,0-8,9-8,35c0,24,8,34,8,34H76.5z"/><circle cx="24.5" cy="34.5" r="1.5" fill="#9aa2e6"/><circle cx="41.5" cy="34.5" r="1.5" fill="#9aa2e6"/><circle cx="58.5" cy="34.5" r="1.5" fill="#9aa2e6"/><circle cx="75.5" cy="34.5" r="1.5" fill="#9aa2e6"/><circle cx="24.5" cy="64.5" r="1.5" fill="#9aa2e6"/><circle cx="41.5" cy="64.5" r="1.5" fill="#9aa2e6"/><circle cx="58.5" cy="64.5" r="1.5" fill="#9aa2e6"/><circle cx="75.5" cy="64.5" r="1.5" fill="#9aa2e6"/></svg>