<svg fill="#000000" xmlns="http://www.w3.org/2000/svg"  viewBox="0 0 64 64" width="64px" height="64px"><path d="M 39.5 0 C 36.904 0 34 2.139 34 5 L 34 13 C 34 13.953 33.953 14 33 14 L 26 14 C 22.636 14 20 16.636 20 20 L 20 57.908203 C 20 61.267203 22.747047 64 26.123047 64 L 52.876953 64 C 56.252953 64 59 61.267203 59 57.908203 L 59 20 C 59 16.636 56.364 14 53 14 L 46 14 C 45.047 14 45 13.953 45 13 L 45 5 C 45 2.217 42.397094 0.2494375 39.996094 0.0234375 C 39.828094 0.0074375 39.663 0 39.5 0 z M 39.5 2 C 39.596 2 39.693781 2.003625 39.800781 2.015625 C 41.314781 2.156625 43 3.418 43 5 L 43 13 C 43 15.047 43.953 16 46 16 L 53 16 C 55.28 16 57 17.72 57 20 L 57 57.908203 C 57 60.164203 55.149953 62 52.876953 62 L 26.123047 62 C 23.850047 62 22 60.164203 22 57.908203 L 22 20 C 22 17.72 23.72 16 26 16 L 33 16 C 35.047 16 36 15.047 36 13 L 36 5 C 36 3.486 37.733 2 39.5 2 z M 39.435547 4 A 1.435 1.5 0 0 0 39.435547 7 A 1.435 1.5 0 0 0 39.435547 4 z M 7.0039062 12 C 6.7788125 11.999016 6.5581562 12.075047 6.3789062 12.216797 C 6.1399062 12.405797 6 12.694 6 13 L 6 43 C 5.469 43 5.0319531 43.414359 5.0019531 43.943359 L 4.2226562 57.949219 C 4.1496562 59.276219 4.6123906 60.538906 5.5253906 61.503906 C 6.4383906 62.468906 7.672 63 9 63 C 10.328 63 11.561609 62.468906 12.474609 61.503906 C 13.387609 60.538906 13.850344 59.276219 13.777344 57.949219 L 12.998047 43.943359 C 12.968047 43.414359 12.531 43 12 43 L 12 41.802734 C 12.492 41.630734 13.105031 41.310031 13.707031 40.707031 C 15.002031 39.412031 15.001 38.13 15 37 L 15 24 C 14.999 18.218 11.657516 13.070344 7.2285156 12.027344 C 7.1537656 12.009844 7.0789375 12.000328 7.0039062 12 z M 8 14.423828 C 10.884 15.866828 12.999 19.78 13 24 L 13 37.001953 C 13.001 37.988953 13.000969 38.583969 12.292969 39.292969 C 11.624969 39.959969 11.002 39.999 11 40 C 10.448 40 10 40.447 10 41 L 10 43 L 8 43 L 8 14.423828 z M 28.71875 19 C 26.66775 19 25 20.701922 25 22.794922 L 25 55.205078 C 25 57.298078 26.66775 59 28.71875 59 L 50.28125 59 C 52.33225 59 54 57.297078 54 55.205078 L 54 22.794922 C 54 20.701922 52.33125 19 50.28125 19 L 28.71875 19 z M 28.71875 21 L 50.28125 21 C 51.22825 21 52 21.805922 52 22.794922 L 52 55.205078 C 52 56.194078 51.22925 57 50.28125 57 L 28.71875 57 C 27.77075 57 27 56.194078 27 55.205078 L 27 22.794922 C 27 21.805922 27.77075 21 28.71875 21 z M 47 23 C 46.447 23 46 23.447 46 24 C 46 24.553 46.447 25 47 25 L 49 25 C 49.553 25 50 24.553 50 24 C 50 23.447 49.553 23 49 23 L 47 23 z M 47 28 C 46.447 28 46 28.447 46 29 C 46 29.553 46.447 30 47 30 L 49 30 C 49.553 30 50 29.553 50 29 C 50 28.447 49.553 28 49 28 L 47 28 z M 47 33 C 46.447 33 46 33.447 46 34 C 46 34.553 46.447 35 47 35 L 49 35 C 49.553 35 50 34.553 50 34 C 50 33.447 49.553 33 49 33 L 47 33 z M 47 38 C 46.447 38 46 38.447 46 39 C 46 39.553 46.447 40 47 40 L 49 40 C 49.553 40 50 39.553 50 39 C 50 38.447 49.553 38 49 38 L 47 38 z M 47 43 C 46.447 43 46 43.447 46 44 C 46 44.553 46.447 45 47 45 L 49 45 C 49.553 45 50 44.553 50 44 C 50 43.447 49.553 43 49 43 L 47 43 z M 6.9453125 45 L 7 45 L 11 45 L 11.054688 45 L 11.779297 58.0625 C 11.822297 58.8335 11.553484 59.568859 11.021484 60.130859 C 9.9584844 61.251859 8.0405156 61.251859 6.9785156 60.130859 C 6.4465156 59.568859 6.1777031 58.8335 6.2207031 58.0625 L 6.9453125 45 z M 47 48 C 46.447 48 46 48.447 46 49 C 46 49.553 46.447 50 47 50 L 49 50 C 49.553 50 50 49.553 50 49 C 50 48.447 49.553 48 49 48 L 47 48 z M 47 53 C 46.447 53 46 53.447 46 54 C 46 54.553 46.447 55 47 55 L 49 55 C 49.553 55 50 54.553 50 54 C 50 53.447 49.553 53 49 53 L 47 53 z"/></svg>