<svg fill="#000000" xmlns="http://www.w3.org/2000/svg"  viewBox="0 0 64 64" width="64px" height="64px"><path d="M 7 4 C 5.347656 4 4 5.347656 4 7 L 4 57 C 4 58.652344 5.347656 60 7 60 L 41 60 C 42.652344 60 44 58.652344 44 57 L 44 36 L 49.585938 36 L 47.292969 38.292969 C 46.902344 38.683594 46.902344 39.316406 47.292969 39.707031 L 51.292969 43.707031 C 51.488281 43.902344 51.742188 44 52 44 C 52.257813 44 52.511719 43.902344 52.707031 43.707031 L 63.707031 32.707031 C 64.097656 32.316406 64.097656 31.683594 63.707031 31.292969 L 52.707031 20.292969 C 52.316406 19.902344 51.683594 19.902344 51.292969 20.292969 L 47.292969 24.292969 C 46.902344 24.683594 46.902344 25.316406 47.292969 25.707031 L 49.585938 28 L 44 28 L 44 7 C 44 5.347656 42.652344 4 41 4 Z M 7 6 L 41 6 C 41.550781 6 42 6.449219 42 7 L 42 28 L 21 28 C 20.449219 28 20 28.449219 20 29 L 20 35 C 20 35.550781 20.449219 36 21 36 L 42 36 L 42 57 C 42 57.550781 41.550781 58 41 58 L 7 58 C 6.449219 58 6 57.550781 6 57 L 6 7 C 6 6.449219 6.449219 6 7 6 Z M 52 22.414063 L 61.585938 32 L 52 41.585938 L 49.414063 39 L 52.707031 35.707031 C 52.992188 35.421875 53.078125 34.992188 52.921875 34.617188 C 52.769531 34.246094 52.402344 34 52 34 L 22 34 L 22 30 L 52 30 C 52.402344 30 52.769531 29.753906 52.921875 29.382813 C 53.078125 29.007813 52.992188 28.578125 52.707031 28.292969 L 49.414063 25 Z M 9 52 C 8.449219 52 8 52.445313 8 53 L 8 55 C 8 55.554688 8.449219 56 9 56 C 9.550781 56 10 55.554688 10 55 L 10 53 C 10 52.445313 9.550781 52 9 52 Z M 14 52 C 13.449219 52 13 52.445313 13 53 L 13 55 C 13 55.554688 13.449219 56 14 56 C 14.550781 56 15 55.554688 15 55 L 15 53 C 15 52.445313 14.550781 52 14 52 Z M 19 52 C 18.449219 52 18 52.445313 18 53 L 18 55 C 18 55.554688 18.449219 56 19 56 C 19.550781 56 20 55.554688 20 55 L 20 53 C 20 52.445313 19.550781 52 19 52 Z M 24 52 C 23.449219 52 23 52.445313 23 53 L 23 55 C 23 55.554688 23.449219 56 24 56 C 24.550781 56 25 55.554688 25 55 L 25 53 C 25 52.445313 24.550781 52 24 52 Z M 29 52 C 28.449219 52 28 52.445313 28 53 L 28 55 C 28 55.554688 28.449219 56 29 56 C 29.550781 56 30 55.554688 30 55 L 30 53 C 30 52.445313 29.550781 52 29 52 Z M 34 52 C 33.449219 52 33 52.445313 33 53 L 33 55 C 33 55.554688 33.449219 56 34 56 C 34.550781 56 35 55.554688 35 55 L 35 53 C 35 52.445313 34.550781 52 34 52 Z M 39 52 C 38.449219 52 38 52.445313 38 53 L 38 55 C 38 55.554688 38.449219 56 39 56 C 39.550781 56 40 55.554688 40 55 L 40 53 C 40 52.445313 39.550781 52 39 52 Z"/></svg>