<?xml version="1.0"?><svg fill="#000000" xmlns="http://www.w3.org/2000/svg"  viewBox="0 0 64 64" width="64px" height="64px">    <path d="M 7.3066406 4 C 5.9216406 4 4.5865312 4.5816562 3.6445312 5.5976562 C 2.7025312 6.6136563 2.2183125 7.9871406 2.3203125 9.3691406 L 5.7285156 55.369141 C 5.9215156 57.965141 8.1108438 60 10.714844 60 L 53.285156 60 C 55.889156 60 58.079484 57.965141 58.271484 55.369141 L 61.677734 9.3691406 C 61.780734 7.9871406 61.298469 6.6126562 60.355469 5.5976562 C 59.413469 4.5816562 58.078359 4 56.693359 4 L 7.3066406 4 z M 7.3066406 6 L 56.693359 6 C 57.536359 6 58.316625 6.3409844 58.890625 6.9589844 C 59.464625 7.5769844 59.747547 8.3816563 59.685547 9.2226562 L 59.179688 16.035156 C 59.118688 16.024156 59.064 16 59 16 L 45.730469 16 C 45.622469 15.171 45.179891 14.395437 44.462891 13.898438 C 40.785891 11.348437 36.476 10 32 10 C 27.524 10 23.214109 11.349437 19.537109 13.898438 C 18.820109 14.395437 18.377531 15.17 18.269531 16 L 5 16 C 4.936 16 4.8813125 16.024156 4.8203125 16.035156 L 4.3144531 9.2226562 C 4.2524531 8.3816563 4.535375 7.5769844 5.109375 6.9589844 C 5.683375 6.3409844 6.4636406 6 7.3066406 6 z M 31 12.037109 L 31 15 C 31 15.553 31.448 16 32 16 C 32.552 16 33 15.553 33 15 L 33 12.037109 C 35.021 12.138109 36.992187 12.542375 38.867188 13.234375 L 38.050781 15.683594 C 37.875781 16.207594 38.159594 16.775219 38.683594 16.949219 C 38.789594 16.983219 38.896 17 39 17 C 39.419 17 39.809219 16.735406 39.949219 16.316406 L 40.716797 14.011719 C 41.617797 14.452719 42.489219 14.962969 43.324219 15.542969 C 43.694219 15.799969 43.855844 16.272313 43.714844 16.695312 L 41.507812 23.316406 C 41.371813 23.726406 40.989594 24 40.558594 24 L 34.179688 24 L 34.986328 19.164062 C 35.068328 18.677063 34.778594 18.201828 34.308594 18.048828 C 33.838594 17.895828 33.327469 18.109734 33.105469 18.552734 L 30.382812 24 L 23.441406 24 C 23.010406 24 22.629187 23.726406 22.492188 23.316406 L 20.285156 16.695312 C 20.144156 16.272313 20.305781 15.800969 20.675781 15.542969 C 21.510781 14.963969 22.382203 14.452719 23.283203 14.011719 L 24.050781 16.316406 C 24.190781 16.735406 24.581 17 25 17 C 25.104 17 25.211406 16.982266 25.316406 16.947266 C 25.840406 16.773266 26.124219 16.207594 25.949219 15.683594 L 25.132812 13.234375 C 27.007812 12.542375 28.979 12.138109 31 12.037109 z M 4.9648438 17.992188 C 4.9768438 17.992188 4.988 18 5 18 L 18.611328 18 L 20.595703 23.949219 C 21.005703 25.176219 22.148406 26 23.441406 26 L 31 26 L 33 26 L 40.558594 26 C 41.851594 26 42.995297 25.176219 43.404297 23.949219 L 45.388672 18 L 59 18 C 59.012 18 59.023156 17.992187 59.035156 17.992188 L 56.658203 50.068359 C 56.275203 50.208359 56 50.568 56 51 L 56 53 C 56 53.316 56.155766 53.586531 56.384766 53.769531 L 56.277344 55.220703 C 56.162344 56.778703 54.848156 58 53.285156 58 L 10.714844 58 C 9.1528438 58 7.8386562 56.779656 7.7226562 55.222656 L 7.6152344 53.769531 C 7.8442344 53.585531 8 53.316 8 53 L 8 51 C 8 50.568 7.7247969 50.208359 7.3417969 50.068359 L 4.9648438 17.992188 z M 12 50 C 11.448 50 11 50.447 11 51 L 11 53 C 11 53.553 11.448 54 12 54 C 12.552 54 13 53.553 13 53 L 13 51 C 13 50.447 12.552 50 12 50 z M 17 50 C 16.448 50 16 50.447 16 51 L 16 53 C 16 53.553 16.448 54 17 54 C 17.552 54 18 53.553 18 53 L 18 51 C 18 50.447 17.552 50 17 50 z M 22 50 C 21.448 50 21 50.447 21 51 L 21 53 C 21 53.553 21.448 54 22 54 C 22.552 54 23 53.553 23 53 L 23 51 C 23 50.447 22.552 50 22 50 z M 27 50 C 26.448 50 26 50.447 26 51 L 26 53 C 26 53.553 26.448 54 27 54 C 27.552 54 28 53.553 28 53 L 28 51 C 28 50.447 27.552 50 27 50 z M 32 50 C 31.448 50 31 50.447 31 51 L 31 53 C 31 53.553 31.448 54 32 54 C 32.552 54 33 53.553 33 53 L 33 51 C 33 50.447 32.552 50 32 50 z M 37 50 C 36.448 50 36 50.447 36 51 L 36 53 C 36 53.553 36.448 54 37 54 C 37.552 54 38 53.553 38 53 L 38 51 C 38 50.447 37.552 50 37 50 z M 42 50 C 41.448 50 41 50.447 41 51 L 41 53 C 41 53.553 41.448 54 42 54 C 42.552 54 43 53.553 43 53 L 43 51 C 43 50.447 42.552 50 42 50 z M 47 50 C 46.448 50 46 50.447 46 51 L 46 53 C 46 53.553 46.448 54 47 54 C 47.552 54 48 53.553 48 53 L 48 51 C 48 50.447 47.552 50 47 50 z M 52 50 C 51.448 50 51 50.447 51 51 L 51 53 C 51 53.553 51.448 54 52 54 C 52.552 54 53 53.553 53 53 L 53 51 C 53 50.447 52.552 50 52 50 z"/></svg>