<svg fill="#000000" xmlns="http://www.w3.org/2000/svg"  viewBox="0 0 64 64" width="64px" height="64px"><path d="M 48 6 C 43.589844 6 40 9.589844 40 14 C 40 14.046875 40 14.09375 40 14.140625 L 20.195313 25.195313 C 18.933594 24.414063 17.492188 24 16 24 C 11.589844 24 8 27.589844 8 32 C 8 36.410156 11.589844 40 16 40 C 17.492188 40 18.933594 39.585938 20.195313 38.804688 L 40 49.859375 C 40 49.90625 40 49.953125 40 50 C 40 50.339844 40.027344 50.671875 40.066406 51 C 40.078125 51.089844 40.097656 51.179688 40.109375 51.269531 C 40.152344 51.523438 40.207031 51.773438 40.269531 52.019531 C 40.289063 52.101563 40.308594 52.183594 40.332031 52.265625 C 40.421875 52.574219 40.53125 52.875 40.65625 53.164063 C 40.691406 53.246094 40.734375 53.324219 40.769531 53.402344 C 40.871094 53.617188 40.984375 53.824219 41.101563 54.03125 C 41.136719 54.085938 41.160156 54.148438 41.195313 54.207031 C 41.210938 54.234375 41.234375 54.253906 41.25 54.277344 C 42.671875 56.511719 45.164063 58 48 58 C 52.410156 58 56 54.410156 56 50 C 56 45.589844 52.410156 42 48 42 C 46.546875 42 45.144531 42.390625 43.902344 43.136719 L 24 32.027344 L 24 31.972656 L 43.902344 20.863281 C 43.960938 20.898438 44.027344 20.925781 44.085938 20.960938 C 44.269531 21.0625 44.453125 21.15625 44.644531 21.246094 C 44.773438 21.304688 44.902344 21.363281 45.035156 21.417969 C 45.210938 21.488281 45.390625 21.550781 45.574219 21.609375 C 45.714844 21.652344 45.855469 21.699219 46 21.738281 C 46.199219 21.789063 46.398438 21.824219 46.597656 21.859375 C 46.730469 21.882813 46.855469 21.914063 46.984375 21.933594 C 47.320313 21.976563 47.660156 22 48 22 C 52.410156 22 56 18.410156 56 14 C 56 9.589844 52.410156 6 48 6 Z M 48 8 C 51.308594 8 54 10.691406 54 14 C 54 17.308594 51.308594 20 48 20 C 47.71875 20 47.441406 19.972656 47.167969 19.9375 C 47.078125 19.921875 46.988281 19.902344 46.898438 19.886719 C 46.710938 19.851563 46.523438 19.808594 46.339844 19.753906 C 46.246094 19.726563 46.15625 19.699219 46.066406 19.671875 C 45.839844 19.59375 45.613281 19.503906 45.394531 19.394531 C 45.367188 19.382813 45.335938 19.371094 45.308594 19.359375 C 45.046875 19.226563 44.796875 19.070313 44.550781 18.902344 C 44.011719 18.519531 43.527344 18.054688 43.128906 17.503906 C 42.808594 17.058594 42.183594 16.957031 41.734375 17.28125 C 41.285156 17.601563 41.183594 18.226563 41.507813 18.675781 C 41.722656 18.976563 41.964844 19.25 42.21875 19.515625 L 22.484375 30.53125 C 22.140625 30.71875 21.941406 31.09375 21.972656 31.484375 C 21.988281 31.65625 22 31.828125 22 32 C 22 32.171875 21.988281 32.34375 21.972656 32.515625 C 21.941406 32.90625 22.140625 33.277344 22.484375 33.46875 L 43.457031 45.175781 C 43.796875 45.363281 44.210938 45.34375 44.527344 45.117188 C 45.546875 44.386719 46.75 44 48 44 C 51.308594 44 54 46.691406 54 50 C 54 53.308594 51.308594 56 48 56 C 45.796875 56 43.871094 54.800781 42.828125 53.023438 C 42.734375 52.871094 42.652344 52.710938 42.578125 52.550781 C 42.546875 52.492188 42.515625 52.433594 42.488281 52.375 C 42.394531 52.152344 42.316406 51.929688 42.25 51.703125 C 42.230469 51.640625 42.21875 51.578125 42.203125 51.515625 C 42.152344 51.332031 42.113281 51.140625 42.082031 50.953125 C 42.070313 50.886719 42.0625 50.816406 42.050781 50.75 C 42.023438 50.5 42 50.253906 42 50 C 42 49.792969 42.011719 49.589844 42.03125 49.390625 L 42.03125 49.386719 C 42.089844 48.792969 42.238281 48.21875 42.46875 47.667969 C 42.6875 47.160156 42.445313 46.570313 41.9375 46.355469 C 41.429688 46.140625 40.84375 46.378906 40.628906 46.890625 C 40.511719 47.167969 40.410156 47.457031 40.328125 47.75 L 20.632813 36.757813 C 20.480469 36.671875 20.3125 36.628906 20.144531 36.628906 C 19.9375 36.628906 19.730469 36.695313 19.550781 36.828125 C 18.511719 37.59375 17.28125 38 16 38 C 12.691406 38 10 35.308594 10 32 C 10 28.691406 12.691406 26 16 26 C 17.28125 26 18.511719 26.40625 19.550781 27.171875 C 19.871094 27.40625 20.289063 27.433594 20.632813 27.238281 L 41.523438 15.582031 C 41.871094 15.386719 42.070313 15.007813 42.03125 14.609375 C 42.011719 14.410156 42 14.207031 42 14 C 42 10.691406 44.691406 8 48 8 Z M 16 17 C 15.445313 17 15 17.449219 15 18 L 15 20 C 15 20.550781 15.445313 21 16 21 C 16.554688 21 17 20.550781 17 20 L 17 18 C 17 17.449219 16.554688 17 16 17 Z M 8.875 18.882813 C 8.746094 18.898438 8.617188 18.941406 8.5 19.011719 C 8.019531 19.285156 7.859375 19.898438 8.132813 20.375 L 9.132813 22.109375 C 9.320313 22.429688 9.65625 22.609375 10 22.609375 C 10.171875 22.609375 10.34375 22.566406 10.5 22.472656 C 10.980469 22.199219 11.140625 21.585938 10.863281 21.109375 L 9.867188 19.375 C 9.65625 19.019531 9.261719 18.835938 8.875 18.882813 Z M 4 24.007813 C 3.613281 23.960938 3.214844 24.140625 3.007813 24.5 C 2.734375 24.976563 2.898438 25.589844 3.375 25.863281 L 5.109375 26.863281 C 5.265625 26.957031 5.4375 27 5.605469 27 C 5.953125 27 6.289063 26.820313 6.472656 26.5 C 6.75 26.023438 6.585938 25.410156 6.109375 25.136719 L 4.375 24.136719 C 4.257813 24.066406 4.128906 24.023438 4 24.007813 Z M 2 31 C 1.445313 31 1 31.449219 1 32 C 1 32.550781 1.445313 33 2 33 L 4 33 C 4.554688 33 5 32.550781 5 32 C 5 31.449219 4.554688 31 4 31 Z M 5.484375 37.007813 C 5.355469 37.023438 5.226563 37.066406 5.109375 37.136719 L 3.375 38.136719 C 2.898438 38.410156 2.734375 39.023438 3.007813 39.5 C 3.195313 39.820313 3.53125 40 3.875 40 C 4.046875 40 4.21875 39.957031 4.375 39.863281 L 6.109375 38.863281 C 6.585938 38.589844 6.75 37.976563 6.476563 37.5 C 6.265625 37.140625 5.867188 36.960938 5.484375 37.007813 Z M 10.125 41.402344 C 9.734375 41.351563 9.339844 41.535156 9.132813 41.890625 L 8.132813 43.625 C 7.859375 44.101563 8.023438 44.714844 8.5 44.988281 C 8.65625 45.082031 8.828125 45.125 9 45.125 C 9.34375 45.125 9.679688 44.945313 9.867188 44.625 L 10.863281 42.890625 C 11.140625 42.414063 10.980469 41.800781 10.5 41.527344 C 10.378906 41.457031 10.25 41.417969 10.125 41.402344 Z M 16 43 C 15.445313 43 15 43.449219 15 44 L 15 46 C 15 46.550781 15.445313 47 16 47 C 16.554688 47 17 46.550781 17 46 L 17 44 C 17 43.449219 16.554688 43 16 43 Z"/></svg>