<svg fill="#000000" xmlns="http://www.w3.org/2000/svg"  viewBox="0 0 64 64" width="64px" height="64px"><path d="M 31 2 C 23.253906 2 15.972656 5.015625 10.496094 10.496094 C 5.015625 15.972656 2 23.253906 2 31 C 2 38.746094 5.015625 46.027344 10.496094 51.503906 C 15.972656 56.984375 23.253906 60 31 60 C 38.746094 60 46.027344 56.984375 51.503906 51.503906 C 56.984375 46.027344 60 38.746094 60 31 C 60 23.253906 56.984375 15.972656 51.503906 10.496094 C 46.027344 5.015625 38.746094 2 31 2 Z M 31 4 C 38.210938 4 44.992188 6.808594 50.09375 11.90625 C 55.191406 17.007813 58 23.789063 58 31 C 58 38.210938 55.191406 44.992188 50.09375 50.09375 C 44.992188 55.191406 38.210938 58 31 58 C 23.789063 58 17.007813 55.191406 11.90625 50.09375 C 6.808594 44.992188 4 38.210938 4 31 C 4 23.789063 6.808594 17.007813 11.90625 11.90625 C 17.007813 6.808594 23.789063 4 31 4 Z M 31 8 C 30.449219 8 30 8.449219 30 9 L 30 13 C 30 13.550781 30.449219 14 31 14 C 31.550781 14 32 13.550781 32 13 L 32 10.046875 C 37.230469 10.292969 42.121094 12.421875 45.847656 16.152344 C 49.816406 20.117188 52 25.390625 52 31 C 52 36.609375 49.816406 41.882813 45.847656 45.847656 C 41.882813 49.816406 36.609375 52 31 52 C 25.390625 52 20.117188 49.816406 16.152344 45.847656 C 11.152344 40.851563 9.011719 33.605469 10.4375 26.714844 L 12.222656 27.265625 C 12.75 27.421875 13.3125 27.128906 13.472656 26.601563 C 13.636719 26.074219 13.339844 25.515625 12.8125 25.351563 L 10.003906 24.488281 C 9.742188 24.410156 9.460938 24.4375 9.222656 24.570313 C 8.984375 24.703125 8.808594 24.929688 8.742188 25.191406 C 6.695313 33.0625 8.996094 41.519531 14.738281 47.265625 C 19.082031 51.605469 24.855469 54 31 54 C 37.144531 54 42.917969 51.609375 47.265625 47.265625 C 51.609375 42.917969 54 37.144531 54 31 C 54 24.855469 51.609375 19.082031 47.265625 14.734375 C 42.917969 10.390625 37.144531 8 31 8 Z M 26.925781 10.59375 C 26.796875 10.578125 26.664063 10.582031 26.53125 10.621094 C 25.996094 10.761719 25.679688 11.3125 25.824219 11.84375 L 26.34375 13.777344 C 26.460938 14.222656 26.863281 14.519531 27.308594 14.519531 C 27.390625 14.519531 27.476563 14.507813 27.5625 14.484375 C 28.097656 14.339844 28.414063 13.792969 28.269531 13.261719 L 27.753906 11.328125 C 27.648438 10.925781 27.3125 10.648438 26.925781 10.59375 Z M 21.480469 12.738281 C 21.351563 12.757813 21.222656 12.796875 21.105469 12.867188 C 20.625 13.144531 20.460938 13.757813 20.734375 14.234375 L 21.734375 15.96875 C 21.921875 16.289063 22.257813 16.46875 22.605469 16.46875 C 22.773438 16.46875 22.945313 16.421875 23.105469 16.332031 C 23.582031 16.054688 23.746094 15.445313 23.46875 14.96875 L 22.46875 13.234375 C 22.261719 12.875 21.863281 12.691406 21.480469 12.738281 Z M 31 16 C 30.449219 16 30 16.449219 30 17 L 30 21 C 30 21.550781 30.449219 22 31 22 C 31.550781 22 32 21.550781 32 21 L 32 17 C 32 16.449219 31.550781 16 31 16 Z M 17.152344 16.152344 C 16.894531 16.152344 16.640625 16.246094 16.441406 16.441406 C 16.050781 16.835938 16.050781 17.464844 16.441406 17.859375 L 17.859375 19.269531 C 18.050781 19.464844 18.308594 19.5625 18.5625 19.5625 C 18.820313 19.5625 19.078125 19.464844 19.269531 19.269531 C 19.664063 18.878906 19.664063 18.25 19.269531 17.859375 L 17.859375 16.441406 C 17.660156 16.246094 17.40625 16.152344 17.152344 16.152344 Z M 13.859375 20.609375 C 13.46875 20.5625 13.074219 20.746094 12.867188 21.105469 C 12.589844 21.582031 12.753906 22.195313 13.234375 22.46875 L 14.96875 23.46875 C 15.125 23.5625 15.296875 23.605469 15.464844 23.605469 C 15.8125 23.605469 16.148438 23.425781 16.332031 23.105469 C 16.609375 22.625 16.445313 22.015625 15.96875 21.738281 L 14.234375 20.738281 C 14.113281 20.667969 13.988281 20.628906 13.859375 20.609375 Z M 15.859375 26.011719 C 15.476563 26.0625 15.140625 26.34375 15.03125 26.742188 C 14.890625 27.277344 15.210938 27.824219 15.742188 27.96875 L 28.023438 31.238281 C 28.148438 32.78125 29.429688 34 31 34 C 32.652344 34 34 32.652344 34 31 C 34 29.347656 32.652344 28 31 28 C 29.972656 28 29.066406 28.519531 28.527344 29.308594 L 16.257813 26.03125 C 16.125 25.996094 15.988281 25.992188 15.859375 26.011719 Z M 31.984375 30.933594 C 31.988281 30.957031 32 30.976563 32 31 C 32 31.046875 31.980469 31.082031 31.972656 31.125 C 31.984375 31.0625 31.992188 30.996094 31.984375 30.933594 Z"/></svg>